<svg id="visual" viewBox="0 0 900 600" width="900" height="600" xmlns="http://www.w3.org/2000/svg" xmlns:xlink="http://www.w3.org/1999/xlink" version="1.1"><g transform="translate(457.49555933322773 342.0142582288025)"><path d="M151 -195C185.5 -151.1 196.2 -93.8 207 -36C217.8 21.9 228.9 80.2 203.9 112.3C178.9 144.3 117.8 150.2 66.4 158.6C14.9 167 -26.9 177.9 -72.2 172.6C-117.4 167.3 -166.1 145.6 -198 106.5C-229.8 67.4 -244.9 10.8 -225.2 -29C-205.5 -68.9 -150.9 -91.9 -107.6 -134.3C-64.3 -176.6 -32.1 -238.3 13.1 -253.9C58.3 -269.5 116.6 -238.9 151 -195" fill="#ef233c"></path></g></svg>