<svg id="visual" viewBox="0 0 900 600" width="900" height="600" xmlns="http://www.w3.org/2000/svg" xmlns:xlink="http://www.w3.org/1999/xlink" version="1.1"><g transform="translate(435.6092359782533 279.91202052708445)"><path d="M155.2 -171.6C192.9 -153.2 209.7 -96.6 205.6 -47C201.5 2.5 176.5 45 147.4 75.3C118.3 105.6 84.9 123.8 42.6 156.2C0.2 188.6 -51.2 235.2 -89.7 228.8C-128.2 222.4 -153.7 163 -165 111C-176.3 59 -173.3 14.5 -175.3 -40.7C-177.2 -95.9 -184.1 -161.7 -155.7 -181.7C-127.3 -201.7 -63.6 -175.8 -2.5 -172.9C58.7 -170 117.4 -189.9 155.2 -171.6" fill="#ef233c"></path></g></svg>