<svg id="visual" viewBox="0 0 900 600" width="900" height="600" xmlns="http://www.w3.org/2000/svg" xmlns:xlink="http://www.w3.org/1999/xlink" version="1.1"><g transform="translate(448.1379258859361 268.80843799119987)"><path d="M131.9 -134.9C181.2 -115.9 238.3 -84 243.2 -44.6C248.1 -5.2 200.7 41.6 165 87.6C129.3 133.5 105.4 178.6 66.2 201.3C27 224 -27.4 224.3 -70.2 203.9C-113.1 183.6 -144.4 142.5 -178.8 96.6C-213.1 50.8 -250.3 0 -237.1 -36C-223.9 -72.1 -160.1 -93.5 -112.2 -112.7C-64.3 -131.9 -32.1 -149 4.6 -154.5C41.4 -159.9 82.7 -153.9 131.9 -134.9" fill="#ef233c"></path></g></svg>