<svg version="1.2" xmlns="http://www.w3.org/2000/svg" viewBox="0 0 960 225" width="960" height="225">
	<title>clouds-up-svg</title>
	<style>
		.s0 { fill: #8d99ae } 
		.s1 { fill: #727c92 } 
		.s2 { fill: #596076 } 
		.s3 { fill: #41465b } 
		.s4 { fill: #2b2d42 } 
	</style>
	<path id="Layer" class="s0" d="m0 38l22.8 2.5c22.9 2.5 68.5 7.5 114.2 7.5 45.7 0 91.3-5 137 0.2 45.7 5.1 91.3 20.5 137.2 17.3 45.8-3.2 91.8-24.8 137.6-33 45.9-8.2 91.5-2.8 137.2 0.2 45.7 3 91.3 3.6 137 5 45.7 1.3 91.3 3.3 114.2 4.3l22.8 1v182h-22.8c-22.9 0-68.5 0-114.2 0-45.7 0-91.3 0-137 0-45.7 0-91.3 0-137.2 0-45.8 0-91.8 0-137.6 0-45.9 0-91.5 0-137.2 0-45.7 0-91.3 0-137 0-45.7 0-91.3 0-114.2 0h-22.8z"/>
	<path id="Layer" class="s1" d="m0 80l22.8-1.7c22.9-1.6 68.5-5 114.2-1.1 45.7 3.8 91.3 14.8 137 19.1 45.7 4.4 91.3 2 137.2-3.6 45.8-5.7 91.8-14.7 137.6-23.7 45.9-9 91.5-18 137.2-12.5 45.7 5.5 91.3 25.5 137 26 45.7 0.5 91.3-18.5 114.2-28l22.8-9.5v180h-22.8c-22.9 0-68.5 0-114.2 0-45.7 0-91.3 0-137 0-45.7 0-91.3 0-137.2 0-45.8 0-91.8 0-137.6 0-45.9 0-91.5 0-137.2 0-45.7 0-91.3 0-137 0-45.7 0-91.3 0-114.2 0h-22.8z"/>
	<path id="Layer" class="s2" d="m0 137l22.8-1.2c22.9-1.1 68.5-3.5 114.2-11.1 45.7-7.7 91.3-20.7 137-28.4 45.7-7.6 91.3-10 137.2-3.8 45.8 6.2 91.8 20.8 137.6 24.7 45.9 3.8 91.5-3.2 137.2-2.2 45.7 1 91.3 10 137 12.3 45.7 2.4 91.3-2 114.2-4.1l22.8-2.2v104h-22.8c-22.9 0-68.5 0-114.2 0-45.7 0-91.3 0-137 0-45.7 0-91.3 0-137.2 0-45.8 0-91.8 0-137.6 0-45.9 0-91.5 0-137.2 0-45.7 0-91.3 0-137 0-45.7 0-91.3 0-114.2 0h-22.8z"/>
	<path id="Layer" class="s3" d="m0 141l22.8 0.5c22.9 0.5 68.5 1.5 114.2 0.8 45.7-0.6 91.3-3 137-5.3 45.7-2.3 91.3-4.7 137.2-7.7 45.8-3 91.8-6.6 137.6-1 45.9 5.7 91.5 20.7 137.2 21.7 45.7 1 91.3-12 137-13.3 45.7-1.4 91.3 9 114.2 14.1l22.8 5.2v69h-22.8c-22.9 0-68.5 0-114.2 0-45.7 0-91.3 0-137 0-45.7 0-91.3 0-137.2 0-45.8 0-91.8 0-137.6 0-45.9 0-91.5 0-137.2 0-45.7 0-91.3 0-137 0-45.7 0-91.3 0-114.2 0h-22.8z"/>
	<path id="Layer" class="s4" d="m0 190l22.8-0.8c22.9-0.9 68.5-2.5 114.2-2.2 45.7 0.3 91.3 2.7 137-0.8 45.7-3.5 91.3-12.9 137.2-17.4 45.8-4.5 91.8-4.1 137.6-5.5 45.9-1.3 91.5-4.3 137.2-1.8 45.7 2.5 91.3 10.5 137 11.2 45.7 0.6 91.3-6 114.2-9.4l22.8-3.3v65h-22.8c-22.9 0-68.5 0-114.2 0-45.7 0-91.3 0-137 0-45.7 0-91.3 0-137.2 0-45.8 0-91.8 0-137.6 0-45.9 0-91.5 0-137.2 0-45.7 0-91.3 0-137 0-45.7 0-91.3 0-114.2 0h-22.8z"/>
</svg>