<svg version="1.2" xmlns="http://www.w3.org/2000/svg" viewBox="0 0 960 225" width="960" height="225">
	<title>clouds-down-svg</title>
	<style>
		.s0 { fill: #8d99ae } 
		.s1 { fill: #788297 } 
		.s2 { fill: #636b81 } 
		.s3 { fill: #4f556b } 
		.s4 { fill: #3d4156 } 
		.s5 { fill: #2b2d42 } 
	</style>
	<path id="Layer" class="s0" d="m0 204l17.8 2.7c17.9 2.6 53.5 8 89-0.7 35.5-8.7 70.9-31.3 106.4-42.2 35.5-10.8 71.1-9.8 106.8-2.1 35.7 7.6 71.3 22 106.8 23.1 35.5 1.2 70.9-10.8 106.4-17.1 35.5-6.4 71.1-7 106.8-10.2 35.7-3.2 71.3-8.8 106.8-11.3 35.5-2.5 70.9-1.9 106.4-2.2 35.5-0.3 71.1-1.7 89-2.3l17.8-0.7v-141h-17.8c-17.9 0-53.5 0-89 0-35.5 0-70.9 0-106.4 0q-53.3 0-106.8 0-53.5 0-106.8 0c-35.5 0-70.9 0-106.4 0q-53.2 0-106.8 0-53.6 0-106.8 0c-35.5 0-70.9 0-106.4 0-35.5 0-71.1 0-89 0h-17.8z"/>
	<path id="Layer" class="s1" d="m0 118l17.8 9.2c17.9 9.1 53.5 27.5 89 35.1 35.5 7.7 70.9 4.7 106.4 6.5 35.5 1.9 71.1 8.5 106.8 10.2 35.7 1.7 71.3-1.7 106.8-3 35.5-1.3 70.9-0.7 106.4-3.8 35.5-3.2 71.1-10.2 106.8-20 35.7-9.9 71.3-22.5 106.8-23.4 35.5-0.8 70.9 10.2 106.4 21.2 35.5 11 71.1 22 89 27.5l17.8 5.5v-183h-17.8c-17.9 0-53.5 0-89 0-35.5 0-70.9 0-106.4 0q-53.3 0-106.8 0-53.5 0-106.8 0c-35.5 0-70.9 0-106.4 0q-53.2 0-106.8 0-53.6 0-106.8 0c-35.5 0-70.9 0-106.4 0-35.5 0-71.1 0-89 0h-17.8z"/>
	<path id="Layer" class="s2" d="m0 134l17.8 0.2c17.9 0.1 53.5 0.5 89 4.1 35.5 3.7 70.9 10.7 106.4 11.7 35.5 1 71.1-4 106.8-11.8 35.7-7.9 71.3-18.5 106.8-18.4 35.5 0.2 70.9 11.2 106.4 19.2 35.5 8 71.1 13 106.8 12.7 35.7-0.4 71.3-6 106.8-12.2 35.5-6.2 70.9-12.8 106.4-19.8 35.5-7 71.1-14.4 89-18l17.8-3.7v-98h-17.8c-17.9 0-53.5 0-89 0-35.5 0-70.9 0-106.4 0q-53.3 0-106.8 0-53.5 0-106.8 0c-35.5 0-70.9 0-106.4 0q-53.2 0-106.8 0-53.6 0-106.8 0c-35.5 0-70.9 0-106.4 0-35.5 0-71.1 0-89 0h-17.8z"/>
	<path id="Layer" class="s3" d="m0 94l17.8-0.3c17.9-0.4 53.5-1 89-1 35.5 0 70.9 0.6 106.4 1 35.5 0.3 71.1 0.3 106.8 4 35.7 3.6 71.3 11 106.8 13 35.5 2 70.9-1.4 106.4-9.5 35.5-8.2 71.1-21.2 106.8-18.7 35.7 2.5 71.3 20.5 106.8 27 35.5 6.5 70.9 1.5 106.4-6.8 35.5-8.4 71.1-20 89-25.9l17.8-5.8v-71h-17.8c-17.9 0-53.5 0-89 0-35.5 0-70.9 0-106.4 0q-53.3 0-106.8 0-53.5 0-106.8 0c-35.5 0-70.9 0-106.4 0q-53.2 0-106.8 0-53.6 0-106.8 0c-35.5 0-70.9 0-106.4 0-35.5 0-71.1 0-89 0h-17.8z"/>
	<path id="Layer" class="s4" d="m0 70l17.8-4.5c17.9-4.5 53.5-13.5 89-11.8 35.5 1.6 70.9 14 106.4 16.6 35.5 2.7 71.1-4.3 106.8-2.6 35.7 1.6 71.3 12 106.8 9.8 35.5-2.2 70.9-16.8 106.4-20.2 35.5-3.3 71.1 4.7 106.8 12 35.7 7.4 71.3 14 106.8 9.5 35.5-4.5 70.9-20.1 106.4-23.6 35.5-3.5 71.1 5.1 89 9.5l17.8 4.3v-69h-17.8c-17.9 0-53.5 0-89 0-35.5 0-70.9 0-106.4 0q-53.3 0-106.8 0-53.5 0-106.8 0c-35.5 0-70.9 0-106.4 0q-53.2 0-106.8 0-53.6 0-106.8 0c-35.5 0-70.9 0-106.4 0-35.5 0-71.1 0-89 0h-17.8z"/>
	<path id="Layer" class="s5" d="m0 51l17.8-0.8c17.9-0.9 53.5-2.5 89-2.5 35.5 0 70.9 1.6 106.4-1 35.5-2.7 71.1-9.7 106.8-12.4 35.7-2.6 71.3-1 106.8 1.7 35.5 2.7 70.9 6.3 106.4 7.5 35.5 1.2 71.1-0.2 106.8 0.8 35.7 1 71.3 4.4 106.8 5 35.5 0.7 70.9-1.3 106.4-2.6 35.5-1.4 71.1-2 89-2.4l17.8-0.3v-44h-17.8c-17.9 0-53.5 0-89 0-35.5 0-70.9 0-106.4 0q-53.3 0-106.8 0-53.5 0-106.8 0c-35.5 0-70.9 0-106.4 0q-53.2 0-106.8 0-53.6 0-106.8 0c-35.5 0-70.9 0-106.4 0-35.5 0-71.1 0-89 0h-17.8z"/>
</svg>