<svg version="1.2" xmlns="http://www.w3.org/2000/svg" viewBox="0 0 48 48" width="48" height="48">
	<title>dark-mode-svg</title>
	<style>
		.s0 { fill: none } 
		.s1 { fill: #f5f1ff } 
	</style>
	<g id="Layer_2">
		<g id="Icons">
			<g id="Layer">
				<path id="Layer" class="s0" d="m0 0h48v48h-48z"/>
				<g id="Layer">
					<path id="Layer" class="s1" d="m14.8 20.2c0.5-1.2 1.2-2.3 2.1-3.3 1-0.9 2.1-1.6 3.3-2.1 1.2-0.5 2.5-0.8 3.8-0.8v20c-1.3 0-2.6-0.3-3.8-0.8-1.2-0.5-2.3-1.2-3.3-2.1-0.9-1-1.6-2.1-2.1-3.3-0.5-1.2-0.8-2.5-0.8-3.8 0-1.3 0.3-2.6 0.8-3.8z"/>
					<path id="Layer" fill-rule="evenodd" class="s1" d="m32.4 3.6c2.7 1.1 5.1 2.8 7.2 4.8 2 2.1 3.7 4.5 4.8 7.2 1.1 2.6 1.6 5.5 1.6 8.4 0 8.9-5.4 16.9-13.6 20.3-8.2 3.4-17.7 1.5-24-4.7-6.2-6.3-8.1-15.8-4.7-24 3.4-8.2 11.4-13.6 20.3-13.6 2.9 0 5.8 0.5 8.4 1.6zm-25 27.3c0.9 2.2 2.2 4.1 3.9 5.8 1.7 1.7 3.6 3 5.8 3.9 2.2 0.9 4.5 1.4 6.9 1.4v-8c2.7 0 5.2-1.1 7.1-2.9 1.8-1.9 2.9-4.4 2.9-7.1 0-2.7-1.1-5.2-2.9-7.1-1.9-1.8-4.4-2.9-7.1-2.9v-8c-2.4 0-4.7 0.5-6.9 1.4-2.2 0.9-4.1 2.2-5.8 3.9-1.7 1.7-3 3.6-3.9 5.8-0.9 2.2-1.4 4.5-1.4 6.9 0 2.4 0.5 4.7 1.4 6.9z"/>
				</g>
			</g>
		</g>
	</g>
</svg>