<svg version="1.2" xmlns="http://www.w3.org/2000/svg" viewBox="0 0 300 300" width="300" height="300">
	<title>icon__secondary-svg</title>
	<style>
		.s0 { fill: #ffffff } 
		.s1 { fill: #231f20 } 
		.s2 { fill: #d90429 } 
		.s3 { fill: #d1d3d4 } 
	</style>
	<g id="_574_ranking_flatline">
		<path id="Layer" class="s0" d="m75.5 210.5c0 0 7.5-11.1 9.4-22.3 0 0-15.5 3.1-16.2 16.4-0.9 16.5 6.8 5.9 6.8 5.9z"/>
		<path id="Layer" fill-rule="evenodd" class="s1" d="m71.1 214.4q-0.1 0-0.2 0-0.1 0-0.2-0.1-0.1 0-0.2 0-0.1 0-0.1-0.1c-1.8-0.6-2.6-3.8-2.2-9.6 0.7-13.5 16.5-16.8 16.6-16.9q0.1 0 0.2 0 0 0 0.1 0 0 0.1 0.1 0.1 0 0 0.1 0.1 0 0 0.1 0.1 0 0 0 0.1 0 0 0 0.1 0 0 0 0.1c-1.9 11.2-9.4 22.4-9.5 22.5-0.3 0.4-2.7 3.6-4.8 3.6zm13.2-25.5c-3 0.8-14.5 4.6-15.1 15.8-0.4 6.9 0.8 8.3 1.5 8.6 1.4 0.5 3.7-2.1 4.4-3 0.2-0.4 7.2-10.8 9.2-21.4z"/>
		<path id="Layer" class="s0" d="m69.1 211.1q1.2-2 2.2-4.1 0.9-2.2 1.5-4.5 0.7-2.2 1-4.6 0.3-2.3 0.3-4.7 0-2.3-0.3-4.6-0.3-2.3-0.9-4.5-0.7-2.2-1.6-4.4-1-2.1-2.2-4.1-1.9 2.2-3.5 4.6-1.6 2.4-2.8 4.9-1.3 2.6-2.2 5.3-1 2.7-1.5 5.5c-2.3 12 2.3 20.9 6.2 18z"/>
		<path id="Layer" fill-rule="evenodd" class="s1" d="m63.8 215q-0.2 0-0.4-0.1-0.2 0-0.4-0.1-0.3 0-0.4-0.1-0.2-0.1-0.4-0.2c-3.1-2-5.3-9.5-3.6-18.7q0.5-2.8 1.5-5.6 0.9-2.7 2.2-5.3 1.3-2.6 2.9-5 1.6-2.4 3.5-4.6 0.1 0 0.1-0.1 0.1 0 0.1 0 0.1 0 0.1-0.1 0.1 0 0.1 0 0.1 0 0.1 0.1 0.1 0 0.1 0 0.1 0 0.1 0.1 0.1 0 0.1 0 1.3 2 2.2 4.2 1 2.2 1.7 4.4 0.6 2.3 0.9 4.6 0.4 2.4 0.3 4.7 0 2.4-0.3 4.8-0.3 2.4-1 4.7-0.6 2.3-1.6 4.5-0.9 2.2-2.2 4.2 0 0 0 0.1 0 0 0 0 0 0-0.1 0 0 0 0 0l-3.8 2.9q-0.2 0.1-0.4 0.2-0.2 0.1-0.5 0.2-0.2 0.1-0.4 0.1-0.3 0.1-0.5 0.1zm5.2-38.5q-1.7 2.1-3.2 4.4-1.5 2.3-2.7 4.7-1.2 2.5-2.1 5.1-0.9 2.6-1.5 5.3c-1.6 8.7 0.4 15.9 3.2 17.6q0.3 0.2 0.6 0.3 0.3 0.1 0.6 0.1 0.3 0 0.6-0.1 0.2-0.1 0.5-0.3l3.7-2.8q1.2-2 2.1-4.1 0.9-2.1 1.6-4.3 0.6-2.3 0.9-4.6 0.3-2.2 0.3-4.6 0-2.2-0.3-4.3-0.3-2.2-0.8-4.3-0.6-2.2-1.5-4.2-0.8-2-2-3.9z"/>
		<path id="Layer" class="s0" d="m62.9 214c0 0 2.2-14.7-2.3-22-4.4-7.4-12.4-10.7-12.4-10.7 0 0-4.7 10.9 0 19.2 4.7 8.3 14.7 13.5 14.7 13.5z"/>
		<path id="Layer" fill-rule="evenodd" class="s1" d="m62.9 214.5q-0.1 0-0.1 0 0 0-0.1-0.1 0 0 0 0 0 0-0.1 0c-0.4-0.2-10.1-5.3-14.8-13.7-4.8-8.3-0.2-19.2 0-19.6q0-0.1 0.1-0.2 0.1-0.1 0.2-0.1 0 0 0.1 0 0.1 0 0.2 0c0.4 0.1 8.2 3.4 12.7 10.9 4.5 7.4 2.4 21.7 2.3 22.3q0 0.1-0.1 0.1 0 0.1 0 0.1 0 0.1-0.1 0.1 0 0.1-0.1 0.1 0 0 0 0-0.1 0-0.1 0 0 0.1-0.1 0.1 0 0 0 0zm-14.4-32.6c-0.8 2.2-3.9 11.3 0.2 18.3 4 7.1 11.5 11.7 13.8 13 0.3-3 1.5-14.8-2.3-21-3.7-6.3-10-9.5-11.7-10.3z"/>
		<path id="Layer" class="s0" d="m144.6 228.2v-170.7h-46.5l-55.6 31.1v42.7l52.2-27.3v124.2h-52.2v38.1h152v-38.1h-49.9z"/>
		<path id="Layer" fill-rule="evenodd" class="s1" d="m194.5 266.8h-152q-0.1 0-0.2 0-0.1-0.1-0.2-0.1 0-0.1-0.1-0.2 0-0.1 0-0.2v-38.1q0-0.1 0-0.2 0.1-0.1 0.1-0.1 0.1-0.1 0.2-0.1 0.1-0.1 0.2-0.1h51.7v-122.9l-51.4 26.9q-0.1 0-0.2 0 0 0.1-0.1 0.1-0.1 0-0.1-0.1-0.1 0-0.1 0-0.1 0-0.1-0.1-0.1 0-0.1-0.1 0 0-0.1-0.1 0-0.1 0-0.1v-42.7q0 0 0-0.1 0.1 0 0.1-0.1 0-0.1 0.1-0.1 0-0.1 0.1-0.1l55.6-31.2q0 0 0 0 0 0 0.1 0 0 0 0 0 0.1 0 0.1 0h46.5q0.1 0 0.2 0 0.1 0 0.2 0.1 0 0.1 0.1 0.2 0 0.1 0 0.2v170.2h49.4q0.1 0 0.2 0.1 0.1 0 0.1 0.1 0.1 0 0.2 0.1 0 0.1 0 0.2v38.1q0 0.1 0 0.2-0.1 0.1-0.2 0.2 0 0-0.1 0.1-0.1 0-0.2 0zm-151.5-1h151v-37.1h-49.4q-0.1 0-0.2 0-0.1-0.1-0.1-0.1-0.1-0.1-0.1-0.2-0.1-0.1-0.1-0.2v-170.2h-45.9l-55.2 31v41.5l51.5-27q0.1 0 0.1 0 0.1 0 0.1 0 0.1 0 0.2 0 0 0 0.1 0 0 0.1 0.1 0.1 0 0.1 0.1 0.1 0 0.1 0 0.2 0 0 0 0.1v124.2q0 0.1 0 0.2 0 0.1-0.1 0.2-0.1 0-0.2 0.1-0.1 0-0.2 0h-51.7z"/>
		<path id="Layer" class="s0" d="m194.2 209.3l4.4 46.4h13.3l-3.8-51.9-13.9 5.5z"/>
		<path id="Layer" fill-rule="evenodd" class="s1" d="m211.9 256.2h-13.3q-0.1 0-0.2 0-0.1-0.1-0.2-0.1 0-0.1-0.1-0.2 0-0.1 0-0.2l-4.4-46.4q0 0 0-0.1 0.1-0.1 0.1-0.2 0 0 0.1-0.1 0.1 0 0.1-0.1l13.9-5.5q0 0 0.1 0 0 0 0.1 0 0.1 0 0.1 0 0.1 0 0.1 0 0.1 0.1 0.1 0.1 0.1 0.1 0.1 0.1 0 0.1 0 0.1 0.1 0.1 0.1 0.1l3.8 51.9q0 0.1 0 0.2 0 0.1-0.1 0.2-0.1 0.1-0.2 0.1-0.1 0.1-0.2 0.1zm-12.9-1h12.4l-3.8-50.7-12.8 5.1z"/>
		<path id="Layer" class="s0" d="m241.9 88.8l3.2-6.9c0 0-2.6-3.3-1.6-5.2 1-1.8 2.1-5 3.5-5.1q0.3 0 0.7 0 0.3-0.1 0.6-0.1 0.3 0 0.6 0 0.3 0 0.7 0c0.2 0 3.5-9.8 4.2-10.1q0.3-0.1 0.7 0 0.4 0.1 0.7 0.4 0.2 0.3 0.3 0.7 0.1 0.3 0 0.7c-0.5 1.5-2.2 8.4-2.2 8.4 0 0 4.5 2 3.9 5.1-0.6 3.2-3.3 6.2-4.5 8.5-1.3 2.4-4.6 10.9-4.6 10.9z"/>
		<path id="Layer" fill-rule="evenodd" class="s1" d="m248.1 96.6q-0.1 0.1-0.1 0-0.1 0-0.1 0-0.1 0-0.1 0-0.1-0.1-0.1-0.1l-6.3-7.3q0-0.1 0-0.2-0.1 0-0.1-0.1 0-0.1 0-0.1 0-0.1 0.1-0.2l3.1-6.6c-0.6-0.9-2.5-3.7-1.5-5.5 0.3-0.4 0.5-1 0.8-1.5 0.9-1.8 1.8-3.8 3.1-3.9 1-0.1 1.8-0.1 2.3-0.1 3.5-9.7 4.1-10 4.3-10q0.2-0.1 0.5-0.1 0.3 0 0.5 0 0.3 0.1 0.5 0.2 0.2 0.1 0.4 0.3 0.2 0.2 0.4 0.4 0.1 0.3 0.2 0.5 0 0.3 0 0.6 0 0.3-0.1 0.5c-0.4 1.3-1.7 6.5-2.1 8 1.2 0.6 4.4 2.5 3.8 5.5q-0.2 0.9-0.5 1.7-0.3 0.8-0.7 1.6-0.4 0.8-0.9 1.6-0.5 0.7-1 1.4c-0.5 0.9-1.1 1.6-1.5 2.4-1.2 2.2-4.4 10.7-4.5 10.8q0 0.1 0 0.1-0.1 0.1-0.1 0.1-0.1 0.1-0.1 0.1-0.1 0-0.1 0zm-5.7-7.9l5.5 6.5c0.8-2.2 3.2-8.3 4.2-10.2q0.2-0.3 0.4-0.6 0.2-0.3 0.4-0.7 0.2-0.3 0.3-0.6 0.2-0.3 0.5-0.6c1.2-1.8 2.5-3.8 3-5.9 0.5-2.7-3.6-4.6-3.7-4.6q-0.1 0-0.1-0.1-0.1 0-0.1-0.1-0.1-0.1-0.1-0.2 0-0.1 0-0.2c0.1-0.2 1.8-6.9 2.2-8.4q0.1-0.1 0.1-0.2 0-0.2 0-0.3 0-0.1-0.1-0.3 0-0.1-0.1-0.2-0.1 0-0.2-0.1-0.1 0-0.2-0.1-0.1 0-0.2 0-0.1 0-0.2 0-0.6 1.2-1.2 2.4-0.5 1.2-1 2.4-0.5 1.2-1 2.5-0.4 1.2-0.8 2.5-0.1 0.1-0.1 0.1-0.1 0.1-0.1 0.1-0.1 0.1-0.2 0.1-0.1 0-0.1 0-0.3 0-0.7 0-0.3 0-0.6 0-0.3 0-0.6 0.1-0.3 0-0.6 0c-0.8 0.1-1.7 2-2.4 3.4q-0.4 0.8-0.7 1.5c-0.7 1.3 0.9 3.8 1.6 4.7q0 0 0 0.1 0.1 0 0.1 0.1 0 0.1 0 0.1-0.1 0.1-0.1 0.2z"/>
		<path id="Layer" class="s0" d="m162.1 207.1l-8 48.6h13.3c-0.3 1 12.6-48.6 12.6-48.6z"/>
		<path id="Layer" fill-rule="evenodd" class="s1" d="m167.4 256.2h-13.3q-0.1 0-0.1 0-0.1 0-0.2 0 0-0.1 0-0.1-0.1 0-0.1-0.1-0.1 0-0.1-0.1 0 0 0-0.1 0 0 0-0.1 0 0 0-0.1l8-48.6q0-0.1 0-0.2 0.1-0.1 0.1-0.1 0.1-0.1 0.2-0.1 0.1 0 0.2 0h17.9q0 0 0.1 0 0 0 0.1 0 0 0 0.1 0.1 0 0 0.1 0.1 0 0 0 0.1 0.1 0 0.1 0.1 0 0 0 0.1 0 0 0 0.1c-4.3 16.1-12.2 46.7-12.6 48.5q0 0.1 0 0.2-0.1 0.1-0.1 0.2-0.1 0-0.2 0.1-0.1 0-0.2 0zm-12.8-1h12.5c0.1-1 0.7-3 1.7-7.2 1.2-4.6 2.8-10.7 4.4-16.7l6.1-23.7h-16.8z"/>
		<path id="Layer" class="s1" d="m168 132.3c0 0-7.5 22.5-12.9 82l58.5 1.1c0 0 3.2-56.6-5.2-82.4z"/>
		<path id="Layer" fill-rule="evenodd" class="s1" d="m213.6 215.9l-58.5-1.1q0 0-0.1 0 0-0.1-0.1-0.1 0 0-0.1 0 0-0.1 0-0.1-0.1 0-0.1-0.1 0 0 0-0.1-0.1 0-0.1-0.1 0 0 0-0.1c5.4-58.8 12.9-81.8 12.9-82.1q0.1 0 0.1-0.1 0.1-0.1 0.1-0.1 0.1-0.1 0.2-0.1 0 0 0.1 0l40.4 0.7q0.1 0 0.2 0 0 0.1 0.1 0.1 0.1 0 0.1 0.1 0 0.1 0.1 0.1c8.3 25.7 5.2 82 5.2 82.6q0 0.1-0.1 0.2 0 0.1-0.1 0.2-0.1 0-0.2 0.1 0 0-0.1 0zm-57.9-2.1l57.4 1.1c0.3-5.5 2.7-57.1-5.1-81.4l-39.6-0.7c-1 3.1-7.8 26.6-12.7 81z"/>
		<path id="Layer" class="s1" d="m206.2 134.3c-2-13.6-11-55.6-11-55.6-7.6 2.3-12.6 0.5-12.6 0.5 0 0-13.7 44.1-16.1 55.1z"/>
		<path id="Layer" fill-rule="evenodd" class="s1" d="m206.2 134.8h-39.7q0 0-0.1 0 0 0-0.1-0.1 0 0-0.1 0 0-0.1 0-0.1-0.1 0-0.1-0.1 0 0-0.1-0.1 0-0.1 0-0.1 0-0.1 0.1-0.1c2.2-10.9 16-54.7 16.1-55.2q0 0 0 0 0-0.1 0.1-0.1 0-0.1 0-0.1 0.1 0 0.1-0.1 0.1 0 0.1 0 0.1 0 0.1 0 0.1 0 0.1 0 0.1 0 0.1 0c0.1 0.1 5 1.7 12.3-0.4q0.1 0 0.1 0 0.1-0.1 0.1-0.1 0.1 0 0.1 0.1 0.1 0 0.1 0 0.1 0 0.1 0 0 0.1 0.1 0.1 0 0.1 0 0.1 0 0.1 0.1 0.1c0.1 0.4 8.9 42.1 11 55.6q0 0 0 0.1 0 0-0.1 0.1 0 0 0 0.1 0 0 0 0.1-0.1 0-0.1 0.1-0.1 0-0.1 0-0.1 0.1-0.2 0.1 0 0-0.1 0zm-39-1h38.4c-2-13.1-9.7-49.6-10.7-54.4q-1.5 0.4-2.9 0.7-1.5 0.2-3 0.3-1.5 0-3-0.1-1.5-0.2-3-0.5c-1.5 4.7-13.4 42.9-15.8 54z"/>
		<path id="Layer" class="s2" d="m241.6 85.8l-11.2 18.7-17.7-21.7c-2.4-4.1-13.7-4.1-13.7-4.1 0 0-17.5-1.2-21 0 0 0-13.8 4.3-16.6 7.3-2.7 3 5 16.9 5.4 31.4 0.3 14.6-5.9 29.2-5.9 29.2l18.3 5.3c0 0 3.5-23.6 3.5-34.8 0-23.1 0-37.9 0-37.9l12.5 0.4c0 0-0.4 21.9-1 38.7-0.8 22 4 33.6 4 33.6l16.7-4.4c0 0-5.5-19.9-5.4-30.4q0-1.2 0.1-2.4 0.1-1.1 0.2-2.3 0.1-1.2 0.2-2.3 0.2-1.2 0.4-2.3c5.6 6.8 15.8 22.2 23.9 19 6.1-2.4 17.6-33.5 17.6-33.5z"/>
		<path id="Layer" class="s0" d="m182.2 36.4h-0.1c-0.4 0.3-1.7 1.9-2.1 1.9-7.3 0.2-10.3 6.6-10.1 13.1q0 2.5 0.4 5.1 0.3 2.5 1 5 0.6 2.4 1.6 4.8 0.9 2.4 2.2 4.6l0.1-2.4q0.3 1 0.8 2 0.5 1 1.1 1.9 0.6 0.9 1.4 1.7 0.7 0.8 1.6 1.5 0.1-0.6 0.3-1.2 0.2-0.6 0.5-1.2 0.3-0.5 0.6-1.1 0.4-0.5 0.8-0.9l6.6 4.7q0.2 0.1 0.3 0.2 0.1 0.1 0.3 0.2 0.1 0 0.3 0.1 0.2 0 0.3 0 0.2 0 0.3 0 0.2-0.1 0.3-0.1 0.2-0.1 0.3-0.2 0.1-0.1 0.2-0.2c2.8-2 6.6-3.2 7.6-6.4q0.1 0.5 0.3 1.1 0.1 0.6 0.3 1.2 0.2 0.5 0.4 1.1 0.2 0.5 0.5 1.1c3.8-2.3 5.1-7.1 5.8-11.5q0.3-1.3 0.5-2.6 0.2-1.3 0.3-2.6 0-1.3 0-2.6 0-1.3 0-2.6c-0.4-3.1-0.5-6.2-2-9-3.5-6.4-12.6-10.3-19.5-8.3q-0.5 0.2-0.9 0.3-0.4 0.2-0.8 0.4-0.4 0.2-0.8 0.4-0.4 0.3-0.7 0.5z"/>
		<path id="Layer" fill-rule="evenodd" class="s1" d="m190.1 77q-0.2 0-0.4-0.1-0.2 0-0.4-0.1-0.2-0.1-0.3-0.2-0.2-0.1-0.3-0.2l-6.3-4.5q-0.4 0.4-0.7 0.8-0.2 0.5-0.5 1-0.2 0.5-0.4 1-0.1 0.5-0.2 1-0.1 0.1-0.1 0.1 0 0.1-0.1 0.1 0 0.1 0 0.1-0.1 0-0.2 0.1 0 0-0.1 0 0 0-0.1 0-0.1 0-0.1 0-0.1-0.1-0.1-0.1-0.7-0.5-1.3-1.1-0.6-0.6-1.1-1.3-0.6-0.6-1-1.3-0.5-0.8-0.8-1.5v0.2q0 0.1-0.1 0.1 0 0.1 0 0.2-0.1 0-0.2 0.1 0 0-0.1 0-0.1 0.1-0.2 0-0.1 0-0.1 0-0.1 0-0.2-0.1 0 0-0.1-0.1-1.2-2.3-2.2-4.7-0.9-2.4-1.6-4.9-0.7-2.5-1-5-0.4-2.6-0.4-5.2c-0.1-6.1 2.6-13.3 10.5-13.6q0.2-0.1 0.3-0.2 0.1-0.1 0.3-0.2 0.1-0.2 0.2-0.3 0.2-0.1 0.3-0.3 0.1-0.1 0.2-0.2 0.1-0.1 0.2-0.2 0.1-0.1 0.2-0.1 0.1-0.1 0.2-0.2h0.1q0.4-0.3 0.8-0.5 0.4-0.3 0.8-0.5 0.4-0.2 0.8-0.4 0.5-0.1 0.9-0.3c7.1-2 16.5 1.9 20.1 8.5 1.4 2.6 1.6 5.4 1.9 8.1l0.1 1.1q0.1 1.3 0.1 2.6 0 1.3-0.1 2.6-0.1 1.4-0.2 2.7-0.2 1.3-0.5 2.5c-0.7 4.6-2.1 9.5-6 11.9q-0.1 0-0.2 0 0 0.1-0.1 0.1 0 0-0.1-0.1 0 0-0.1 0 0 0-0.1 0 0 0 0-0.1-0.1 0-0.1-0.1 0 0-0.1-0.1-0.1-0.3-0.3-0.7-0.2-0.4-0.3-0.8-0.2-0.4-0.3-0.8-0.1-0.4-0.2-0.9c-1.1 1.8-3 2.9-4.9 3.9-0.8 0.5-1.6 1-2.3 1.5q-0.1 0.1-0.3 0.2-0.2 0.1-0.3 0.2-0.2 0.1-0.4 0.1-0.2 0.1-0.4 0.1zm-7.8-6.3q0.1 0 0.1 0 0 0 0.1 0 0 0 0.1 0.1 0 0 0 0l6.7 4.8q0.1 0 0.2 0.1 0.1 0.1 0.2 0.1 0.1 0.1 0.2 0.1 0.1 0.1 0.3 0.1 0.1-0.1 0.2-0.1 0.1 0 0.2-0.1 0.1 0 0.2-0.1 0-0.1 0.1-0.1c0.8-0.6 1.7-1 2.5-1.6 2.2-1.2 4.3-2.5 5-4.7q0 0 0-0.1 0.1-0.1 0.2-0.1 0-0.1 0.1-0.1 0.1 0 0.2 0 0.1 0 0.1 0 0.1 0.1 0.2 0.1 0 0.1 0.1 0.1 0 0.1 0 0.2 0.1 0.5 0.3 1 0.1 0.5 0.2 1 0.2 0.4 0.4 0.9 0.1 0.5 0.3 1c3.3-2.3 4.5-6.8 5.2-10.9q0.2-1.3 0.4-2.5 0.2-1.3 0.3-2.6 0-1.3 0-2.6 0-1.3-0.1-2.6l-0.1-1c-0.2-2.7-0.5-5.4-1.8-7.8-3.4-6.2-12.2-10-18.9-8q-0.4 0.2-0.8 0.3-0.4 0.2-0.7 0.4-0.4 0.1-0.8 0.4-0.3 0.2-0.7 0.4l-0.3-0.4 0.3 0.4q-0.1 0.1-0.2 0.2-0.1 0.1-0.2 0.2-0.1 0.1-0.2 0.1 0 0.1-0.1 0.2c-1 1-1.3 1.3-1.7 1.3-7.3 0.2-9.8 6.9-9.7 12.6q0.1 2.3 0.4 4.6 0.3 2.3 0.8 4.5 0.6 2.2 1.4 4.4 0.7 2.2 1.8 4.2v-0.6q0-0.1 0-0.2 0-0.1 0.1-0.1 0.1-0.1 0.1-0.1 0.1-0.1 0.2-0.1 0.1 0 0.2 0 0.1 0 0.1 0.1 0.1 0 0.2 0.1 0 0.1 0 0.2 0.3 0.9 0.7 1.7 0.4 0.9 0.9 1.7 0.5 0.8 1.2 1.5 0.6 0.8 1.3 1.4 0.2-0.5 0.4-1 0.2-0.5 0.5-1 0.2-0.5 0.5-1 0.4-0.4 0.7-0.8 0.1-0.1 0.1-0.1 0.1 0 0.1-0.1 0.1 0 0.1 0 0.1 0 0.1 0z"/>
		<path id="Layer" class="s0" d="m198.1 58.2c0.7-4.3 7.8-5.3 7.4-0.2q0 0.6-0.2 1.3-0.1 0.6-0.4 1.2-0.2 0.6-0.6 1.2-0.3 0.5-0.8 1-0.4 0.5-1 0.8-0.6 0.3-1.2 0.5-0.7 0.1-1.3 0.1-0.7-0.1-1.3-0.3"/>
		<path id="Layer" class="s1" d="m200.3 64.5q-0.2 0.1-0.4 0-0.3 0-0.5 0-0.2-0.1-0.4-0.2-0.2 0-0.4-0.1-0.1-0.1-0.2-0.1-0.1-0.1-0.1-0.2 0-0.1 0-0.2 0-0.1 0-0.2 0.1-0.1 0.1-0.1 0.1-0.1 0.2-0.1 0.1-0.1 0.2-0.1 0.1 0 0.2 0.1 0.5 0.2 1.1 0.2 0.6 0 1.1-0.1 0.6-0.1 1.1-0.4 0.5-0.3 0.9-0.7 0.4-0.5 0.7-1 0.4-0.5 0.6-1.1 0.2-0.5 0.4-1.1 0.1-0.6 0.1-1.2c0.2-1.7-0.6-2.7-2-2.9q-0.7-0.1-1.5 0.1-0.7 0.2-1.3 0.7-0.6 0.4-1 1-0.4 0.7-0.6 1.4-0.1 0.2-0.2 0.3-0.2 0.1-0.4 0.1-0.2 0-0.3-0.2-0.1-0.2-0.1-0.4 0.2-0.9 0.7-1.7 0.5-0.8 1.3-1.3 0.8-0.6 1.7-0.8 0.9-0.3 1.8-0.2 0.7 0.1 1.3 0.4 0.6 0.4 1.1 0.9 0.4 0.6 0.5 1.3 0.2 0.7 0 1.3 0 0.7-0.1 1.4-0.2 0.7-0.5 1.3-0.2 0.7-0.6 1.3-0.4 0.5-0.8 1-0.4 0.4-0.8 0.7-0.4 0.3-0.9 0.5-0.5 0.2-1 0.3-0.5 0.1-1 0.1z"/>
		<path id="Layer" class="s0" d="m180.3 58c-0.6-4.3-7.8-5.4-7.4-0.4q0 0.7 0.1 1.3 0.1 0.7 0.4 1.3 0.2 0.6 0.5 1.1 0.4 0.6 0.8 1.1 0.4 0.5 1 0.8 0.6 0.3 1.2 0.5 0.6 0.1 1.3 0.1 0.6 0 1.3-0.3"/>
		<path id="Layer" class="s1" d="m178 64.3q-0.5 0-1-0.1-0.5-0.1-1-0.3-0.5-0.2-0.9-0.5-0.4-0.3-0.8-0.7-0.4-0.5-0.8-1.1-0.4-0.6-0.6-1.2-0.3-0.7-0.4-1.4-0.2-0.7-0.2-1.4c-0.1-2.6 1.5-3.7 3-3.8q1-0.1 1.9 0.2 0.9 0.2 1.7 0.8 0.7 0.6 1.2 1.4 0.5 0.8 0.7 1.7 0 0.2-0.1 0.4-0.1 0.2-0.4 0.2-0.2 0-0.3-0.1-0.2-0.1-0.2-0.3-0.2-0.8-0.6-1.4-0.4-0.7-1-1.1-0.6-0.5-1.3-0.7-0.7-0.2-1.5-0.1c-1.4 0.1-2.2 1.2-2.1 2.8q0 0.6 0.1 1.2 0.2 0.6 0.4 1.2 0.2 0.5 0.5 1.1 0.3 0.5 0.7 0.9 0.4 0.5 0.9 0.8 0.5 0.3 1.1 0.4 0.5 0.1 1.1 0.1 0.6 0 1.1-0.2 0.2-0.1 0.4 0 0.2 0.1 0.3 0.3 0.1 0.1 0 0.3-0.1 0.2-0.3 0.3-0.2 0.1-0.4 0.2-0.2 0-0.4 0.1-0.2 0-0.4 0-0.2 0-0.4 0z"/>
		<path id="Layer" class="s0" d="m182.7 79.2c0 0 3.9 3.7 6.7 3.6 2.7 0 5.8-3.2 5.8-3.2l-0.2-3-0.4-7-0.4-6.5-11.2-0.2-0.4 5.4-0.2 1.7z"/>
		<path id="Layer" fill-rule="evenodd" class="s1" d="m189.3 83.3c-2.9 0-6.8-3.6-7-3.7q0-0.1-0.1-0.1 0-0.1 0-0.1 0 0-0.1-0.1 0 0 0-0.1l-0.2-9.2 0.6-7.1q0-0.1 0-0.1 0.1-0.1 0.1-0.2 0.1-0.1 0.2-0.1 0.1 0 0.2 0l11.2 0.1q0.1 0 0.1 0 0.1 0.1 0.2 0.1 0.1 0.1 0.1 0.2 0 0.1 0.1 0.2l1 16.5q0 0-0.1 0.1 0 0 0 0.1 0 0 0 0.1-0.1 0-0.1 0c-0.1 0.2-3.2 3.4-6.1 3.4zm-6.2-4.3c0.8 0.6 3.9 3.3 6.2 3.3 2.2 0 4.7-2.3 5.3-2.9l-0.9-15.9-10.3-0.1-0.5 6.6z"/>
		<path id="Layer" class="s1" d="m182.4 70q0.4 0.6 0.8 1.1 0.4 0.6 0.8 1 0.5 0.5 1 0.9 0.5 0.4 1.1 0.8c2.4 1.5 6 3.3 8.9 2.8l-0.4-7q-0.8 0.1-1.6 0.2-0.8 0-1.6 0-0.9 0-1.7 0-0.8-0.1-1.6-0.2-0.7 0-1.4-0.1-0.7-0.1-1.4-0.3-0.7-0.2-1.4-0.4-0.7-0.2-1.3-0.5z"/>
		<path id="Layer" fill-rule="evenodd" class="s1" d="m194 77.2c-3.1 0-6.4-1.8-8.2-3q-0.6-0.4-1.1-0.8-0.6-0.4-1-0.9-0.5-0.5-0.9-1.1-0.5-0.5-0.8-1.1 0-0.1 0-0.1 0 0 0-0.1-0.1 0-0.1 0 0-0.1 0-0.1l0.2-1.7q0-0.1 0-0.2 0 0 0.1-0.1 0 0 0-0.1 0.1 0 0.1 0 0.1-0.1 0.1-0.1 0.1 0 0.2 0 0 0 0.1 0 0 0 0.1 0.1 0.6 0.2 1.3 0.4 0.7 0.3 1.3 0.4 0.7 0.2 1.4 0.3 0.7 0.1 1.4 0.1 0.8 0.1 1.6 0.2 0.7 0 1.5 0 0.8 0 1.6 0 0.8-0.1 1.6-0.2 0.1 0 0.1 0 0.1 0 0.1 0 0.1 0 0.1 0.1 0 0 0.1 0 0 0.1 0.1 0.1 0 0 0 0.1 0 0 0.1 0.1 0 0 0 0.1l0.4 7q0 0.1 0 0.2-0.1 0-0.1 0.1-0.1 0.1-0.2 0.1 0 0.1-0.1 0.1-0.2 0-0.3 0-0.2 0.1-0.3 0.1-0.1 0-0.3 0-0.1 0-0.2 0zm-11-7.3q0.3 0.5 0.6 1 0.4 0.5 0.8 0.9 0.5 0.5 1 0.8 0.4 0.4 1 0.7c1.4 1 5 3.1 8.1 2.9l-0.4-6q-0.7 0-1.5 0.1-0.7 0-1.5 0-0.7 0-1.5-0.1-0.7 0-1.5-0.1-0.6-0.1-1.3-0.2-0.6-0.1-1.3-0.2-0.6-0.1-1.2-0.3-0.6-0.2-1.2-0.4z"/>
		<path id="Layer" class="s0" d="m188.1 71.2h1.2c1.3 0 2.6-0.2 3.8-0.7 1.1-0.5 2.2-1.2 3.2-2.1 0.9-0.9 1.6-2 2.1-3.2 0.5-1.2 0.8-2.4 0.8-3.7 0-3.1 0.1-9.4 0.1-9.4 0 0-5.5-1.3-9-2.6-6-2.3-7.6-5.5-7.6-5.5q-0.1 0.8-0.2 1.6-0.1 0.8-0.3 1.6-0.2 0.8-0.4 1.5-0.2 0.8-0.5 1.6-0.3 0.5-0.6 1-0.3 0.6-0.7 1.1-0.3 0.5-0.7 1-0.3 0.5-0.7 1c-0.3 0.3-0.2 4.8-0.2 6.8 0 1.3 0.2 2.6 0.7 3.8 0.5 1.2 1.2 2.3 2.1 3.2 0.9 1 2 1.7 3.2 2.2 1.2 0.5 2.4 0.8 3.7 0.8z"/>
		<path id="Layer" fill-rule="evenodd" class="s1" d="m189.4 71.7h-1.3c-1.3 0-2.7-0.3-3.9-0.8-1.3-0.6-2.4-1.3-3.3-2.3-1-1-1.7-2.1-2.2-3.4-0.5-1.2-0.8-2.6-0.8-4 0-2 0.2-6.8 0.2-6.8q0-0.1 0-0.1 0-0.1 0-0.1 0.1 0 0.1-0.1 0 0 0 0 0.4-0.5 0.7-1 0.4-0.5 0.7-1 0.3-0.5 0.6-1 0.3-0.5 0.6-1 0.3-0.8 0.5-1.5 0.2-0.8 0.4-1.5 0.2-0.8 0.3-1.6 0.1-0.8 0.2-1.6 0 0 0-0.1 0-0.1 0.1-0.1 0.1-0.1 0.1-0.2 0.1 0 0.2 0 0.1 0 0.1 0 0.1 0 0.2 0 0.1 0.1 0.1 0.1 0.1 0.1 0.1 0.2c0.1 0 1.7 3.1 7.4 5.2 3.4 1.3 8.9 2.7 9 2.7q0 0 0.1 0 0.1 0.1 0.1 0.2 0.1 0 0.1 0.1 0 0.1 0 0.2l-0.1 9.3c0 1.3-0.3 2.7-0.8 3.9-0.5 1.2-1.3 2.4-2.2 3.3-1 1-2.1 1.7-3.4 2.2-1.2 0.5-2.6 0.8-3.9 0.8zm-1.3-1h1.3c1.2 0 2.4-0.2 3.5-0.7 1.2-0.5 2.2-1.1 3.1-2 0.8-0.9 1.5-1.9 2-3 0.5-1.1 0.7-2.3 0.7-3.5l0.2-9c-1.4-0.3-5.8-1.4-8.8-2.6q-1-0.3-1.9-0.8-1-0.4-1.9-1-0.9-0.6-1.7-1.3-0.8-0.7-1.5-1.5-0.1 0.7-0.2 1.3-0.2 0.7-0.3 1.3-0.2 0.7-0.4 1.3-0.2 0.6-0.4 1.3-0.3 0.5-0.6 1-0.3 0.6-0.7 1.1-0.3 0.5-0.7 1-0.3 0.5-0.7 0.9c0 0.9-0.2 5-0.2 6.7 0 1.3 0.2 2.5 0.7 3.6 0.4 1.2 1.1 2.2 2 3.1 0.8 0.9 1.8 1.6 3 2 1.1 0.5 2.3 0.8 3.5 0.8z"/>
		<path id="Layer" class="s1" d="m189 64.4q-0.3 0-0.5 0-0.2 0-0.4 0-0.2 0-0.4 0-0.2-0.1-0.4-0.1-0.1 0-0.2-0.1-0.1 0-0.2-0.1 0-0.1 0-0.2-0.1-0.1-0.1-0.2 0.1-0.1 0.1-0.1 0.1-0.1 0.1-0.2 0.1 0 0.2-0.1 0.1 0 0.2 0 0.3 0.1 0.7 0.1 0.3 0 0.6 0 0.4 0 0.7 0 0.3 0 0.7-0.1c0.2-0.6-0.5-3.6-1.6-6.7q-0.1-0.2 0-0.4 0-0.2 0.2-0.3 0.3-0.1 0.5 0 0.2 0.2 0.2 0.4c0.6 1.4 2.3 6.3 1.5 7.6q-0.1 0.1-0.1 0.1-0.1 0.1-0.2 0.2-0.1 0-0.2 0.1 0 0-0.1 0-0.2 0-0.4 0-0.1 0.1-0.3 0.1-0.2 0-0.3 0-0.2 0-0.3 0z"/>
		<path id="Layer" class="s1" d="m184.3 56.9c-0.4 0-0.7-0.8-0.7-1.7 0-0.9 0.3-1.6 0.7-1.6 0.4 0 0.7 0.7 0.7 1.6 0 0.9-0.3 1.7-0.7 1.7z"/>
		<path id="Layer" class="s1" d="m193.3 56.7c-0.4 0-0.7-0.8-0.7-1.7 0-0.9 0.3-1.7 0.7-1.7 0.3 0 0.7 0.8 0.7 1.7 0 0.9-0.4 1.7-0.7 1.7z"/>
		<path id="Layer" class="s1" d="m189 66.7q-0.4 0-0.7 0-0.9-0.1-1.7-0.4-0.8-0.3-1.6-0.7-0.8-0.5-1.5-1-0.6-0.6-1.2-1.3-0.1-0.2-0.1-0.4 0.1-0.2 0.2-0.3 0.2-0.1 0.4-0.1 0.2 0 0.3 0.2 0.5 0.6 1.1 1.1 0.6 0.5 1.3 0.9 0.7 0.4 1.4 0.7 0.7 0.2 1.5 0.3c2.2 0.2 4.5-0.8 6.8-3q0.1 0 0.2-0.1 0.1 0 0.2 0 0.1 0 0.2 0 0 0.1 0.1 0.1 0.1 0.1 0.1 0.2 0.1 0.1 0.1 0.2 0 0.1-0.1 0.2 0 0.1-0.1 0.1-3.5 3.3-6.9 3.3z"/>
		<path id="Layer" class="s0" d="m181.1 41.1c1.5 3.8 3.4 7.6 6.7 10.1q0.6 0.4 1.3 0.8 0.6 0.4 1.3 0.7 0.7 0.4 1.4 0.7 0.7 0.3 1.4 0.5c2.9 1.2 5.7 1.3 8.2 3.3q0.8 0.7 1.6 1.5 0.7 0.9 1.3 1.8 0.6 0.9 1 2 0.5 1 0.8 2 0.6-1.7 0.9-3.5 0.2-1.8 0.1-3.6-0.2-1.8-0.7-3.5-0.6-1.8-1.5-3.4c-2.3-3.9-6.1-6.6-9.9-9.1-2-1.4-4.2-2.8-6.7-2.7"/>
		<path id="Layer" class="s1" d="m206.1 65.1q-0.1 0-0.2-0.1 0 0-0.1-0.1-0.1 0-0.1-0.1-0.1 0-0.1-0.1-0.2-1.1-0.7-2.1-0.4-0.9-1-1.8-0.6-1-1.3-1.8-0.7-0.8-1.6-1.5-0.5-0.4-1.2-0.7-0.6-0.4-1.2-0.7-0.7-0.2-1.4-0.5-0.6-0.2-1.3-0.3c-1-0.3-1.9-0.5-2.9-0.9q-0.7-0.3-1.4-0.6-0.7-0.3-1.4-0.6-0.7-0.4-1.4-0.8-0.7-0.4-1.3-0.9c-3.6-2.6-5.6-6.9-6.9-10.3q0-0.1 0-0.2 0-0.1 0-0.2 0.1 0 0.1-0.1 0.1-0.1 0.2-0.1 0.1-0.1 0.2-0.1 0.1 0 0.2 0.1 0.1 0 0.1 0.1 0.1 0.1 0.1 0.2c1.3 3.2 3.2 7.3 6.6 9.8q0.6 0.5 1.3 0.9 0.6 0.3 1.3 0.7 0.6 0.3 1.3 0.6 0.7 0.3 1.4 0.6c0.9 0.3 1.9 0.6 2.7 0.8q0.8 0.2 1.5 0.4 0.8 0.2 1.5 0.6 0.6 0.3 1.3 0.7 0.7 0.3 1.3 0.8 0.7 0.6 1.4 1.3 0.6 0.7 1.2 1.5 0.5 0.7 1 1.6 0.4 0.8 0.8 1.7 0.4-1.5 0.5-3.1 0.1-1.6-0.1-3.1-0.2-1.6-0.7-3.1-0.5-1.4-1.3-2.8c-2.3-3.8-5.9-6.4-9.7-9-2.2-1.4-4.2-2.7-6.5-2.7q-0.1 0-0.2 0-0.1 0-0.2-0.1-0.1-0.1-0.1-0.2 0-0.1 0-0.2 0-0.1 0-0.1 0-0.1 0.1-0.2 0.1-0.1 0.2-0.1 0.1-0.1 0.2-0.1c2.6 0 4.8 1.3 7 2.9 3.8 2.5 7.7 5.3 10 9.3q1 1.6 1.5 3.4 0.6 1.8 0.7 3.7 0.2 1.8-0.1 3.7-0.2 1.8-0.9 3.6 0 0.1 0 0.1-0.1 0.1-0.1 0.2-0.1 0-0.2 0 0 0.1-0.1 0.1z"/>
		<path id="Layer" class="s0" d="m160.1 128.7c0 0 5.6 5.6 6.1 7.3 0.6 1.7 0.3 12.3-0.5 12.9-0.9 0.6-6.8 4.3-8.1 3-1.3-1.3-3.6-4.7-2.4-4.6q0.4 0.2 0.7 0.3 0.4 0.2 0.8 0.4 0.3 0.2 0.7 0.4 0.3 0.2 0.6 0.5 0.4-0.2 0.8-0.5 0.4-0.2 0.8-0.5 0.3-0.3 0.6-0.6 0.4-0.3 0.7-0.7c0.2-0.2-3.6-3.2-1.6-7.1l-3.2-3.8"/>
		<path id="Layer" class="s1" d="m158.4 152.6q-0.1 0-0.3 0-0.2 0-0.3-0.1-0.2 0-0.3-0.1-0.1-0.1-0.3-0.2c-0.6-0.6-3.3-3.9-2.7-5q0-0.1 0.1-0.2 0.1 0 0.2-0.1 0.1-0.1 0.2-0.1 0.1 0 0.2 0 0.4 0.1 0.8 0.3 0.4 0.1 0.7 0.3 0.4 0.2 0.7 0.4 0.4 0.2 0.7 0.5 0.3-0.2 0.5-0.3 0.3-0.2 0.6-0.4 0.2-0.2 0.5-0.4 0.2-0.3 0.5-0.5c-0.9-1-3-3.8-1.5-7.1l-3-3.5q-0.1-0.1-0.1-0.2 0-0.1 0-0.2 0-0.1 0-0.2 0.1-0.1 0.2-0.1 0-0.1 0.1-0.1 0.1-0.1 0.2 0 0.1 0 0.2 0 0.1 0.1 0.2 0.1l3.2 3.8q0 0.1 0.1 0.1 0 0.1 0 0.2 0 0.1 0 0.1 0 0.1-0.1 0.2c-1.7 3.4 1.4 6.4 1.5 6.5q0 0 0.1 0.1 0 0.1 0 0.2 0 0.1 0 0.2 0 0 0 0.1-0.3 0.4-0.7 0.7-0.3 0.4-0.7 0.7-0.4 0.3-0.8 0.6-0.4 0.2-0.8 0.4-0.1 0.1-0.2 0.1-0.1 0-0.1 0-0.1 0-0.2 0 0-0.1-0.1-0.1-0.2-0.2-0.5-0.4-0.3-0.2-0.6-0.4-0.2-0.2-0.5-0.3-0.3-0.2-0.6-0.3 0.2 0.5 0.5 1 0.3 0.5 0.6 0.9 0.3 0.5 0.6 0.9 0.4 0.4 0.8 0.8c0.6 0.7 4.8-1.3 7.4-3 0.6-0.9 0.9-10.7 0.4-12.4-0.4-1.1-3.8-4.9-6-7.1q-0.1-0.1-0.1-0.1-0.1-0.1-0.1-0.2 0-0.1 0.1-0.2 0-0.1 0.1-0.2 0.1-0.1 0.1-0.1 0.1 0 0.2 0 0.1 0 0.2 0 0.1 0 0.2 0.1c0.6 0.6 5.7 5.8 6.2 7.5 0.5 1.5 0.6 12.7-0.7 13.5-0.6 0.4-5.1 3.3-7.6 3.3z"/>
		<path id="Layer" class="s2" d="m161.4 85.9c0 0-29.7 23.2-29.6 28.4 0.1 3.7 23.7 24.4 23.7 24.4l7.6-8.6-11.7-14.3 16.6-11.3"/>
		<path id="Layer" class="s1" d="m210.3 108.3h-0.1q-0.1 0-0.2-0.1-0.1 0-0.1-0.1-0.1-0.1-0.1-0.2 0-0.1 0-0.2c0-0.1 1.5-9.7 3-14.6q0.1-0.2 0.2-0.3 0.2-0.1 0.4 0 0.2 0 0.3 0.2 0.1 0.2 0.1 0.4-0.5 1.8-0.9 3.6-0.4 1.8-0.8 3.6-0.3 1.8-0.7 3.6-0.3 1.8-0.6 3.6 0 0.1 0 0.2-0.1 0.1-0.2 0.2 0 0-0.1 0.1-0.1 0-0.2 0z"/>
		<path id="Layer" class="s1" d="m225.2 114.4q0 0 0 0-0.1 0-0.1 0 0 0 0 0-0.1 0-0.1-0.1-0.1 0-0.2-0.1 0-0.1 0-0.2-0.1-0.1-0.1-0.2 0.1-0.1 0.1-0.1l5.1-9.4q0.1-0.2 0.3-0.2 0.2-0.1 0.4 0 0.2 0.1 0.2 0.3 0.1 0.2 0 0.4l-5.1 9.3q-0.1 0.1-0.1 0.1 0 0.1-0.1 0.1-0.1 0.1-0.1 0.1-0.1 0-0.2 0z"/>
		<path id="Layer" class="s1" d="m249.5 81.9q0 0-0.1 0 0 0-0.1 0 0 0-0.1-0.1 0 0 0 0-0.1-0.1-0.1-0.2-0.1-0.1-0.1-0.2 0-0.1 0.1-0.2 0-0.1 0.1-0.1c2.1-2.3-1-5.5-1.1-5.7q-0.1 0-0.1-0.1-0.1-0.1-0.1-0.2 0-0.1 0-0.1 0.1-0.1 0.1-0.2 0.1-0.1 0.1-0.1 0.1-0.1 0.2-0.1 0.1 0 0.2 0 0.1 0 0.1 0c0.1 0.1 3.3 1.7 5.7 1.4-0.3-0.7-2.5-2.5-5-4.1q-0.2-0.1-0.3-0.3 0-0.2 0.1-0.4 0.1-0.2 0.3-0.2 0.2-0.1 0.4 0.1c2.7 1.7 5.8 4 5.5 5.2 0 0.2-0.2 0.6-0.9 0.7q-0.6 0.1-1.1 0-0.6 0-1.2-0.1-0.5-0.1-1.1-0.2-0.5-0.2-1-0.4c1 1.6 1.5 3.7-0.1 5.4q-0.1 0.1-0.1 0.1 0 0-0.1 0.1 0 0-0.1 0 0 0-0.1 0z"/>
		<path id="Layer" class="s0" d="m188.8 105q-0.1 0-0.2 0 0 0-0.1-0.1-0.1 0-0.1-0.1-0.1-0.1-0.1-0.1l-6.1-25.4q0-0.1 0-0.2 0-0.1 0-0.2 0.1-0.1 0.2-0.1 0.1-0.1 0.2-0.1 0 0 0.1 0 0.1 0 0.2 0.1 0.1 0 0.2 0.1 0 0.1 0 0.2l5.8 23.4 5.8-23q0.1-0.2 0.3-0.3 0.1-0.1 0.3-0.1 0.2 0.1 0.3 0.2 0.2 0.2 0.1 0.4l-6.3 25q-0.1 0.1-0.1 0.2-0.1 0-0.2 0.1 0 0-0.1 0-0.1 0.1-0.2 0z"/>
		<path id="Layer" class="s0" d="m188.7 122c-4.8 0-8.7-3.9-8.7-8.7 0-4.9 3.9-8.8 8.7-8.8 4.8 0 8.8 3.9 8.8 8.8-0.1 4.8-4 8.7-8.8 8.7z"/>
		<path id="Layer" fill-rule="evenodd" class="s1" d="m188.7 122.5c-3.7 0.1-7.1-2.2-8.5-5.7-1.5-3.4-0.7-7.4 2-10 2.6-2.7 6.6-3.5 10-2 3.5 1.4 5.7 4.8 5.8 8.5 0 1.2-0.3 2.4-0.8 3.5-0.4 1.2-1.1 2.2-2 3-0.8 0.9-1.8 1.6-3 2-1.1 0.5-2.3 0.7-3.5 0.7zm0-17.4c-3.3 0-6.3 2-7.6 5-1.3 3.1-0.6 6.7 1.8 9 2.3 2.4 5.9 3.1 9 1.8 3-1.3 5.1-4.3 5.1-7.6q-0.1-1.6-0.7-3.2-0.6-1.5-1.8-2.6-1.1-1.2-2.6-1.8-1.5-0.7-3.2-0.7z"/>
		<path id="Layer" class="s1" d="m198.6 255.7c0 0 0.5 10.2 0.9 10.6 0.4 0.4 6.1 0.7 6.1 0.7l1-3.7 2.6 4c0 0 24.3 2.9 23.1-0.2-1.3-3-20.4-11.4-20.4-11.4z"/>
		<path id="Layer" fill-rule="evenodd" class="s1" d="m226 269c-6.1 0-14.5-0.9-16.9-1.2q0 0-0.1 0 0 0-0.1-0.1 0 0-0.1 0 0-0.1 0-0.1l-2-3-0.7 2.5q-0.1 0.1-0.1 0.2-0.1 0-0.1 0.1-0.1 0-0.2 0.1-0.1 0-0.1 0c-5.9-0.3-6.3-0.7-6.5-0.8-0.1-0.2-0.5-0.6-1.1-10.9q0-0.1 0-0.1 0-0.1 0.1-0.1 0-0.1 0-0.1 0-0.1 0.1-0.1 0 0 0-0.1 0.1 0 0.1 0 0.1-0.1 0.1-0.1 0.1 0 0.1 0h13.4q0 0 0 0 0.1 0 0.1 0 0 0 0 0 0.1 0 0.1 0c2 0.9 19.3 8.5 20.6 11.7q0.1 0.1 0.1 0.3 0 0.1 0 0.2 0 0.1-0.1 0.3 0 0.1-0.1 0.2c-0.6 0.8-3.3 1.1-6.6 1.1zm-16.5-2.2c10.3 1.2 21.7 1.7 22.3 0.5-0.8-2.1-12.4-7.8-20-11.1h-12.7c0.2 4.3 0.6 8.9 0.8 9.7q0.7 0.1 1.3 0.2 0.7 0.1 1.4 0.2 0.7 0 1.3 0.1 0.7 0 1.4 0l0.9-3.2q0-0.1 0.1-0.2 0.1-0.1 0.3-0.2 0.1 0 0.2 0.1 0.2 0 0.3 0.2z"/>
		<path id="Layer" class="s1" d="m167.4 255.7c0 0-0.5 10.2-0.9 10.6-0.4 0.4-6.1 0.7-6.1 0.7l-1-3.7-2.6 4c0 0-24.3 2.9-23.1-0.2 1.2-3 20.4-11.4 20.4-11.4z"/>
		<path id="Layer" fill-rule="evenodd" class="s1" d="m140 269c-3.3 0-6-0.3-6.6-1.1q-0.1-0.1-0.2-0.2 0-0.1 0-0.3 0-0.1 0-0.2 0-0.2 0.1-0.3c1.2-3.1 18.6-10.8 20.6-11.7q0 0 0 0 0 0 0.1 0 0 0 0 0 0 0 0.1 0h13.3q0.1 0 0.1 0.1 0.1 0 0.1 0 0.1 0 0.1 0 0.1 0.1 0.1 0.1 0 0 0.1 0.1 0 0 0 0.1 0 0 0 0.1 0 0 0 0.1c-0.5 10.3-0.9 10.7-1.1 10.9-0.1 0.1-0.5 0.5-6.4 0.8q-0.1 0-0.2 0-0.1 0-0.1-0.1-0.1 0-0.1-0.1-0.1-0.1-0.1-0.2l-0.7-2.5-2 3q0 0 0 0.1-0.1 0-0.1 0-0.1 0.1-0.1 0.1-0.1 0-0.1 0c-2.4 0.3-10.8 1.2-16.9 1.2zm14.2-12.8c-7.6 3.3-19.2 9-20 11.1 0.6 1.2 12 0.7 22.3-0.5l2.4-3.7q0.1-0.1 0.1-0.1 0.1-0.1 0.1-0.1 0.1-0.1 0.2-0.1 0 0 0.1 0 0.1 0.1 0.2 0.1 0 0 0.1 0.1 0 0 0.1 0.1 0 0 0 0.1l0.9 3.2q0.7 0 1.4 0 0.6-0.1 1.3-0.1 0.7-0.1 1.3-0.2 0.7-0.1 1.4-0.2c0.2-0.9 0.6-5.5 0.8-9.7z"/>
		<path id="Layer" class="s2" d="m188.7 106.6l1.9 3.7 4.1 0.6-3 3 0.7 4.1-3.7-1.9-3.7 1.9 0.7-4.1-3-3 4.2-0.6 1.8-3.7z"/>
		<path id="Layer" class="s3" d="m230.4 145.2q-0.1 0-0.2-0.1-0.1 0-0.2-0.1 0 0-0.1-0.1 0-0.1 0-0.2v-4.3q0-0.1 0-0.2 0.1-0.1 0.1-0.1 0.1-0.1 0.2-0.1 0.1-0.1 0.2-0.1 0.1 0 0.1 0.1 0.1 0 0.2 0.1 0.1 0 0.1 0.1 0 0.1 0 0.2v4.3q0 0.1 0 0.2 0 0.1-0.1 0.1-0.1 0.1-0.2 0.1 0 0.1-0.1 0.1z"/>
		<path id="Layer" class="s3" d="m230.4 153q-0.1 0-0.2 0-0.1 0-0.2-0.1-0.1-0.1-0.1-0.2 0-0.1 0-0.2v-4.2q0-0.1 0-0.2 0-0.1 0.1-0.2 0.1 0 0.2-0.1 0 0 0.1 0 0.1 0 0.2 0 0.1 0.1 0.2 0.1 0 0.1 0.1 0.2 0 0.1 0 0.2v4.2q0 0.1 0 0.2 0 0.1-0.1 0.2-0.1 0.1-0.2 0.1 0 0-0.1 0z"/>
		<path id="Layer" class="s3" d="m236.4 147h-4.2q-0.2-0.1-0.4-0.2-0.1-0.1-0.1-0.3 0-0.2 0.1-0.4 0.2-0.1 0.4-0.1h4.2q0.2 0 0.4 0.1 0.1 0.2 0.1 0.4 0 0.2-0.1 0.3-0.2 0.1-0.4 0.1z"/>
		<path id="Layer" class="s3" d="m228.6 147h-4.3q-0.2-0.1-0.3-0.2-0.2-0.1-0.2-0.3 0-0.2 0.2-0.4 0.1-0.1 0.3-0.1h4.3q0.2 0 0.3 0.1 0.1 0.2 0.2 0.4-0.1 0.2-0.2 0.3-0.1 0.1-0.3 0.1z"/>
		<path id="Layer" class="s3" d="m224.3 62q-0.1 0-0.2-0.1 0 0-0.1-0.1-0.1 0-0.1-0.1 0-0.1 0-0.2v-3.5q-0.1-0.2 0.1-0.4 0.1-0.1 0.3-0.1 0.3 0 0.4 0.1 0.1 0.2 0.1 0.4v3.5q0 0.1 0 0.2-0.1 0.1-0.2 0.2 0 0-0.1 0.1-0.1 0-0.2 0z"/>
		<path id="Layer" class="s3" d="m224.3 68.3q-0.1 0-0.2 0-0.1 0-0.1-0.1-0.1-0.1-0.2-0.1 0-0.1 0-0.2v-3.5q0-0.2 0.1-0.4 0.2-0.1 0.4-0.1 0.2 0 0.3 0.1 0.2 0.2 0.2 0.4v3.5q0 0.1-0.1 0.2 0 0-0.1 0.1 0 0.1-0.1 0.1-0.1 0-0.2 0z"/>
		<path id="Layer" class="s3" d="m229.2 63.4h-3.5q-0.2 0-0.3-0.1-0.1-0.2-0.1-0.4 0-0.2 0.1-0.3 0.1-0.1 0.3-0.2h3.5q0.2 0.1 0.3 0.2 0.2 0.1 0.2 0.3 0 0.2-0.2 0.4-0.1 0.1-0.3 0.1z"/>
		<path id="Layer" class="s3" d="m222.9 63.4h-3.5q-0.2 0-0.3-0.1-0.2-0.2-0.2-0.4 0-0.2 0.2-0.3 0.1-0.1 0.3-0.2h3.5q0.2 0.1 0.3 0.2 0.1 0.1 0.1 0.3 0 0.2-0.1 0.4-0.1 0.1-0.3 0.1z"/>
		<path id="Layer" class="s3" d="m143.9 37.3q-0.1 0.1-0.2 0-0.1 0-0.2-0.1-0.1-0.1-0.1-0.1 0-0.1 0-0.2v-4.4q0-0.2 0.1-0.3 0.1-0.2 0.4-0.2 0.2 0 0.3 0.2 0.2 0.1 0.1 0.3v4.3q0 0.1 0 0.2 0 0.1-0.1 0.2-0.1 0.1-0.1 0.1-0.1 0-0.2 0z"/>
		<path id="Layer" class="s3" d="m143.9 45.2q-0.1 0-0.2 0-0.1-0.1-0.2-0.1-0.1-0.1-0.1-0.2 0-0.1 0-0.2v-4.2q0-0.3 0.1-0.4 0.1-0.2 0.4-0.2 0.2 0 0.3 0.2 0.2 0.1 0.1 0.4v4.2q0 0.1 0 0.2 0 0.1-0.1 0.2-0.1 0-0.2 0.1 0 0-0.1 0z"/>
		<path id="Layer" class="s3" d="m149.9 39.1h-4.3q-0.2 0-0.4-0.1-0.1-0.2-0.1-0.4 0-0.2 0.1-0.3 0.2-0.1 0.4-0.1l4.3-0.1q0.2 0.1 0.3 0.2 0.1 0.1 0.1 0.3 0 0.2-0.1 0.4-0.1 0.1-0.3 0.1z"/>
		<path id="Layer" class="s3" d="m142 39.1h-4.3q-0.1 0-0.3-0.1-0.1-0.2-0.1-0.4 0-0.2 0.1-0.3 0.2-0.1 0.3-0.1l4.3-0.1q0.2 0.1 0.4 0.2 0.1 0.1 0.1 0.3 0 0.2-0.1 0.4-0.2 0.1-0.4 0.1z"/>
		<path id="Layer" class="s3" d="m80.7 133q-0.1 0-0.2-0.1-0.1 0-0.2-0.1 0 0-0.1-0.1 0-0.1 0-0.2v-4.3q0-0.1 0-0.2 0.1-0.1 0.1-0.1 0.1-0.1 0.2-0.1 0.1-0.1 0.2-0.1 0.1 0 0.2 0.1 0.1 0 0.1 0.1 0.1 0 0.1 0.1 0.1 0.1 0.1 0.2v4.3q0 0.1-0.1 0.2 0 0.1-0.1 0.1-0.1 0.1-0.1 0.1-0.1 0.1-0.2 0.1z"/>
		<path id="Layer" class="s3" d="m80.7 140.8q-0.1 0-0.2 0-0.1 0-0.2-0.1 0-0.1-0.1-0.2 0 0 0-0.1v-4.3q0-0.1 0-0.2 0.1-0.1 0.1-0.2 0.1 0 0.2-0.1 0.1 0 0.2 0 0.1 0 0.2 0 0 0.1 0.1 0.1 0.1 0.1 0.1 0.2 0.1 0.1 0.1 0.2v4.3q0 0.1-0.1 0.1 0 0.1-0.1 0.2-0.1 0.1-0.1 0.1-0.1 0-0.2 0z"/>
		<path id="Layer" class="s3" d="m86.8 134.8h-4.3q-0.2-0.1-0.4-0.2-0.1-0.1-0.1-0.3 0-0.2 0.1-0.4 0.2-0.1 0.4-0.1h4.3q0.1 0 0.3 0.1 0.1 0.2 0.1 0.4 0 0.2-0.1 0.3-0.2 0.1-0.3 0.1z"/>
		<path id="Layer" class="s3" d="m78.9 134.8h-4.3q-0.2-0.1-0.4-0.2-0.1-0.1-0.1-0.3 0-0.2 0.1-0.4 0.2-0.1 0.4-0.1h4.3q0.2 0 0.3 0.1 0.1 0.2 0.1 0.4 0 0.2-0.1 0.3-0.1 0.1-0.3 0.1z"/>
		<path id="Layer" class="s3" d="m52.2 163q-0.1 0-0.2 0-0.1-0.1-0.2-0.1 0-0.1-0.1-0.2 0-0.1 0-0.2v-4.3q0-0.1 0.2-0.3 0.1-0.1 0.3-0.1 0.2 0 0.3 0.1 0.2 0.2 0.2 0.3v4.3q0 0.1 0 0.2-0.1 0.1-0.2 0.2 0 0.1-0.1 0.1-0.1 0-0.2 0z"/>
		<path id="Layer" class="s3" d="m52.2 170.9q-0.1 0-0.2-0.1-0.1 0-0.2-0.1 0 0-0.1-0.1 0-0.1 0-0.2v-4.3q0-0.2 0.2-0.3 0.1-0.2 0.3-0.2 0.2 0 0.3 0.2 0.2 0.1 0.2 0.3v4.3q0 0.1 0 0.2-0.1 0.1-0.1 0.2-0.1 0-0.2 0.1-0.1 0-0.2 0z"/>
		<path id="Layer" class="s3" d="m58.3 164.8h-4.3q-0.2 0-0.4-0.1-0.2-0.2-0.2-0.4 0-0.2 0.2-0.3 0.2-0.2 0.4-0.2h4.3q0.2 0 0.3 0.2 0.2 0.1 0.2 0.3 0 0.2-0.2 0.4-0.1 0.1-0.3 0.1z"/>
		<path id="Layer" class="s3" d="m50.4 164.8h-4.3q-0.2 0-0.4-0.1-0.1-0.2-0.1-0.4 0-0.2 0.1-0.3 0.2-0.2 0.4-0.2h4.3q0.2 0 0.4 0.2 0.1 0.1 0.1 0.3 0 0.2-0.1 0.4-0.2 0.1-0.4 0.1z"/>
		<path id="Layer" class="s1" d="m52.9 207.9h24.7l-2.5 17.3q-0.1 0.6-0.5 1.2-0.3 0.5-0.8 0.9-0.4 0.5-1 0.7-0.6 0.2-1.3 0.2h-12.5q-0.6 0-1.2-0.2-0.6-0.2-1.1-0.7-0.5-0.4-0.8-0.9-0.3-0.6-0.4-1.2z"/>
		<path id="Layer" fill-rule="evenodd" class="s1" d="m71.5 228.7h-12.5q-0.7 0-1.4-0.2-0.7-0.3-1.2-0.8-0.6-0.4-0.9-1.1-0.4-0.6-0.5-1.3l-2.5-17.3q-0.1-0.1-0.1-0.1 0-0.1 0.1-0.1 0-0.1 0-0.1 0-0.1 0.1-0.1 0-0.1 0-0.1 0.1 0 0.1-0.1 0.1 0 0.1 0 0.1 0 0.1 0h24.7q0.1 0 0.1 0 0.1 0 0.1 0 0.1 0.1 0.1 0.1 0.1 0 0.1 0.1 0 0 0.1 0.1 0 0 0 0.1 0 0 0 0.1 0 0 0 0.1l-2.5 17.3q-0.2 0.7-0.5 1.3-0.4 0.7-0.9 1.1-0.6 0.5-1.3 0.8-0.6 0.2-1.4 0.2zm-18-20.3l2.5 16.7q0.1 0.5 0.3 1 0.3 0.5 0.7 0.9 0.4 0.3 0.9 0.5 0.6 0.2 1.1 0.2h12.5q0.6 0 1.1-0.2 0.5-0.2 0.9-0.5 0.4-0.4 0.7-0.9 0.2-0.5 0.3-1l2.5-16.7z"/>
	</g>
</svg>