<svg version="1.2" xmlns="http://www.w3.org/2000/svg" width="300" height="300"><style>.s0{fill:#fff}.s1{fill:#231f20}.s2{fill:#d90429}.s3{fill:#d1d3d4}</style><g id="_574_ranking_flatline"><path id="Layer" class="s0" d="M75.5 210.5s7.5-11.1 9.4-22.3c0 0-15.5 3.1-16.2 16.4-.9 16.5 6.8 5.9 6.8 5.9z"/><path id="Layer" fill-rule="evenodd" class="s1" d="M71.1 214.4h-.2q-.1 0-.2-.1h-.2q-.1 0-.1-.1c-1.8-.6-2.6-3.8-2.2-9.6.7-13.5 16.5-16.8 16.6-16.9H85.1q0 .1.1.1l.1.1.1.1V188.3c-1.9 11.2-9.4 22.4-9.5 22.5-.3.4-2.7 3.6-4.8 3.6zm13.2-25.5c-3 .8-14.5 4.6-15.1 15.8-.4 6.9.8 8.3 1.5 8.6 1.4.5 3.7-2.1 4.4-3 .2-.4 7.2-10.8 9.2-21.4z"/><path id="Layer" class="s0" d="M69.1 211.1q1.2-2 2.2-4.1.9-2.2 1.5-4.5.7-2.2 1-4.6.3-2.3.3-4.7 0-2.3-.3-4.6t-.9-4.5q-.7-2.2-1.6-4.4-1-2.1-2.2-4.1-1.9 2.2-3.5 4.6-1.6 2.4-2.8 4.9-1.3 2.6-2.2 5.3-1 2.7-1.5 5.5c-2.3 12 2.3 20.9 6.2 18z"/><path id="Layer" fill-rule="evenodd" class="s1" d="M63.8 215q-.2 0-.4-.1-.2 0-.4-.1-.3 0-.4-.1l-.4-.2c-3.1-2-5.3-9.5-3.6-18.7q.5-2.8 1.5-5.6.9-2.7 2.2-5.3 1.3-2.6 2.9-5 1.6-2.4 3.5-4.6.1 0 .1-.1h.1q.1 0 .1-.1h.1q.1 0 .1.1h.1q.1 0 .1.1h.1q1.3 2 2.2 4.2 1 2.2 1.7 4.4.6 2.3.9 4.6.4 2.4.3 4.7 0 2.4-.3 4.8t-1 4.7q-.6 2.3-1.6 4.5-.9 2.2-2.2 4.2v.1h-.1l-3.8 2.9-.4.2q-.2.1-.5.2-.2.1-.4.1-.3.1-.5.1zm5.2-38.5q-1.7 2.1-3.2 4.4-1.5 2.3-2.7 4.7-1.2 2.5-2.1 5.1-.9 2.6-1.5 5.3c-1.6 8.7.4 15.9 3.2 17.6q.3.2.6.3.3.1.6.1t.6-.1q.2-.1.5-.3l3.7-2.8q1.2-2 2.1-4.1.9-2.1 1.6-4.3.6-2.3.9-4.6.3-2.2.3-4.6 0-2.2-.3-4.3-.3-2.2-.8-4.3-.6-2.2-1.5-4.2-.8-2-2-3.9z"/><path id="Layer" class="s0" d="M62.9 214s2.2-14.7-2.3-22c-4.4-7.4-12.4-10.7-12.4-10.7s-4.7 10.9 0 19.2c4.7 8.3 14.7 13.5 14.7 13.5z"/><path id="Layer" fill-rule="evenodd" class="s1" d="M62.9 214.5h-.1l-.1-.1h-.1c-.4-.2-10.1-5.3-14.8-13.7-4.8-8.3-.2-19.2 0-19.6q0-.1.1-.2t.2-.1H48.4c.4.1 8.2 3.4 12.7 10.9 4.5 7.4 2.4 21.7 2.3 22.3q0 .1-.1.1v.1q0 .1-.1.1 0 .1-.1.1H63q0 .1-.1.1zm-14.4-32.6c-.8 2.2-3.9 11.3.2 18.3 4 7.1 11.5 11.7 13.8 13 .3-3 1.5-14.8-2.3-21-3.7-6.3-10-9.5-11.7-10.3z"/><path id="Layer" class="s0" d="M144.6 228.2V57.5H98.1L42.5 88.6v42.7L94.7 104v124.2H42.5v38.1h152v-38.1h-49.9z"/><path id="Layer" fill-rule="evenodd" class="s1" d="M194.5 266.8H42.3q-.1-.1-.2-.1 0-.1-.1-.2V228l.1-.1q.1-.1.2-.1.1-.1.2-.1h51.7V104.8l-51.4 26.9h-.2q0 .1-.1.1t-.1-.1h-.1q-.1 0-.1-.1-.1 0-.1-.1l-.1-.1V88.5q.1 0 .1-.1t.1-.1.1-.1L97.9 57H144.8q.1 0 .2.1 0 .1.1.2V227.7h49.4q.1 0 .2.1.1 0 .1.1.1 0 .2.1V266.5l-.2.2-.1.1h-.2zm-151.5-1h151v-37.1h-49.6l-.1-.1q-.1-.1-.1-.2-.1-.1-.1-.2V58H98.2L43 89v41.5l51.5-27h.5q0 .1.1.1 0 .1.1.1v124.7q0 .1-.1.2-.1 0-.2.1H43z"/><path id="Layer" class="s0" d="m194.2 209.3 4.4 46.4h13.3l-3.8-51.9-13.9 5.5z"/><path id="Layer" fill-rule="evenodd" class="s1" d="M211.9 256.2h-13.5q-.1-.1-.2-.1 0-.1-.1-.2v-.2l-4.4-46.4v-.1q.1-.1.1-.2l.1-.1q.1 0 .1-.1l13.9-5.5h.4l.1.1.1.1v.1l.1.1 3.8 51.9v.2q0 .1-.1.2t-.2.1-.2.1zm-12.9-1h12.4l-3.8-50.7-12.8 5.1z"/><path id="Layer" class="s0" d="m241.9 88.8 3.2-6.9s-2.6-3.3-1.6-5.2c1-1.8 2.1-5 3.5-5.1h.7q.3-.1.6-.1H249.6c.2 0 3.5-9.8 4.2-10.1q.3-.1.7 0 .4.1.7.4.2.3.3.7.1.3 0 .7c-.5 1.5-2.2 8.4-2.2 8.4s4.5 2 3.9 5.1c-.6 3.2-3.3 6.2-4.5 8.5-1.3 2.4-4.6 10.9-4.6 10.9z"/><path id="Layer" fill-rule="evenodd" class="s1" d="M248.1 96.6q-.1.1-.1 0h-.2l-.1-.1-6.3-7.3V89q-.1 0-.1-.1v-.1q0-.1.1-.2l3.1-6.6c-.6-.9-2.5-3.7-1.5-5.5.3-.4.5-1 .8-1.5.9-1.8 1.8-3.8 3.1-3.9 1-.1 1.8-.1 2.3-.1 3.5-9.7 4.1-10 4.3-10q.2-.1.5-.1h.5q.3.1.5.2t.4.3l.4.4q.1.3.2.5v.6q0 .3-.1.5c-.4 1.3-1.7 6.5-2.1 8 1.2.6 4.4 2.5 3.8 5.5q-.2.9-.5 1.7-.3.8-.7 1.6-.4.8-.9 1.6l-1 1.4c-.5.9-1.1 1.6-1.5 2.4-1.2 2.2-4.4 10.7-4.5 10.8v.1l-.1.1-.1.1h-.1zm-5.7-7.9 5.5 6.5c.8-2.2 3.2-8.3 4.2-10.2l.4-.6q.2-.3.4-.7.2-.3.3-.6.2-.3.5-.6c1.2-1.8 2.5-3.8 3-5.9.5-2.7-3.6-4.6-3.7-4.6q-.1 0-.1-.1-.1 0-.1-.1-.1-.1-.1-.2v-.2c.1-.2 1.8-6.9 2.2-8.4q.1-.1.1-.2v-.3q0-.1-.1-.3 0-.1-.1-.2-.1 0-.2-.1-.1 0-.2-.1h-.4l-1.2 2.4-1 2.4q-.5 1.2-1 2.5-.4 1.2-.8 2.5l-.1.1-.1.1q-.1.1-.2.1h-1.4q-.3 0-.6.1h-.6c-.8.1-1.7 2-2.4 3.4q-.4.8-.7 1.5c-.7 1.3.9 3.8 1.6 4.7v.1q.1 0 .1.1v.1q-.1.1-.1.2z"/><path id="Layer" class="s0" d="m162.1 207.1-8 48.6h13.3c-.3 1 12.6-48.6 12.6-48.6z"/><path id="Layer" fill-rule="evenodd" class="s1" d="M167.4 256.2h-13.6v-.1q-.1 0-.1-.1-.1 0-.1-.1V255.6l8-48.6v-.2l.1-.1q.1-.1.2-.1h18.3l.1.1.1.1v.1q.1 0 .1.1v.2c-4.3 16.1-12.2 46.7-12.6 48.5v.2q-.1.1-.1.2-.1 0-.2.1h-.2zm-12.8-1h12.5c.1-1 .7-3 1.7-7.2 1.2-4.6 2.8-10.7 4.4-16.7l6.1-23.7h-16.8z"/><path id="Layer" class="s1" d="M168 132.3s-7.5 22.5-12.9 82l58.5 1.1s3.2-56.6-5.2-82.4z"/><path id="Layer" fill-rule="evenodd" class="s1" d="m213.6 215.9-58.5-1.1h-.1q0-.1-.1-.1h-.1v-.1q-.1 0-.1-.1v-.1q-.1 0-.1-.1v-.1c5.4-58.8 12.9-81.8 12.9-82.1q.1 0 .1-.1l.1-.1q.1-.1.2-.1h.1l40.4.7h.2q0 .1.1.1t.1.1.1.1c8.3 25.7 5.2 82 5.2 82.6q0 .1-.1.2 0 .1-.1.2-.1 0-.2.1h-.1zm-57.9-2.1 57.4 1.1c.3-5.5 2.7-57.1-5.1-81.4l-39.6-.7c-1 3.1-7.8 26.6-12.7 81z"/><path id="Layer" class="s1" d="M206.2 134.3c-2-13.6-11-55.6-11-55.6-7.6 2.3-12.6.5-12.6.5s-13.7 44.1-16.1 55.1z"/><path id="Layer" fill-rule="evenodd" class="s1" d="M206.2 134.8H166.4l-.1-.1h-.1v-.1q-.1 0-.1-.1l-.1-.1v-.1q0-.1.1-.1c2.2-10.9 16-54.7 16.1-55.2q0-.1.1-.1v-.1q.1 0 .1-.1h.4c.1.1 5 1.7 12.3-.4h.1l.1-.1q.1 0 .1.1h.2q0 .1.1.1v.1q0 .1.1.1c.1.4 8.9 42.1 11 55.6v.1l-.1.1v.2q-.1 0-.1.1h-.1q-.1.1-.2.1h-.1zm-39-1h38.4c-2-13.1-9.7-49.6-10.7-54.4q-1.5.4-2.9.7-1.5.2-3 .3-1.5 0-3-.1-1.5-.2-3-.5c-1.5 4.7-13.4 42.9-15.8 54z"/><path id="Layer" class="s2" d="m241.6 85.8-11.2 18.7-17.7-21.7c-2.4-4.1-13.7-4.1-13.7-4.1s-17.5-1.2-21 0c0 0-13.8 4.3-16.6 7.3-2.7 3 5 16.9 5.4 31.4.3 14.6-5.9 29.2-5.9 29.2l18.3 5.3s3.5-23.6 3.5-34.8V79.2l12.5.4s-.4 21.9-1 38.7c-.8 22 4 33.6 4 33.6l16.7-4.4s-5.5-19.9-5.4-30.4q0-1.2.1-2.4.1-1.1.2-2.3.1-1.2.2-2.3.2-1.2.4-2.3c5.6 6.8 15.8 22.2 23.9 19 6.1-2.4 17.6-33.5 17.6-33.5z"/><path id="Layer" class="s0" d="M182.2 36.4h-.1c-.4.3-1.7 1.9-2.1 1.9-7.3.2-10.3 6.6-10.1 13.1q0 2.5.4 5.1.3 2.5 1 5 .6 2.4 1.6 4.8.9 2.4 2.2 4.6l.1-2.4q.3 1 .8 2t1.1 1.9q.6.9 1.4 1.7.7.8 1.6 1.5.1-.6.3-1.2.2-.6.5-1.2.3-.5.6-1.1.4-.5.8-.9l6.6 4.7q.2.1.3.2.1.1.3.2.1 0 .3.1h.6q.2-.1.3-.1.2-.1.3-.2l.2-.2c2.8-2 6.6-3.2 7.6-6.4q.1.5.3 1.1.1.6.3 1.2.2.5.4 1.1.2.5.5 1.1c3.8-2.3 5.1-7.1 5.8-11.5q.3-1.3.5-2.6t.3-2.6v-5.2c-.4-3.1-.5-6.2-2-9-3.5-6.4-12.6-10.3-19.5-8.3q-.5.2-.9.3l-.8.4-.8.4q-.4.3-.7.5z"/><path id="Layer" fill-rule="evenodd" class="s1" d="M190.1 77q-.2 0-.4-.1-.2 0-.4-.1t-.3-.2-.3-.2l-6.3-4.5q-.4.4-.7.8-.2.5-.5 1l-.4 1-.2 1-.1.1q0 .1-.1.1v.1q-.1 0-.2.1H179.9l-.1-.1q-.7-.5-1.3-1.1-.6-.6-1.1-1.3-.6-.6-1-1.3-.5-.8-.8-1.5v.2q0 .1-.1.1v.2q-.1 0-.2.1h-.1q-.1.1-.2 0h-.1q-.1 0-.2-.1l-.1-.1q-1.2-2.3-2.2-4.7-.9-2.4-1.6-4.9-.7-2.5-1-5-.4-2.6-.4-5.2c-.1-6.1 2.6-13.3 10.5-13.6q.2-.1.3-.2.1-.1.3-.2.1-.2.2-.3.2-.1.3-.3l.2-.2.2-.2q.1-.1.2-.1l.2-.2h.1q.4-.3.8-.5.4-.3.8-.5l.8-.4q.5-.1.9-.3c7.1-2 16.5 1.9 20.1 8.5 1.4 2.6 1.6 5.4 1.9 8.1l.1 1.1q.1 1.3.1 2.6t-.1 2.6q-.1 1.4-.2 2.7-.2 1.3-.5 2.5c-.7 4.6-2.1 9.5-6 11.9h-.2q0 .1-.1.1l-.1-.1h-.2v-.1q-.1 0-.1-.1l-.1-.1q-.1-.3-.3-.7-.2-.4-.3-.8-.2-.4-.3-.8-.1-.4-.2-.9c-1.1 1.8-3 2.9-4.9 3.9-.8.5-1.6 1-2.3 1.5q-.1.1-.3.2-.2.1-.3.2-.2.1-.4.1-.2.1-.4.1zm-7.8-6.3h.2l.1.1 6.7 4.8q.1 0 .2.1t.2.1.2.1q.1.1.3.1.1-.1.2-.1t.2-.1.2-.1q0-.1.1-.1c.8-.6 1.7-1 2.5-1.6 2.2-1.2 4.3-2.5 5-4.7v-.1q.1-.1.2-.1 0-.1.1-.1H199q.1.1.2.1 0 .1.1.1v.2q.1.5.3 1l.2 1q.2.4.4.9.1.5.3 1c3.3-2.3 4.5-6.8 5.2-10.9q.2-1.3.4-2.5.2-1.3.3-2.6v-2.6q0-1.3-.1-2.6l-.1-1c-.2-2.7-.5-5.4-1.8-7.8-3.4-6.2-12.2-10-18.9-8q-.4.2-.8.3-.4.2-.7.4-.4.1-.8.4-.3.2-.7.4l-.3-.4.3.4-.2.2-.2.2q-.1.1-.2.1 0 .1-.1.2c-1 1-1.3 1.3-1.7 1.3-7.3.2-9.8 6.9-9.7 12.6q.1 2.3.4 4.6.3 2.3.8 4.5.6 2.2 1.4 4.4.7 2.2 1.8 4.2v-.8q0-.1.1-.1l.1-.1q.1-.1.2-.1h.2q.1 0 .1.1.1 0 .2.1v.2q.3.9.7 1.7.4.9.9 1.7.5.8 1.2 1.5.6.8 1.3 1.4l.4-1q.2-.5.5-1 .2-.5.5-1 .4-.4.7-.8l.1-.1q.1 0 .1-.1h.2z"/><path id="Layer" class="s0" d="M198.1 58.2c.7-4.3 7.8-5.3 7.4-.2q0 .6-.2 1.3-.1.6-.4 1.2-.2.6-.6 1.2-.3.5-.8 1-.4.5-1 .8-.6.3-1.2.5-.7.1-1.3.1-.7-.1-1.3-.3"/><path id="Layer" class="s1" d="M200.3 64.5q-.2.1-.4 0h-.5l-.4-.2q-.2 0-.4-.1-.1-.1-.2-.1-.1-.1-.1-.2v-.4l.1-.1q.1-.1.2-.1.1-.1.2-.1t.2.1q.5.2 1.1.2.6 0 1.1-.1.6-.1 1.1-.4.5-.3.9-.7.4-.5.7-1 .4-.5.6-1.1.2-.5.4-1.1.1-.6.1-1.2c.2-1.7-.6-2.7-2-2.9q-.7-.1-1.5.1-.7.2-1.3.7-.6.4-1 1-.4.7-.6 1.4-.1.2-.2.3-.2.1-.4.1t-.3-.2q-.1-.2-.1-.4.2-.9.7-1.7.5-.8 1.3-1.3.8-.6 1.7-.8.9-.3 1.8-.2.7.1 1.3.4.6.4 1.1.9.4.6.5 1.3.2.7 0 1.3 0 .7-.1 1.4-.2.7-.5 1.3-.2.7-.6 1.3l-.8 1q-.4.4-.8.7-.4.3-.9.5t-1 .3q-.5.1-1 .1z"/><path id="Layer" class="s0" d="M180.3 58c-.6-4.3-7.8-5.4-7.4-.4q0 .7.1 1.3.1.7.4 1.3.2.6.5 1.1.4.6.8 1.1.4.5 1 .8.6.3 1.2.5.6.1 1.3.1.6 0 1.3-.3"/><path id="Layer" class="s1" d="M178 64.3q-.5 0-1-.1t-1-.3q-.5-.2-.9-.5t-.8-.7q-.4-.5-.8-1.1-.4-.6-.6-1.2-.3-.7-.4-1.4-.2-.7-.2-1.4c-.1-2.6 1.5-3.7 3-3.8q1-.1 1.9.2.9.2 1.7.8.7.6 1.2 1.4.5.8.7 1.7 0 .2-.1.4t-.4.2q-.2 0-.3-.1-.2-.1-.2-.3-.2-.8-.6-1.4-.4-.7-1-1.1-.6-.5-1.3-.7-.7-.2-1.5-.1c-1.4.1-2.2 1.2-2.1 2.8q0 .6.1 1.2l.4 1.2q.2.5.5 1.1.3.5.7.9.4.5.9.8.5.3 1.1.4.5.1 1.1.1.6 0 1.1-.2.2-.1.4 0t.3.3q.1.1 0 .3-.1.2-.3.3l-.4.2q-.2 0-.4.1h-.8z"/><path id="Layer" class="s0" d="M182.7 79.2s3.9 3.7 6.7 3.6c2.7 0 5.8-3.2 5.8-3.2l-.2-3-.4-7-.4-6.5-11.2-.2-.4 5.4-.2 1.7z"/><path id="Layer" fill-rule="evenodd" class="s1" d="M189.3 83.3c-2.9 0-6.8-3.6-7-3.7q0-.1-.1-.1v-.1l-.1-.1v-.1l-.2-9.2.6-7.1v-.1q.1-.1.1-.2.1-.1.2-.1h.2l11.2.1h.1q.1.1.2.1.1.1.1.2t.1.2l1 16.5-.1.1v.2h-.1c-.1.2-3.2 3.4-6.1 3.4zm-6.2-4.3c.8.6 3.9 3.3 6.2 3.3 2.2 0 4.7-2.3 5.3-2.9l-.9-15.9-10.3-.1-.5 6.6z"/><path id="Layer" class="s1" d="M182.4 70q.4.6.8 1.1.4.6.8 1 .5.5 1 .9t1.1.8c2.4 1.5 6 3.3 8.9 2.8l-.4-7-1.6.2h-3.3l-1.6-.2q-.7 0-1.4-.1t-1.4-.3l-1.4-.4q-.7-.2-1.3-.5z"/><path id="Layer" fill-rule="evenodd" class="s1" d="M194 77.2c-3.1 0-6.4-1.8-8.2-3q-.6-.4-1.1-.8-.6-.4-1-.9-.5-.5-.9-1.1-.5-.5-.8-1.1v-.2h-.1V70l.2-1.7v-.2l.1-.1v-.1h.1l.1-.1H182.7l.1.1q.6.2 1.3.4.7.3 1.3.4.7.2 1.4.3.7.1 1.4.1l1.6.2h3.1l1.6-.2h.2q.1 0 .1.1h.1q0 .1.1.1v.1l.1.1v.1l.4 7v.2q-.1 0-.1.1-.1.1-.2.1 0 .1-.1.1h-.3q-.2.1-.3.1h-.5zm-11-7.3.6 1q.4.5.8.9.5.5 1 .8.4.4 1 .7c1.4 1 5 3.1 8.1 2.9l-.4-6q-.7 0-1.5.1h-1.5q-.7 0-1.5-.1-.7 0-1.5-.1-.6-.1-1.3-.2-.6-.1-1.3-.2-.6-.1-1.2-.3l-1.2-.4z"/><path id="Layer" class="s0" d="M188.1 71.2h1.2c1.3 0 2.6-.2 3.8-.7 1.1-.5 2.2-1.2 3.2-2.1.9-.9 1.6-2 2.1-3.2.5-1.2.8-2.4.8-3.7 0-3.1.1-9.4.1-9.4s-5.5-1.3-9-2.6c-6-2.3-7.6-5.5-7.6-5.5l-.2 1.6q-.1.8-.3 1.6-.2.8-.4 1.5-.2.8-.5 1.6l-.6 1q-.3.6-.7 1.1-.3.5-.7 1-.3.5-.7 1c-.3.3-.2 4.8-.2 6.8 0 1.3.2 2.6.7 3.8.5 1.2 1.2 2.3 2.1 3.2.9 1 2 1.7 3.2 2.2 1.2.5 2.4.8 3.7.8z"/><path id="Layer" fill-rule="evenodd" class="s1" d="M189.4 71.7h-1.3c-1.3 0-2.7-.3-3.9-.8-1.3-.6-2.4-1.3-3.3-2.3-1-1-1.7-2.1-2.2-3.4-.5-1.2-.8-2.6-.8-4 0-2 .2-6.8.2-6.8v-.2q.1 0 .1-.1.4-.5.7-1 .4-.5.7-1l.6-1 .6-1q.3-.8.5-1.5.2-.8.4-1.5.2-.8.3-1.6l.2-1.6v-.1q0-.1.1-.1.1-.1.1-.2h.5l.1.1q.1.1.1.2c.1 0 1.7 3.1 7.4 5.2 3.4 1.3 8.9 2.7 9 2.7h.1q.1.1.1.2.1 0 .1.1v.2l-.1 9.3c0 1.3-.3 2.7-.8 3.9-.5 1.2-1.3 2.4-2.2 3.3-1 1-2.1 1.7-3.4 2.2-1.2.5-2.6.8-3.9.8zm-1.3-1h1.3c1.2 0 2.4-.2 3.5-.7 1.2-.5 2.2-1.1 3.1-2 .8-.9 1.5-1.9 2-3s.7-2.3.7-3.5l.2-9c-1.4-.3-5.8-1.4-8.8-2.6q-1-.3-1.9-.8-1-.4-1.9-1-.9-.6-1.7-1.3-.8-.7-1.5-1.5-.1.7-.2 1.3-.2.7-.3 1.3-.2.7-.4 1.3-.2.6-.4 1.3l-.6 1q-.3.6-.7 1.1-.3.5-.7 1-.3.5-.7.9c0 .9-.2 5-.2 6.7 0 1.3.2 2.5.7 3.6.4 1.2 1.1 2.2 2 3.1.8.9 1.8 1.6 3 2 1.1.5 2.3.8 3.5.8z"/><path id="Layer" class="s1" d="M189 64.4h-1.3q-.2-.1-.4-.1-.1 0-.2-.1-.1 0-.2-.1v-.2q-.1-.1-.1-.2l.1-.1q.1-.1.1-.2.1 0 .2-.1h.2q.3.1.7.1H189.4q.3 0 .7-.1c.2-.6-.5-3.6-1.6-6.7q-.1-.2 0-.4 0-.2.2-.3.3-.1.5 0 .2.2.2.4c.6 1.4 2.3 6.3 1.5 7.6l-.1.1-.2.2q-.1 0-.2.1h-.5q-.1.1-.3.1h-.6zM184.3 56.9c-.4 0-.7-.8-.7-1.7 0-.9.3-1.6.7-1.6.4 0 .7.7.7 1.6 0 .9-.3 1.7-.7 1.7zM193.3 56.7c-.4 0-.7-.8-.7-1.7 0-.9.3-1.7.7-1.7.3 0 .7.8.7 1.7 0 .9-.4 1.7-.7 1.7z"/><path id="Layer" class="s1" d="M189 66.7h-.7q-.9-.1-1.7-.4-.8-.3-1.6-.7-.8-.5-1.5-1-.6-.6-1.2-1.3-.1-.2-.1-.4.1-.2.2-.3.2-.1.4-.1t.3.2q.5.6 1.1 1.1.6.5 1.3.9.7.4 1.4.7.7.2 1.5.3c2.2.2 4.5-.8 6.8-3q.1 0 .2-.1h.4q0 .1.1.1.1.1.1.2.1.1.1.2t-.1.2q0 .1-.1.1-3.5 3.3-6.9 3.3z"/><path id="Layer" class="s0" d="M181.1 41.1c1.5 3.8 3.4 7.6 6.7 10.1q.6.4 1.3.8.6.4 1.3.7.7.4 1.4.7.7.3 1.4.5c2.9 1.2 5.7 1.3 8.2 3.3q.8.7 1.6 1.5.7.9 1.3 1.8.6.9 1 2 .5 1 .8 2 .6-1.7.9-3.5.2-1.8.1-3.6-.2-1.8-.7-3.5-.6-1.8-1.5-3.4c-2.3-3.9-6.1-6.6-9.9-9.1-2-1.4-4.2-2.8-6.7-2.7"/><path id="Layer" class="s1" d="M206.1 65.1q-.1 0-.2-.1l-.1-.1q-.1 0-.1-.1-.1 0-.1-.1-.2-1.1-.7-2.1-.4-.9-1-1.8-.6-1-1.3-1.8-.7-.8-1.6-1.5-.5-.4-1.2-.7-.6-.4-1.2-.7-.7-.2-1.4-.5-.6-.2-1.3-.3c-1-.3-1.9-.5-2.9-.9l-1.4-.6-1.4-.6-1.4-.8q-.7-.4-1.3-.9c-3.6-2.6-5.6-6.9-6.9-10.3v-.4q.1 0 .1-.1.1-.1.2-.1.1-.1.2-.1t.2.1q.1 0 .1.1.1.1.1.2c1.3 3.2 3.2 7.3 6.6 9.8q.6.5 1.3.9.6.3 1.3.7.6.3 1.3.6l1.4.6c.9.3 1.9.6 2.7.8q.8.2 1.5.4.8.2 1.5.6.6.3 1.3.7.7.3 1.3.8.7.6 1.4 1.3.6.7 1.2 1.5.5.7 1 1.6.4.8.8 1.7.4-1.5.5-3.1.1-1.6-.1-3.1-.2-1.6-.7-3.1-.5-1.4-1.3-2.8c-2.3-3.8-5.9-6.4-9.7-9-2.2-1.4-4.2-2.7-6.5-2.7h-.2q-.1 0-.2-.1t-.1-.2V38.5q0-.1.1-.2t.2-.1.2-.1c2.6 0 4.8 1.3 7 2.9 3.8 2.5 7.7 5.3 10 9.3q1 1.6 1.5 3.4.6 1.8.7 3.7.2 1.8-.1 3.7-.2 1.8-.9 3.6v.1q-.1.1-.1.2h-.2q0 .1-.1.1z"/><path id="Layer" class="s0" d="M160.1 128.7s5.6 5.6 6.1 7.3c.6 1.7.3 12.3-.5 12.9-.9.6-6.8 4.3-8.1 3-1.3-1.3-3.6-4.7-2.4-4.6q.4.2.7.3l.8.4q.3.2.7.4.3.2.6.5.4-.2.8-.5.4-.2.8-.5l.6-.6q.4-.3.7-.7c.2-.2-3.6-3.2-1.6-7.1l-3.2-3.8"/><path id="Layer" class="s1" d="M158.4 152.6h-.3q-.2 0-.3-.1-.2 0-.3-.1-.1-.1-.3-.2c-.6-.6-3.3-3.9-2.7-5q0-.1.1-.2.1 0 .2-.1t.2-.1h.2q.4.1.8.3.4.1.7.3.4.2.7.4.4.2.7.5.3-.2.5-.3l.6-.4q.2-.2.5-.4.2-.3.5-.5c-.9-1-3-3.8-1.5-7.1l-3-3.5q-.1-.1-.1-.2v-.4q.1-.1.2-.1 0-.1.1-.1.1-.1.2 0h.2q.1.1.2.1l3.2 3.8q0 .1.1.1V139.6q0 .1-.1.2c-1.7 3.4 1.4 6.4 1.5 6.5l.1.1v.5q-.3.4-.7.7-.3.4-.7.7l-.8.6-.8.4q-.1.1-.2.1H157.8q0-.1-.1-.1-.2-.2-.5-.4l-.6-.4q-.2-.2-.5-.3-.3-.2-.6-.3.2.5.5 1t.6.9.6.9l.8.8c.6.7 4.8-1.3 7.4-3 .6-.9.9-10.7.4-12.4-.4-1.1-3.8-4.9-6-7.1l-.1-.1q-.1-.1-.1-.2t.1-.2.1-.2l.1-.1h.4q.1 0 .2.1c.6.6 5.7 5.8 6.2 7.5.5 1.5.6 12.7-.7 13.5-.6.4-5.1 3.3-7.6 3.3z"/><path id="Layer" class="s2" d="M161.4 85.9s-29.7 23.2-29.6 28.4c.1 3.7 23.7 24.4 23.7 24.4l7.6-8.6-11.7-14.3 16.6-11.3"/><path id="Layer" class="s1" d="M210.3 108.3h-.1q-.1 0-.2-.1-.1 0-.1-.1-.1-.1-.1-.2v-.2c0-.1 1.5-9.7 3-14.6q.1-.2.2-.3.2-.1.4 0 .2 0 .3.2.1.2.1.4-.5 1.8-.9 3.6l-.8 3.6q-.3 1.8-.7 3.6l-.6 3.6v.2l-.2.2-.1.1h-.2zM225.2 114.4h-.1q-.1 0-.1-.1-.1 0-.2-.1v-.2q-.1-.1-.1-.2l.1-.1 5.1-9.4q.1-.2.3-.2.2-.1.4 0t.2.3q.1.2 0 .4l-5.1 9.3-.1.1q0 .1-.1.1l-.1.1h-.2zM249.5 81.9h-.2l-.1-.1q-.1-.1-.1-.2-.1-.1-.1-.2t.1-.2q0-.1.1-.1c2.1-2.3-1-5.5-1.1-5.7q-.1 0-.1-.1-.1-.1-.1-.2V75q.1-.1.1-.2l.1-.1q.1-.1.2-.1H248.6c.1.1 3.3 1.7 5.7 1.4-.3-.7-2.5-2.5-5-4.1q-.2-.1-.3-.3 0-.2.1-.4t.3-.2q.2-.1.4.1c2.7 1.7 5.8 4 5.5 5.2 0 .2-.2.6-.9.7q-.6.1-1.1 0-.6 0-1.2-.1-.5-.1-1.1-.2l-1-.4c1 1.6 1.5 3.7-.1 5.4l-.1.1-.1.1h-.2z"/><path id="Layer" class="s0" d="M188.8 105h-.2l-.1-.1q-.1 0-.1-.1l-.1-.1-6.1-25.4v-.4q.1-.1.2-.1.1-.1.2-.1h.1q.1 0 .2.1.1 0 .2.1v.2l5.8 23.4 5.8-23q.1-.2.3-.3.1-.1.3-.1.2.1.3.2.2.2.1.4l-6.3 25q-.1.1-.1.2-.1 0-.2.1h-.1q-.1.1-.2 0z"/><path id="Layer" class="s0" d="M188.7 122c-4.8 0-8.7-3.9-8.7-8.7 0-4.9 3.9-8.8 8.7-8.8 4.8 0 8.8 3.9 8.8 8.8-.1 4.8-4 8.7-8.8 8.7z"/><path id="Layer" fill-rule="evenodd" class="s1" d="M188.7 122.5c-3.7.1-7.1-2.2-8.5-5.7-1.5-3.4-.7-7.4 2-10 2.6-2.7 6.6-3.5 10-2 3.5 1.4 5.7 4.8 5.8 8.5 0 1.2-.3 2.4-.8 3.5-.4 1.2-1.1 2.2-2 3-.8.9-1.8 1.6-3 2-1.1.5-2.3.7-3.5.7zm0-17.4c-3.3 0-6.3 2-7.6 5-1.3 3.1-.6 6.7 1.8 9 2.3 2.4 5.9 3.1 9 1.8 3-1.3 5.1-4.3 5.1-7.6q-.1-1.6-.7-3.2-.6-1.5-1.8-2.6-1.1-1.2-2.6-1.8-1.5-.7-3.2-.7z"/><path id="Layer" class="s1" d="M198.6 255.7s.5 10.2.9 10.6c.4.4 6.1.7 6.1.7l1-3.7 2.6 4s24.3 2.9 23.1-.2c-1.3-3-20.4-11.4-20.4-11.4z"/><path id="Layer" fill-rule="evenodd" class="s1" d="M226 269c-6.1 0-14.5-.9-16.9-1.2h-.1l-.1-.1h-.1v-.1l-2-3-.7 2.5q-.1.1-.1.2-.1 0-.1.1-.1 0-.2.1h-.1c-5.9-.3-6.3-.7-6.5-.8-.1-.2-.5-.6-1.1-10.9v-.1q0-.1.1-.1v-.1q0-.1.1-.1v-.1h.1l.1-.1h13.7c2 .9 19.3 8.5 20.6 11.7q.1.1.1.3v.2q0 .1-.1.3 0 .1-.1.2c-.6.8-3.3 1.1-6.6 1.1zm-16.5-2.2c10.3 1.2 21.7 1.7 22.3.5-.8-2.1-12.4-7.8-20-11.1h-12.7c.2 4.3.6 8.9.8 9.7q.7.1 1.3.2l1.4.2q.7 0 1.3.1h1.4l.9-3.2q0-.1.1-.2t.3-.2q.1 0 .2.1.2 0 .3.2z"/><path id="Layer" class="s1" d="M167.4 255.7s-.5 10.2-.9 10.6c-.4.4-6.1.7-6.1.7l-1-3.7-2.6 4s-24.3 2.9-23.1-.2c1.2-3 20.4-11.4 20.4-11.4z"/><path id="Layer" fill-rule="evenodd" class="s1" d="M140 269c-3.3 0-6-.3-6.6-1.1l-.2-.2v-.5q0-.2.1-.3c1.2-3.1 18.6-10.8 20.6-11.7h13.5q.1 0 .1.1h.2l.1.1.1.1V255.8c-.5 10.3-.9 10.7-1.1 10.9-.1.1-.5.5-6.4.8h-.2q-.1 0-.1-.1-.1 0-.1-.1-.1-.1-.1-.2l-.7-2.5-2 3v.1h-.1l-.1.1h-.1c-2.4.3-10.8 1.2-16.9 1.2zm14.2-12.8c-7.6 3.3-19.2 9-20 11.1.6 1.2 12 .7 22.3-.5l2.4-3.7.1-.1.1-.1q.1-.1.2-.1h.1q.1.1.2.1l.1.1.1.1v.1l.9 3.2h1.4q.6-.1 1.3-.1.7-.1 1.3-.2l1.4-.2c.2-.9.6-5.5.8-9.7z"/><path id="Layer" class="s2" d="m188.7 106.6 1.9 3.7 4.1.6-3 3 .7 4.1-3.7-1.9-3.7 1.9.7-4.1-3-3 4.2-.6 1.8-3.7z"/><path id="Layer" class="s3" d="M230.4 145.2q-.1 0-.2-.1-.1 0-.2-.1l-.1-.1v-4.7l.1-.1q.1-.1.2-.1.1-.1.2-.1t.1.1q.1 0 .2.1.1 0 .1.1v4.7q0 .1-.1.1-.1.1-.2.1 0 .1-.1.1zM230.4 153h-.2q-.1 0-.2-.1t-.1-.2V148.1q0-.1.1-.2.1 0 .2-.1H230.5q.1.1.2.1 0 .1.1.2V152.7q0 .1-.1.2t-.2.1h-.1zM236.4 147h-4.2l-.4-.2q-.1-.1-.1-.3 0-.2.1-.4.2-.1.4-.1h4.2q.2 0 .4.1.1.2.1.4t-.1.3q-.2.1-.4.1zM228.6 147h-4.3q-.2-.1-.3-.2-.2-.1-.2-.3 0-.2.2-.4.1-.1.3-.1h4.3q.2 0 .3.1l.2.4q-.1.2-.2.3-.1.1-.3.1zM224.3 62q-.1 0-.2-.1l-.1-.1q-.1 0-.1-.1V58q-.1-.2.1-.4.1-.1.3-.1.3 0 .4.1.1.2.1.4v3.7l-.2.2-.1.1h-.2zM224.3 68.3h-.2q-.1 0-.1-.1-.1-.1-.2-.1v-3.7q0-.2.1-.4.2-.1.4-.1t.3.1q.2.2.2.4v3.5q0 .1-.1.2l-.1.1q0 .1-.1.1h-.2zM229.2 63.4h-3.5q-.2 0-.3-.1-.1-.2-.1-.4t.1-.3q.1-.1.3-.2h3.5q.2.1.3.2.2.1.2.3 0 .2-.2.4-.1.1-.3.1zM222.9 63.4h-3.5q-.2 0-.3-.1-.2-.2-.2-.4t.2-.3q.1-.1.3-.2h3.5q.2.1.3.2.1.1.1.3 0 .2-.1.4-.1.1-.3.1zM143.9 37.3q-.1.1-.2 0-.1 0-.2-.1l-.1-.1V32.5q0-.2.1-.3.1-.2.4-.2.2 0 .3.2.2.1.1.3V37q0 .1-.1.2l-.1.1h-.2zM143.9 45.2h-.2q-.1-.1-.2-.1-.1-.1-.1-.2v-4.4q0-.3.1-.4.1-.2.4-.2.2 0 .3.2.2.1.1.4v4.4q0 .1-.1.2-.1 0-.2.1h-.1zM149.9 39.1h-4.3q-.2 0-.4-.1-.1-.2-.1-.4t.1-.3q.2-.1.4-.1l4.3-.1q.2.1.3.2.1.1.1.3 0 .2-.1.4-.1.1-.3.1zM142 39.1h-4.3q-.1 0-.3-.1-.1-.2-.1-.4t.1-.3q.2-.1.3-.1l4.3-.1.4.2q.1.1.1.3 0 .2-.1.4-.2.1-.4.1zM80.7 133q-.1 0-.2-.1-.1 0-.2-.1l-.1-.1V128l.1-.1q.1-.1.2-.1.1-.1.2-.1t.2.1q.1 0 .1.1.1 0 .1.1.1.1.1.2v4.3q0 .1-.1.2 0 .1-.1.1l-.1.1q-.1.1-.2.1zM80.7 140.8h-.2q-.1 0-.2-.1 0-.1-.1-.2v-4.6q.1-.1.1-.2.1 0 .2-.1h.4q0 .1.1.1.1.1.1.2.1.1.1.2v4.3q0 .1-.1.1 0 .1-.1.2l-.1.1h-.2zM86.8 134.8h-4.3l-.4-.2q-.1-.1-.1-.3 0-.2.1-.4.2-.1.4-.1h4.3q.1 0 .3.1.1.2.1.4t-.1.3q-.2.1-.3.1zM78.9 134.8h-4.3l-.4-.2q-.1-.1-.1-.3 0-.2.1-.4.2-.1.4-.1h4.3q.2 0 .3.1.1.2.1.4t-.1.3q-.1.1-.3.1zM52.2 163H52q-.1-.1-.2-.1 0-.1-.1-.2v-4.5q0-.1.2-.3.1-.1.3-.1.2 0 .3.1.2.2.2.3v4.5l-.2.2q0 .1-.1.1h-.2zM52.2 170.9q-.1 0-.2-.1-.1 0-.2-.1l-.1-.1v-4.5q0-.2.2-.3.1-.2.3-.2.2 0 .3.2.2.1.2.3v4.5q-.1.1-.1.2-.1 0-.2.1h-.2zM58.3 164.8H54q-.2 0-.4-.1-.2-.2-.2-.4t.2-.3q.2-.2.4-.2h4.3q.2 0 .3.2.2.1.2.3 0 .2-.2.4-.1.1-.3.1zM50.4 164.8h-4.3q-.2 0-.4-.1-.1-.2-.1-.4t.1-.3q.2-.2.4-.2h4.3q.2 0 .4.2.1.1.1.3 0 .2-.1.4-.2.1-.4.1z"/><path id="Layer" class="s1" d="M52.9 207.9h24.7l-2.5 17.3q-.1.6-.5 1.2-.3.5-.8.9-.4.5-1 .7-.6.2-1.3.2H59q-.6 0-1.2-.2t-1.1-.7q-.5-.4-.8-.9-.3-.6-.4-1.2z"/><path id="Layer" fill-rule="evenodd" class="s1" d="M71.5 228.7H59q-.7 0-1.4-.2-.7-.3-1.2-.8-.6-.4-.9-1.1-.4-.6-.5-1.3L52.5 208l-.1-.1q0-.1.1-.1v-.1q0-.1.1-.1v-.1q.1 0 .1-.1h25.1l.1.1q.1 0 .1.1l.1.1V208l-2.5 17.3q-.2.7-.5 1.3-.4.7-.9 1.1-.6.5-1.3.8-.6.2-1.4.2zm-18-20.3 2.5 16.7q.1.5.3 1 .3.5.7.9.4.3.9.5.6.2 1.1.2h12.5q.6 0 1.1-.2.5-.2.9-.5.4-.4.7-.9.2-.5.3-1l2.5-16.7z"/></g></svg>