<svg version="1.2" xmlns="http://www.w3.org/2000/svg" width="300" height="300"><style>.s0{fill:#fff}.s1{fill:#231f20}.s2{fill:#d90429}</style><g id="_571_lunch_break_flatline"><path id="Layer" class="s0" d="m91.8 178.8 10.2 58.8s9.5-2.7 10-2.9c.5-.1 5.7-40.7 2.7-49.2-3-8.4-15.5-15.9-17.7-16.6-2.2-.8-5.3 8.1-5.3 8.1"/><path id="Layer" class="s1" d="M102 238.1h-.2l-.1-.1-.1-.1-.1-.1v-.1l-10.2-58.8q-.1-.1 0-.2v-.1l.2-.2q.1 0 .2-.1.1 0 .2.1h.1l.2.2v.2l10.2 58.2c3.5-1 8.2-2.3 9.3-2.7.8-3.1 5.3-40.8 2.6-48.6-3-8.5-15.5-15.7-17.4-16.3-1.1-.4-3.3 3.7-4.6 7.8q-.1.2-.3.3-.2.1-.4 0t-.3-.3q-.1-.2 0-.4c.8-2.2 3.4-9.2 5.9-8.4 2.7.9 15 8.6 18 16.9 1.6 4.6.9 17.7 0 28-.6 6.7-1.2 12.2-1.6 14.9-.8 6.8-1 6.9-1.3 7-.5.2-9.1 2.6-10.1 2.9z"/><path id="Layer" class="s1" d="M102 237.6s-1.3 9.7 1 10.4c2.3.8 29.6 1.2 29-3.1-.6-4.3-20-10.2-20-10.2z"/><path id="Layer" fill-rule="evenodd" class="s1" d="M112.1 249h-2.3q-1.2 0-2.3-.1-1.2 0-2.3-.1-1.2-.2-2.3-.3c-2.5-.8-1.5-9.2-1.3-10.9v-.1l.1-.1q0-.1.1-.1 0-.1.1-.1l10-2.9H112.2c2 .6 19.6 6 20.2 10.5q.1.3 0 .5 0 .2-.1.4l-.2.4q-.2.1-.3.2c-2.5 2-12.2 2.7-19.7 2.7zm-9.7-11c-.4 3.8-.5 9.2.8 9.6 1.8.7 24.4 1 28-2 .4-.3.3-.6.3-.7-.4-3.2-14.1-8.1-19.5-9.7z"/><path id="Layer" class="s0" d="M84.7 185.2s9-.7 9.9.8c.9 1.5 22.6 51.6 22.6 51.6l11-5.6s-12.9-47.6-14.6-51.7c-1.8-4.1-12.6-11.2-19.7-12.1-7.1-1-9.2 17-9.2 17z"/><path id="Layer" fill-rule="evenodd" class="s1" d="M117.3 238.1H117l-.1-.1-.1-.1c-7.5-17.4-21.9-50.5-22.6-51.6-.5-.8-5.3-.9-9.4-.6H84.5l-.1-.1-.1-.1q0-.1-.1-.1v-.2c.1-.6 1.6-12.8 6.3-16.5q.3-.3.7-.5.5-.2.9-.3.5-.2.9-.2h1c7.3 1 18.2 8.2 20 12.4 1.8 4.3 14.1 49.8 14.7 51.8v.2q0 .1-.1.1 0 .1-.1.2l-.1.1-10.9 5.6h-.2zm-28.2-53.6c2.6 0 5.3.3 5.9 1.2.9 1.5 20.1 45.7 22.5 51.2l10.1-5.2c-1.3-4.5-12.9-47.4-14.5-51.2-1.7-3.8-12.3-10.9-19.3-11.8q-.3-.1-.7-.1-.4.1-.7.2-.4.1-.7.3-.3.1-.6.4c-3.8 3-5.4 12.6-5.8 15.1 1 0 2.4-.1 3.8-.1z"/><path id="Layer" class="s0" d="M94.6 115s3.9-2.4 4.1-3.1c.2-.7 1.9-6.5 3-6.7 1.1-.3 1.3.3.7 3.4 0 0 5.2-5.9 6.7-5.1 1.5.9 2 4.5 1.5 6-.5 1.6-9.3 9.6-11.9 12z"/><path id="Layer" fill-rule="evenodd" class="s1" d="M98.7 122.1H98.4l-.1-.1q0-.1-.1-.1l-4-6.6q-.1-.1-.1-.2v-.2q0-.1.1-.2l.1-.1 1-.6q.6-.3 1-.7.5-.4 1-.7.5-.4.9-.8c2-6.8 2.9-7 3.3-7.1q.1-.1.3-.1h.3q.2 0 .4.1l.2.2c.4.3.5 1 .4 2.1 1.9-2 4.9-4.7 6.2-3.9 1.7 1 2.4 4.9 1.7 6.7-.4 1.3-5.4 6.1-10.5 10.8L99 122l-.1.1h-.2zm-3.4-6.9v-.1zm3.5 5.7 1-1c3-2.8 9.8-9.2 10.3-10.5.5-1.5-.1-4.7-1.3-5.4-.6-.3-3.5 2-6.1 5q-.1.1-.3.1-.2.1-.3 0-.2-.1-.2-.2-.1-.2-.1-.3c.5-2.5.3-2.9.3-2.9l-.1-.1h-.2l-.1.1c-.2.1-1.1 1.6-2.5 6.3-.3.8-2.4 2.3-3.9 3.2z"/><path id="Layer" class="s2" d="m65.2 126.5 29.3-13.2 6.7 7S91 136.3 82.3 136c-8.6-.3-17.1-9.5-17.1-9.5z"/><path id="Layer" class="s1" d="M112 126.5h23.8v3.8c0 1.5-.3 3-.8 4.3-.6 1.4-1.4 2.7-2.5 3.7-1 1-2.3 1.9-3.6 2.4-1.4.6-2.9.9-4.4.9h-1.2c-1.5 0-3-.3-4.3-.9-1.4-.5-2.7-1.4-3.7-2.4s-1.9-2.3-2.4-3.7c-.6-1.3-.9-2.8-.9-4.3v-3.8z"/><path id="Layer" fill-rule="evenodd" class="s1" d="M124.5 142.1h-1.2c-1.6 0-3.1-.3-4.5-.9-1.5-.6-2.8-1.5-3.9-2.6-1-1.1-1.9-2.3-2.5-3.8-.6-1.4-.9-2.9-.9-4.5v-4l.1-.1q.1-.1.2-.1.1-.1.2-.1h23.8q.1 0 .2.1.1 0 .2.1l.1.1v4c0 1.6-.3 3.1-.9 4.5-.6 1.5-1.4 2.7-2.5 3.8-1.1 1.1-2.4 2-3.9 2.6-1.4.6-2.9.9-4.5.9zm-12-15.1v3.3c0 1.4.3 2.8.9 4.1.5 1.3 1.3 2.5 2.3 3.5 1 1 2.2 1.8 3.5 2.4 1.3.5 2.7.8 4.1.8h1.3c1.4 0 2.8-.3 4.1-.8 1.3-.6 2.5-1.4 3.5-2.4s1.8-2.2 2.3-3.5c.6-1.3.9-2.7.9-4.1V127z"/><path id="Layer" class="s0" d="M103.6 133.1c.2.2 7.9 1.4 9.2 1.1 1.3-.3 2.4-2.4 3.7-2.5 1.3-.2 7.2-.2 9 1.2 1.8 1.5 3.4 9 2.3 9.5-1 .6-12.5-.4-14.6-.5-2.1-.1-12-.1-12-.1z"/><path id="Layer" fill-rule="evenodd" class="s1" d="M125.9 143.1c-2 0-5.4-.2-10-.5-1.2-.1-2.2-.2-2.7-.2-2-.1-11.9-.1-12-.1q-.1 0-.2-.1-.1 0-.2-.1t-.1-.2v-.2l2.5-8.8v-.1l.1-.1q.1-.1.2-.1h.4l.1.1c.8.3 7.6 1.2 8.8 1q.2-.1.4-.3l.4-.2q.2-.2.4-.3.1-.2.3-.4l.5-.5q.2-.2.5-.3.2-.2.5-.4l.6-.2c1.3-.2 7.5-.2 9.4 1.4 1.7 1.4 3.1 6.9 2.9 9.2v.3q-.1.2-.2.3 0 .2-.1.3-.1.2-.3.3-.3 0-.5.1-.3 0-.6.1h-1.1zm-24.1-1.8c2.3 0 9.7 0 11.4.1.5 0 1.5.1 2.7.2 3.3.2 10.9.8 11.7.4.5-.7-.9-7.4-2.4-8.7-1.5-1.2-7.4-1.3-8.6-1.2q-.3.1-.5.2-.2.2-.4.3-.2.1-.4.3-.2.2-.3.4-.2.2-.5.4l-.4.4q-.3.2-.6.3-.2.2-.5.3c-1.5.3-6.9-.6-9-1.1z"/><path id="Layer" class="s2" d="M60.4 90.1s5.8 5.6 6.5 10.3c.8 4.7-1.1 49.6 4.5 63.6l27.3 3.6L88.3 186H39.8l-10.6-41s3.4-28.5 9-46.5c5.7-18 15.6-18.7 22.2-8.4"/><path id="Layer" class="s0" d="m85.4 195.2 9.2 54.8h5.6l-9.8-58.5-5 3.7z"/><path id="Layer" fill-rule="evenodd" class="s1" d="M100.2 250.5h-5.8l-.1-.1q-.1-.1-.1-.2-.1 0-.1-.1l-9.2-54.8V195l.1-.1q0-.1.1-.1l5-3.7q0-.1.1-.1h.4l.1.1.1.1v.1q.1 0 .1.1l9.8 58.5V250.2q0 .1-.1.1 0 .1-.1.1l-.1.1h-.2zm-5.2-1h4.6L90 192.4l-4.1 3z"/><path id="Layer" class="s0" d="M93.8 195.2H32.1l-19.8-81.9s8.1 4.6 10.4 9.1C25 126.8 39.8 186 39.8 186h54.8z"/><path id="Layer" fill-rule="evenodd" class="s1" d="M93.8 195.7H32.1q-.1 0-.2-.1h-.1q-.1-.1-.1-.2-.1 0-.1-.1l-19.8-81.9v-.3l.2-.2q.1-.1.3-.1h.2c.4.2 8.4 4.8 10.6 9.4 2.2 4.3 15.7 57.8 17 63.3h54.7l.1.1.1.1v.1q0 .1.1.1v.1l-.8 9.2v.2l-.1.1q-.1.1-.2.1-.1.1-.2.1zm-61.3-1h60.9l.6-8.2H39.8q-.1 0-.2-.1h-.1q-.1-.1-.1-.2-.1 0-.1-.1c-.2-.6-14.8-59.1-17-63.5-1.7-3.3-7-6.9-9.2-8.3z"/><path id="Layer" class="s0" d="M40.3 195.2 28 250h-4.9l11.2-54.8h6z"/><path id="Layer" fill-rule="evenodd" class="s1" d="M28 250.5h-5q-.1 0-.1-.1h-.1q-.1 0-.1-.1-.1 0-.1-.1V249.9l11.2-54.8q.1-.1.1-.2t.1-.1q.1-.1.2-.1h6.3l.2.2q.1 0 .1.2v.2l-12.4 54.8v.1q-.1.1-.1.2-.1 0-.1.1H28zm-4.3-1h3.9l12.2-53.8h-5z"/><path id="Layer" class="s0" d="M86.2 142.4h142.5v5.2H86.2z"/><path id="Layer" fill-rule="evenodd" class="s1" d="M228.7 148.1H86q-.1 0-.1-.1-.1-.1-.1-.2-.1-.1-.1-.2v-5.2l.1-.1q0-.1.1-.2 0-.1.1-.1t.2-.1h142.5q.1.1.2.1t.1.1q.1.1.1.2l.1.1v5.2q0 .1-.1.2 0 .1-.1.2 0 .1-.1.1h-.2zm-142-1h141.5V143H86.7z"/><path id="Layer" class="s0" d="m214.6 195.2-9.2 54.8h-5.6l9.8-58.5 5 3.7z"/><path id="Layer" fill-rule="evenodd" class="s1" d="M205.4 250.5H199.7q-.1 0-.1-.1h-.1q-.1 0-.1-.1l-.1-.1V249.9l9.8-58.5.1-.1v-.1l.1-.1.1-.1h.4q.1 0 .1.1l5 3.7q.1 0 .1.1.1 0 .1.1v.2l-9.2 54.9v.1l-.2.2-.1.1h-.2zm-5-1h4.6l9.1-54.1-4.1-3z"/><path id="Layer" class="s0" d="M206.2 195.2h61.7l19.8-81.9s-8.1 4.6-10.4 9.1c-2.3 4.4-17.1 63.6-17.1 63.6h-54.8z"/><path id="Layer" fill-rule="evenodd" class="s1" d="M267.9 195.7h-61.7q-.1 0-.2-.1-.1 0-.2-.1l-.1-.1v-.2l-.8-9.2v-.2q.1 0 .1-.1v-.1h.1l.1-.1h54.6c1.4-5.5 14.9-59 17-63.3 2.3-4.6 10.3-9.2 10.6-9.4h.3q.2 0 .3.1l.2.2v.3l-19.8 81.9q0 .1-.1.1 0 .1-.1.2h-.1q-.1.1-.2.1zm-61.3-1h60.9l19.5-80.4c-2.2 1.4-7.5 5-9.2 8.3-2.2 4.4-16.9 62.9-17 63.5q0 .1-.1.1 0 .1-.1.2h-.1q-.1.1-.2.1H206z"/><path id="Layer" class="s0" d="m167.5 217.8-4.2 12.1 8.7 4.5 6.2-16.6h-10.7z"/><path id="Layer" fill-rule="evenodd" class="s1" d="M172 234.9h-.2l-8.7-4.5-.1-.1q-.1-.1-.1-.2l-.1-.1q0-.1.1-.2l4.1-12.2.1-.1q0-.1.1-.1l.1-.1H178.3l.1.1h.1l.1.1v.5l-6.2 16.6v.1q-.1 0-.1.1h-.1q0 .1-.1.1h-.1zm-8-5.2 7.8 4 5.7-15.4h-9.6z"/><path id="Layer" class="s0" d="m187.6 228.9-2.7 10.9 8.5 2.5 4.2-11.2-10-2.2z"/><path id="Layer" fill-rule="evenodd" class="s1" d="M193.4 242.8h-.1l-8.6-2.5-.1-.1-.2-.2v-.1q-.1-.1 0-.2l2.7-10.9q.1-.1.1-.2.1-.1.2-.1 0-.1.1-.1h.2l10 2.2q0 .1.1.1l.1.1q.1 0 .1.1v.4l-4.2 11.2v.1l-.1.1q-.1.1-.2.1h-.1zm-7.9-3.4 7.6 2.3 3.8-10.2-8.9-2z"/><path id="Layer" class="s1" d="M216.5 159.3c-.9.3-29.3 6.4-33.1 9.8-3.7 3.4-19.5 48.8-19.5 48.8l14.9 5.8 26.8-40.9z"/><path id="Layer" fill-rule="evenodd" class="s1" d="M178.8 224.2h-.2l-14.8-5.9h-.2q0-.1-.1-.2V217.8c.7-1.9 15.9-45.6 19.7-49 2.7-2.5 17.6-6.2 30.2-9.2 1.5-.4 2.8-.7 3-.7q0-.1.1-.1h.1l.1.1q.1 0 .1.1.1 0 .1.1l.1.1v.1q-.1.1-.1.2L206 183l-26.9 41v.1h-.1q-.1 0-.1.1h-.1zm-14.3-6.5 14.1 5.5 26.6-40.6 10.5-22.7-2.1.5c-7.4 1.8-26.9 6.4-29.9 9-2.9 2.7-13.7 32.5-19.2 48.3z"/><path id="Layer" class="s1" d="M261.7 166.7s1 16.2-9.7 18.2-41.2 1.1-41.2 1.1-7.4 36-12.4 47.6l-16.5-4.5s7.7-52.9 11.7-58.3c4-5.3 29.9-14 29.9-14z"/><path id="Layer" fill-rule="evenodd" class="s1" d="M198.4 234h-.1l-16.6-4.5-.1-.1q-.1 0-.1-.1-.1 0-.1-.1v-.2c.3-2.2 7.8-53.1 11.8-58.5 4.1-5.4 29-13.8 30.1-14.2H223.6l38.2 9.9q.1.1.2.1l.1.1v.1l.1.1c0 .2.8 16.7-10.2 18.7-10 1.9-37.3 1.2-40.9 1.1-.7 3.9-7.6 36.5-12.3 47.4v.1h-.1q-.1.1-.2.1h-.1zm-16.1-5.2q.1 0 .1-.1h-.1zm15.9 4.3c4.9-11.7 12.1-46.8 12.2-47.1v-.2q.1 0 .1-.1.1 0 .2-.1h.1c.3 0 30.6.8 41.1-1.1 9.4-1.7 9.5-15.2 9.4-17.4l-37.8-9.8c-2 .6-25.8 8.8-29.6 13.8-3.7 5-10.8 52.8-11.5 57.7z"/><path id="Layer" class="s0" d="M206.7 90.7c-1.3-2-2-6.2-4.3-7q-1-.4-1.9-.6-1-.2-1.9-.3-1-.2-2-.1-1 0-2 .1-.2 0-.4.1-.3 0-.5.1l-.4.2q-.2.1-.4.3-.3.2-.5.6-.2.3-.3.7-.1.3-.2.7-.1.4 0 .8l-.2 2.3q-.1.3-.1.7 0 .3.1.6.1.4.2.7l.4.6c1 .8 2.6 0 3.9.4 1.3.4 1.8 1.8 2.7 2.6q.3.4.6.7.4.3.7.6l.7.7q.3.3.6.7c-.2-.3 4.7-5.6 5.2-6.2z"/><path id="Layer" fill-rule="evenodd" class="s1" d="M201.5 97.4h-.1q-.1 0-.1-.1h-.1l-.1-.1q-.2-.2-.4-.5l-.4-.4-.4-.4-.4-.4q-.5-.4-1-.9l-.2-.2q-.1-.2-.2-.3l-.2-.2q-.1-.2-.2-.3-.2-.2-.3-.5l-.4-.4q-.2-.2-.4-.3-.3-.2-.5-.3h-.4q-.2-.1-.4-.1h-.4q-.2 0-.4.1H193.2l-.6-.2-.6-.4q-.3-.3-.5-.6l-.2-.8q-.1-.3-.2-.8 0-.4.1-.8l.2-2.3v-.9l.2-.8.4-.8q.2-.3.5-.6.2-.2.5-.3.2-.2.5-.3.2 0 .5-.1t.5-.1q1-.1 2.1-.2 1 0 2 .1t2 .4q1 .2 1.9.6c1.8.6 2.6 2.7 3.5 4.7q.1.4.2.7.2.3.3.6.2.3.3.6l.4.6v.2l.1.1q0 .1-.1.2v.1c-.2.2-.5.5-.9 1-1.1 1.2-3.9 4.3-4.3 5v.1q-.1.1-.1.2-.1 0-.2.1h-.2zm-6.2-6.4h.5q.2.1.3.1h.2q.4.2.7.4.3.1.6.4.3.2.5.5l.4.6.2.2q.1.2.2.3l.2.2.2.2q.4.5.9.8.1.2.3.3.2.2.3.4.2.1.4.3.1.2.3.3c.6-.7 1.7-2.1 4-4.6l.7-.7q-.2-.3-.3-.6-.2-.3-.3-.6-.1-.3-.3-.5l-.2-.6c-.8-1.9-1.5-3.8-2.9-4.3q-.9-.3-1.8-.5t-1.9-.3q-.9-.1-1.9-.1-.9 0-1.9.1-.2 0-.4.1-.2 0-.4.1-.1.1-.3.1-.2.1-.4.3-.2.2-.3.5-.2.3-.3.6l-.2.6v.7l-.2 2.3v1.2q.1.2.2.5t.3.5l.4.2q.2.1.5.1h.9c.3-.1.5-.1.8-.1z"/><path id="Layer" class="s2" d="m238.1 109.2-31.3-20.9-8 7.7s24.4 31.3 32.8 28c8.5-3.3 6.5-14.8 6.5-14.8z"/><path id="Layer" class="s1" d="M168.8 126.5h23.8v3.8c0 1.5-.2 3-.8 4.3-.6 1.4-1.4 2.7-2.5 3.7-1 1-2.3 1.9-3.6 2.4-1.4.6-2.9.9-4.4.9h-1.2c-1.5 0-3-.3-4.3-.9-1.4-.5-2.6-1.4-3.7-2.4-1-1-1.9-2.3-2.4-3.7-.6-1.3-.9-2.8-.9-4.3v-3.8z"/><path id="Layer" fill-rule="evenodd" class="s1" d="M181.3 142.1h-1.2c-1.5 0-3.1-.3-4.5-.9-1.4-.6-2.7-1.5-3.8-2.6-1.1-1-2-2.3-2.6-3.8-.6-1.4-.9-2.9-.9-4.5v-4q.1-.1.2-.1 0-.1.1-.1.1-.1.2-.1h23.8q.1 0 .2.1.1 0 .2.1.1 0 .1.1v4c0 1.6-.3 3.1-.9 4.5-.5 1.5-1.4 2.8-2.5 3.8-1.1 1.1-2.4 2-3.8 2.6-1.5.6-3 .9-4.6.9zm-12-15.1v3.3c.1 1.4.3 2.8.9 4.1.5 1.3 1.3 2.5 2.3 3.5 1 1 2.2 1.8 3.5 2.4 1.3.5 2.7.8 4.1.8h1.3c1.4 0 2.8-.3 4.1-.8 1.3-.6 2.5-1.4 3.5-2.4s1.8-2.2 2.4-3.5c.5-1.3.8-2.7.8-4.1V127z"/><path id="Layer" class="s0" d="M196.3 131.7s-6.7 1.3-7.9.5c-1.2-.7-3.2-2.7-5-3.1-1.9-.5-6.3-.4-6.1.7.2 1 3 .4 3.9 1.8 0 0-8.4-1.2-9 .2-.6 1.5-.2 4.8 1.2 6.2 1.4 1.4 10.7 1.2 12.9 2 2.1.9 10.4 0 10.4 0z"/><path id="Layer" fill-rule="evenodd" class="s1" d="M190 140.9h-1q-.5 0-1-.1-.5 0-.9-.1l-1-.2q-.6-.2-1.3-.3-.6-.1-1.3-.2-.7-.1-1.3-.1-.7-.1-1.3-.1c-4.2-.3-6.9-.5-7.8-1.4-1.6-1.6-2-5.2-1.4-6.8.4-1 3-1.1 5.8-1q-.2 0-.3-.1l-.2-.2q-.1-.1-.1-.2-.1-.1-.1-.3v-.4q.1-.1.1-.2l.2-.2c1-.9 4.8-.8 6.4-.4q.5.2 1.1.4.5.3 1 .5.5.3 1 .7.5.3.9.7.1.1.3.2.1.1.3.2l.3.3q.2.1.3.2c.7.4 4.4 0 7.5-.6H196.5l.1.1.1.1q.1 0 .1.1v.2l.4 8.3v.1q0 .1-.1.2t-.2.1q0 .1-.1.1c-.3 0-3.8.4-6.8.4zm-14.6-9.3zm-2.7.4c-.5 1.2-.2 4.4 1.1 5.7.7.7 4.4.9 7.1 1.1q.7 0 1.4.1.7 0 1.4.1l1.4.2q.7.2 1.4.3c1.6.7 7.1.3 9.7 0l-.3-7.2c-1.9.3-6.5 1-7.7.3-.4-.2-.8-.6-1.3-.9q-.4-.4-.8-.7-.5-.3-.9-.6-.5-.2-.9-.4-.5-.3-1-.4c-1.8-.5-4.9-.3-5.5.1q.2.1.3.1.1.1.3.1h.2q.2.1.3.1.4 0 .8.1t.7.2q.4.2.7.4.3.3.5.6.1.1.1.2v.3q-.1.1-.3.2h-.2q-.7-.1-1.5-.1l-1.4-.2h-1.4q-.7-.1-1.4-.1c-1.6 0-2.6.2-2.8.4z"/><path id="Layer" class="s0" d="M245.1 54.2q-.1-.1-.3-.2-.2 0-.4-.1h-.4q-.2-.1-.4-.1c-2.1-.3-2.1.2-3.8-1.2q-.9-.7-1.9-1.3-1-.5-2.1-.9-1.1-.5-2.2-.7-1.2-.3-2.3-.3c-6-.4-10.5 2.6-9 9.2q.2 1 .6 1.9.3 1 .7 1.9l1 1.8 1.2 1.6c3.4 4.7 8.2 9 14 9.4 1.7.2 4.9 0 6.2-1.4q1.3-1.5 2.2-3.3.9-1.8 1.3-3.7.4-2 .4-4-.1-2-.7-3.9-.1-.4-.3-.8l-.4-.8q-.2-.4-.4-.7-.2-.4-.5-.7-.2-.3-.5-.5-.3-.3-.6-.5t-.7-.4q-.3-.2-.7-.3z"/><path id="Layer" fill-rule="evenodd" class="s1" d="M240.8 75.8h-1.1c-6.5-.5-11.4-5.5-14.4-9.6q-.6-.9-1.2-1.7-.5-.9-1-1.9-.4-.9-.8-1.9-.3-.9-.6-2c-.6-2.9-.1-5.4 1.4-7.1 1.7-2 4.6-2.9 8.2-2.7q1.2.1 2.4.3 1.2.3 2.3.7 1.1.5 2.2 1.1 1 .5 2 1.3c1 .9 1.2.9 2.1.9.4 0 .8 0 1.3.1q.3.1.5.1t.4.1.4.1l.4.2q.4.1.8.3.3.2.7.4.3.2.6.5l.6.6q.3.3.5.7.3.4.5.8l.4.8q.1.4.3.8.6 2 .7 4.1.1 2.1-.4 4.1-.4 2-1.3 3.9-1 1.8-2.3 3.4c-1.3 1.4-4.1 1.6-5.6 1.6zm-10.6-26c-2.8 0-5 .9-6.3 2.4-1.4 1.5-1.7 3.7-1.2 6.3q.2 1 .6 1.9.3.9.8 1.8.4.9.9 1.7.5.8 1.2 1.6c2.8 4 7.5 8.8 13.6 9.2 2.1.2 4.8-.1 5.8-1.2q1.3-1.5 2.2-3.2.8-1.7 1.2-3.6.4-1.9.3-3.9 0-1.9-.6-3.7-.1-.4-.3-.8-.1-.4-.3-.7-.2-.4-.4-.7-.2-.4-.5-.7l-.5-.5q-.2-.2-.5-.4l-.6-.4-.6-.2q-.2-.1-.3-.2-.2 0-.4-.1-.2 0-.4-.1h-.3q-.8-.1-1.3-.1-.4 0-.8-.1-.3 0-.7-.2-.4-.1-.7-.4-.3-.2-.6-.5-.9-.7-1.9-1.3-.9-.5-2-.9-1-.4-2.1-.6-1.2-.3-2.3-.4h-1z"/><path id="Layer" class="s0" d="M229.5 80.4v9.1q.5 1.1 1.4 1.9.8.9 1.9 1.4 1.2.4 2.4.5 1.2.1 2.4-.3c5.9-1.5 6.6-5.8 6.6-5.8l-.2-16.9s-4.5-2.3-3.3-11.9q-1.8.8-3.7 1.4-1.9.5-3.9.8-1.9.3-3.9.3-2 .1-4-.2c-1.3-.1-1.8 10.6-1.2 15.2.7 4.5 5.4 4.4 5.5 4.5z"/><path id="Layer" fill-rule="evenodd" class="s1" d="M235.4 93.7q-1 0-2-.3-.9-.2-1.8-.8-.8-.5-1.5-1.3-.6-.7-1.1-1.7V80.8c-3.1-.4-5-2.1-5.4-4.8-.6-4.7 1.1-14.9 1.2-15.3v-.2l.2-.2h.1q.1-.1.2-.1 1.9.3 3.9.2 1.9 0 3.8-.3 2-.3 3.8-.8 1.9-.5 3.7-1.3l.1-.1H240.9q0 .1.1.1l.1.1.1.1V58.5c-1.1 9.1 3 11.4 3 11.4q.1 0 .1.1.1 0 .1.1v.1l.1.1.2 16.9c0 .2-.8 4.7-7 6.2l-.6.2q-.3 0-.5.1h-1.2zm-5.4-4.4c.3.7 2.4 4.5 7.4 3.2 5.6-1.4 6.3-5.3 6.4-5.4l-.3-16.5c-1-.6-4.1-3.4-3.4-11.4q-1.7.7-3.5 1.2-1.7.5-3.6.7-1.8.3-3.7.3-1.8.1-3.6-.1c-.4 2.1-1.7 10.6-1.1 14.5.3 2.4 2 3.8 4.8 4h.1q.1 0 .1.1h.1q.1 0 .1.1h.1q0 .1.1.1v.2z"/><path id="Layer" class="s0" d="M240.5 70.1q0-.3.2-.6l.2-.6q.2-.2.4-.5.2-.2.5-.4l.4-.4.6-.2q.2-.2.5-.3.3-.1.5-.2t.3-.1q.2-.1.4-.1h.8q.1 0 .2.1.1 0 .2.1.2 0 .3.1l.4.2.4.4q.2.2.3.4.2.2.3.5.1.2.1.4t.1.4v.4q-.1.2-.1.5 0 .2-.1.4 0 .3-.1.5 0 .2-.1.4-.1.3-.1.5-.4.9-1.1 1.5-.6.7-1.5 1.1-.9.3-1.8.3-1 0-1.9-.4"/><path id="Layer" class="s1" d="M242.7 75.4h-.5q-.3-.1-.6-.1-.2-.1-.5-.1-.2-.1-.5-.2l-.1-.1q-.1-.1-.1-.2-.1-.1-.1-.2t.1-.2q0-.1.1-.1.1-.1.2-.1 0-.1.1-.1t.2.1l.8.2q.4.1.9.1.4 0 .8-.1l.8-.2q.4-.2.7-.4.4-.3.7-.6.3-.3.5-.6.2-.4.4-.7.1-.2.1-.4.1-.2.2-.5v-.4q.1-.2.1-.4v-.4q.1-.2 0-.3V69q0-.2-.1-.4l-.2-.4-.3-.3-.3-.3-.4-.2q-.1 0-.2-.1l-.1-.1H244.5q-.1 0-.2.1-.2 0-.3.1-.2.1-.5.2-.2.1-.5.2-.2.1-.5.3-.2.1-.4.3l-.4.4q-.2.2-.3.4-.1.2-.2.5-.1.2-.2.5-.1.2-.2.3-.2.1-.4.1-.2-.1-.3-.3-.1-.1-.1-.3.1-.4.2-.7.1-.3.3-.6.2-.3.5-.6.2-.3.5-.5.2-.2.5-.4.2-.1.5-.3l.6-.2q.3-.2.6-.3.2 0 .3-.1.2 0 .4-.1h1q.2.1.3.1.1 0 .2.1.2.1.3.1.3.2.5.3.3.2.5.4.2.3.4.5.1.3.3.6 0 .2.1.5v.4q.1.3 0 .5v.5q0 .3-.1.5 0 .3-.1.5 0 .3-.1.5-.1.3-.2.5-.2.5-.5.9l-.6.8-.8.6q-.5.3-.9.5-.3.1-.5.2-.2 0-.5.1-.2 0-.5.1h-.5z"/><path id="Layer" class="s0" d="M229.8 66.8s-3.2 4.6-2.5 5.4c.7.8 2.8.4 2.8.4"/><path id="Layer" class="s1" d="M228.9 73.2h-.6q-.2 0-.5-.1l-.4-.2q-.3-.2-.5-.4c-.8-.9.9-3.8 2.5-6q.1-.1.3-.2.3 0 .4.1.2.1.2.3.1.3-.1.4c-1.5 2.1-2.6 4.4-2.5 4.9.4.4 1.7.2 2.3.1h.2q.1 0 .2.1.1 0 .1.1.1.1.1.2v.4q-.1.1-.2.1-.1.1-.2.1h-.3q-.2.1-.3.1h-.7zM232.5 66.9c-.5 0-.8-.5-.9-1.1 0-.6.3-1.1.7-1.1.5 0 .8.4.9 1 0 .6-.3 1.1-.7 1.2zM226.5 65.9c0 .6-.4 1-.8 1-.5 0-.8-.5-.7-1.1 0-.6.4-1.1.8-1.1.4.1.7.6.7 1.2zM229.7 76H228.4q-.3-.1-.6-.1-.4 0-.7-.1h-.2q0-.1-.1-.2t-.1-.2v-.2q0-.1.1-.1 0-.1.1-.2.1 0 .2-.1h.2c.1 0 5.1.8 7.5-1.1q.1-.1.2-.1H235.3q.1.1.2.1.1.1.1.2v.2q0 .1-.1.2 0 .1-.1.1c-1.6 1.3-3.9 1.6-5.7 1.6zM229.5 80.4s5.6 1.3 9-.6c0 0-3.7 7.6-9 6.8z"/><path id="Layer" fill-rule="evenodd" class="s1" d="M230.3 87.2h-.3q-.1 0-.2-.1h-.4q-.1 0-.2-.1l-.1-.1q-.1 0-.1-.1V80.2l.2-.2q.1-.1.2-.1h.2s5.5 1.2 8.6-.6h.3q.2 0 .3.1.1.1.2.3 0 .1-.1.3c-.1.3-3.5 7.2-8.6 7.2zm-.3-1c3.4.1 6.1-3.4 7.3-5.4l-1.8.4q-.9.1-1.8.1h-1.9q-.9-.1-1.8-.3z"/><path id="Layer" class="s2" d="M248.6 84.4c-3.4-2.6-19.4-1.1-22.8 5.3-3.5 6.4-5.4 66.1-5.4 66.1l43.1 14s1.2-59.1-3.8-70.3c-5.1-11.3-7.7-12.4-11.1-15.1z"/><path id="Layer" class="s2" d="m229.5 97.6-3.8 26.3-30.9 7.3-1.2 10.3s42.2 3.4 46.9-2.6c4.8-6 8.3-37.2 8.3-37.2z"/><path id="Layer" class="s1" d="M203.6 129.6q-.3 0-.4-.1-.2-.2-.2-.4t.1-.3q.1-.2.3-.2l21.9-5.2 3.7-21.5q0-.1.1-.2 0-.1.1-.1.1-.1.2-.1h.2q.1 0 .2.1l.1.1q.1.1.1.2v.2l-3.7 21.8q-.1.1-.1.2l-.1.1q0 .1-.1.1h-.1l-22.2 5.3zM222 143q-.2 0-.4-.1-.1-.2-.1-.4t.1-.4q.2-.1.4-.1c.1 0 13.6-.1 19.4-5.7 8.9-8.6 6.2-28.6 6.2-28.8v-.2q0-.1.1-.2 0-.1.1-.1.1-.1.2-.1h.2q.1 0 .2.1l.1.1q.1.1.1.2c.1.9 2.7 20.8-6.5 29.7-6.1 5.9-19.6 6-20.1 6z"/><path id="Layer" class="s1" d="M222 123.2h-.2q-.1-.1-.1-.2-.1 0-.1-.1-.1-.1-.1-.2c.1-1.2 2.3-28.2 3-30.7q.1-.2.3-.3.2-.1.4 0 .2 0 .3.2.1.2 0 .4c-.6 1.9-2.2 20.7-3 30.5q0 .1-.1.1 0 .1-.1.2l-.1.1h-.2z"/><path id="Layer" class="s0" d="m191 70.9 12.8 3.3-6.2 24.2q-.2.7-.6 1.3-.5.5-1.1.9-.6.3-1.3.4-.7.1-1.4 0l-5.9-1.6q-.6-.1-1.2-.6-.6-.4-.9-1-.4-.6-.5-1.3-.1-.7.1-1.4l6.2-24.2L-20.8-58z"/><path id="Layer" fill-rule="evenodd" class="s1" d="M194.1 101.6h-.5q-.1 0-.2-.1h-.3l-5.9-1.5q-.8-.2-1.4-.7-.7-.5-1.1-1.2-.4-.6-.5-1.4-.1-.8.1-1.6l6.3-24.3v-.1l.2-.2h.2q.1-.1.2 0l12.7 3.3h.2q0 .1.1.1v.5L198 98.6q-.2.6-.5 1.2-.4.6-.9 1-.6.4-1.2.6-.6.2-1.3.2zm-2.7-30.1-6.1 23.8q-.2.6-.1 1.2t.4 1.1q.3.5.8.9.5.3 1 .5l5.9 1.5q.6.1 1.2.1.6-.1 1.1-.4.6-.3.9-.8.4-.5.5-1.1l6.1-23.8z"/><path id="Layer" class="s2" d="m194 98.7-6-1.5q-.3-.1-.6-.3-.2-.2-.4-.5l-.2-.6q0-.3.1-.6l3.4-13h9.6L196 97.6q-.1.3-.3.5-.2.3-.5.4-.3.2-.6.2-.3.1-.6 0z"/><path id="Layer" class="s0" d="M203.8 86.9q0-.3-.1-.7 0-.3-.1-.6l-.2-.6q-.2-.3-.3-.6 0-.2-.1-.3-.1-.2-.2-.3l-.2-.2q-.2-.1-.3-.2h-.7q-.7 0-1.4.1-.7 0-1.4.2-.7.1-1.4.3-.7.1-1.3.4h-.2l-.2.2q-.1 0-.2.1-.1 0-.2.1c-.7.6-.1 1.5.5 1.9q.2 0 .3.1.2.1.4.1.1 0 .3.1h.3q.4.1.9.1h.8q.4-.1.9-.1.4-.1.8-.1-.4.4-.6 1-.2.7-.1 1.3.1.6.5 1.2.4.5 1 .8l.2-.1"/><path id="Layer" class="s1" d="M201.3 91.7H201q-.3-.2-.6-.5-.3-.2-.5-.5l-.4-.6-.2-.8v-.9q0-.2.1-.4 0-.2.1-.5-.3.1-.6.1h-1.2q-.3 0-.6-.1h-.4q-.2 0-.4-.1-.2 0-.3-.1-.2 0-.4-.1t-.4-.3q-.2-.1-.3-.3-.2-.2-.3-.4-.1-.2-.1-.5v-.3q0-.2.1-.3 0-.2.1-.3.1-.2.2-.3.1-.1.3-.2.1-.1.2-.1.1-.1.3-.1.1-.1.2-.1.7-.3 1.4-.5t1.4-.3q.8-.1 1.5-.2t1.4-.1h.7q.1 0 .2.1l.4.2.3.3q.1.1.2.3l.2.4q.1.3.3.6.1.3.2.7.1.3.1.7l.2.6q0 .1-.1.2v.2q-.1.1-.2.1-.1.1-.2.1h-.2q-.1 0-.2-.1 0-.1-.1-.1V87q-.1-.3-.1-.6l-.2-.6-.2-.6-.2-.6c-.1-.3-.3-.6-.6-.7h-.4q-.7 0-1.4.1l-1.4.2q-.6.1-1.3.3-.7.2-1.3.4-.1 0-.2.1-.1 0-.1.1h-.2l-.1.1-.1.1-.1.1v.2q0 .1.1.2 0 .1.1.2l.2.2q.1.1.2.1.1.1.3.1.1.1.2.1h.3q.1.1.3.1H199.6l.8-.2h.2q.1 0 .1.1.1 0 .2.1l.1.1v.4q-.1.1-.1.2-.2.2-.3.4-.1.2-.2.5-.1.2-.1.5v.5l.2.4q0 .3.2.5l.3.3q.1.2.3.3h.4q.1 0 .2.1t.1.2v.4q-.1.1-.2.1 0 .1-.1.1l-.3.1zM163.3 229.9s-16.7-1.2-17.4 0q-.1.4-.3.7-.1.3-.2.7l-.2.6v.7c-.1.3 23.6 10.4 24.4 9.7.9-.8 2.4-7.9 2.4-7.9z"/><path id="Layer" fill-rule="evenodd" class="s1" d="M169.6 242.7c-1 0-5.2-1.1-24.6-9.7h-.1l-.1-.1q-.1-.1-.1-.2v-.1q0-.4.1-.7l.2-.8q.1-.3.2-.7.2-.3.3-.7c.7-1.2 10.1-.7 17.9-.2h.1v.1l8.7 4.4q.1 0 .1.1.1 0 .1.1V234.5c-.3 1.7-1.6 7.3-2.5 8.1 0 .1-.1.1-.3.1zm-24-10.3c8.5 3.7 22.1 9.4 23.8 9.5.5-.6 1.4-4.1 2.1-7.2l-8.3-4.3c-7.8-.6-16.2-.8-17-.2q-.1.3-.2.5l-.2.6q-.1.2-.1.5t-.1.6z"/><path id="Layer" class="s1" d="M193.4 242.3s.2 6.4-.6 7.1c-.7.8-24.8.6-24.8.6q0-.3.1-.7 0-.3.1-.6.1-.4.1-.7.1-.3.2-.7c.3-1 16.4-7.5 16.4-7.5"/><path id="Layer" class="s1" d="M176.4 250.4h-8.7q0-.1-.1-.1v-.1l-.1-.1v-.2q.1-.3.1-.6.1-.4.1-.7.1-.4.2-.7 0-.4.1-.7c.3-1 9.2-4.8 16.7-7.8H185q.1 0 .2.1 0 .1.1.1v.4l-.1.1q-.1.1-.2.1c-7.4 3-15.6 6.6-16.2 7.3q0 .3-.1.5 0 .3-.1.5 0 .3-.1.5v.6c9 0 23 0 24.1-.5.3-.4.4-3.8.4-6.7q0-.2.1-.4.1-.1.3-.1.2 0 .3.1.1.2.1.4c.1 2 .1 6.6-.7 7.4-.5.5-8.7.6-16.7.6z"/><path id="Layer" class="s0" d="m259.7 195.2 12.4 54.8h4.8l-11.2-54.8h-6z"/><path id="Layer" fill-rule="evenodd" class="s1" d="M276.9 250.5h-5q-.1-.1-.2-.1 0-.1-.1-.1v-.2l-12.4-54.8q-.1-.1 0-.2 0-.2.1-.2 0-.1.1-.2H265.8q.1 0 .2.1l.1.1q0 .1.1.2l11.2 54.8V250.2l-.1.1q0 .1-.1.1h-.1q0 .1-.1.1h-.1zm-4.4-1h3.8l-11-53.8h-5z"/><path id="Layer" class="s0" d="M205.3 147.6 225 254.3h5.4l-18.1-106.7h-7z"/><path id="Layer" fill-rule="evenodd" class="s1" d="M230.4 254.8H224.8q-.1 0-.1-.1l-.1-.1q-.1-.1-.1-.2l-19.7-106.7v-.2q.1-.1.1-.2.1-.1.2-.1.1-.1.2-.1h7q.1 0 .2.1.1 0 .1.1.1 0 .1.1l.1.1 18 106.7v.2q0 .1-.1.1v.1q0 .1-.1.1l-.1.1h-.1zm-5-1h4.4l-17.9-105.7h-6z"/><path id="Layer" class="s0" d="M109.6 147.6 89.9 254.3h-5.4l18.1-106.7h7z"/><path id="Layer" fill-rule="evenodd" class="s1" d="M89.9 254.8h-5.6q0-.1-.1-.1l-.1-.1v-.1l-.1-.1v-.2l18-106.7.1-.1q0-.1.1-.1l.1-.1q.1-.1.2-.1h7q.1 0 .2.1.1 0 .2.1t.1.2v.2L90.4 254.4v.2q-.1 0-.1.1-.1.1-.2.1h-.2zm-4.8-1h4.4L109 148.1h-6z"/><path id="Layer" class="s2" d="M59.2 102.1s9.9 21.6 15 23.7c5.1 2 31.1 4.9 31.1 4.9l2.5 11s-33.1 5.2-46.6 1.3c-13.6-3.9-14.2-23.6-13.3-36.4.9-12.8 6.7-13.3 11.3-4.5z"/><path id="Layer" class="s1" d="M73.2 145.2c-6 0-14-.6-18.2-3.5-6.8-4.7-10.9-21.3-11.1-22v-.2q0-.1.1-.2 0-.1.1-.2h.2q.1-.1.2-.1.1.1.2.1l.1.1q.1.1.1.2c0 .2 4.2 17 10.7 21.5 6.5 4.5 24.6 3 24.8 3q.2 0 .4.1l.2.4q0 .2-.2.3-.1.2-.3.2c-.3 0-3.4.3-7.3.3z"/><path id="Layer" class="s0" d="M138.6 114.1h13.7v24.7q0 .8-.2 1.4-.3.7-.8 1.2t-1.2.8q-.7.2-1.4.3h-6.5q-.7-.1-1.3-.3-.7-.3-1.2-.8t-.8-1.2q-.3-.6-.3-1.4v-24.7L-50 0z"/><path id="Layer" fill-rule="evenodd" class="s1" d="M148.7 143h-6.4q-.9 0-1.6-.3-.8-.3-1.4-.9-.5-.6-.8-1.3-.4-.8-.4-1.6v-24.8q0-.1.1-.2 0-.1.1-.1.1-.1.1-.2H152.5l.2.2q.1 0 .1.1v24.9q0 .9-.3 1.6-.3.8-.8 1.4-.6.6-1.4.9-.7.3-1.6.3zm-9.6-28.3v24.2q0 .6.3 1.2.2.5.7 1 .4.4 1 .7.5.2 1.1.2h6.5q.6 0 1.2-.2.6-.3 1-.7.5-.4.7-1 .2-.6.2-1.2v-24.3z"/><path id="Layer" class="s2" d="M140.5 121.1h10v16.7q0 .5-.2 1-.2.4-.6.8-.3.4-.8.6l-1 .2h-4.8l-1-.2q-.5-.2-.8-.6-.4-.4-.6-.8-.2-.5-.2-1v-16.7L-50 0z"/><path id="Layer" class="s1" d="M97.1 130.2c-.7 0-15.9-.4-23.1-4-7.3-3.6-15-23.1-15.3-24v-.4q.1 0 .1-.1.1-.1.2-.1.1-.1.2-.1t.2.1.2.1q0 .1.1.2c0 .2 7.7 20 14.7 23.4 7 3.4 22.5 3.9 22.7 3.9q.2 0 .3.1.2.2.2.4t-.2.3q-.1.2-.3.2zM117.1 237.5s.7 12.2 2.5 12.5c1.8.3 29.2-10.1 29.2-12.4 0-2.2-3-3.2-6.8-4.5-.4-.2-13.8-1.1-13.8-1.1z"/><path id="Layer" fill-rule="evenodd" class="s1" d="M119.6 250.4h-.1c-2-.3-2.7-9.1-2.9-13v-.1q0-.1.1-.1 0-.1.1-.1 0-.1.1-.1l11.1-5.4h.2c4 .3 13.5 1 13.9 1.1l.5.2c3.7 1.3 6.6 2.3 6.6 4.8q0 .4-.6 1c-3.4 2.8-26.2 11.7-29 11.7zm-2.1-12.7c.4 6.3 1.4 11.7 2.1 11.9 1.8.2 28-9.9 28.7-12 0-1.8-2.6-2.8-6-4l-.5-.1c-.5-.1-8.3-.7-13.5-1.1z"/><path id="Layer" class="s0" d="M67.3 53.9s5.6 18 1.9 22c-3.8 4.1-8.7 1.7-8.8 2-.2.4 0 12.2 0 12.2l-12.5-4.7V64.5c0-7.4 14-21.4 19.4-10.6z"/><path id="Layer" fill-rule="evenodd" class="s1" d="M60.4 90.6h-.2l-12.5-4.7q-.1 0-.1-.1-.1 0-.1-.1-.1 0-.1-.1V64.5c0-5.4 6.8-13.5 12.5-14.8 2.4-.6 5.7-.4 7.9 4 .2.8 5.6 18.4 1.7 22.6-3.2 3.4-7.1 2.5-8.6 2.2h-.1c-.1 1.7 0 7.8 0 11.6V90.4l-.1.1-.1.1h-.2zm-12-5.5 11.5 4.3c-.2-11.4 0-11.6 0-11.8.3-.3.6-.2 1.2-.1q1 .3 2.1.4 1 0 2-.3 1.1-.2 2-.7.9-.5 1.6-1.3c2.9-3.1-.4-16.6-2-21.5q-2.3-4.5-6.7-3.5C54.5 52 48.4 60 48.4 64.5z"/><path id="Layer" class="s0" d="M63.6 50.3q-1.9 1.1-3.5 2.7-1.7 1.6-2.9 3.5-1.2 2-1.9 4.1-.7 2.1-.9 4.4c-.2 1.5-2.6-3.7-3.9-.4-1.3 3.2-.2 5.5 2.6 6.9 0 0 1.2 17.2-3.1 32-4.4 14.8-11 22-17.5 19.4-6.5-2.7-3.9-10-1.4-23.1 2.5-13.1 11.1-37.9 12.2-47 1.1-9.2 19.3-8.8 20.3-2.5z"/><path id="Layer" fill-rule="evenodd" class="s1" d="M35.2 123.9h-.8q-.3-.1-.7-.1-.4-.1-.7-.2-.4-.1-.7-.3c-6-2.5-4.8-8.6-2.7-18.8q.5-2.3 1-4.8c1.2-6.3 3.8-15.2 6.3-23.8 2.8-9.5 5.4-18.5 6-23.2.6-5.1 6.1-7.4 11.4-7.5 4.4 0 9.3 1.4 9.9 5v.1q-.1.1-.1.2t-.1.1-.1.1c-.1 0-8.2 4.6-9 14.3q0 .2-.1.3-.1.1-.3.2-.1 0-.3-.1-.1 0-.2-.2c-.3-.4-1.3-1.6-2.1-1.5-.4 0-.7.6-.9 1-1.1 2.9-.4 4.9 2.4 6.3h.1q0 .1.1.1v.2q.1 0 .1.1c0 .2 1.1 17.5-3.2 32.2-3.1 10.4-7.4 17.3-12 19.5l-.8.4-.8.2q-.5.1-.9.2h-.8zm19.3-77.7h-.2c-4.8.1-9.9 2.1-10.5 6.6-.6 4.8-3.2 13.8-6 23.4-2.5 8.6-5 17.4-6.2 23.7q-.5 2.5-1 4.8c-2.1 10-3.2 15.5 2 17.7q.7.3 1.3.4.7.1 1.4.1t1.4-.2q.6-.2 1.2-.5c4.5-2.1 8.5-8.8 11.5-18.9 4-13.5 3.3-29.3 3.2-31.6-3-1.6-3.9-4.1-2.6-7.4.4-1 1-1.5 1.7-1.6q.3 0 .6.1.3 0 .6.2.3.1.6.3l.4.4q.4-2.1 1.2-4.1.7-1.9 1.9-3.7 1.2-1.8 2.7-3.3 1.5-1.5 3.3-2.6c-.6-2.5-4.6-3.8-8.5-3.8z"/><path id="Layer" class="s0" d="M69.4 63.3s3 4.2 2.3 4.9c-.6.8-2.5.4-2.5.4"/><path id="Layer" class="s1" d="M70.2 69.2h-.3q-.1 0-.3-.1H69l-.3-.3q-.1-.2 0-.4 0-.2.2-.3.2-.1.4 0c.6.1 1.7.1 2-.2.1-.4-1-2.4-2.4-4.3v-.2q-.1-.1 0-.2V63q.1 0 .2-.1 0-.1.1-.1h.2q.1 0 .2.1.1 0 .2.1c1.4 2 3 4.6 2.3 5.5q-.2.2-.4.3-.2.2-.5.2-.2.1-.5.2h-.5z"/><path id="Layer" class="s0" d="M68.3 71.5s-3.6 4.9-6.2 0"/><path id="Layer" class="s1" d="M64.8 74.2h-.1q-1.8-.1-3.1-2.5v-.2q-.1-.1 0-.2l.1-.1q0-.1.1-.2h.4q.1 0 .2.1l.1.1q1 1.9 2.2 2c1.6.1 3.1-2 3.1-2q.2-.2.4-.2.2-.1.3.1.2.1.2.3.1.2 0 .3c-.1.2-1.8 2.5-3.9 2.5zM65.2 60.3c-.2 0-.5-.4-.5-.9-.1-.5.1-.9.4-.9.3-.1.5.3.5.8.1.5-.1 1-.4 1zM60.4 77.9s-3.9-.9-5.1-2.4c0 0 .3 6.5 5 10.3z"/><path id="Layer" fill-rule="evenodd" class="s1" d="M60.3 86.3h-.2q-.1 0-.1-.1c-4.8-3.9-5.2-10.4-5.2-10.7q0-.2.1-.3l.2-.2h.3q.2.1.3.2c.9 1.1 3.8 2 4.8 2.2q.1 0 .1.1.1 0 .2.1v.1q.1.1.1.2l-.1 7.9v.2l-.1.1q0 .1-.1.1 0 .1-.1.1h-.2zM56 76.7q.2 1.1.5 2.2t.8 2.1q.5 1 1.2 2 .6.9 1.4 1.7v-6.4q-.5-.1-1-.3l-1-.4-1-.4q-.4-.2-.9-.5z"/></g></svg>