<svg version="1.2" xmlns="http://www.w3.org/2000/svg" width="300" height="300"><style>.s1{fill:#d1d3d4}.s2{fill:#fff}.s3{fill:#231f20}.s4{fill:#d90429}</style><path id="Layer" d="M251.8 47.3c13 17.5 14.2 42.2 14.2 66.8 0 24.6-1.2 49.2-14.2 70.6-13 21.2-37.6 39.2-61.4 38.4-23.7-.9-46.7-20.6-66.6-41.9-19.8-21.3-36.7-44.2-34.6-65.1 2-20.8 23-39.6 42.9-57 19.9-17.6 38.7-33.6 60.4-36.6 21.7-2.9 46.4 7.4 59.3 24.8z" style="fill:#ef233c"/><g id="_347_real_estate_agent_flatline"><path id="Layer" class="s1" d="M122.7 278.7c-43.6 0-78.9-3-78.9-6.7s35.3-6.7 78.9-6.7c43.5 0 78.8 3 78.8 6.7s-35.3 6.7-78.8 6.7z"/><path id="Layer" class="s2" d="M75.5 108.2h9.9V272h-9.9z"/><path id="Layer" fill-rule="evenodd" class="s3" d="M85.4 272.5h-9.9q-.1 0-.1-.1-.1 0-.2-.1-.1 0-.1-.1V108q0-.1.1-.2.1 0 .2-.1h10.2q.1.1.2.1 0 .1.1.2v164.2l-.1.1q-.1.1-.2.1-.1.1-.2.1zm-9.4-.9h9v-163h-9z"/><path id="Layer" class="s3" d="M75.5 151.4h9.9v27.1h-9.9z"/><path id="Layer" fill-rule="evenodd" class="s3" d="M85.4 178.9h-10q-.1 0-.2-.1 0-.1-.1-.2V151.2q.1-.1.1-.2h.2q0-.1.1-.1h9.9q.1 0 .2.1h.2q0 .1.1.2v27.4q-.1.1-.1.2-.1.1-.2.1h-.2zM76 178h9v-26.2h-9z"/><path id="Layer" class="s2" d="M179.5 79.4q.5-.8.8-1.6l.6-1.6q.2-.8.4-1.7.2-.9.2-1.7.1-.8 0-1.5 0-.7-.2-1.5-.1-.7-.3-1.4-.2-.7-.5-1.4c-.6-1.1-1.8-1.7-2.6-2.7-1.5-2-1-4.7-.5-7.1 1.2-7-5.6-14.5-11.8-16.9q-1-.4-2.1-.7-1.1-.2-2.2-.3-1.1-.1-2.2-.1-1.1.1-2.2.4-.5 0-1 .2-.5.1-1 .3-.5.1-1 .4-.5.2-.9.5c-1.1.8-1.6 1.9-2.8 2.5-1 .5-1.9.5-2.9.9q-.1.1-.3.2-.2.1-.3.2-.2.1-.3.2-.2.1-.3.2c-2.6 2.4-5.7 8.4-4.6 12 .4 1.3.9 2.8 0 3.8q-.1.2-.3.3l-.4.2q-.2.2-.4.2l-.4.2c-3.4 1-9 1.6-6.4 6.8.6 1.3 1.7 2.7 1.5 4.2-.2 2.7-3.7 3.6-5.5 5.6-2.7 3-1 8.1 2.1 10.8 4.9 4.1 12 4.3 18.5 3.9 6.8-.5 13.8-1.4 19.8-4.6q1.5-.8 2.9-1.8 1.3-.9 2.5-2.1 1.3-1.2 2.3-2.5 1-1.3 1.8-2.8z"/><path id="Layer" fill-rule="evenodd" class="s3" d="M145.8 93.8c-5.1 0-10.4-.8-14.3-4.2q-.8-.6-1.4-1.4-.6-.8-1.1-1.7-.4-.8-.7-1.8-.3-.9-.4-1.9-.1-.6 0-1.3.1-.6.3-1.2.1-.6.5-1.1.3-.6.7-1 .2-.3.5-.6.3-.2.6-.5.3-.2.7-.4.3-.3.6-.5c1.4-1 2.8-1.9 2.9-3.4V72q-.1-.4-.2-.7-.2-.4-.3-.8-.2-.3-.5-.7-.2-.4-.5-.9-.2-.4-.4-.9t-.2-1q-.1-.5 0-1 0-.5.2-1c.8-1.9 3.4-2.5 5.7-3.1.5-.2 1-.3 1.5-.4q.1-.1.3-.1.2-.1.3-.2.2-.1.3-.2.2-.1.3-.2c.7-.8.4-2-.1-3.4-1.2-3.8 2-10 4.7-12.4l.3-.3q.2-.2.4-.3.1-.1.3-.2l.4-.2q.2-.1.4-.1.1-.1.3-.2.2 0 .4-.1.2 0 .3-.1h.4l.4-.2q.1 0 .3-.1.2 0 .4-.1t.4-.3.4-.3l.3-.3q.2-.2.3-.4.2-.1.3-.3.1-.2.3-.3l.3-.3q.2-.2.4-.3.4-.3.9-.5.5-.3 1-.5t1.1-.3q.5-.2 1-.2 1.2-.3 2.3-.4 1.2 0 2.3.1 1.1.1 2.3.3 1.1.3 2.1.8c6.7 2.6 13.3 10.4 12 17.3v.1c-.4 2.3-.9 4.9.5 6.7q.1.2.3.3.1.1.2.3.2.1.3.3.2.1.3.2.3.2.5.4l.4.4.4.4q.1.3.3.5c.8 1.3 1.1 4.7 1 6l-.2 1.8q-.2.9-.5 1.7-.2.9-.6 1.7-.3.9-.7 1.6-.9 1.5-1.9 2.9-1.1 1.3-2.3 2.5-1.3 1.2-2.7 2.2-1.4 1-2.9 1.8c-6.2 3.3-13.6 4.2-20 4.6-1.4.1-2.9.2-4.4.2zm14.3-54.1h-.8q-.4 0-.8.1-.3 0-.7.1-.4 0-.8.1l-1 .2q-.5.1-.9.3l-1 .4q-.4.2-.8.5-.2.1-.3.2l-.3.3-.3.3q-.1.1-.2.3l-.4.4-.4.4q-.2.2-.5.3-.2.2-.5.3l-.4.2q-.2.1-.3.1-.2.1-.5.2-.2 0-.4.1h-.3q-.2.1-.3.1-.2.1-.3.1l-.4.2q-.1 0-.3.1-.1.1-.3.2l-.2.2q-.2.1-.3.2c-2.5 2.2-5.5 8.2-4.4 11.5.4 1.2 1 3-.1 4.2q-.2.2-.4.3-.2.2-.4.3l-.4.2q-.3.1-.5.2c-.5.1-1 .3-1.5.4-2.1.5-4.4 1.1-5.1 2.6l-.2.8v.8l.2.8q.2.4.4.7.2.5.5.9t.5.9q.2.4.3.8.2.5.2 1 .1.4.1.9c-.2 1.9-1.8 3-3.3 4.1l-.6.4-.6.4q-.3.2-.6.5l-.5.5-.6.8-.4 1q-.2.5-.2 1-.1.6 0 1.1.1.9.3 1.8.3.8.7 1.6.4.8 1 1.5t1.2 1.3c4.9 4.1 11.9 4.2 18.2 3.8 6.2-.4 13.4-1.3 19.6-4.5q1.4-.8 2.8-1.7 1.3-1 2.5-2.1 1.2-1.2 2.2-2.5 1-1.3 1.8-2.7l.8-1.6q.3-.7.5-1.6.3-.8.4-1.6.2-.8.3-1.7 0-.7-.1-1.4 0-.7-.1-1.4-.2-.7-.3-1.3-.2-.7-.5-1.3-.1-.3-.3-.4-.1-.2-.3-.4-.2-.2-.3-.4-.2-.1-.4-.3-.2-.1-.4-.3l-.3-.3q-.2-.1-.3-.3-.2-.1-.3-.3c-1.6-2.1-1.1-4.9-.6-7.4v-.1c1.2-6.9-5.9-14.2-11.5-16.4q-.6-.2-1.3-.4-.6-.2-1.3-.4-.6-.1-1.3-.2h-1.4z"/><path id="Layer" class="s3" d="M135.8 270.3s-3.5 4.4-2.6 5.8c.9 1.4 17.3-1.6 19.4-3.1 2.1-1.5 8.2-12.1 8.3-12.4.1-.4-5-6-5-6z"/><path id="Layer" fill-rule="evenodd" class="s3" d="M135.1 276.9h-.7q-.2 0-.4-.1h-.3q-.1 0-.3-.1-.1 0-.2-.1-.1 0-.2-.1l-.2-.2c-1-1.6 2-5.5 2.6-6.3h.1v-.1l20.1-15.7.1-.1h.4l.1.1c5.3 5.8 5.2 6.2 5.1 6.4-.1.5-6.3 11.2-8.5 12.7-1.7 1.3-13 3.6-17.7 3.6zm1-6.3c-1.3 1.7-3 4.5-2.6 5.3 1.2.9 16.6-1.7 18.8-3.3 1.8-1.3 7.4-10.6 8.1-12.1-.4-.6-2.5-3.1-4.6-5.4z"/><path id="Layer" class="s3" d="M152.7 269.3c0-.1-3.9 6-2.6 7.1 1.2 1 14.3-1 15.2-1.7 1-.6 5.5-11 5.5-11l.2 5.5 2.5-1.5s-2.2-12.8-3.1-13.6c-.9-.9-17.7 15.1-17.7 15.1z"/><path id="Layer" fill-rule="evenodd" class="s3" d="M152 277.1h-1.2q-.2-.1-.5-.2l-.6-.2c-1.3-1.2 1.4-5.8 2.6-7.7h.1v-.1c17-16.3 17.9-15.5 18.2-15.2 1 .8 2.8 10.8 3.3 13.9v.1q0 .1-.1.2v.1q-.1 0-.1.1l-2.5 1.4q0 .1-.1.1h-.2q-.1 0-.1-.1h-.1l-.1-.1q0-.1-.1-.1v-.1l-.1-3.6c-1.5 3.3-4.1 8.9-4.9 9.5-.5.4-9.2 2-13.5 2zm1-7.6c-1.9 3.1-3.2 6.1-2.7 6.5 1 .8 13.5-.9 14.7-1.6.6-.5 3.2-5.9 5.4-10.9q0-.1.1-.1 0-.1.1-.1l.1-.1h.2q0 .1.1.1t.1.1l.1.1v.2l.2 4.7 1.5-1c-1-5.7-2.2-11.9-2.8-13-1.5.7-9.8 8.2-17 15.1z"/><path id="Layer" class="s2" d="m142.7 251 1.1 6.8s-4.5 8.4-8 12.6c0 0 6-.9 8.7-2.2 2.7-1.3 11.4-13.6 11.4-13.6l-3.5-9.4z"/><path id="Layer" fill-rule="evenodd" class="s3" d="M135.8 270.8q-.1 0-.1-.1h-.1q-.1 0-.1-.1-.1 0-.1-.1l-.1-.1V270.1q.1 0 .1-.1c3.1-3.8 7.3-11.2 7.9-12.3l-1-6.7q-.1-.1 0-.1v-.2l.1-.1.1-.1 9.6-5.8h.1l.1-.1q.1 0 .1.1h.2l.1.1.1.1v.1l3.5 9.4v.4c-.4.5-8.7 12.4-11.6 13.8-2.8 1.3-8.6 2.1-8.8 2.2zm7.4-19.6 1 6.5V258q-.8 1.5-1.7 3-.9 1.5-1.8 2.9-.9 1.5-1.9 2.9-.9 1.5-1.9 2.9.9-.2 1.9-.3.9-.2 1.8-.5 1-.2 1.9-.5.9-.3 1.8-.7c2.1-1 8.6-9.7 11-13.2l-3.2-8.7z"/><path id="Layer" class="s2" d="M160.6 249.9q-.1.9-.3 1.7l-.4 1.8q-.3.8-.5 1.7-.3.8-.6 1.7c-1.3 3.5-6.1 12.4-6.1 12.4l11.5 1s4.8-8 5.3-10.3c.6-2.4 1.4-10.3 1.4-10.3z"/><path id="Layer" fill-rule="evenodd" class="s3" d="m164.2 270.7-11.5-1-.1-.1h-.1l-.1-.1v-.1q-.1 0-.1-.1v-.2q0-.1.1-.1c0-.1 4.7-9 6-12.4q.3-.9.6-1.7.2-.8.5-1.7.2-.8.4-1.7.2-.8.3-1.7 0-.1.1-.2l.1-.1.1-.1h.2l10.2-.3h.2l.1.1h.1v.1l.1.1v.2c0 .3-.9 8-1.4 10.3-.5 2.3-5.1 10.2-5.3 10.5l-.1.1-.1.1q-.1 0-.1.1h-.2zm-10.8-1.8 10.6.8c.8-1.3 4.6-8 5.1-10 .4-2 1.1-7.8 1.3-9.6l-9.4.2q-.1.9-.3 1.7-.2.8-.4 1.7-.2.8-.5 1.6l-.6 1.6c-1.1 3-4.7 9.9-5.7 12z"/><path id="Layer" class="s3" d="M175.6 143.7q1.8 2.5 3.1 5.4 1.4 2.8 2.2 5.9.9 3 1.2 6.1.3 3.2.1 6.3c-.8 11.7-4 61.4-8.9 84.5l-13.6 1.1-6.5-78.6 1.2-29.5z"/><path id="Layer" fill-rule="evenodd" class="s3" d="M159.7 253.4q0 .1 0 0h-.2v-.1h-.1l-.1-.1v-.2l-6.5-78.5 1.2-29.7v-.1l.1-.1q.1-.1.2-.1 0-.1.1-.1l21.2-1.2h.1l.1.1h.1v.1q1.9 2.6 3.3 5.5 1.3 2.9 2.2 5.9.9 3.1 1.2 6.3.3 3.2.1 6.4l-.1 1.4c-2.7 40.4-5.7 68.3-8.8 83.1l-.1.1q0 .1-.1.1 0 .1-.1.1h-.1l-13.6 1.2zm-4.9-108.2-1.1 29.2 6.4 78 12.8-1c3.1-14.8 6.1-42.6 8.8-82.6v-1.5q.2-3.1-.1-6.2-.3-3-1.1-6t-2.1-5.8q-1.3-2.7-3.1-5.3z"/><path id="Layer" class="s3" d="m159.2 144.2-23.3 1.3s-16.1 48.1-16.1 56.7c0 8.6 19.7 54.5 19.7 54.5l16.1-8.3-14.5-41.9 21.3-37.2z"/><path id="Layer" fill-rule="evenodd" class="s3" d="M139.3 257.1q-.1 0-.1-.1h-.1v-.1c-.8-1.9-19.8-46.1-19.8-54.7 0-8.5 15.6-54.9 16.2-56.8q0-.1.1-.2l.1-.1h.2l23.3-1.3q.1-.1.1 0 .1 0 .2.1l.1.1v.1l3.3 25.1v.2h-.1v.1l-21.2 37.1 14.4 41.7V248.6q0 .1-.1.1 0 .1-.1.1l-16.1 8.3h-.2zm-3-111.2c-1.4 4-16.1 48.2-16.1 56.3 0 8.1 17.5 49.2 19.5 53.9l15.4-7.9-14.4-41.5q0-.1-.1-.1v-.2l.1-.1 21.3-37.1-3.2-24.6z"/><path id="Layer" class="s3" d="M139 104.7s-39 12.5-44.3 7.9c-5.2-4.6-7.2-43.9-7.2-43.9l13.4-3.4s6.4 25.9 7.7 26.7c1.2.7 17.5-5.7 33.8-9.3"/><path id="Layer" class="s3" d="M99.4 114c-2.3 0-4.1-.3-5-1.1C89 108.2 87 70.3 87 68.7V68.4q.1 0 .2-.1h.1l13.4-3.5h.4q0 .1.1.2l.1.1c2.4 9.8 6.5 25.5 7.5 26.5.6.1 5-1.2 9.6-2.7 6.4-2 15.1-4.7 23.8-6.7h.2q.1 0 .1.1.1 0 .2.1v.1q.1.1 0 .2v.2q-.1 0-.1.1-.1 0-.2.1c-8.7 2-17.4 4.7-23.7 6.7-7.7 2.4-9.7 3-10.4 2.5-1.3-.8-6.2-20-7.8-26.5L87.9 69c.2 4 2.2 39 7 43.2 4.2 3.7 33-4.5 43.9-8h.1q.1 0 .2.1.1 0 .1.1.1 0 .1.1v.4q-.1 0-.1.1-.1 0-.2.1c-1.3.4-27.8 8.9-39.6 8.9z"/><path id="Layer" class="s4" d="M152.3 81.3s-9.8 8.6-11.3 15.3c-1.5 6.7-2 48.7-2 48.7l29.6 3s-2.2-46.5 1-54.4c3.3-8 4.4-11.8 4.4-11.8z"/><path id="Layer" class="s2" d="m153.8 74.3-1 9.8s.5 5.6 6.7 4.5q1.3-.2 2.6-.8 1.3-.6 2.4-1.4 1.1-.8 2-1.8.9-1.1 1.6-2.3.1-.3.1-.6 0-.4.1-.7v-.6q0-.3-.1-.6l.3-5.8c.2-2.9.6-6 .5-8.9-.1-3.5 1.2-7-2.8-7.6-1.9-.3-7.8-1.9-7.7-4.7q0 .7.1 1.4.1.8.3 1.4l.6 1.4q.4.6.8 1.1l-3.4-2.2-.8-.6q-.4-.2-.8-.6-.4-.3-.7-.6-.4-.3-.7-.7l-.6-.8q-.2-.4-.3-.9-.2-.5-.2-1t.1-.9c-5.4 5.4-4.6 12.2-4.6 19.3-.1 3.1 2.1 5.6 5.5 5.2z"/><path id="Layer" fill-rule="evenodd" class="s3" d="M157.9 89.2h-.9q-.4-.1-.9-.2l-.8-.4-.8-.4q-.4-.4-.8-.9-.4-.4-.6-.9-.3-.5-.5-1.1-.2-.6-.2-1.1l.9-9.5q-.5.1-1 0-.5 0-.9-.2-.5-.1-.9-.4-.5-.2-.8-.6-.5-.4-.9-.9-.3-.5-.6-1.1-.2-.6-.3-1.2-.1-.6-.1-1.2v-2.6c-.1-6.3-.1-12.2 4.8-17q0-.1.1-.1h.1q.1-.1.2 0h.1q.1 0 .1.1l.1.1q.1.1.1.2v.1q-.1.5-.1.9t.1.8q.2.5.4.8.2.4.5.8l.6.6.7.7q.4.3.8.5.4.3.8.5l1.6 1.2q-.2-.5-.3-1-.2-.4-.3-.9-.1-.5-.1-1v-1.1q.1-.1.1-.2.1 0 .2-.1H158.7l.2.2.1.1v.2c-.1 2.2 4.9 3.8 7.3 4.2 3.5.6 3.4 3.3 3.3 6 0 .7-.1 1.4-.1 2.1v3q-.1.8-.1 1.5-.1.8-.2 1.5c0 1-.1 2-.2 2.9l-.3 5.8v1.7q0 .3-.1.5 0 .2-.1.5-.7 1.3-1.6 2.4-1 1-2.1 1.9-1.2.9-2.5 1.4-1.4.6-2.8.9h-1.6zm-4.6-5q.1 1 .6 1.9.6 1 1.5 1.5.9.6 1.9.8 1.1.1 2.1-.2 1.3-.3 2.5-.8 1.3-.5 2.3-1.3 1.1-.8 2-1.8.9-1 1.5-2.2 0-.2.1-.4v-2l.3-5.8q.1-1.5.2-2.9.1-.7.2-1.5v-1.4q.1-.8.1-1.5v-1.5c0-.7 0-1.5.1-2.2.1-2.9.1-4.6-2.6-5 0 0-4.6-.8-6.8-2.7q.1.4.2.7.2.4.4.7.1.4.4.7l.4.6q.1 0 .1.1V58.3q0 .1-.1.2l-.1.1H160.3q-.1 0-.2-.1l-3.4-2.2q-.5-.3-.9-.6l-.8-.6q-.4-.3-.7-.7-.4-.3-.7-.7-.3-.3-.5-.6t-.3-.7-.3-.7q-.1-.3-.1-.7c-3.8 4.5-3.8 9.8-3.7 15.5v2.6q0 .5.1 1t.3 1q.2.5.5 1 .3.4.7.8.3.3.7.5.4.2.9.3.4.1.9.2.5 0 .9-.1h.2q.1 0 .1.1h.1l.1.1v.1l.1.1v.1z"/><path id="Layer" class="s3" d="M153.4 79.1q.9.1 1.8 0 .9 0 1.8-.3.9-.2 1.7-.6.8-.4 1.5-1 .6-.4 1.1-1 .5-.6.8-1.3.4-.6.6-1.3.2-.8.2-1.5c.1-.5-4.6 2.5-9.1 2.2z"/><path id="Layer" fill-rule="evenodd" class="s3" d="M154.4 79.6h-.8q-.1 0-.3-.1h-.1l-.1-.1q-.1-.1-.1-.2v-.1l.4-4.9V74q.1 0 .1-.1.1 0 .2-.1h.1c4.4.3 8.9-2.1 8.9-2.1q.1 0 .1-.1h.2l.1.1q.1 0 .1.1h.1q0 .1.1.1v.1q-.1.9-.3 1.6-.2.8-.5 1.5-.4.7-.9 1.4-.5.6-1.2 1.1-.6.5-1.3.9-.8.4-1.5.6-.8.3-1.6.4-.8.1-1.7.1zm-.5-.9q.8.1 1.6 0t1.6-.3q.8-.3 1.5-.6.7-.4 1.3-.9.5-.4.9-.9.4-.4.7-.9.4-.6.6-1.1.2-.6.3-1.2-.9.5-1.9.8-1 .4-2.1.6-1 .3-2.1.4-1 .1-2.1.1z"/><path id="Layer" class="s3" d="M155.2 67h-.7q-.3 0-.6-.1t-.5-.3q-.3-.2-.5-.4c-.8-1 1.5-4.1 3-5.9q.1-.1.3-.1.2-.1.3.1.1.1.2.3 0 .1-.1.3c-1.7 2.1-3.1 4.3-2.9 4.8.3.5 1.7.5 2.4.4q0-.1.1 0h.2q.1.1.1.2l.1.1v.2l-.1.1q-.1.1-.1.2h-.2q-.1 0-.3.1h-.7z"/><path id="Layer" class="s2" d="M166.2 59.8q.2-.5.4-.9.3-.4.5-.8l.6-.8q.3-.4.7-.7.3-.3.8-.6.4-.2.9-.2.5-.1.9 0 .5 0 1 .3c1.2.7 1.4 2.4 1.3 3.8l-.2 1.2q-.1.6-.3 1.2-.1.5-.3 1.1-.2.6-.5 1.1-.1.4-.3.7-.1.3-.3.6-.2.3-.5.6l-.5.5q-.3.2-.6.3-.3.2-.7.2-.3 0-.7-.1-.3-.1-.6-.3"/><path id="Layer" class="s3" d="M168.9 67.8h-.4q-.2 0-.4-.1-.1-.1-.3-.1-.2-.1-.3-.3-.2-.1-.2-.3 0-.2.1-.3.1-.1.3-.2.2 0 .4.1.2.2.5.3h.5q.3 0 .6-.1.2-.1.4-.3.3-.2.5-.5.2-.2.4-.5t.3-.5q.2-.3.3-.7l.4-1 .4-1.2q.1-.5.3-1.1l.2-1.2c0-.6.1-2.6-1.2-3.4l-.8-.2h-.8q-.4.1-.8.3-.3.1-.6.4-.4.4-.6.7-.3.4-.6.7l-.4.8q-.3.4-.4.8-.1.1-.1.2-.1 0-.2.1h-.2q-.1 0-.1-.1-.1 0-.2-.1l-.1-.1v-.2q0-.1.1-.2.1-.4.4-.9.2-.4.5-.8.3-.5.6-.9.4-.3.7-.7.4-.4.9-.6.5-.2 1.1-.3.5-.1 1.1 0 .5.1 1 .3c1.7 1 1.7 3.4 1.6 4.3l-.2 1.2q-.1.6-.3 1.2l-.4 1.2-.4 1.2q-.2.4-.3.7-.2.3-.4.7-.3.3-.5.6-.3.3-.6.5-.2.2-.4.3l-.4.2q-.3 0-.5.1h-.5zM162.9 61.8c-.3 0-.5-.6-.5-1.5 0-.8.2-1.4.5-1.4.4 0 .6.6.6 1.4 0 .9-.2 1.5-.6 1.5zM151.9 61.8c-.3 0-.5-.6-.5-1.5 0-.8.2-1.4.5-1.4.4 0 .6.6.6 1.4 0 .9-.2 1.5-.6 1.5z"/><path id="Layer" fill-rule="evenodd" class="s3" d="M152.5 63h-3q-.6 0-1.2-.2-.5-.3-1-.7-.4-.5-.7-1-.2-.6-.2-1.2V58q.1-.1.1-.2.1 0 .2-.1h8.7q.1.1.2.1 0 .1.1.2V59.9q0 .6-.2 1.2-.3.5-.7 1-.5.4-1 .7-.6.2-1.3.2zm-5.2-4.4v1.3q0 .4.1.8.2.4.5.8.3.3.7.4.5.2.9.2h3q.5 0 .9-.2.4-.1.7-.4.3-.4.5-.8t.2-.8v-1.3zM162.8 63h-3q-.6 0-1.2-.2-.6-.3-1-.7-.5-.5-.7-1-.2-.6-.3-1.2v-1.8q.1 0 .1-.1t.1-.2l.1-.1H165.7l.1.1q.1.1.1.2l.1.1v1.8q0 .6-.3 1.2-.2.5-.7 1-.4.4-1 .7-.6.2-1.2.2zm-5.3-4.4v1.3q0 .4.2.8t.5.8q.3.3.7.4.4.2.9.2h3q.4 0 .8-.2.4-.1.8-.4.3-.4.4-.8.2-.4.2-.9v-1.2z"/><path id="Layer" class="s3" d="M157.2 59.8h-.2v-.1q-.2-.1-.4-.1h-.8q-.2 0-.4.1 0 .1-.1.1t-.2-.1h-.2q0-.1-.1-.2V59.2q.1 0 .1-.1t.1-.1l.6-.2q.3-.1.6-.1t.6.1l.6.2q.1 0 .1.1.1.1.1.2v.1q0 .1-.1.2v.1h-.1l-.1.1h-.1zM168.3 79.8c-.1 0-4.5 18.1-6 29.3-.8 6.8-6.7 29.4-2 44l25.2.8s-3.8-28.1-3.8-31.1 4.7-23.6 4.7-23.6 17.1 16 16.9 19.2c-.3 3.3-14.4 21.4-14.4 21.4l7.9 10.4s26.8-16.6 25-30c-1.8-13.4-24-33.8-28.3-38.1-5.6-5.6-25.3-2.3-25.3-2.3z"/><path id="Layer" fill-rule="evenodd" class="s3" d="m185.5 154.3-25.2-.8h-.1q-.1 0-.1-.1-.1 0-.1-.1l-.1-.1c-3.8-11.9-.7-28.7 1.1-38.8.4-2.2.8-4.1.9-5.3 1.4-11.2 5.9-29.3 5.9-29.5l.1-.1.1-.1.1-.1h.1c.8-.1 20-3.2 25.6 2.5l1.9 1.8c6.8 6.7 25 24.4 26.6 36.5.8 5.7-3.3 12.6-12 20.4q-1.5 1.4-3.2 2.7l-3.2 2.6-3.4 2.4q-1.7 1.2-3.4 2.3-.1.1-.2.1h-.1q-.1 0-.2-.1-.1 0-.1-.1l-7.9-10.4-.1-.1V139.6q0-.1.1-.1c3.9-5 14-18.6 14.2-21.1.2-2.2-9.6-12.2-16.1-18.4-.8 3.7-4.5 20.2-4.5 22.7 0 2.9 3.7 30.8 3.8 31.1q0 .1-.1.2v.2q-.1 0-.2.1h-.2zm-24.8-1.7 24.3.8c-.5-4-3.7-27.9-3.7-30.7 0-3 4.5-22.8 4.7-23.7l.1-.1v-.1h.1l.1-.1H186.6l.1.1c1.8 1.7 17.3 16.3 17 19.6-.2 3.2-12 18.5-14.2 21.3l7.5 9.9c3-2 26-17.3 24.5-29.4-1.6-11.8-19.6-29.4-26.4-36l-1.9-1.9c-5-5-22.1-2.6-24.6-2.2-.5 2.3-4.5 18.7-5.8 29-.1 1.3-.5 3.1-.9 5.4-1.7 9.3-4.9 26.4-1.2 38.1z"/><path id="Layer" class="s2" d="M181.6 144.7h-.2v-.1h-.1l-16.1-9.6q-.1-.1-.2-.3-.1-.2 0-.3.2-.2.4-.3.2 0 .3.1l16.1 9.5q.1.1.1.2.1 0 .1.1.1.1 0 .2v.2l-.1.1q0 .1-.1.1t-.1.1h-.2z"/><path id="Layer" class="s3" d="M152.3 81.3s-2.6 14.8-4 24.6c-3.8 26-7.2 45.5-7.2 45.5s-16.2-.7-15.4-1.2c.7-.5 9.4-25.1 8.4-30.6-1-5.4-4-15.3-3.2-17.5.7-2.2 6-17 6-17s5.2-3.8 15.4-3.8z"/><path id="Layer" fill-rule="evenodd" class="s3" d="M141.1 151.8c-15.7-.7-15.8-1.1-15.9-1.5v-.1q0-.1.1-.2v-.1q.1 0 .1-.1c.7-.8 9.3-24.8 8.3-30.1-.3-1.8-.9-4.1-1.4-6.4-1.2-5-2.4-9.8-1.8-11.4.7-2.2 5.9-16.8 6-17v-.1h.1v-.1c.2-.1 5.5-3.8 15.7-3.8h.2l.1.1.1.1V81.4c0 .1-2.6 14.9-4 24.6-3.7 25.7-7.1 45.2-7.1 45.4q0 .1-.1.2 0 .1-.1.1l-.1.1h-.2zm-14.8-1.8c1.9.3 9.4.7 14.4.9.5-2.8 3.7-21.3 7.1-45 1.3-8.7 3.5-21.4 3.9-24.1-8.8.1-13.7 3.1-14.5 3.6-.5 1.5-5.2 14.8-5.9 16.9-.5 1.3.7 6.3 1.8 10.8.6 2.4 1.1 4.7 1.5 6.5.5 3.2-2 12.2-3.6 17.3q-.5 1.7-1.1 3.3-.5 1.7-1.1 3.3-.6 1.7-1.2 3.3-.6 1.6-1.3 3.2z"/><path id="Layer" class="s2" d="M195.4 148.3s-7.1 3.4-9.8 2.5c-2.6-.8-6.6-4.3-6.6-4.3s-6.7-.4-6.8-1.6c-.1-1.1 2.9-1.5 6.2-.8 0 0-6.1-1.3-6.2-1.9q0-.3.1-.6.1-.2.4-.4l.4-.4q.3-.1.6-.1c.9 0 4.9.7 4.9.7s-4.8-.9-4.5-2c.4-1.1 4.3-.3 4.3-.3s-3.8-1-3-2c1.1-1.4 8.3 2.1 9.3 2.8q.6.5 1.2.9t1.3.6q.7.3 1.4.4.7.1 1.4.1z"/><path id="Layer" fill-rule="evenodd" class="s3" d="M186.7 151.4q-.2.1-.3 0h-.6q-.2-.1-.3-.1c-2.5-.8-6-3.7-6.7-4.3-3.2-.2-6.9-.7-7-2v-.3q0-.2.1-.3.1-.1.1-.2l.2-.2q.2-.2.4-.3.2-.1.3-.1l.4-.2q.2 0 .4-.1c-1.8-.5-1.8-.9-1.9-1.1v-.3q0-.2.1-.4 0-.1.1-.3l.3-.3.3-.3q.1-.1.3-.2.2-.1.4-.1.2-.1.4-.1h.2v-.1q-.1 0-.1-.1-.1-.1-.1-.2v-.2q-.1-.1-.1-.2l.1-.1c.2-.6.9-.9 1.8-.9l-.2-.2q-.1 0-.2-.1t-.1-.2-.1-.2q-.1-.1-.1-.3v-.2q.1-.1.1-.2t.1-.2c1.5-1.9 9.3 2.2 10 2.8q.5.4 1.1.8.6.3 1.3.5.6.3 1.3.4.6.1 1.3.1h.1l.1.1h.1l.1.1 5.3 6.4h.1v.4q0 .1-.1.1v.1q-.1 0-.1.1c-.3.1-5.7 2.7-8.9 2.7zm-11.4-7.2h-.6q-.4 0-.7.1-.3 0-.6.1-.3.2-.6.3c-.1.1-.1.2-.1.2.3.4 3.2 1 6.3 1.2h.2l.1.1s3.9 3.4 6.5 4.2c1.8.6 6.6-1.2 8.9-2.2l-4.8-5.8q-.8 0-1.5-.2-.7-.1-1.4-.4-.7-.2-1.3-.6-.7-.3-1.2-.8c-1.5-1.1-8-3.9-8.7-2.9 0 .3 1.4.9 2.7 1.2q.1.1.2.1 0 .1.1.1v.5l-.2.2H178.3c-1.9-.3-3.6-.3-3.7 0 .1.4 2.1 1 4.1 1.4q.1 0 .2.1l.1.1q0 .1.1.2v.1q-.1.1-.1.2l-.1.1q-.1.1-.2.1h-.2c-1.1-.2-4.1-.7-4.8-.7h-.2q-.1.1-.2.1-.1.1-.2.1l-.2.2-.1.1v.1l-.1.1v.2q.7.2 1.4.5l1.4.4q.7.2 1.4.3.8.2 1.5.3h.1q.2.1.3.2.1.2.1.4t-.2.3q-.2.1-.4 0h-.1q-.4 0-.7-.1-.4-.1-.7-.1-.4-.1-.8-.1h-.7z"/><path id="Layer" class="s3" d="M156.8 70q-.7 0-1.5-.2-.7-.1-1.4-.3-.8-.2-1.5-.5-.6-.3-1.3-.7-.1-.1-.2-.3 0-.1.1-.3l.2-.2q.2 0 .4.1s5.5 3.4 9.1 0q.1-.1.3-.1.2 0 .3.1.2.2.2.4-.1.1-.2.3-.4.4-1 .7-.5.4-1.1.6-.5.2-1.1.3-.7.1-1.3.1z"/><path id="Layer" class="s2" d="M34.1 114.4h87.8v55H34.1z"/><path id="Layer" fill-rule="evenodd" class="s3" d="M122 169.8H33.9q-.1 0-.2-.1 0-.1-.1-.1V114.2l.1-.1q.1-.1.2-.1.1-.1.2-.1H122q.1 0 .2.1.1 0 .1.1.1 0 .1.1V169.6l-.1.1q0 .1-.1.1h-.2zm-87.4-.9h87v-54.1h-87z"/><path id="Layer" class="s1" d="M52.1 154v1.7h3.3v1.6h-3.3v3.2h-2v-8.2h5.6v1.7z"/><path id="Layer" fill-rule="evenodd" class="s1" d="M65.8 156.4v.4q-.1.2-.1.5-.1.2-.1.4l-.2.4-.2.4-.2.4-.3.3q-.1.2-.3.3l-.3.3-.4.2q-.1.1-.3.2l-.4.2q-.3.1-.5.1-.2.1-.4.1-.3.1-.5.1h-.9q-.3 0-.5-.1-.2 0-.5-.1-.2 0-.4-.1l-.4-.2-.4-.2q-.2-.1-.3-.2-.2-.2-.4-.3l-.3-.3q-.1-.2-.2-.3-.2-.2-.3-.4l-.2-.4-.2-.8q-.1-.5-.1-.9 0-.5.1-.9.1-.5.2-.9l.2-.4q.1-.2.3-.3.1-.2.2-.3l.3-.3q.2-.2.4-.3.2-.1.3-.2l.4-.2.4-.2q.2-.1.4-.1.3-.1.5-.1.2-.1.5-.1h.9q.2 0 .5.1.2 0 .4.1.2 0 .5.1l.4.2q.2.1.3.2l.4.2q.2.1.3.3.2.1.3.3.2.1.3.3.1.1.2.3l.2.4.2.4q0 .2.1.5 0 .2.1.4v.5zm-2.2 0v-.3q0-.1-.1-.2v-.3q0-.1-.1-.2 0-.1-.1-.2 0-.1-.1-.2t-.1-.2l-.2-.2-.2-.2q0-.1-.1-.1-.1-.1-.2-.1-.1-.1-.2-.1-.2-.1-.3-.1-.1-.1-.2-.1h-1.1q-.1 0-.2.1-.1 0-.2.1-.1 0-.2.1-.1 0-.2.1t-.2.1l-.2.2-.2.2-.1.1q0 .1-.1.3-.1.1-.1.2t-.1.2v.3q-.1.1-.1.2v.5q.1.2.1.3v.2q.1.2.1.3.1.1.1.2.1.1.1.2l.2.2q0 .1.1.2t.2.1l.2.2q.1 0 .2.1.1 0 .2.1.2.1.5.1.2.1.5.1.2 0 .5-.1.2 0 .5-.1.1-.1.2-.1.1-.1.2-.1.1-.1.1-.2.1 0 .2-.1l.2-.2q0-.1.1-.2t.1-.2.1-.2q.1-.1.1-.3 0-.1.1-.2v-.5zM71.6 160.5l-1.8-3.3h-.7v3.3h-2v-8.2h3.5q.2 0 .3.1h.6q.1.1.3.1.1.1.2.1.2.1.3.1l.2.2q.1 0 .2.1l.2.2.2.2q.1.1.1.2.1.2.2.3 0 .1.1.3v1q0 .1-.1.3-.1.2-.1.4l-.3.3q-.1.1-.2.3-.2.1-.3.2l-.4.2q-.1 0-.3.1l2.2 3.5zm-.1-5.7v-.2l-.1-.1v-.1l-.1-.1q0-.1-.1-.1l-.1-.1H71l-.1-.1h-.2q-.1 0-.1-.1H69v1.9h1.2q0 .1.1.1l.1-.1h.5l.1-.1q.1 0 .1-.1h.1l.1-.1q0-.1.1-.1v-.1q.1-.1.1-.2V154.8z"/><path id="Layer" class="s1" d="M82.5 154.4q-.1 0-.2-.1l-.2-.2-.1-.1q-.1 0-.2-.1h-.2q-.1-.1-.2-.1h-.2q-.1-.1-.2-.1h-.4q-.1.1-.2.1t-.2.1-.2.1q-.1 0-.1.1t-.1.1v.6l.1.1.1.1.1.1q.1 0 .1.1h.1q.1 0 .1.1h.1l.6.2.9.3q.1 0 .2.1.1 0 .2.1.1 0 .2.1t.2.1l.2.2q.1 0 .2.1 0 .1.1.2t.1.2l.2.2v.3q.1.1.1.2v.6q0 .2-.1.3v.3q-.1.2-.2.3 0 .1-.1.3l-.2.2-.2.2-.2.2q-.1.1-.2.1-.1.1-.3.2-.1 0-.2.1-.2 0-.3.1h-.3q-.1.1-.3.1h-1.5q-.2-.1-.4-.1l-.4-.2q-.2 0-.4-.1l-.4-.2q-.2-.1-.3-.3l-.4-.2 1.4-1.4.2.2.2.2q.1.1.2.1l.2.2q.1 0 .2.1h.3q.1.1.2.1H81q.1 0 .1-.1h.1q.1 0 .1-.1h.1l.1-.1q0-.1.1-.1v-.2l.1-.1V158l-.1-.1v-.1h-.1v-.1l-.1-.1-.1-.1h-.1l-.1-.1q-.1 0-.2-.1h-.1q-.1 0-.1-.1l-.8-.2q-.1 0-.2-.1h-.2q-.1-.1-.2-.1-.1-.1-.2-.1-.1-.1-.2-.1t-.1-.1q-.1-.1-.2-.1-.1-.1-.2-.1-.1-.2-.3-.4l-.2-.4q-.1-.2-.1-.4-.1-.2 0-.4V154.1q.1-.2.1-.3.1-.2.1-.3l.2-.2.2-.2.2-.2.2-.2q.1-.1.2-.1.2-.1.3-.2.1 0 .2-.1.2 0 .3-.1h.3q.1 0 .3-.1h1q.1 0 .3.1h.4q.2.1.3.2.2 0 .4.1t.3.2l.4.2.2.2z"/><path id="Layer" fill-rule="evenodd" class="s1" d="m90.8 160.5-.7-1.6h-3.2l-.7 1.6H84l3.5-8.2h2l3.5 8.2zm-2.2-6-1.1 2.8h2.1z"/><path id="Layer" class="s1" d="M93.7 160.5v-8.2h2v6.5H99v1.7zM100 160.5v-8.2h5.7v1.7H102v1.6h3.5v1.5H102v1.7h3.9v1.7z"/><path id="Layer" class="s2" d="m89.3 67.9-1.2-6.2s-8.7-3.6-9.7-5.8c-2.3-4.9 5.5 1.4 7.1 1.4 1.7 0 1-2.3.6-2.5q-1-.3-2.1-.5-1.1-.3-2.3-.5l-2.2-.4q-1.1-.2-2.2-.3c-2 0-.4-2.5 1.5-2.9 1.9-.3 7.7 1.1 7.7 1.1s-8.7-6.7-7.7-7.8c1-1.2 6.8 2 10.2 6 0 0-7.2-7.2-5.8-8.4 1.5-1.2 5.3 2.8 8.2 7.1 0 0-4.3-8-1.6-8.7 2.7-.6 5.6 6 6.6 10.2 1.4 5.7 1 4 4.5 15.6"/><path id="Layer" fill-rule="evenodd" class="s3" d="m89.1 68.4-.1-.1-.1-.1q-.1-.1-.1-.2l-1.1-6c-1.6-.7-8.7-3.8-9.7-6-.4-.8-.8-1.8-.2-2.3h.1v-.1h.1q.1 0 .1-.1h-.8c-1.2 0-1.3-.7-1.4-1-.1-1.1 1.4-2.6 2.8-2.8 1.3-.3 4 .2 6 .6-2.3-1.9-6.2-5.2-6.4-6.6v-.2l.1-.1v-.2l.1-.1.2-.2q.2-.1.3-.1.1-.1.3-.1h.3q.6.1 1.2.3.6.1 1.2.4.6.2 1.2.5.5.4 1 .7c-1-1.3-1.6-2.5-1.6-3.2v-.2q.1-.1.1-.2.1-.1.1-.2l.2-.2q.1-.1.2-.1.2-.1.3-.1.2-.1.3-.1h.4c1.3.3 3.3 2 5.1 4.2-.6-1.7-1.1-3.6-.6-4.6q.1-.2.2-.3.1-.2.2-.3.2-.1.3-.2.2 0 .4-.1h.4q.2-.1.5 0 .2 0 .4.1l.4.2c2.5 1.5 4.6 6.9 5.4 10.2 1.1 4.3 1.1 4.3 2.5 9l2 6.5q0 .2-.1.3 0 .2-.2.2-.2.1-.4 0-.1-.1-.2-.3c-.8-2.9-1.5-5-1.9-6.5-1.4-4.7-1.5-4.7-2.6-9.1-1-3.6-3-8.2-5-9.4q-.1-.1-.3-.1-.1-.1-.2-.1h-.7q-.1.1-.2.1 0 .1-.1.1v.2c-.6 1.3 1.1 5.4 2.2 7.6q.1.1.1.3-.1.2-.2.3h-.4q-.1 0-.2-.1c-2.6-3.9-5.6-6.9-7-7.2H83.7l-.1.1h-.1c-.1 1 2.1 3.8 4.2 6q.2.2.4.5l.4.4q.3.2.5.5l.4.4q.1.2.1.4t-.2.3q-.1.1-.3.1-.2 0-.3-.2c-.3-.2-1-.9-1.7-1.7-2.8-2.6-6.1-4.4-7.5-4.4-.2 0-.3 0-.3.1 0 .7 4 4.3 7.6 7.1l.1.1q.1.1.1.2v.1q0 .1-.1.2 0 .1-.1.1 0 .1-.1.1H86.4c-1.6-.4-6.1-1.3-7.5-1-1.2.2-2.1 1.3-2 1.8 0 .1.3.2.4.2q1.2.1 2.3.3 1.1.1 2.3.3 1.1.3 2.2.5l2.2.6c.6.2.9 1.4.8 2.1q-.1.3-.2.5-.1.3-.3.4-.2.2-.5.3-.3.1-.5.1c-.7 0-1.8-.6-3.5-1.6-1.1-.7-3.2-1.9-3.7-1.7q0 .2.1.3 0 .2.1.3 0 .2.1.3 0 .2.1.3c.8 1.7 7.2 4.6 9.5 5.6q.1 0 .1.1h.1l.1.1v.2l1.1 6.2q.1 0 0 .1v.2q-.1.1-.2.1 0 .1-.1.1h-.3zm-9.6-14.6.8.4.8.4q.4.1.7.4.4.2.7.4l.8.4q.3.2.7.4l.8.4q.4.1.7.2.6 0 .6-.3.1-.2.1-.3v-.4q-.1-.2-.1-.3-.1-.2-.2-.3c-.2-.1-3.7-.9-6.4-1.4z"/><path id="Layer" fill-rule="evenodd" class="s4" d="m69.8 56.2 10.1-3.1q.5-.2.9-.1.5.1.9.4.4.2.6.6.2.4.2.9l.3 9.9-2.6 3 .6 18.8-2.2 2.5s-2.5-2.4-2.6-3c-.1-.6.8-1.3.7-1.4q-.2-.1-.3-.3-.2-.1-.3-.3-.1-.1-.2-.3l-.2-.4v-.2q.1-.2.1-.3l.2-.2.2-.2-1-.9q-.1-.4-.2-.7v-.8q-.1-.4-.1-.7.1-.4.1-.8c0-.6 1-1.3 1-1.3s-1.4-.5-1.4-1c-.1-.6.9-1.5.9-1.5l-1.8-.8-.2-5-3.2.1-1.9-2.4-.2-8.8zm6.3 2.3 4.1-.7s.4-3.4-.2-3.6c-.5-.1-4.3 1.4-4.3 1.4z"/><path id="Layer" fill-rule="evenodd" class="s3" d="M78.6 89.6h-.1q-.1 0-.1-.1h-.1v-.1c-1-.9-2.7-2.5-2.8-3.2v-.4q0-.2.1-.4t.2-.3l.2-.4q-.2-.1-.3-.2-.1-.2-.2-.3-.1-.2-.2-.3 0-.2-.1-.4v-.3q0-.1.1-.2v-.3l.2-.2-.7-.6c-.5-.5-.3-3.3-.3-3.3q0-.2.1-.3.1-.2.1-.3.1-.2.2-.3.1-.2.3-.3c-.5-.2-1.1-.6-1.1-1q.1-.2.1-.4t.1-.4q.1-.1.2-.3.1-.2.2-.3l-1.1-.5q-.1 0-.1-.1-.1 0-.1-.1-.1 0-.1-.1v-.1l-.2-4.6-2.8.1h-.2q0-.1-.1-.1v-.1L68.1 67v-.1H68v-.2l-.3-8.8v-.1q0-.1.1-.1v-.1l1.6-1.7h.1v-.1h.1l10.2-3.2q.5-.1 1.1 0 .5.1 1 .4.5.3.7.8.3.5.3 1.1l.4 9.9v.1q0 .1-.1.1v.1l-.1.1-2.5 2.8.6 18.6V86.9h-.1l-2.2 2.6q-.1 0-.1.1h-.2zm-4.4-15.8 1.5.6q.1 0 .1.1l.1.1v.1q.1 0 .1.1v.1l-.1.1v.1l-.1.1c-.4.4-.8.9-.8 1.1q.2.1.3.2.1.1.3.2.1 0 .3.1.1.1.3.1l.1.1q.1 0 .1.1l.1.1V77.5l-.1.1q0 .1-.1.1c-.3.3-.8.7-.8 1q-.1.3-.1.7V80.7q.1.3.1.6c.2.2 1 .9 1 .9q.1 0 .1.1l.1.1v.2q0 .1-.1.1v.1q0 .1-.1.1l-.1.1h-.1q0 .1-.1.1V83.4c0 .3.5.8.7 1q.1 0 .1.1h.1v.5H77c-.2.3-.6.8-.5 1q.2.4.5.7.2.3.5.6.2.3.5.6l.6.6 1.8-2-.6-18.7v-.2l.1-.1 2.5-2.8L82 55q0-.4-.2-.7-.1-.3-.4-.5-.3-.2-.7-.3-.3 0-.7.1l-10 3.1-1.3 1.4.2 8.5 1.7 2.1 3-.1h.2q0 .1.1.1.1.1.1.2v.1zM76 59.1h-.1q0-.1-.1-.1l-.1-.1v-.1q-.1 0-.1-.1l-.3-2.9V55.5l.1-.1q.1-.1.2-.1c1.8-.7 4-1.5 4.6-1.4.3.1.9.3.5 4.1q-.1.1-.1.2l-.1.1q0 .1-.1.1h-.1l-4.1.7H76zm.2-3.1.3 2.1 3.3-.5v-.7q.1-.3.1-.7v-.7q-.1-.3-.1-.7-.5.2-.9.3-.5.1-.9.3-.5.1-.9.3-.5.1-.9.3z"/><path id="Layer" class="s3" d="M79.2 86.5H79q-.1 0-.1-.1l-.1-.1q-.1-.1-.1-.2l-.6-18.3q0-.1.1-.2 0-.1.1-.2l.1-.1H78.7q.1 0 .2.1l.1.1v.2l.7 18.4q0 .1-.1.1 0 .1-.1.2 0 .1-.1.1h-.2z"/><path id="Layer" fill-rule="evenodd" class="s3" d="M72.8 67.4q0-.1-.1-.1h-.1l-2.4-1.2V66q-.1 0-.1-.1-.1 0-.1-.1v-.1l-.9-6.5v-.1l.1-.1.9-1.7.1-.1q0-.1.1-.1l3.9-1.4.1-.1h.2q.1 0 .1.1h.1l.1.1v.2l.5 3.4 4-.3H79.6v.1q.1 0 .1.1h.1v.2l.2 5.6v.1q-.1.1-.1.2-.1 0-.1.1h-.2l-6.7 1.8zm-1.9-2 2 1 6.2-1.6-.1-4.7-4 .4h-.2l-.1-.1q-.1-.1-.2-.1v-.2l-.5-3.3-3.2 1.1-.8 1.4z"/><path id="Layer" class="s2" d="M79.9 54.3q-.2-.2-.4-.3-.1-.1-.3-.2l-.4-.2-.4-.2q-.2-.1-.5-.2-.2-.1-.4-.1H77q-.2 0-.4.1-.1 0-.2.1l-.2.2q0 .1-.1.2v.5q0 .1.1.3v.2q.1.1.1.2c.5 1.1 2.4 2.2 3.6 2.5"/><path id="Layer" class="s3" d="M79.9 57.8h-.1c-1.3-.3-3.4-1.4-3.9-2.7q-.1-.1-.1-.3-.1-.1-.1-.3v-.2q-.1-.2-.1-.3.1-.2.1-.4.1-.2.1-.3.1-.2.3-.3l.2-.2c.8-.5 2.2.2 2.3.2l.4.2q.2.1.3.1.2.1.3.2.2.1.3.2.1.1.3.2l.1.1q0 .1.1.2 0 .1-.1.2v.1q-.1.1-.2.1l-.1.1h-.2q-.1 0-.2-.1l-.2-.2q-.1 0-.3-.1l-.2-.2q-.1 0-.3-.1l-.4-.2q-.2-.1-.3-.1-.2-.1-.4-.1-.2-.1-.3-.1-.2 0-.4.1l-.1.1-.1.1V54.4q0 .1.1.2v.2c.4.9 2.3 1.9 3.3 2.2q.2 0 .3.1.1.2.1.3-.1.2-.2.3-.1.1-.3.1z"/><path id="Layer" class="s2" d="M163.5 112.5h-.2q0-.1-.1-.1l-.1-.1-.1-.1v-.4q.1-.1.1-.2l10.1-8.9-3.9-5.6v-.2q-.1-.1-.1-.2l.1-.1q0-.1.1-.2l7.2-6.1c-4.9-7.7-4.9-8.1-4.9-8.3v-.2l.1-.1q.1-.1.2-.1.1-.1.2-.1t.2.1q.1 0 .1.1.1 0 .1.1.1.1.1.2c.2.6 2.7 4.6 5 8.1v.2q.1.1.1.2-.1.1-.1.2l-.1.1-7.2 6.1 3.9 5.6q.1.1.1.2V103q-.1.1-.1.2l-10.5 9.2q-.1 0-.1.1h-.2zM145.6 114.1h-.2q-.1 0-.1-.1-.1 0-.1-.1-.1 0-.1-.1l-4.4-9.3q-.1 0-.1-.1v-.2q0-.1.1-.1l4-6.9-4.9-3.5h-.1q0-.1-.1-.1v-.5q0-.1.1-.1l8.1-9.1q.2-.2.3-.2.2 0 .4.2.1.1.2.3 0 .2-.1.4l-7.8 8.6 4.8 3.4.1.1q.1.1.1.2v.2q0 .1-.1.2l-4.1 7 4.4 9.1v.2q.1.1 0 .2 0 .1-.1.2l-.1.1h-.2zM130.3 144.2h-.2q0-.1-.1-.1t-.1-.1l-.1-.1v-.2q-.1-.1 0-.2 0-.1.1-.1 0-.1.1-.2l8.7-5h.4l.2.2q.1.2.1.4t-.2.3l-8.7 5h-.1l-.1.1h-.1z"/><path id="Layer" fill-rule="evenodd" class="s1" d="M88.7 147.3H68l-.1-.1q-.1-.1-.1-.2-.1-.1-.1-.2v-18.4q0-.1.1-.2 0-.1.1-.2 0-.1.1-.1h20.9q.1 0 .2.1 0 .1.1.2V147q-.1.1-.1.2-.1 0-.2.1h-.2zm-20-1h19.5v-17.4H68.7z"/><path id="Layer" class="s1" d="m78.5 120.7 13 7.7H65.4z"/><path id="Layer" fill-rule="evenodd" class="s1" d="M91.5 128.9H65.4l-.1-.1h-.2q0-.1-.1-.2v-.1q-.1-.1-.1-.2l.1-.1q0-.1.1-.2l.1-.1 13-7.6q0-.1.1-.1H78.6l.1.1 13 7.6.1.1q.1.1.1.2v.1q.1.1 0 .2v.1q-.1.1-.1.2h-.2q0 .1-.1.1zm-24.2-1h22.4l-11.2-6.6zM81.3 147.3h-5l-.1-.1q-.1 0-.2-.1l-.1-.1q0-.1-.1-.2v-7.9q.1-.1.1-.2t.1-.1l.2-.2h5.3l.2.2q.1 0 .1.1V147l-.1.1q-.1.1-.2.1-.1.1-.2.1zm-4.5-1h4v-6.9h-4z"/><path id="Layer" class="s1" d="M68.2 130.2H55l-5.6 7.4h18.8z"/><path id="Layer" fill-rule="evenodd" class="s1" d="M68.2 138.1h-19q-.1 0-.1-.1-.1 0-.1-.1-.1 0-.1-.1l-.1-.1V137.4q.1 0 .1-.1l5.6-7.4.1-.1q.1 0 .1-.1h13.7q.1 0 .1.1.1.1.1.2.1.1.1.2v7.4q0 .1-.1.2 0 .1-.1.1 0 .1-.1.1-.1.1-.2.1zm-17.8-1h17.3v-6.4H55.2z"/><path id="Layer" fill-rule="evenodd" class="s1" d="M68.2 147.3H50.6q-.1-.1-.2-.1 0-.1-.1-.2v-9.6q.1-.1.1-.2.1 0 .2-.1h17.8q.1.1.2.1 0 .1.1.2v9.6q-.1.1-.1.2-.1 0-.2.1h-.2zm-16.9-1h16.4v-8.2H51.3z"/><path id="Layer" class="s1" d="M87 140.2H70l1.5-2.6h13.9z"/><path id="Layer" fill-rule="evenodd" class="s1" d="M87 140.7H70q-.1 0-.2-.1-.2 0-.2-.1-.1-.2-.1-.3 0-.1.1-.2l1.5-2.7q.1 0 .1-.1h.1l.1-.1h14.2l.1.1h.1q0 .1.1.1l1.5 2.7q.1.1.1.2t-.1.3q0 .1-.2.1-.1.1-.2.1zm-16.1-1h15.2l-1-1.6H71.8zM83.7 136.5H73.3q-.1-.1-.2-.1-.1-.1-.1-.2V131.6q0-.1.1-.2t.2-.1h10.6q.1 0 .2.1 0 .1.1.2V136.2q-.1.1-.1.2-.1 0-.2.1h-.2zm-9.7-1h9.2v-3.2H74zM57.8 144.3H54q-.1 0-.2-.1 0-.1-.1-.2v-4l.1-.1q.1-.1.2-.1.1-.1.2-.1h3.6q.1 0 .2.1.1 0 .2.1l.1.1v4q-.1.1-.1.2-.1.1-.2.1h-.2zm-3.1-1h2.6v-2.6h-2.6zM64.4 144.3h-3.8q-.1 0-.2-.1t-.1-.2v-4q0-.1.1-.1.1-.1.2-.1.1-.1.2-.1h3.6q.1 0 .2.1.1 0 .1.1.1 0 .1.1.1.1.1.2v3.6q0 .1-.1.2 0 .1-.1.2 0 .1-.1.1h-.2zm-3.1-1h2.6v-2.6h-2.6zM74.6 145.1h-2.5q-.1-.1-.2-.1t-.2-.1q-.1-.1-.1-.2v-2.9q0-.1.1-.2.1 0 .2-.1H74.8l.1.1q.1.1.1.2.1.1.1.2v2.5q0 .1-.1.2 0 .1-.1.2 0 .1-.1.1t-.2.1zm-2-1h1.5v-1.6h-1.5zM85.4 145.1h-2.5q-.1-.1-.2-.1t-.1-.1q-.1-.1-.1-.2l-.1-.1V142q0-.1.1-.2 0-.1.1-.2l.1-.1H85.6q.1.1.2.1.1.1.1.2v2.7q.1.1 0 .2 0 .1-.1.2t-.2.1l-.2.1zm-2-1H85v-1.6h-1.5zM101.3 147.3H88.5l-.1-.1-.2-.2V136.6q.1-.1.2-.1 0-.1.1-.1.1-.1.2-.1h12.6q.1 0 .2.1.1 0 .1.1.1 0 .1.1.1.1.1.2v10q0 .1-.1.2 0 .1-.1.2l-.1.1h-.2zm-12.1-1h11.6v-9H89.2z"/><path id="Layer" class="s1" d="M91.5 139.5h7.3v7.3h-7.3z"/><path id="Layer" fill-rule="evenodd" class="s1" d="M98.8 147.3h-7.3q-.1 0-.2-.1-.1 0-.2-.1 0-.1-.1-.1v-7.7q.1-.1.1-.2.1-.1.2-.1H99q.1 0 .1.1.1.1.1.2.1.1.1.2v7.3q0 .1-.1.2l-.1.1q0 .1-.1.1-.1.1-.2.1zm-6.8-1h6.3V140H92z"/><path id="Layer" class="s1" d="M88.7 132.6H100l4.4 4.2H88.7z"/><path id="Layer" fill-rule="evenodd" class="s1" d="M104.4 137.3H88.5q-.1 0-.1-.1-.1-.1-.1-.2-.1-.1-.1-.2v-4.2q0-.1.1-.2 0-.1.1-.1 0-.1.1-.1.1-.1.2-.1h11.5q0 .1.1.1l4.5 4.3v.1l.1.1V137l-.1.1q0 .1-.1.1l-.1.1h-.2zm-15.2-1h14l-3.4-3.2H89.2z"/><path id="Layer" class="s3" d="M95.1 272.5H71.6q-.2-.1-.3-.2-.1-.1-.1-.3 0-.2.1-.3.1-.1.3-.1h23.5q.2-.1.3.1.2.1.2.3 0 .2-.2.4-.1.1-.3.1z"/></g></svg>