<svg version="1.2" xmlns="http://www.w3.org/2000/svg" viewBox="0 0 300 300" width="300" height="300">
	<title>icon__primary-svg</title>
	<style>
		.s0 { fill: #ef233c } 
		.s1 { fill: #d1d3d4 } 
		.s2 { fill: #ffffff } 
		.s3 { fill: #231f20 } 
		.s4 { fill: #d90429 } 
	</style>
	<path id="Layer" class="s0" d="m251.8 47.3c13 17.5 14.2 42.2 14.2 66.8 0 24.6-1.2 49.2-14.2 70.6-13 21.2-37.6 39.2-61.4 38.4-23.7-0.9-46.7-20.6-66.6-41.9-19.8-21.3-36.7-44.2-34.6-65.1 2-20.8 23-39.6 42.9-57 19.9-17.6 38.7-33.6 60.4-36.6 21.7-2.9 46.4 7.4 59.3 24.8z"/>
	<g id="_347_real_estate_agent_flatline">
		<path id="Layer" class="s1" d="m122.7 278.7c-43.6 0-78.9-3-78.9-6.7 0-3.7 35.3-6.7 78.9-6.7 43.5 0 78.8 3 78.8 6.7 0 3.7-35.3 6.7-78.8 6.7z"/>
		<path id="Layer" class="s2" d="m75.5 108.2h9.9v163.8h-9.9z"/>
		<path id="Layer" fill-rule="evenodd" class="s3" d="m85.4 272.5h-9.9q-0.1 0-0.1-0.1-0.1 0-0.2-0.1-0.1 0-0.1-0.1 0-0.1 0-0.2c0-0.1 0-163.9 0-164q0-0.1 0.1-0.2 0.1 0 0.2-0.1 0 0 0.1 0c0.1 0 10 0 10.1 0q0.1 0.1 0.2 0.1 0 0.1 0.1 0.2 0 0.1 0 0.2c0 0.1 0 163.9 0 164q-0.1 0.1-0.1 0.1-0.1 0.1-0.2 0.1-0.1 0.1-0.2 0.1zm-9.4-0.9h9v-163h-9z"/>
		<path id="Layer" class="s3" d="m75.5 151.4h9.9v27.1h-9.9z"/>
		<path id="Layer" fill-rule="evenodd" class="s3" d="m85.4 178.9c-0.1 0-10 0-10 0q-0.1 0-0.2-0.1 0-0.1-0.1-0.2 0 0 0-0.1c0-0.1 0-27.2 0-27.3q0.1-0.1 0.1-0.2 0.1 0 0.2 0 0-0.1 0.1-0.1h9.9q0.1 0 0.2 0.1 0.1 0 0.2 0 0 0.1 0.1 0.2 0 0.1 0 0.2c0 0.1 0 27.2 0 27.2q-0.1 0.1-0.1 0.2-0.1 0.1-0.2 0.1-0.1 0-0.2 0zm-9.4-0.9h9v-26.2h-9z"/>
		<path id="Layer" class="s2" d="m179.5 79.4q0.5-0.8 0.8-1.6 0.3-0.8 0.6-1.6 0.2-0.8 0.4-1.7 0.2-0.9 0.2-1.7 0.1-0.8 0-1.5 0-0.7-0.2-1.5-0.1-0.7-0.3-1.4-0.2-0.7-0.5-1.4c-0.6-1.1-1.8-1.7-2.6-2.7-1.5-2-1-4.7-0.5-7.1 1.2-7-5.6-14.5-11.8-16.9q-1-0.4-2.1-0.7-1.1-0.2-2.2-0.3-1.1-0.1-2.2-0.1-1.1 0.1-2.2 0.4-0.5 0-1 0.2-0.5 0.1-1 0.3-0.5 0.1-1 0.4-0.5 0.2-0.9 0.5c-1.1 0.8-1.6 1.9-2.8 2.5-1 0.5-1.9 0.5-2.9 0.9q-0.1 0.1-0.3 0.2-0.2 0.1-0.3 0.2-0.2 0.1-0.3 0.2-0.2 0.1-0.3 0.2c-2.6 2.4-5.7 8.4-4.6 12 0.4 1.3 0.9 2.8 0 3.8q-0.1 0.2-0.3 0.3-0.2 0.1-0.4 0.2-0.2 0.2-0.4 0.2-0.2 0.1-0.4 0.2c-3.4 1-9 1.6-6.4 6.8 0.6 1.3 1.7 2.7 1.5 4.2-0.2 2.7-3.7 3.6-5.5 5.6-2.7 3-1 8.1 2.1 10.8 4.9 4.1 12 4.3 18.5 3.9 6.8-0.5 13.8-1.4 19.8-4.6q1.5-0.8 2.9-1.8 1.3-0.9 2.5-2.1 1.3-1.2 2.3-2.5 1-1.3 1.8-2.8z"/>
		<path id="Layer" fill-rule="evenodd" class="s3" d="m145.8 93.8c-5.1 0-10.4-0.8-14.3-4.2q-0.8-0.6-1.4-1.4-0.6-0.8-1.1-1.7-0.4-0.8-0.7-1.8-0.3-0.9-0.4-1.9-0.1-0.6 0-1.3 0.1-0.6 0.3-1.2 0.1-0.6 0.5-1.1 0.3-0.6 0.7-1 0.2-0.3 0.5-0.6 0.3-0.2 0.6-0.5 0.3-0.2 0.7-0.4 0.3-0.3 0.6-0.5c1.4-1 2.8-1.9 2.9-3.4q0-0.4 0-0.8-0.1-0.4-0.2-0.7-0.2-0.4-0.3-0.8-0.2-0.3-0.5-0.7-0.2-0.4-0.5-0.9-0.2-0.4-0.4-0.9-0.2-0.5-0.2-1-0.1-0.5 0-1 0-0.5 0.2-1c0.8-1.9 3.4-2.5 5.7-3.1 0.5-0.2 1-0.3 1.5-0.4q0.1-0.1 0.3-0.1 0.2-0.1 0.3-0.2 0.2-0.1 0.3-0.2 0.2-0.1 0.3-0.2c0.7-0.8 0.4-2-0.1-3.4-1.2-3.8 2-10 4.7-12.4q0.2-0.2 0.3-0.3 0.2-0.2 0.4-0.3 0.1-0.1 0.3-0.2 0.2-0.1 0.4-0.2 0.2-0.1 0.4-0.1 0.1-0.1 0.3-0.2 0.2 0 0.4-0.1 0.2 0 0.3-0.1 0.2 0 0.4 0 0.2-0.1 0.4-0.2 0.1 0 0.3-0.1 0.2 0 0.4-0.1 0.2-0.1 0.4-0.3 0.2-0.1 0.4-0.3 0.1-0.1 0.3-0.3 0.2-0.2 0.3-0.4 0.2-0.1 0.3-0.3 0.1-0.2 0.3-0.3 0.2-0.2 0.3-0.3 0.2-0.2 0.4-0.3 0.4-0.3 0.9-0.5 0.5-0.3 1-0.5 0.5-0.2 1.1-0.3 0.5-0.2 1-0.2 1.2-0.3 2.3-0.4 1.2 0 2.3 0.1 1.1 0.1 2.3 0.3 1.1 0.3 2.1 0.8c6.7 2.6 13.3 10.4 12 17.3v0.1c-0.4 2.3-0.9 4.9 0.5 6.7q0.1 0.2 0.3 0.3 0.1 0.1 0.2 0.3 0.2 0.1 0.3 0.3 0.2 0.1 0.3 0.2 0.3 0.2 0.5 0.4 0.2 0.2 0.4 0.4 0.2 0.2 0.4 0.4 0.1 0.3 0.3 0.5c0.8 1.3 1.1 4.7 1 6q-0.1 0.9-0.2 1.8-0.2 0.9-0.5 1.7-0.2 0.9-0.6 1.7-0.3 0.9-0.7 1.6-0.9 1.5-1.9 2.9-1.1 1.3-2.3 2.5-1.3 1.2-2.7 2.2-1.4 1-2.9 1.8c-6.2 3.3-13.6 4.2-20 4.6-1.4 0.1-2.9 0.2-4.4 0.2zm14.3-54.1q-0.4 0-0.8 0-0.4 0-0.8 0.1-0.3 0-0.7 0.1-0.4 0-0.8 0.1-0.5 0.1-1 0.2-0.5 0.1-0.9 0.3-0.5 0.2-1 0.4-0.4 0.2-0.8 0.5-0.2 0.1-0.3 0.2-0.2 0.2-0.3 0.3-0.1 0.1-0.3 0.3-0.1 0.1-0.2 0.3-0.2 0.2-0.4 0.4-0.2 0.2-0.4 0.4-0.2 0.2-0.5 0.3-0.2 0.2-0.5 0.3-0.2 0.1-0.4 0.2-0.2 0.1-0.3 0.1-0.2 0.1-0.5 0.2-0.2 0-0.4 0.1-0.1 0-0.3 0-0.2 0.1-0.3 0.1-0.2 0.1-0.3 0.1-0.2 0.1-0.4 0.2-0.1 0-0.3 0.1-0.1 0.1-0.3 0.2-0.1 0.1-0.2 0.2-0.2 0.1-0.3 0.2c-2.5 2.2-5.5 8.2-4.4 11.5 0.4 1.2 1 3-0.1 4.2q-0.2 0.2-0.4 0.3-0.2 0.2-0.4 0.3-0.2 0.1-0.4 0.2-0.3 0.1-0.5 0.2c-0.5 0.1-1 0.3-1.5 0.4-2.1 0.5-4.4 1.1-5.1 2.6q-0.1 0.4-0.2 0.8 0 0.4 0 0.8 0.1 0.4 0.2 0.8 0.2 0.4 0.4 0.7 0.2 0.5 0.5 0.9 0.3 0.4 0.5 0.9 0.2 0.4 0.3 0.8 0.2 0.5 0.2 1 0.1 0.4 0.1 0.9c-0.2 1.9-1.8 3-3.3 4.1q-0.3 0.2-0.6 0.4-0.3 0.2-0.6 0.4-0.3 0.2-0.6 0.5-0.2 0.2-0.5 0.5-0.3 0.4-0.6 0.8-0.2 0.5-0.4 1-0.2 0.5-0.2 1-0.1 0.6 0 1.1 0.1 0.9 0.3 1.8 0.3 0.8 0.7 1.6 0.4 0.8 1 1.5 0.6 0.7 1.2 1.3c4.9 4.1 11.9 4.2 18.2 3.8 6.2-0.4 13.4-1.3 19.6-4.5q1.4-0.8 2.8-1.7 1.3-1 2.5-2.1 1.2-1.2 2.2-2.5 1-1.3 1.8-2.7 0.4-0.8 0.8-1.6 0.3-0.7 0.5-1.6 0.3-0.8 0.4-1.6 0.2-0.8 0.3-1.7 0-0.7-0.1-1.4 0-0.7-0.1-1.4-0.2-0.7-0.3-1.3-0.2-0.7-0.5-1.3-0.1-0.3-0.3-0.4-0.1-0.2-0.3-0.4-0.2-0.2-0.3-0.4-0.2-0.1-0.4-0.3-0.2-0.1-0.4-0.3-0.1-0.1-0.3-0.3-0.2-0.1-0.3-0.3-0.2-0.1-0.3-0.3c-1.6-2.1-1.1-4.9-0.6-7.4v-0.1c1.2-6.9-5.9-14.2-11.5-16.4q-0.6-0.2-1.3-0.4-0.6-0.2-1.3-0.4-0.6-0.1-1.3-0.2-0.7 0-1.4 0z"/>
		<path id="Layer" class="s3" d="m135.8 270.3c0 0-3.5 4.4-2.6 5.8 0.9 1.4 17.3-1.6 19.4-3.1 2.1-1.5 8.2-12.1 8.3-12.4 0.1-0.4-5-6-5-6z"/>
		<path id="Layer" fill-rule="evenodd" class="s3" d="m135.1 276.9q-0.2 0-0.4 0-0.2 0-0.3 0-0.2 0-0.4-0.1-0.1 0-0.3 0-0.1 0-0.3-0.1-0.1 0-0.2-0.1-0.1 0-0.2-0.1-0.1-0.1-0.2-0.2c-1-1.6 2-5.5 2.6-6.3q0 0 0.1 0 0 0 0-0.1l20.1-15.7q0.1-0.1 0.1-0.1 0.1 0 0.2 0 0.1 0 0.2 0 0 0 0.1 0.1c5.3 5.8 5.2 6.2 5.1 6.4-0.1 0.5-6.3 11.2-8.5 12.7-1.7 1.3-13 3.6-17.7 3.6zm1-6.3c-1.3 1.7-3 4.5-2.6 5.3 1.2 0.9 16.6-1.7 18.8-3.3 1.8-1.3 7.4-10.6 8.1-12.1-0.4-0.6-2.5-3.1-4.6-5.4z"/>
		<path id="Layer" class="s3" d="m152.7 269.3c0-0.1-3.9 6-2.6 7.1 1.2 1 14.3-1 15.2-1.7 1-0.6 5.5-11 5.5-11l0.2 5.5 2.5-1.5c0 0-2.2-12.8-3.1-13.6-0.9-0.9-17.7 15.1-17.7 15.1z"/>
		<path id="Layer" fill-rule="evenodd" class="s3" d="m152 277.1q-0.3 0-0.6 0-0.3 0-0.6 0-0.2-0.1-0.5-0.2-0.3-0.1-0.6-0.2c-1.3-1.2 1.4-5.8 2.6-7.7q0 0 0.1 0 0 0 0-0.1c17-16.3 17.9-15.5 18.2-15.2 1 0.8 2.8 10.8 3.3 13.9q0 0.1 0 0.1 0 0.1-0.1 0.2 0 0 0 0.1-0.1 0-0.1 0.1l-2.5 1.4q0 0.1-0.1 0.1-0.1 0-0.1 0-0.1 0-0.1 0-0.1 0-0.1-0.1-0.1 0-0.1 0-0.1-0.1-0.1-0.1 0-0.1-0.1-0.1 0-0.1 0-0.1l-0.1-3.6c-1.5 3.3-4.1 8.9-4.9 9.5-0.5 0.4-9.2 2-13.5 2zm1-7.6c-1.9 3.1-3.2 6.1-2.7 6.5 1 0.8 13.5-0.9 14.7-1.6 0.6-0.5 3.2-5.9 5.4-10.9q0-0.1 0.1-0.1 0-0.1 0.1-0.1 0 0 0.1-0.1 0.1 0 0.2 0 0 0.1 0.1 0.1 0.1 0 0.1 0.1 0.1 0.1 0.1 0.1 0 0.1 0 0.2l0.2 4.7 1.5-1c-1-5.7-2.2-11.9-2.8-13-1.5 0.7-9.8 8.2-17 15.1z"/>
		<path id="Layer" class="s2" d="m142.7 251l1.1 6.8c0 0-4.5 8.4-8 12.6 0 0 6-0.9 8.7-2.2 2.7-1.3 11.4-13.6 11.4-13.6l-3.5-9.4z"/>
		<path id="Layer" fill-rule="evenodd" class="s3" d="m135.8 270.8q-0.1 0-0.1-0.1-0.1 0-0.1 0-0.1 0-0.1-0.1-0.1 0-0.1-0.1 0 0-0.1-0.1 0-0.1 0-0.1 0-0.1 0-0.2 0.1 0 0.1-0.1c3.1-3.8 7.3-11.2 7.9-12.3l-1-6.7q-0.1-0.1 0-0.1 0-0.1 0-0.2 0 0 0.1-0.1 0 0 0.1-0.1l9.6-5.8q0.1 0 0.1 0 0.1-0.1 0.1-0.1 0.1 0 0.1 0.1 0.1 0 0.1 0 0.1 0 0.1 0 0.1 0.1 0.1 0.1 0 0 0.1 0.1 0 0 0 0.1l3.5 9.4q0 0 0 0.1 0 0 0 0.1 0 0.1 0 0.1 0 0.1 0 0.1c-0.4 0.5-8.7 12.4-11.6 13.8-2.8 1.3-8.6 2.1-8.8 2.2zm7.4-19.6l1 6.5q0 0 0 0.1 0 0.1 0 0.1 0 0 0 0.1-0.8 1.5-1.7 3-0.9 1.5-1.8 2.9-0.9 1.5-1.9 2.9-0.9 1.5-1.9 2.9 0.9-0.2 1.9-0.3 0.9-0.2 1.8-0.5 1-0.2 1.9-0.5 0.9-0.3 1.8-0.7c2.1-1 8.6-9.7 11-13.2l-3.2-8.7z"/>
		<path id="Layer" class="s2" d="m160.6 249.9q-0.1 0.9-0.3 1.7-0.2 0.9-0.4 1.8-0.3 0.8-0.5 1.7-0.3 0.8-0.6 1.7c-1.3 3.5-6.1 12.4-6.1 12.4l11.5 1c0 0 4.8-8 5.3-10.3 0.6-2.4 1.4-10.3 1.4-10.3z"/>
		<path id="Layer" fill-rule="evenodd" class="s3" d="m164.2 270.7l-11.5-1q0 0-0.1-0.1 0 0-0.1 0 0 0-0.1-0.1 0 0 0-0.1-0.1 0-0.1-0.1 0 0 0-0.1 0 0 0-0.1 0-0.1 0.1-0.1c0-0.1 4.7-9 6-12.4q0.3-0.9 0.6-1.7 0.2-0.8 0.5-1.7 0.2-0.8 0.4-1.7 0.2-0.8 0.3-1.7 0-0.1 0.1-0.2 0 0 0.1-0.1 0 0 0.1-0.1 0.1 0 0.2 0l10.2-0.3q0.1 0 0.1 0 0.1 0 0.1 0 0.1 0.1 0.1 0.1 0 0 0.1 0 0 0.1 0 0.1 0.1 0.1 0.1 0.1 0 0.1 0 0.1 0 0.1 0 0.1c0 0.3-0.9 8-1.4 10.3-0.5 2.3-5.1 10.2-5.3 10.5q-0.1 0.1-0.1 0.1-0.1 0.1-0.1 0.1-0.1 0-0.1 0.1-0.1 0-0.2 0zm-10.8-1.8l10.6 0.8c0.8-1.3 4.6-8 5.1-10 0.4-2 1.1-7.8 1.3-9.6l-9.4 0.2q-0.1 0.9-0.3 1.7-0.2 0.8-0.4 1.7-0.2 0.8-0.5 1.6-0.3 0.8-0.6 1.6c-1.1 3-4.7 9.9-5.7 12z"/>
		<path id="Layer" class="s3" d="m175.6 143.7q1.8 2.5 3.1 5.4 1.4 2.8 2.2 5.9 0.9 3 1.2 6.1 0.3 3.2 0.1 6.3c-0.8 11.7-4 61.4-8.9 84.5l-13.6 1.1-6.5-78.6 1.2-29.5z"/>
		<path id="Layer" fill-rule="evenodd" class="s3" d="m159.7 253.4q0 0.1 0 0-0.1 0-0.1 0-0.1 0-0.1 0 0 0 0-0.1-0.1 0-0.1 0 0 0-0.1-0.1 0 0 0-0.1 0 0 0-0.1l-6.5-78.5 1.2-29.7q0 0 0-0.1 0.1-0.1 0.1-0.1 0.1-0.1 0.2-0.1 0-0.1 0.1-0.1l21.2-1.2q0 0 0.1 0 0 0 0.1 0.1 0 0 0.1 0 0 0 0 0.1 1.9 2.6 3.3 5.5 1.3 2.9 2.2 5.9 0.9 3.1 1.2 6.3 0.3 3.2 0.1 6.4l-0.1 1.4c-2.7 40.4-5.7 68.3-8.8 83.1q0 0-0.1 0.1 0 0.1-0.1 0.1 0 0.1-0.1 0.1 0 0-0.1 0l-13.6 1.2zm-4.9-108.2l-1.1 29.2 6.4 78 12.8-1c3.1-14.8 6.1-42.6 8.8-82.6v-1.5q0.2-3.1-0.1-6.2-0.3-3-1.1-6-0.8-3-2.1-5.8-1.3-2.7-3.1-5.3z"/>
		<path id="Layer" class="s3" d="m159.2 144.2l-23.3 1.3c0 0-16.1 48.1-16.1 56.7 0 8.6 19.7 54.5 19.7 54.5l16.1-8.3-14.5-41.9 21.3-37.2z"/>
		<path id="Layer" fill-rule="evenodd" class="s3" d="m139.3 257.1q-0.1 0-0.1-0.1 0 0-0.1 0 0-0.1 0-0.1c-0.8-1.9-19.8-46.1-19.8-54.7 0-8.5 15.6-54.9 16.2-56.8q0-0.1 0.1-0.2 0 0 0.1-0.1 0 0 0.1 0 0.1 0 0.1 0l23.3-1.3q0.1-0.1 0.1 0 0.1 0 0.2 0.1 0 0 0.1 0.1 0 0 0 0.1l3.3 25.1q0 0 0 0.1 0 0 0 0.1-0.1 0-0.1 0 0 0.1 0 0.1l-21.2 37.1 14.4 41.7q0 0.1 0 0.2 0 0 0 0.1 0 0.1-0.1 0.1 0 0.1-0.1 0.1l-16.1 8.3q-0.1 0-0.1 0 0 0-0.1 0zm-3-111.2c-1.4 4-16.1 48.2-16.1 56.3 0 8.1 17.5 49.2 19.5 53.9l15.4-7.9-14.4-41.5q0-0.1-0.1-0.1 0-0.1 0-0.1 0-0.1 0-0.1 0.1-0.1 0.1-0.1l21.3-37.1-3.2-24.6z"/>
		<path id="Layer" class="s3" d="m139 104.7c0 0-39 12.5-44.3 7.9-5.2-4.6-7.2-43.9-7.2-43.9l13.4-3.4c0 0 6.4 25.9 7.7 26.7 1.2 0.7 17.5-5.7 33.8-9.3"/>
		<path id="Layer" class="s3" d="m99.4 114c-2.3 0-4.1-0.3-5-1.1-5.4-4.7-7.4-42.6-7.4-44.2q0-0.1 0-0.1 0-0.1 0-0.2 0.1 0 0.2-0.1 0 0 0.1 0l13.4-3.5q0.1 0 0.2 0 0.1 0 0.2 0 0 0.1 0.1 0.2 0 0 0.1 0.1c2.4 9.8 6.5 25.5 7.5 26.5 0.6 0.1 5-1.2 9.6-2.7 6.4-2 15.1-4.7 23.8-6.7q0.1 0 0.2 0 0.1 0 0.1 0.1 0.1 0 0.2 0.1 0 0 0 0.1 0.1 0.1 0 0.2 0 0.1 0 0.2-0.1 0-0.1 0.1-0.1 0-0.2 0.1c-8.7 2-17.4 4.7-23.7 6.7-7.7 2.4-9.7 3-10.4 2.5-1.3-0.8-6.2-20-7.8-26.5l-12.6 3.2c0.2 4 2.2 39 7 43.2 4.2 3.7 33-4.5 43.9-8q0 0 0.1 0 0.1 0 0.2 0.1 0.1 0 0.1 0.1 0.1 0 0.1 0.1 0 0.1 0 0.2 0 0.1 0 0.2-0.1 0-0.1 0.1-0.1 0-0.2 0.1c-1.3 0.4-27.8 8.9-39.6 8.9z"/>
		<path id="Layer" class="s4" d="m152.3 81.3c0 0-9.8 8.6-11.3 15.3-1.5 6.7-2 48.7-2 48.7l29.6 3c0 0-2.2-46.5 1-54.4 3.3-8 4.4-11.8 4.4-11.8z"/>
		<path id="Layer" class="s2" d="m153.8 74.3l-1 9.8c0 0 0.5 5.6 6.7 4.5q1.3-0.2 2.6-0.8 1.3-0.6 2.4-1.4 1.1-0.8 2-1.8 0.9-1.1 1.6-2.3 0.1-0.3 0.1-0.6 0-0.4 0.1-0.7 0-0.3 0-0.6 0-0.3-0.1-0.6l0.3-5.8c0.2-2.9 0.6-6 0.5-8.9-0.1-3.5 1.2-7-2.8-7.6-1.9-0.3-7.8-1.9-7.7-4.7q0 0.7 0.1 1.4 0.1 0.8 0.3 1.4 0.3 0.7 0.6 1.4 0.4 0.6 0.8 1.1l-3.4-2.2q-0.4-0.3-0.8-0.6-0.4-0.2-0.8-0.6-0.4-0.3-0.7-0.6-0.4-0.3-0.7-0.7-0.3-0.4-0.6-0.8-0.2-0.4-0.3-0.9-0.2-0.5-0.2-1 0-0.5 0.1-0.9c-5.4 5.4-4.6 12.2-4.6 19.3-0.1 3.1 2.1 5.6 5.5 5.2z"/>
		<path id="Layer" fill-rule="evenodd" class="s3" d="m157.9 89.2q-0.4 0-0.9 0-0.4-0.1-0.9-0.2-0.4-0.2-0.8-0.4-0.4-0.2-0.8-0.4-0.4-0.4-0.8-0.9-0.4-0.4-0.6-0.9-0.3-0.5-0.5-1.1-0.2-0.6-0.2-1.1l0.9-9.5q-0.5 0.1-1 0-0.5 0-0.9-0.2-0.5-0.1-0.9-0.4-0.5-0.2-0.8-0.6-0.5-0.4-0.9-0.9-0.3-0.5-0.6-1.1-0.2-0.6-0.3-1.2-0.1-0.6-0.1-1.2 0-1.3 0-2.6c-0.1-6.3-0.1-12.2 4.8-17q0-0.1 0.1-0.1 0.1 0 0.1 0 0.1-0.1 0.2 0 0.1 0 0.1 0 0.1 0 0.1 0.1 0.1 0.1 0.1 0.1 0.1 0.1 0.1 0.2 0 0 0 0.1-0.1 0.5-0.1 0.9 0 0.4 0.1 0.8 0.2 0.5 0.4 0.8 0.2 0.4 0.5 0.8 0.3 0.3 0.6 0.6 0.4 0.4 0.7 0.7 0.4 0.3 0.8 0.5 0.4 0.3 0.8 0.5l1.6 1.2q-0.2-0.5-0.3-1-0.2-0.4-0.3-0.9-0.1-0.5-0.1-1 0-0.5 0-1 0-0.1 0-0.1 0.1-0.1 0.1-0.2 0.1 0 0.2-0.1 0.1 0 0.2 0 0.1 0 0.1 0 0.1 0.1 0.2 0.2 0 0 0.1 0.1 0 0.1 0 0.2c-0.1 2.2 4.9 3.8 7.3 4.2 3.5 0.6 3.4 3.3 3.3 6 0 0.7-0.1 1.4-0.1 2.1q0 0.8 0 1.5 0 0.8 0 1.5-0.1 0.8-0.1 1.5-0.1 0.8-0.2 1.5c0 1-0.1 2-0.2 2.9l-0.3 5.8q0 0.3 0 0.7 0 0.2 0 0.5 0 0.2 0 0.5 0 0.3-0.1 0.5 0 0.2-0.1 0.5-0.7 1.3-1.6 2.4-1 1-2.1 1.9-1.2 0.9-2.5 1.4-1.4 0.6-2.8 0.9-0.2 0-0.4 0-0.2 0-0.4 0-0.2 0-0.4 0-0.2 0-0.4 0zm-4.6-5q0.1 1 0.6 1.9 0.6 1 1.5 1.5 0.9 0.6 1.9 0.8 1.1 0.1 2.1-0.2 1.3-0.3 2.5-0.8 1.3-0.5 2.3-1.3 1.1-0.8 2-1.8 0.9-1 1.5-2.2 0-0.2 0.1-0.4 0-0.2 0-0.4 0-0.2 0-0.4 0-0.2 0-0.4 0-0.4 0-0.8l0.3-5.8q0.1-1.5 0.2-2.9 0.1-0.7 0.2-1.5 0-0.7 0-1.4 0.1-0.8 0.1-1.5 0-0.7 0-1.5c0-0.7 0-1.5 0.1-2.2 0.1-2.9 0.1-4.6-2.6-5 0 0-4.6-0.8-6.8-2.7q0.1 0.4 0.2 0.7 0.2 0.4 0.4 0.7 0.1 0.4 0.4 0.7 0.2 0.3 0.4 0.6 0.1 0 0.1 0.1 0 0.1 0 0.2 0 0.1 0 0.1 0 0.1-0.1 0.2 0 0-0.1 0.1-0.1 0-0.2 0-0.1 0-0.1 0-0.1 0-0.2-0.1l-3.4-2.2q-0.5-0.3-0.9-0.6-0.4-0.3-0.8-0.6-0.4-0.3-0.7-0.7-0.4-0.3-0.7-0.7-0.3-0.3-0.5-0.6-0.2-0.3-0.3-0.7-0.2-0.3-0.3-0.7-0.1-0.3-0.1-0.7c-3.8 4.5-3.8 9.8-3.7 15.5q0 1.3 0 2.6 0 0.5 0.1 1 0.1 0.5 0.3 1 0.2 0.5 0.5 1 0.3 0.4 0.7 0.8 0.3 0.3 0.7 0.5 0.4 0.2 0.9 0.3 0.4 0.1 0.9 0.2 0.5 0 0.9-0.1 0.1 0 0.1 0 0.1 0 0.1 0 0.1 0 0.1 0.1 0.1 0 0.1 0 0.1 0.1 0.1 0.1 0 0 0 0.1 0 0 0.1 0.1 0 0 0 0.1z"/>
		<path id="Layer" class="s3" d="m153.4 79.1q0.9 0.1 1.8 0 0.9 0 1.8-0.3 0.9-0.2 1.7-0.6 0.8-0.4 1.5-1 0.6-0.4 1.1-1 0.5-0.6 0.8-1.3 0.4-0.6 0.6-1.3 0.2-0.8 0.2-1.5c0.1-0.5-4.6 2.5-9.1 2.2z"/>
		<path id="Layer" fill-rule="evenodd" class="s3" d="m154.4 79.6q-0.1 0-0.2 0-0.2 0-0.3 0-0.1 0-0.3 0-0.1 0-0.3-0.1 0 0-0.1 0-0.1-0.1-0.1-0.1-0.1-0.1-0.1-0.2 0 0 0-0.1l0.4-4.9q0-0.1 0-0.2 0.1 0 0.1-0.1 0.1 0 0.2-0.1 0.1 0 0.1 0c4.4 0.3 8.9-2.1 8.9-2.1q0.1 0 0.1-0.1 0.1 0 0.1 0 0.1 0 0.1 0 0.1 0.1 0.1 0.1 0.1 0 0.1 0.1 0.1 0 0.1 0 0 0.1 0.1 0.1 0 0.1 0 0.1-0.1 0.9-0.3 1.6-0.2 0.8-0.5 1.5-0.4 0.7-0.9 1.4-0.5 0.6-1.2 1.1-0.6 0.5-1.3 0.9-0.8 0.4-1.5 0.6-0.8 0.3-1.6 0.4-0.8 0.1-1.7 0.1zm-0.5-0.9q0.8 0.1 1.6 0 0.8-0.1 1.6-0.3 0.8-0.3 1.5-0.6 0.7-0.4 1.3-0.9 0.5-0.4 0.9-0.9 0.4-0.4 0.7-0.9 0.4-0.6 0.6-1.1 0.2-0.6 0.3-1.2-0.9 0.5-1.9 0.8-1 0.4-2.1 0.6-1 0.3-2.1 0.4-1 0.1-2.1 0.1z"/>
		<path id="Layer" class="s3" d="m155.2 67q-0.4 0-0.7 0-0.3 0-0.6-0.1-0.3-0.1-0.5-0.3-0.3-0.2-0.5-0.4c-0.8-1 1.5-4.1 3-5.9q0.1-0.1 0.3-0.1 0.2-0.1 0.3 0.1 0.1 0.1 0.2 0.3 0 0.1-0.1 0.3c-1.7 2.1-3.1 4.3-2.9 4.8 0.3 0.5 1.7 0.5 2.4 0.4q0-0.1 0.1 0 0.1 0 0.2 0 0.1 0.1 0.1 0.2 0 0 0.1 0.1 0 0.1 0 0.2-0.1 0.1-0.1 0.1-0.1 0.1-0.1 0.2-0.1 0-0.2 0-0.1 0-0.3 0.1-0.1 0-0.2 0-0.2 0-0.3 0-0.1 0-0.2 0z"/>
		<path id="Layer" class="s2" d="m166.2 59.8q0.2-0.5 0.4-0.9 0.3-0.4 0.5-0.8 0.3-0.4 0.6-0.8 0.3-0.4 0.7-0.7 0.3-0.3 0.8-0.6 0.4-0.2 0.9-0.2 0.5-0.1 0.9 0 0.5 0 1 0.3c1.2 0.7 1.4 2.4 1.3 3.8q-0.1 0.6-0.2 1.2-0.1 0.6-0.3 1.2-0.1 0.5-0.3 1.1-0.2 0.6-0.5 1.1-0.1 0.4-0.3 0.7-0.1 0.3-0.3 0.6-0.2 0.3-0.5 0.6-0.2 0.2-0.5 0.5-0.3 0.2-0.6 0.3-0.3 0.2-0.7 0.2-0.3 0-0.7-0.1-0.3-0.1-0.6-0.3"/>
		<path id="Layer" class="s3" d="m168.9 67.8q-0.2 0-0.4 0-0.2 0-0.4-0.1-0.1-0.1-0.3-0.1-0.2-0.1-0.3-0.3-0.2-0.1-0.2-0.3 0-0.2 0.1-0.3 0.1-0.1 0.3-0.2 0.2 0 0.4 0.1 0.2 0.2 0.5 0.3 0.2 0 0.5 0 0.3 0 0.6-0.1 0.2-0.1 0.4-0.3 0.3-0.2 0.5-0.5 0.2-0.2 0.4-0.5 0.2-0.3 0.3-0.5 0.2-0.3 0.3-0.7 0.2-0.5 0.4-1 0.2-0.6 0.4-1.2 0.1-0.5 0.3-1.1 0.1-0.6 0.2-1.2c0-0.6 0.1-2.6-1.2-3.4q-0.4-0.1-0.8-0.2-0.4 0-0.8 0-0.4 0.1-0.8 0.3-0.3 0.1-0.6 0.4-0.4 0.4-0.6 0.7-0.3 0.4-0.6 0.7-0.2 0.4-0.4 0.8-0.3 0.4-0.4 0.8-0.1 0.1-0.1 0.2-0.1 0-0.2 0.1-0.1 0-0.2 0-0.1 0-0.1-0.1-0.1 0-0.2-0.1 0 0-0.1-0.1 0-0.1 0-0.2 0-0.1 0.1-0.2 0.1-0.4 0.4-0.9 0.2-0.4 0.5-0.8 0.3-0.5 0.6-0.9 0.4-0.3 0.7-0.7 0.4-0.4 0.9-0.6 0.5-0.2 1.1-0.3 0.5-0.1 1.1 0 0.5 0.1 1 0.3c1.7 1 1.7 3.4 1.6 4.3q-0.1 0.6-0.2 1.2-0.1 0.6-0.3 1.2-0.2 0.6-0.4 1.2-0.2 0.6-0.4 1.2-0.2 0.4-0.3 0.7-0.2 0.3-0.4 0.7-0.3 0.3-0.5 0.6-0.3 0.3-0.6 0.5-0.2 0.2-0.4 0.3-0.2 0.1-0.4 0.2-0.3 0-0.5 0.1-0.3 0-0.5 0z"/>
		<path id="Layer" class="s3" d="m162.9 61.8c-0.3 0-0.5-0.6-0.5-1.5 0-0.8 0.2-1.4 0.5-1.4 0.4 0 0.6 0.6 0.6 1.4 0 0.9-0.2 1.5-0.6 1.5z"/>
		<path id="Layer" class="s3" d="m151.9 61.8c-0.3 0-0.5-0.6-0.5-1.5 0-0.8 0.2-1.4 0.5-1.4 0.4 0 0.6 0.6 0.6 1.4 0 0.9-0.2 1.5-0.6 1.5z"/>
		<path id="Layer" fill-rule="evenodd" class="s3" d="m152.5 63h-3q-0.6 0-1.2-0.2-0.5-0.3-1-0.7-0.4-0.5-0.7-1-0.2-0.6-0.2-1.2c0 0 0-1.8 0-1.9q0.1-0.1 0.1-0.2 0.1 0 0.2-0.1 0.1 0 0.1 0c0 0 8.5 0 8.6 0q0.1 0.1 0.2 0.1 0 0.1 0.1 0.2 0 0.1 0 0.1v1.8q0 0.6-0.2 1.2-0.3 0.5-0.7 1-0.5 0.4-1 0.7-0.6 0.2-1.3 0.2zm-5.2-4.4v1.3q0 0.4 0.1 0.8 0.2 0.4 0.5 0.8 0.3 0.3 0.7 0.4 0.5 0.2 0.9 0.2h3q0.5 0 0.9-0.2 0.4-0.1 0.7-0.4 0.3-0.4 0.5-0.8 0.2-0.4 0.2-0.8v-1.3z"/>
		<path id="Layer" fill-rule="evenodd" class="s3" d="m162.8 63h-3q-0.6 0-1.2-0.2-0.6-0.3-1-0.7-0.5-0.5-0.7-1-0.2-0.6-0.3-1.2v-1.8q0.1 0 0.1-0.1 0-0.1 0.1-0.2 0 0 0.1-0.1 0.1 0 0.2 0c0.1 0 8.5 0 8.6 0q0.1 0.1 0.1 0.1 0.1 0.1 0.1 0.2 0.1 0.1 0.1 0.1v1.8q0 0.6-0.3 1.2-0.2 0.5-0.7 1-0.4 0.4-1 0.7-0.6 0.2-1.2 0.2zm-5.3-4.4v1.3q0 0.4 0.2 0.8 0.2 0.4 0.5 0.8 0.3 0.3 0.7 0.4 0.4 0.2 0.9 0.2h3q0.4 0 0.8-0.2 0.4-0.1 0.8-0.4 0.3-0.4 0.4-0.8 0.2-0.4 0.2-0.9v-1.2z"/>
		<path id="Layer" class="s3" d="m157.2 59.8q0 0-0.1 0-0.1 0-0.1 0 0-0.1 0-0.1-0.2-0.1-0.4-0.1-0.2 0-0.4 0-0.2 0-0.4 0-0.2 0-0.4 0.1 0 0.1-0.1 0.1-0.1 0-0.2-0.1-0.1 0-0.2 0 0-0.1-0.1-0.2 0 0 0-0.1 0-0.1 0-0.2 0.1 0 0.1-0.1 0-0.1 0.1-0.1 0.3-0.1 0.6-0.2 0.3-0.1 0.6-0.1 0.3 0 0.6 0.1 0.3 0.1 0.6 0.2 0.1 0 0.1 0.1 0.1 0.1 0.1 0.2 0 0.1 0 0.1 0 0.1-0.1 0.2 0 0 0 0.1-0.1 0-0.1 0-0.1 0.1-0.1 0.1-0.1 0-0.1 0z"/>
		<path id="Layer" class="s3" d="m168.3 79.8c-0.1 0-4.5 18.1-6 29.3-0.8 6.8-6.7 29.4-2 44l25.2 0.8c0 0-3.8-28.1-3.8-31.1 0-3 4.7-23.6 4.7-23.6 0 0 17.1 16 16.9 19.2-0.3 3.3-14.4 21.4-14.4 21.4l7.9 10.4c0 0 26.8-16.6 25-30-1.8-13.4-24-33.8-28.3-38.1-5.6-5.6-25.3-2.3-25.3-2.3z"/>
		<path id="Layer" fill-rule="evenodd" class="s3" d="m185.5 154.3l-25.2-0.8q0 0-0.1 0-0.1 0-0.1-0.1-0.1 0-0.1-0.1 0 0-0.1-0.1c-3.8-11.9-0.7-28.7 1.1-38.8 0.4-2.2 0.8-4.1 0.9-5.3 1.4-11.2 5.9-29.3 5.9-29.5q0 0 0.1-0.1 0 0 0.1-0.1 0 0 0.1-0.1 0 0 0.1 0c0.8-0.1 20-3.2 25.6 2.5l1.9 1.8c6.8 6.7 25 24.4 26.6 36.5 0.8 5.7-3.3 12.6-12 20.4q-1.5 1.4-3.2 2.7-1.6 1.3-3.2 2.6-1.7 1.2-3.4 2.4-1.7 1.2-3.4 2.3-0.1 0.1-0.2 0.1-0.1 0-0.1 0-0.1 0-0.2-0.1-0.1 0-0.1-0.1l-7.9-10.4q-0.1-0.1-0.1-0.1 0-0.1 0-0.2 0 0 0-0.1 0-0.1 0.1-0.1c3.9-5 14-18.6 14.2-21.1 0.2-2.2-9.6-12.2-16.1-18.4-0.8 3.7-4.5 20.2-4.5 22.7 0 2.9 3.7 30.8 3.8 31.1q0 0.1-0.1 0.2 0 0.1 0 0.2-0.1 0-0.2 0.1-0.1 0-0.2 0zm-24.8-1.7l24.3 0.8c-0.5-4-3.7-27.9-3.7-30.7 0-3 4.5-22.8 4.7-23.7q0 0 0.1-0.1 0 0 0-0.1 0.1 0 0.1 0 0.1-0.1 0.1-0.1 0.1 0 0.1 0 0.1 0 0.1 0 0.1 0 0.1 0 0.1 0.1 0.1 0.1c1.8 1.7 17.3 16.3 17 19.6-0.2 3.2-12 18.5-14.2 21.3l7.5 9.9c3-2 26-17.3 24.5-29.4-1.6-11.8-19.6-29.4-26.4-36-0.8-0.8-1.4-1.4-1.9-1.9-5-5-22.1-2.6-24.6-2.2-0.5 2.3-4.5 18.7-5.8 29-0.1 1.3-0.5 3.1-0.9 5.4-1.7 9.3-4.9 26.4-1.2 38.1z"/>
		<path id="Layer" class="s2" d="m181.6 144.7q-0.1 0-0.1 0-0.1 0-0.1 0 0-0.1 0-0.1-0.1 0-0.1 0l-16.1-9.6q-0.1-0.1-0.2-0.3-0.1-0.2 0-0.3 0.2-0.2 0.4-0.3 0.2 0 0.3 0.1l16.1 9.5q0.1 0.1 0.1 0.2 0.1 0 0.1 0.1 0.1 0.1 0 0.2 0 0.1 0 0.2-0.1 0.1-0.1 0.1 0 0.1-0.1 0.1-0.1 0-0.1 0.1-0.1 0-0.2 0z"/>
		<path id="Layer" class="s3" d="m152.3 81.3c0 0-2.6 14.8-4 24.6-3.8 26-7.2 45.5-7.2 45.5 0 0-16.2-0.7-15.4-1.2 0.7-0.5 9.4-25.1 8.4-30.6-1-5.4-4-15.3-3.2-17.5 0.7-2.2 6-17 6-17 0 0 5.2-3.8 15.4-3.8z"/>
		<path id="Layer" fill-rule="evenodd" class="s3" d="m141.1 151.8c-15.7-0.7-15.8-1.1-15.9-1.5q0 0 0-0.1 0-0.1 0.1-0.2 0 0 0-0.1 0.1 0 0.1-0.1c0.7-0.8 9.3-24.8 8.3-30.1-0.3-1.8-0.9-4.1-1.4-6.4-1.2-5-2.4-9.8-1.8-11.4 0.7-2.2 5.9-16.8 6-17q0-0.1 0-0.1 0 0 0.1 0 0-0.1 0-0.1c0.2-0.1 5.5-3.8 15.7-3.8q0 0 0.1 0 0 0 0.1 0 0 0 0.1 0.1 0.1 0.1 0.1 0.1 0 0 0 0.1 0 0 0 0.1 0 0 0 0.1c0 0.1-2.6 14.9-4 24.6-3.7 25.7-7.1 45.2-7.1 45.4q0 0.1-0.1 0.2 0 0.1-0.1 0.1-0.1 0.1-0.1 0.1-0.1 0-0.2 0zm-14.8-1.8c1.9 0.3 9.4 0.7 14.4 0.9 0.5-2.8 3.7-21.3 7.1-45 1.3-8.7 3.5-21.4 3.9-24.1-8.8 0.1-13.7 3.1-14.5 3.6-0.5 1.5-5.2 14.8-5.9 16.9-0.5 1.3 0.7 6.3 1.8 10.8 0.6 2.4 1.1 4.7 1.5 6.5 0.5 3.2-2 12.2-3.6 17.3q-0.5 1.7-1.1 3.3-0.5 1.7-1.1 3.3-0.6 1.7-1.2 3.3-0.6 1.6-1.3 3.2z"/>
		<path id="Layer" class="s2" d="m195.4 148.3c0 0-7.1 3.4-9.8 2.5-2.6-0.8-6.6-4.3-6.6-4.3 0 0-6.7-0.4-6.8-1.6-0.1-1.1 2.9-1.5 6.2-0.8 0 0-6.1-1.3-6.2-1.9q0-0.3 0.1-0.6 0.1-0.2 0.4-0.4 0.2-0.2 0.4-0.4 0.3-0.1 0.6-0.1c0.9 0 4.9 0.7 4.9 0.7 0 0-4.8-0.9-4.5-2 0.4-1.1 4.3-0.3 4.3-0.3 0 0-3.8-1-3-2 1.1-1.4 8.3 2.1 9.3 2.8q0.6 0.5 1.2 0.9 0.6 0.4 1.3 0.6 0.7 0.3 1.4 0.4 0.7 0.1 1.4 0.1z"/>
		<path id="Layer" fill-rule="evenodd" class="s3" d="m186.7 151.4q-0.2 0.1-0.3 0-0.2 0-0.3 0-0.2 0-0.3 0-0.2-0.1-0.3-0.1c-2.5-0.8-6-3.7-6.7-4.3-3.2-0.2-6.9-0.7-7-2q0-0.2 0-0.3 0-0.2 0.1-0.3 0.1-0.1 0.1-0.2 0.1-0.1 0.2-0.2 0.2-0.2 0.4-0.3 0.2-0.1 0.3-0.1 0.2-0.1 0.4-0.2 0.2 0 0.4-0.1c-1.8-0.5-1.8-0.9-1.9-1.1q0-0.1 0-0.3 0-0.2 0.1-0.4 0-0.1 0.1-0.3 0.1-0.1 0.3-0.3 0.1-0.1 0.3-0.3 0.1-0.1 0.3-0.2 0.2-0.1 0.4-0.1 0.2-0.1 0.4-0.1c0 0 0.3 0 0.2 0q0-0.1 0-0.1-0.1 0-0.1-0.1-0.1-0.1-0.1-0.2 0-0.1 0-0.2-0.1-0.1-0.1-0.2 0.1-0.1 0.1-0.1c0.2-0.6 0.9-0.9 1.8-0.9q-0.1-0.1-0.2-0.2-0.1 0-0.2-0.1-0.1-0.1-0.1-0.2-0.1-0.1-0.1-0.2-0.1-0.1-0.1-0.3 0-0.1 0-0.2 0.1-0.1 0.1-0.2 0-0.1 0.1-0.2c1.5-1.9 9.3 2.2 10 2.8q0.5 0.4 1.1 0.8 0.6 0.3 1.3 0.5 0.6 0.3 1.3 0.4 0.6 0.1 1.3 0.1 0.1 0 0.1 0 0.1 0.1 0.1 0.1 0.1 0 0.1 0 0.1 0.1 0.1 0.1l5.3 6.4q0.1 0 0.1 0 0 0.1 0 0.1 0 0.1 0 0.1 0 0.1 0 0.2 0 0.1-0.1 0.1 0 0.1 0 0.1-0.1 0-0.1 0.1c-0.3 0.1-5.7 2.7-8.9 2.7zm-11.4-7.2q-0.3 0-0.6 0-0.4 0-0.7 0.1-0.3 0-0.6 0.1-0.3 0.2-0.6 0.3c-0.1 0.1-0.1 0.2-0.1 0.2 0.3 0.4 3.2 1 6.3 1.2q0.1 0 0.1 0 0 0 0.1 0 0.1 0.1 0.1 0.1c0 0 3.9 3.4 6.5 4.2 1.8 0.6 6.6-1.2 8.9-2.2l-4.8-5.8q-0.8 0-1.5-0.2-0.7-0.1-1.4-0.4-0.7-0.2-1.3-0.6-0.7-0.3-1.2-0.8c-1.5-1.1-8-3.9-8.7-2.9 0 0.3 1.4 0.9 2.7 1.2q0.1 0.1 0.2 0.1 0 0.1 0.1 0.1 0 0.1 0 0.2 0 0.1 0 0.2 0 0.1 0 0.1-0.1 0.1-0.2 0.2 0 0-0.1 0-0.1 0-0.2 0c-1.9-0.3-3.6-0.3-3.7 0 0.1 0.4 2.1 1 4.1 1.4q0.1 0 0.2 0.1 0 0 0.1 0.1 0 0.1 0.1 0.2 0 0 0 0.1-0.1 0.1-0.1 0.2-0.1 0.1-0.1 0.1-0.1 0.1-0.2 0.1-0.1 0-0.2 0c-1.1-0.2-4.1-0.7-4.8-0.7q-0.1 0-0.2 0-0.1 0.1-0.2 0.1-0.1 0.1-0.2 0.1-0.1 0.1-0.2 0.2 0 0-0.1 0.1 0 0.1 0 0.1-0.1 0.1-0.1 0.1 0 0.1 0 0.2 0.7 0.2 1.4 0.5 0.7 0.2 1.4 0.4 0.7 0.2 1.4 0.3 0.8 0.2 1.5 0.3h0.1q0.2 0.1 0.3 0.2 0.1 0.2 0.1 0.4 0 0.2-0.2 0.3-0.2 0.1-0.4 0h-0.1q-0.4 0-0.7-0.1-0.4-0.1-0.7-0.1-0.4-0.1-0.8-0.1-0.3 0-0.7 0z"/>
		<path id="Layer" class="s3" d="m156.8 70q-0.7 0-1.5-0.2-0.7-0.1-1.4-0.3-0.8-0.2-1.5-0.5-0.6-0.3-1.3-0.7-0.1-0.1-0.2-0.3 0-0.1 0.1-0.3 0.1-0.1 0.2-0.2 0.2 0 0.4 0.1c0 0 5.5 3.4 9.1 0q0.1-0.1 0.3-0.1 0.2 0 0.3 0.1 0.2 0.2 0.2 0.4-0.1 0.1-0.2 0.3-0.4 0.4-1 0.7-0.5 0.4-1.1 0.6-0.5 0.2-1.1 0.3-0.7 0.1-1.3 0.1z"/>
		<path id="Layer" class="s2" d="m34.1 114.4h87.8v55h-87.8z"/>
		<path id="Layer" fill-rule="evenodd" class="s3" d="m122 169.8c-0.1 0-88 0-88.1 0q-0.1 0-0.2-0.1 0-0.1-0.1-0.1 0-0.1 0-0.2c0-0.1 0-55.1 0-55.2q0.1-0.1 0.1-0.1 0.1-0.1 0.2-0.1 0.1-0.1 0.2-0.1h87.9q0.1 0 0.2 0.1 0.1 0 0.1 0.1 0.1 0 0.1 0.1 0 0.1 0 0.2c0 0.1 0 55.1 0 55.2q0 0-0.1 0.1 0 0.1-0.1 0.1-0.1 0-0.2 0zm-87.4-0.9h87v-54.1h-87z"/>
		<path id="Layer" class="s1" d="m52.1 154v1.7h3.3v1.6h-3.3v3.2h-2v-8.2h5.6v1.7z"/>
		<path id="Layer" fill-rule="evenodd" class="s1" d="m65.8 156.4q0 0.2 0 0.4-0.1 0.2-0.1 0.5-0.1 0.2-0.1 0.4-0.1 0.2-0.2 0.4-0.1 0.2-0.2 0.4-0.1 0.2-0.2 0.4-0.1 0.1-0.3 0.3-0.1 0.2-0.3 0.3-0.1 0.1-0.3 0.3-0.2 0.1-0.4 0.2-0.1 0.1-0.3 0.2-0.2 0.1-0.4 0.2-0.3 0.1-0.5 0.1-0.2 0.1-0.4 0.1-0.3 0.1-0.5 0.1-0.2 0-0.5 0-0.2 0-0.4 0-0.3 0-0.5-0.1-0.2 0-0.5-0.1-0.2 0-0.4-0.1-0.2-0.1-0.4-0.2-0.2-0.1-0.4-0.2-0.2-0.1-0.3-0.2-0.2-0.2-0.4-0.3-0.1-0.1-0.3-0.3-0.1-0.2-0.2-0.3-0.2-0.2-0.3-0.4-0.1-0.2-0.2-0.4-0.1-0.4-0.2-0.8-0.1-0.5-0.1-0.9 0-0.5 0.1-0.9 0.1-0.5 0.2-0.9 0.1-0.2 0.2-0.4 0.1-0.2 0.3-0.3 0.1-0.2 0.2-0.3 0.2-0.2 0.3-0.3 0.2-0.2 0.4-0.3 0.2-0.1 0.3-0.2 0.2-0.1 0.4-0.2 0.2-0.1 0.4-0.2 0.2-0.1 0.4-0.1 0.3-0.1 0.5-0.1 0.2-0.1 0.5-0.1 0.2 0 0.4 0 0.3 0 0.5 0 0.2 0 0.5 0.1 0.2 0 0.4 0.1 0.2 0 0.5 0.1 0.2 0.1 0.4 0.2 0.2 0.1 0.3 0.2 0.2 0.1 0.4 0.2 0.2 0.1 0.3 0.3 0.2 0.1 0.3 0.3 0.2 0.1 0.3 0.3 0.1 0.1 0.2 0.3 0.1 0.2 0.2 0.4 0.1 0.2 0.2 0.4 0 0.2 0.1 0.5 0 0.2 0.1 0.4 0 0.2 0 0.5zm-2.2 0q0-0.2 0-0.3 0-0.1-0.1-0.2 0-0.2 0-0.3 0-0.1-0.1-0.2 0-0.1-0.1-0.2 0-0.1-0.1-0.2-0.1-0.1-0.1-0.2-0.1-0.1-0.2-0.2-0.1-0.1-0.2-0.2 0-0.1-0.1-0.1-0.1-0.1-0.2-0.1-0.1-0.1-0.2-0.1-0.2-0.1-0.3-0.1-0.1-0.1-0.2-0.1-0.2 0-0.3 0-0.1 0-0.2 0-0.2 0-0.3 0-0.1 0-0.3 0-0.1 0-0.2 0.1-0.1 0-0.2 0.1-0.1 0-0.2 0.1-0.1 0-0.2 0.1-0.1 0.1-0.2 0.1-0.1 0.1-0.2 0.2-0.1 0.1-0.2 0.2 0 0-0.1 0.1 0 0.1-0.1 0.3-0.1 0.1-0.1 0.2 0 0.1-0.1 0.2 0 0.1 0 0.3-0.1 0.1-0.1 0.2 0 0.1 0 0.3 0 0.1 0 0.2 0.1 0.2 0.1 0.3 0 0.1 0 0.2 0.1 0.2 0.1 0.3 0.1 0.1 0.1 0.2 0.1 0.1 0.1 0.2 0.1 0.1 0.2 0.2 0 0.1 0.1 0.2 0.1 0.1 0.2 0.1 0.1 0.1 0.2 0.2 0.1 0 0.2 0.1 0.1 0 0.2 0.1 0.2 0.1 0.5 0.1 0.2 0.1 0.5 0.1 0.2 0 0.5-0.1 0.2 0 0.5-0.1 0.1-0.1 0.2-0.1 0.1-0.1 0.2-0.1 0.1-0.1 0.1-0.2 0.1 0 0.2-0.1 0.1-0.1 0.2-0.2 0-0.1 0.1-0.2 0.1-0.1 0.1-0.2 0.1-0.1 0.1-0.2 0.1-0.1 0.1-0.3 0-0.1 0.1-0.2 0-0.1 0-0.3 0-0.1 0-0.2z"/>
		<path id="Layer" fill-rule="evenodd" class="s1" d="m71.6 160.5l-1.8-3.3h-0.7v3.3h-2v-8.2c0.1 0 3.4 0 3.5 0q0.2 0 0.3 0.1 0.2 0 0.3 0 0.2 0 0.3 0 0.1 0.1 0.3 0.1 0.1 0.1 0.2 0.1 0.2 0.1 0.3 0.1 0.1 0.1 0.2 0.2 0.1 0 0.2 0.1 0.1 0.1 0.2 0.2 0.1 0.1 0.2 0.2 0.1 0.1 0.1 0.2 0.1 0.2 0.2 0.3 0 0.1 0.1 0.3 0 0.1 0 0.3 0 0.1 0 0.3 0 0.2 0 0.4 0 0.1-0.1 0.3-0.1 0.2-0.1 0.4-0.1 0.1-0.3 0.3-0.1 0.1-0.2 0.3-0.2 0.1-0.3 0.2-0.2 0.1-0.4 0.2-0.1 0-0.3 0.1l2.2 3.5zm-0.1-5.7q0 0 0-0.1 0-0.1 0-0.1-0.1-0.1-0.1-0.1 0-0.1 0-0.1-0.1-0.1-0.1-0.1 0-0.1-0.1-0.1 0 0-0.1-0.1 0 0-0.1 0 0 0-0.1-0.1 0 0-0.1 0 0 0-0.1 0-0.1 0-0.1-0.1h-1.6v1.9c0.1 0 1.1 0 1.2 0q0 0.1 0.1 0.1 0 0 0.1-0.1 0.1 0 0.1 0 0.1 0 0.2 0 0 0 0.1 0 0 0 0.1 0 0.1-0.1 0.1-0.1 0.1 0 0.1-0.1 0.1 0 0.1 0 0.1-0.1 0.1-0.1 0-0.1 0.1-0.1 0-0.1 0-0.1 0.1-0.1 0.1-0.2 0-0.1 0-0.1 0-0.1 0-0.2z"/>
		<path id="Layer" class="s1" d="m82.5 154.4q-0.1 0-0.2-0.1-0.1-0.1-0.2-0.2 0 0-0.1-0.1-0.1 0-0.2-0.1-0.1 0-0.2 0-0.1-0.1-0.2-0.1-0.1 0-0.2 0-0.1-0.1-0.2-0.1-0.1 0-0.1 0-0.1 0-0.1 0-0.1 0-0.1 0-0.1 0-0.1 0-0.1 0.1-0.2 0.1-0.1 0-0.2 0.1-0.1 0-0.2 0.1-0.1 0-0.1 0.1 0 0.1-0.1 0.1 0 0.1 0 0.1 0 0.1 0 0.1 0 0.1 0 0.1 0 0.1 0 0.1 0 0.1 0 0.1 0 0 0 0.1 0 0 0.1 0.1 0.1 0.1 0.1 0.1 0 0 0.1 0.1 0.1 0 0.1 0.1 0.1 0 0.1 0 0.1 0 0.1 0.1 0.1 0 0.1 0l0.6 0.2 0.9 0.3q0.1 0 0.2 0.1 0.1 0 0.2 0.1 0.1 0 0.2 0.1 0.1 0.1 0.2 0.1 0.1 0.1 0.2 0.2 0.1 0 0.2 0.1 0 0.1 0.1 0.2 0.1 0.1 0.1 0.2 0.1 0.1 0.2 0.2 0 0.2 0 0.3 0.1 0.1 0.1 0.2 0 0.2 0 0.3 0 0.2 0 0.3 0 0.2-0.1 0.3 0 0.2 0 0.3-0.1 0.2-0.2 0.3 0 0.1-0.1 0.3-0.1 0.1-0.2 0.2-0.1 0.1-0.2 0.2-0.1 0.1-0.2 0.2-0.1 0.1-0.2 0.1-0.1 0.1-0.3 0.2-0.1 0-0.2 0.1-0.2 0-0.3 0.1-0.1 0-0.3 0-0.1 0.1-0.3 0.1-0.1 0-0.3 0-0.1 0-0.3 0-0.2 0-0.4 0-0.3 0-0.5 0-0.2-0.1-0.4-0.1-0.2-0.1-0.4-0.2-0.2 0-0.4-0.1-0.2-0.1-0.4-0.2-0.2-0.1-0.3-0.3-0.2-0.1-0.4-0.2l1.4-1.4q0.1 0.1 0.2 0.2 0.1 0.1 0.2 0.2 0.1 0.1 0.2 0.1 0.1 0.1 0.2 0.2 0.1 0 0.2 0.1 0.2 0 0.3 0 0.1 0.1 0.2 0.1 0.2 0 0.3 0 0.1 0 0.1 0 0.1 0 0.1 0 0.1 0 0.1 0 0.1 0 0.1 0 0.1 0 0.1 0 0.1 0 0.1-0.1 0.1 0 0.1 0 0.1 0 0.1-0.1 0.1 0 0.1 0 0 0 0.1-0.1 0-0.1 0.1-0.1 0-0.1 0-0.1 0-0.1 0-0.1 0.1-0.1 0.1-0.1 0-0.1 0-0.1 0-0.1 0-0.2 0 0-0.1-0.1 0 0 0-0.1 0 0-0.1 0 0-0.1 0-0.1-0.1-0.1-0.1-0.1 0 0-0.1-0.1 0 0-0.1 0-0.1-0.1-0.1-0.1-0.1 0-0.2-0.1 0 0-0.1 0-0.1 0-0.1-0.1l-0.8-0.2q-0.1 0-0.2-0.1-0.1 0-0.2 0-0.1-0.1-0.2-0.1-0.1-0.1-0.2-0.1-0.1-0.1-0.2-0.1-0.1 0-0.1-0.1-0.1-0.1-0.2-0.1-0.1-0.1-0.2-0.1-0.1-0.2-0.3-0.4-0.1-0.2-0.2-0.4-0.1-0.2-0.1-0.4-0.1-0.2 0-0.4 0-0.2 0-0.4 0-0.1 0-0.2 0.1-0.2 0.1-0.3 0.1-0.2 0.1-0.3 0.1-0.1 0.2-0.2 0.1-0.1 0.2-0.2 0.1-0.1 0.2-0.2 0.1-0.1 0.2-0.2 0.1-0.1 0.2-0.1 0.2-0.1 0.3-0.2 0.1 0 0.2-0.1 0.2 0 0.3-0.1 0.1 0 0.3 0 0.1 0 0.3-0.1 0.1 0 0.3 0 0.1 0 0.3 0 0.2 0 0.4 0 0.1 0 0.3 0.1 0.2 0 0.4 0 0.2 0.1 0.3 0.2 0.2 0 0.4 0.1 0.2 0.1 0.3 0.2 0.2 0.1 0.4 0.2 0.1 0.1 0.2 0.2z"/>
		<path id="Layer" fill-rule="evenodd" class="s1" d="m90.8 160.5l-0.7-1.6h-3.2l-0.7 1.6h-2.2l3.5-8.2h2l3.5 8.2zm-2.2-6l-1.1 2.8h2.1z"/>
		<path id="Layer" class="s1" d="m93.7 160.5v-8.2h2v6.5h3.3v1.7z"/>
		<path id="Layer" class="s1" d="m100 160.5v-8.2h5.7v1.7h-3.7v1.6h3.5v1.5h-3.5v1.7h3.9v1.7z"/>
		<path id="Layer" class="s2" d="m89.3 67.9l-1.2-6.2c0 0-8.7-3.6-9.7-5.8-2.3-4.9 5.5 1.4 7.1 1.4 1.7 0 1-2.3 0.6-2.5q-1-0.3-2.1-0.5-1.1-0.3-2.3-0.5-1.1-0.2-2.2-0.4-1.1-0.2-2.2-0.3c-2 0-0.4-2.5 1.5-2.9 1.9-0.3 7.7 1.1 7.7 1.1 0 0-8.7-6.7-7.7-7.8 1-1.2 6.8 2 10.2 6 0 0-7.2-7.2-5.8-8.4 1.5-1.2 5.3 2.8 8.2 7.1 0 0-4.3-8-1.6-8.7 2.7-0.6 5.6 6 6.6 10.2 1.4 5.7 1 4 4.5 15.6"/>
		<path id="Layer" fill-rule="evenodd" class="s3" d="m89.1 68.4q-0.1-0.1-0.1-0.1-0.1-0.1-0.1-0.1-0.1-0.1-0.1-0.2l-1.1-6c-1.6-0.7-8.7-3.8-9.7-6-0.4-0.8-0.8-1.8-0.2-2.3q0 0 0.1 0 0 0 0-0.1 0.1 0 0.1 0 0.1 0 0.1-0.1c-0.3 0-0.6 0-0.8 0-1.2 0-1.3-0.7-1.4-1-0.1-1.1 1.4-2.6 2.8-2.8 1.3-0.3 4 0.2 6 0.6-2.3-1.9-6.2-5.2-6.4-6.6q0-0.1 0-0.2 0 0 0.1-0.1 0-0.1 0-0.2 0.1-0.1 0.1-0.1 0.1-0.1 0.2-0.2 0.2-0.1 0.3-0.1 0.1-0.1 0.3-0.1 0.1 0 0.3 0 0.6 0.1 1.2 0.3 0.6 0.1 1.2 0.4 0.6 0.2 1.2 0.5 0.5 0.4 1 0.7c-1-1.3-1.6-2.5-1.6-3.2q0-0.1 0-0.2 0.1-0.1 0.1-0.2 0.1-0.1 0.1-0.2 0.1-0.1 0.2-0.2 0.1-0.1 0.2-0.1 0.2-0.1 0.3-0.1 0.2-0.1 0.3-0.1 0.2 0 0.4 0c1.3 0.3 3.3 2 5.1 4.2-0.6-1.7-1.1-3.6-0.6-4.6q0.1-0.2 0.2-0.3 0.1-0.2 0.2-0.3 0.2-0.1 0.3-0.2 0.2 0 0.4-0.1 0.2 0 0.4 0 0.2-0.1 0.5 0 0.2 0 0.4 0.1 0.2 0.1 0.4 0.2c2.5 1.5 4.6 6.9 5.4 10.2 1.1 4.3 1.1 4.3 2.5 9l2 6.5q0 0.2-0.1 0.3 0 0.2-0.2 0.2-0.2 0.1-0.4 0-0.1-0.1-0.2-0.3c-0.8-2.9-1.5-5-1.9-6.5-1.4-4.7-1.5-4.7-2.6-9.1-1-3.6-3-8.2-5-9.4q-0.1-0.1-0.3-0.1-0.1-0.1-0.2-0.1-0.2 0-0.3 0-0.2 0-0.3 0-0.1 0-0.1 0-0.1 0.1-0.2 0.1 0 0.1-0.1 0.1 0 0.1 0 0.2c-0.6 1.3 1.1 5.4 2.2 7.6q0.1 0.1 0.1 0.3-0.1 0.2-0.2 0.3-0.2 0-0.4 0-0.1 0-0.2-0.1c-2.6-3.9-5.6-6.9-7-7.2q-0.1 0-0.2 0 0 0-0.1 0 0 0-0.1 0.1-0.1 0-0.1 0c-0.1 1 2.1 3.8 4.2 6q0.2 0.2 0.4 0.5 0.2 0.2 0.4 0.4 0.3 0.2 0.5 0.5 0.2 0.2 0.4 0.4 0.1 0.2 0.1 0.4 0 0.2-0.2 0.3-0.1 0.1-0.3 0.1-0.2 0-0.3-0.2c-0.3-0.2-1-0.9-1.7-1.7-2.8-2.6-6.1-4.4-7.5-4.4-0.2 0-0.3 0-0.3 0.1 0 0.7 4 4.3 7.6 7.1q0.1 0.1 0.1 0.1 0.1 0.1 0.1 0.2 0 0.1 0 0.1 0 0.1-0.1 0.2 0 0.1-0.1 0.1 0 0.1-0.1 0.1 0 0-0.1 0-0.1 0-0.2 0c-1.6-0.4-6.1-1.3-7.5-1-1.2 0.2-2.1 1.3-2 1.8 0 0.1 0.3 0.2 0.4 0.2q1.2 0.1 2.3 0.3 1.1 0.1 2.3 0.3 1.1 0.3 2.2 0.5 1.1 0.3 2.2 0.6c0.6 0.2 0.9 1.4 0.8 2.1q-0.1 0.3-0.2 0.5-0.1 0.3-0.3 0.4-0.2 0.2-0.5 0.3-0.3 0.1-0.5 0.1c-0.7 0-1.8-0.6-3.5-1.6-1.1-0.7-3.2-1.9-3.7-1.7q0 0.2 0.1 0.3 0 0.2 0.1 0.3 0 0.2 0.1 0.3 0 0.2 0.1 0.3c0.8 1.7 7.2 4.6 9.5 5.6q0.1 0 0.1 0.1 0.1 0 0.1 0 0.1 0.1 0.1 0.1 0 0.1 0 0.2l1.1 6.2q0.1 0 0 0.1 0 0.1 0 0.2-0.1 0.1-0.2 0.1 0 0.1-0.1 0.1c-0.1 0-0.2 0-0.3 0zm-9.6-14.6q0.4 0.2 0.8 0.4 0.4 0.2 0.8 0.4 0.4 0.1 0.7 0.4 0.4 0.2 0.7 0.4 0.4 0.2 0.8 0.4 0.3 0.2 0.7 0.4 0.4 0.2 0.8 0.4 0.4 0.1 0.7 0.2 0.6 0 0.6-0.3 0.1-0.2 0.1-0.3 0-0.2 0-0.4-0.1-0.2-0.1-0.3-0.1-0.2-0.2-0.3c-0.2-0.1-3.7-0.9-6.4-1.4z"/>
		<path id="Layer" fill-rule="evenodd" class="s4" d="m69.8 56.2l10.1-3.1q0.5-0.2 0.9-0.1 0.5 0.1 0.9 0.4 0.4 0.2 0.6 0.6 0.2 0.4 0.2 0.9l0.3 9.9-2.6 3 0.6 18.8-2.2 2.5c0 0-2.5-2.4-2.6-3-0.1-0.6 0.8-1.3 0.7-1.4q-0.2-0.1-0.3-0.3-0.2-0.1-0.3-0.3-0.1-0.1-0.2-0.3-0.1-0.2-0.2-0.4 0-0.1 0-0.2 0.1-0.2 0.1-0.3 0.1-0.1 0.2-0.2 0.1-0.1 0.2-0.2l-1-0.9q-0.1-0.4-0.2-0.7 0-0.4 0-0.8-0.1-0.4-0.1-0.7 0.1-0.4 0.1-0.8c0-0.6 1-1.3 1-1.3 0 0-1.4-0.5-1.4-1-0.1-0.6 0.9-1.5 0.9-1.5l-1.8-0.8-0.2-5-3.2 0.1-1.9-2.4-0.2-8.8zm6.3 2.3l4.1-0.7c0 0 0.4-3.4-0.2-3.6-0.5-0.1-4.3 1.4-4.3 1.4z"/>
		<path id="Layer" fill-rule="evenodd" class="s3" d="m78.6 89.6q-0.1 0-0.1 0-0.1 0-0.1-0.1 0 0-0.1 0 0 0 0-0.1c-1-0.9-2.7-2.5-2.8-3.2q0-0.2 0-0.4 0-0.2 0.1-0.4 0.1-0.2 0.2-0.3 0.1-0.2 0.2-0.4-0.2-0.1-0.3-0.2-0.1-0.2-0.2-0.3-0.1-0.2-0.2-0.3 0-0.2-0.1-0.4 0-0.1 0-0.3 0-0.1 0.1-0.2 0-0.2 0-0.3 0.1-0.1 0.2-0.2l-0.7-0.6c-0.5-0.5-0.3-3.3-0.3-3.3q0-0.2 0.1-0.3 0.1-0.2 0.1-0.3 0.1-0.2 0.2-0.3 0.1-0.2 0.3-0.3c-0.5-0.2-1.1-0.6-1.1-1q0.1-0.2 0.1-0.4 0-0.2 0.1-0.4 0.1-0.1 0.2-0.3 0.1-0.2 0.2-0.3l-1.1-0.5q-0.1 0-0.1-0.1-0.1 0-0.1-0.1-0.1 0-0.1-0.1 0 0 0-0.1l-0.2-4.6-2.8 0.1q0 0-0.1 0 0 0-0.1 0 0-0.1-0.1-0.1 0 0 0-0.1l-1.9-2.4q0 0 0-0.1-0.1 0-0.1 0 0-0.1 0-0.1 0 0 0-0.1l-0.3-8.8q0 0 0-0.1 0-0.1 0.1-0.1 0-0.1 0-0.1l1.6-1.7q0.1 0 0.1 0 0-0.1 0-0.1 0.1 0 0.1 0l10.2-3.2q0.5-0.1 1.1 0 0.5 0.1 1 0.4 0.5 0.3 0.7 0.8 0.3 0.5 0.3 1.1l0.4 9.9q0 0.1 0 0.1 0 0.1-0.1 0.1 0 0.1 0 0.1 0 0-0.1 0.1l-2.5 2.8 0.6 18.6q0 0.1 0 0.1 0 0.1 0 0.1 0 0 0 0.1-0.1 0-0.1 0l-2.2 2.6q-0.1 0-0.1 0.1-0.1 0-0.1 0-0.1 0-0.1 0zm-4.4-15.8l1.5 0.6q0.1 0 0.1 0.1 0 0 0.1 0.1 0 0 0 0.1 0.1 0 0.1 0.1 0 0 0 0.1 0 0-0.1 0.1 0 0 0 0.1 0 0-0.1 0.1c-0.4 0.4-0.8 0.9-0.8 1.1q0.2 0.1 0.3 0.2 0.1 0.1 0.3 0.2 0.1 0 0.3 0.1 0.1 0.1 0.3 0.1 0 0 0.1 0.1 0.1 0 0.1 0.1 0 0 0.1 0.1 0 0 0 0.1 0 0 0 0.1 0 0.1 0 0.1-0.1 0.1-0.1 0.1 0 0.1-0.1 0.1c-0.3 0.3-0.8 0.7-0.8 1q-0.1 0.3-0.1 0.7 0 0.3 0 0.6 0 0.4 0 0.7 0.1 0.3 0.1 0.6c0.2 0.2 1 0.9 1 0.9q0.1 0 0.1 0.1 0 0 0.1 0.1 0 0 0 0.1 0 0.1 0 0.1 0 0.1-0.1 0.1 0 0.1 0 0.1 0 0.1-0.1 0.1 0 0-0.1 0.1-0.1 0-0.1 0 0 0.1-0.1 0.1 0 0.1 0 0.2 0 0 0 0.1c0 0.3 0.5 0.8 0.7 1q0.1 0 0.1 0.1 0 0 0.1 0 0 0.1 0 0.1 0 0.1 0 0.1 0 0.1 0 0.1 0 0.1 0 0.1 0 0 0 0.1 0 0-0.1 0c-0.2 0.3-0.6 0.8-0.5 1q0.2 0.4 0.5 0.7 0.2 0.3 0.5 0.6 0.2 0.3 0.5 0.6 0.3 0.3 0.6 0.6l1.8-2-0.6-18.7q0 0 0-0.1 0-0.1 0-0.1 0.1-0.1 0.1-0.1l2.5-2.8-0.4-9.7q0-0.4-0.2-0.7-0.1-0.3-0.4-0.5-0.3-0.2-0.7-0.3-0.3 0-0.7 0.1l-10 3.1-1.3 1.4 0.2 8.5 1.7 2.1 3-0.1q0.1 0 0.2 0 0 0.1 0.1 0.1 0.1 0.1 0.1 0.2 0 0 0 0.1zm1.8-14.7q-0.1 0-0.1 0 0-0.1-0.1-0.1-0.1-0.1-0.1-0.1 0-0.1 0-0.1-0.1 0-0.1-0.1l-0.3-2.9q0-0.1 0-0.2 0 0 0-0.1 0.1-0.1 0.1-0.1 0.1-0.1 0.2-0.1c1.8-0.7 4-1.5 4.6-1.4 0.3 0.1 0.9 0.3 0.5 4.1q-0.1 0.1-0.1 0.2 0 0-0.1 0.1 0 0.1-0.1 0.1-0.1 0-0.1 0l-4.1 0.7c0 0-0.1 0-0.2 0zm0.2-3.1l0.3 2.1 3.3-0.5q0-0.4 0-0.7 0.1-0.3 0.1-0.7 0-0.3 0-0.7-0.1-0.3-0.1-0.7-0.5 0.2-0.9 0.3-0.5 0.1-0.9 0.3-0.5 0.1-0.9 0.3-0.5 0.1-0.9 0.3z"/>
		<path id="Layer" class="s3" d="m79.2 86.5q-0.1 0-0.2 0-0.1 0-0.1-0.1-0.1-0.1-0.1-0.1-0.1-0.1-0.1-0.2l-0.6-18.3q0-0.1 0.1-0.2 0-0.1 0.1-0.2 0 0 0.1-0.1 0.1 0 0.2 0 0.1 0 0.1 0 0.1 0 0.2 0.1 0.1 0.1 0.1 0.1 0 0.1 0 0.2l0.7 18.4q0 0.1-0.1 0.1 0 0.1-0.1 0.2 0 0.1-0.1 0.1-0.1 0-0.2 0z"/>
		<path id="Layer" fill-rule="evenodd" class="s3" d="m72.8 67.4q0-0.1-0.1-0.1-0.1 0-0.1 0l-2.4-1.2q0-0.1 0-0.1-0.1 0-0.1-0.1-0.1 0-0.1-0.1 0 0 0-0.1l-0.9-6.5q0-0.1 0-0.1 0 0 0.1-0.1l0.9-1.7q0 0 0.1-0.1 0-0.1 0.1-0.1l3.9-1.4q0.1-0.1 0.1-0.1 0.1 0 0.1 0 0.1 0 0.1 0 0.1 0 0.1 0.1 0.1 0 0.1 0 0 0 0.1 0.1 0 0 0 0.1 0 0 0 0.1l0.5 3.4 4-0.3q0.1 0 0.1 0 0 0 0.1 0 0 0 0.1 0 0 0.1 0 0.1 0.1 0 0.1 0.1 0 0 0.1 0 0 0.1 0 0.1 0 0.1 0 0.1l0.2 5.6q0 0 0 0.1-0.1 0.1-0.1 0.2-0.1 0-0.1 0.1-0.1 0-0.2 0l-6.7 1.8zm-1.9-2l2 1 6.2-1.6-0.1-4.7-4 0.4q-0.1 0-0.2 0-0.1-0.1-0.1-0.1-0.1-0.1-0.2-0.1 0-0.1 0-0.2l-0.5-3.3-3.2 1.1-0.8 1.4z"/>
		<path id="Layer" class="s2" d="m79.9 54.3q-0.2-0.2-0.4-0.3-0.1-0.1-0.3-0.2-0.2-0.1-0.4-0.2-0.2-0.1-0.4-0.2-0.2-0.1-0.5-0.2-0.2-0.1-0.4-0.1-0.2 0-0.5 0-0.2 0-0.4 0.1-0.1 0-0.2 0.1-0.1 0.1-0.2 0.2 0 0.1-0.1 0.2 0 0.2 0 0.3 0 0.1 0 0.2 0 0.1 0.1 0.3 0 0.1 0 0.2 0.1 0.1 0.1 0.2c0.5 1.1 2.4 2.2 3.6 2.5"/>
		<path id="Layer" class="s3" d="m79.9 57.8h-0.1c-1.3-0.3-3.4-1.4-3.9-2.7q-0.1-0.1-0.1-0.3-0.1-0.1-0.1-0.3 0-0.1 0-0.2-0.1-0.2-0.1-0.3 0.1-0.2 0.1-0.4 0.1-0.2 0.1-0.3 0.1-0.2 0.3-0.3 0.1-0.1 0.2-0.2c0.8-0.5 2.2 0.2 2.3 0.2l0.4 0.2q0.2 0.1 0.3 0.1 0.2 0.1 0.3 0.2 0.2 0.1 0.3 0.2 0.1 0.1 0.3 0.2 0 0 0.1 0.1 0 0.1 0.1 0.2 0 0.1-0.1 0.2 0 0.1 0 0.1-0.1 0.1-0.2 0.1-0.1 0.1-0.1 0.1-0.1 0-0.2 0-0.1 0-0.2-0.1-0.1-0.1-0.2-0.2-0.1 0-0.3-0.1-0.1-0.1-0.2-0.2-0.1 0-0.3-0.1l-0.4-0.2q-0.2-0.1-0.3-0.1-0.2-0.1-0.4-0.1-0.2-0.1-0.3-0.1-0.2 0-0.4 0.1 0 0-0.1 0.1 0 0-0.1 0.1 0 0 0 0.1 0 0.1 0 0.1 0 0.1 0 0.2 0 0.1 0 0.2 0 0.1 0.1 0.2 0 0.1 0 0.2c0.4 0.9 2.3 1.9 3.3 2.2q0.2 0 0.3 0.1 0.1 0.2 0.1 0.3-0.1 0.2-0.2 0.3-0.1 0.1-0.3 0.1z"/>
		<path id="Layer" class="s2" d="m163.5 112.5q0 0-0.1 0 0 0-0.1 0 0-0.1-0.1-0.1 0 0-0.1-0.1 0 0-0.1-0.1 0-0.1 0-0.2 0-0.1 0-0.2 0.1-0.1 0.1-0.2l10.1-8.9-3.9-5.6q0-0.1 0-0.2-0.1-0.1-0.1-0.2 0.1-0.1 0.1-0.1 0-0.1 0.1-0.2l7.2-6.1c-4.9-7.7-4.9-8.1-4.9-8.3q0-0.1 0-0.2 0.1-0.1 0.1-0.1 0.1-0.1 0.2-0.1 0.1-0.1 0.2-0.1 0.1 0 0.2 0.1 0.1 0 0.1 0.1 0.1 0 0.1 0.1 0.1 0.1 0.1 0.2c0.2 0.6 2.7 4.6 5 8.1q0 0.1 0 0.2 0.1 0.1 0.1 0.2-0.1 0.1-0.1 0.2 0 0-0.1 0.1l-7.2 6.1 3.9 5.6q0.1 0.1 0.1 0.2 0 0.1 0 0.2 0 0.1 0 0.1-0.1 0.1-0.1 0.2l-10.5 9.2q-0.1 0-0.1 0.1-0.1 0-0.1 0 0 0-0.1 0z"/>
		<path id="Layer" class="s2" d="m145.6 114.1q-0.1 0-0.2 0-0.1 0-0.1-0.1-0.1 0-0.1-0.1-0.1 0-0.1-0.1l-4.4-9.3q-0.1 0-0.1-0.1 0-0.1 0-0.1 0-0.1 0-0.1 0-0.1 0.1-0.1l4-6.9-4.9-3.5q-0.1 0-0.1 0 0-0.1-0.1-0.1 0-0.1 0-0.1 0-0.1 0-0.1 0-0.1 0-0.1 0-0.1 0-0.1 0-0.1 0-0.1 0-0.1 0.1-0.1l8.1-9.1q0.2-0.2 0.3-0.2 0.2 0 0.4 0.2 0.1 0.1 0.2 0.3 0 0.2-0.1 0.4l-7.8 8.6 4.8 3.4q0.1 0.1 0.1 0.1 0.1 0.1 0.1 0.2 0 0.1 0 0.2 0 0.1-0.1 0.2l-4.1 7 4.4 9.1q0 0.1 0 0.2 0.1 0.1 0 0.2 0 0.1-0.1 0.2 0 0-0.1 0.1-0.1 0-0.1 0-0.1 0-0.1 0z"/>
		<path id="Layer" class="s2" d="m130.3 144.2q-0.1 0-0.2 0 0-0.1-0.1-0.1-0.1 0-0.1-0.1 0 0-0.1-0.1 0-0.1 0-0.2-0.1-0.1 0-0.2 0-0.1 0.1-0.1 0-0.1 0.1-0.2l8.7-5q0.2 0 0.4 0 0.1 0.1 0.2 0.2 0.1 0.2 0.1 0.4 0 0.2-0.2 0.3l-8.7 5q0 0-0.1 0-0.1 0.1-0.1 0.1 0 0-0.1 0z"/>
		<path id="Layer" fill-rule="evenodd" class="s1" d="m88.7 147.3c-0.1 0-20.6 0-20.7 0q-0.1-0.1-0.1-0.1-0.1-0.1-0.1-0.2-0.1-0.1-0.1-0.2v-18.4q0-0.1 0.1-0.2 0-0.1 0.1-0.2 0-0.1 0.1-0.1 0.1 0 0.2 0c0.1 0 20.6 0 20.7 0q0.1 0 0.2 0.1 0 0.1 0.1 0.2 0 0.1 0 0.2c0 0.1 0 18.5 0 18.6q-0.1 0.1-0.1 0.2-0.1 0-0.2 0.1-0.1 0-0.2 0zm-20-1h19.5v-17.4h-19.5z"/>
		<path id="Layer" class="s1" d="m78.5 120.7l13 7.7h-26.1z"/>
		<path id="Layer" fill-rule="evenodd" class="s1" d="m91.5 128.9h-26.1q0 0-0.1-0.1-0.1 0-0.2 0 0-0.1-0.1-0.2 0 0 0-0.1-0.1-0.1-0.1-0.2 0 0 0.1-0.1 0-0.1 0.1-0.2 0 0 0.1-0.1l13-7.6q0-0.1 0.1-0.1 0.1 0 0.1 0 0.1 0 0.2 0 0 0 0.1 0.1l13 7.6q0.1 0.1 0.1 0.1 0.1 0.1 0.1 0.2 0 0.1 0 0.1 0.1 0.1 0 0.2 0 0.1 0 0.1-0.1 0.1-0.1 0.2-0.1 0-0.2 0 0 0.1-0.1 0.1zm-24.2-1h22.4l-11.2-6.6z"/>
		<path id="Layer" fill-rule="evenodd" class="s1" d="m81.3 147.3h-5q0 0-0.1-0.1-0.1 0-0.2-0.1-0.1-0.1-0.1-0.1 0-0.1-0.1-0.2v-7.9q0.1-0.1 0.1-0.2 0-0.1 0.1-0.1 0.1-0.1 0.2-0.2 0.1 0 0.1 0c0.1 0 5.1 0 5.2 0q0.1 0.1 0.2 0.2 0.1 0 0.1 0.1 0 0.1 0 0.2c0 0.1 0 8 0 8.1q0 0-0.1 0.1-0.1 0.1-0.2 0.1-0.1 0.1-0.2 0.1zm-4.5-1h4v-6.9h-4z"/>
		<path id="Layer" class="s1" d="m68.2 130.2h-13.2l-5.6 7.4h18.8z"/>
		<path id="Layer" fill-rule="evenodd" class="s1" d="m68.2 138.1c-0.1 0-18.9 0-19 0q-0.1 0-0.1-0.1-0.1 0-0.1-0.1-0.1 0-0.1-0.1 0 0-0.1-0.1 0-0.1 0-0.1 0-0.1 0-0.2 0.1 0 0.1-0.1l5.6-7.4q0.1-0.1 0.1-0.1 0.1 0 0.1-0.1 0.1 0 0.1 0 0.1 0 0.1 0c0.1 0 13.4 0 13.5 0q0.1 0 0.1 0.1 0.1 0.1 0.1 0.2 0.1 0.1 0.1 0.2v7.4q0 0.1-0.1 0.2 0 0.1-0.1 0.1 0 0.1-0.1 0.1-0.1 0.1-0.2 0.1zm-17.8-1h17.3v-6.4h-12.5z"/>
		<path id="Layer" fill-rule="evenodd" class="s1" d="m68.2 147.3c-0.1 0-17.5 0-17.6 0q-0.1-0.1-0.2-0.1 0-0.1-0.1-0.2 0-0.1 0-0.2c0-0.1 0-9.3 0-9.4q0.1-0.1 0.1-0.2 0.1 0 0.2-0.1 0.1 0 0.2 0c0.1 0 17.5 0 17.6 0q0.1 0.1 0.2 0.1 0 0.1 0.1 0.2 0 0.1 0 0.2c0 0.1 0 9.3 0 9.4q-0.1 0.1-0.1 0.2-0.1 0-0.2 0.1-0.1 0-0.2 0zm-16.9-1h16.4v-8.2h-16.4z"/>
		<path id="Layer" class="s1" d="m87 140.2h-17l1.5-2.6h13.9z"/>
		<path id="Layer" fill-rule="evenodd" class="s1" d="m87 140.7h-17q-0.1 0-0.2-0.1-0.2 0-0.2-0.1-0.1-0.2-0.1-0.3 0-0.1 0.1-0.2l1.5-2.7q0.1 0 0.1-0.1 0 0 0.1 0 0.1-0.1 0.1-0.1 0.1 0 0.2 0c0.1 0 13.9 0 14 0q0 0 0.1 0.1 0 0 0.1 0 0 0.1 0.1 0.1l1.5 2.7q0.1 0.1 0.1 0.2 0 0.1-0.1 0.3 0 0.1-0.2 0.1-0.1 0.1-0.2 0.1zm-16.1-1h15.2l-1-1.6h-13.3z"/>
		<path id="Layer" fill-rule="evenodd" class="s1" d="m83.7 136.5c-0.1 0-10.3 0-10.4 0q-0.1-0.1-0.2-0.1-0.1-0.1-0.1-0.2 0-0.1 0-0.2c0-0.1 0-4.3 0-4.4q0-0.1 0.1-0.2 0.1-0.1 0.2-0.1 0.1 0 0.2 0c0.1 0 10.3 0 10.4 0q0.1 0 0.2 0.1 0 0.1 0.1 0.2 0 0.1 0 0.2c0 0.1 0 4.3 0 4.4q-0.1 0.1-0.1 0.2-0.1 0-0.2 0.1-0.1 0-0.2 0zm-9.7-1h9.2v-3.2h-9.2z"/>
		<path id="Layer" fill-rule="evenodd" class="s1" d="m57.8 144.3c-0.1 0-3.7 0-3.8 0q-0.1 0-0.2-0.1 0-0.1-0.1-0.2 0-0.1 0-0.2c0-0.1 0-3.7 0-3.8q0.1-0.1 0.1-0.1 0.1-0.1 0.2-0.1 0.1-0.1 0.2-0.1h3.6q0.1 0 0.2 0.1 0.1 0 0.2 0.1 0 0 0.1 0.1 0 0.1 0 0.2c0 0.1 0 3.7 0 3.8q-0.1 0.1-0.1 0.2-0.1 0.1-0.2 0.1-0.1 0-0.2 0zm-3.1-1h2.6v-2.6h-2.6z"/>
		<path id="Layer" fill-rule="evenodd" class="s1" d="m64.4 144.3c-0.1 0-3.7 0-3.8 0q-0.1 0-0.2-0.1-0.1-0.1-0.1-0.2 0-0.1 0-0.2c0-0.1 0-3.7 0-3.8q0-0.1 0.1-0.1 0.1-0.1 0.2-0.1 0.1-0.1 0.2-0.1h3.6q0.1 0 0.2 0.1 0.1 0 0.1 0.1 0.1 0 0.1 0.1 0.1 0.1 0.1 0.2v3.6q0 0.1-0.1 0.2 0 0.1-0.1 0.2 0 0.1-0.1 0.1-0.1 0-0.2 0zm-3.1-1h2.6v-2.6h-2.6z"/>
		<path id="Layer" fill-rule="evenodd" class="s1" d="m74.6 145.1h-2.5q-0.1-0.1-0.2-0.1-0.1 0-0.2-0.1-0.1-0.1-0.1-0.2 0-0.1 0-0.1c0-0.1 0-2.7 0-2.8q0-0.1 0.1-0.2 0.1 0 0.2-0.1 0.1 0 0.2 0c0.1 0 2.6 0 2.7 0q0.1 0.1 0.1 0.1 0.1 0.1 0.1 0.2 0.1 0.1 0.1 0.2v2.5q0 0.1-0.1 0.2 0 0.1-0.1 0.2 0 0.1-0.1 0.1-0.1 0-0.2 0.1zm-2-1h1.5v-1.6h-1.5z"/>
		<path id="Layer" fill-rule="evenodd" class="s1" d="m85.4 145.1h-2.5q-0.1-0.1-0.2-0.1-0.1 0-0.1-0.1-0.1-0.1-0.1-0.2-0.1-0.1-0.1-0.1v-2.6q0-0.1 0.1-0.2 0-0.1 0.1-0.2 0 0 0.1-0.1 0.1 0 0.2 0c0.1 0 2.6 0 2.7 0q0.1 0.1 0.2 0.1 0.1 0.1 0.1 0.2 0 0.1 0 0.2v2.5q0.1 0.1 0 0.2 0 0.1-0.1 0.2-0.1 0.1-0.2 0.1 0 0-0.2 0.1zm-2-1h1.6v-1.6h-1.5z"/>
		<path id="Layer" fill-rule="evenodd" class="s1" d="m101.3 147.3c-0.1 0-12.7 0-12.8 0q-0.1-0.1-0.1-0.1-0.1-0.1-0.2-0.2 0-0.1 0-0.2c0-0.1 0-10.1 0-10.2q0.1-0.1 0.2-0.1 0-0.1 0.1-0.1 0.1-0.1 0.2-0.1h12.6q0.1 0 0.2 0.1 0.1 0 0.1 0.1 0.1 0 0.1 0.1 0.1 0.1 0.1 0.2v10q0 0.1-0.1 0.2 0 0.1-0.1 0.2 0 0-0.1 0.1-0.1 0-0.2 0zm-12.1-1h11.6v-9h-11.6z"/>
		<path id="Layer" class="s1" d="m91.5 139.5h7.3v7.3h-7.3z"/>
		<path id="Layer" fill-rule="evenodd" class="s1" d="m98.8 147.3h-7.3q-0.1 0-0.2-0.1-0.1 0-0.2-0.1 0-0.1-0.1-0.1 0-0.1 0-0.2c0-0.1 0-7.4 0-7.5q0.1-0.1 0.1-0.2 0.1-0.1 0.2-0.1 0.1 0 0.2 0c0.1 0 7.4 0 7.5 0q0.1 0 0.1 0.1 0.1 0.1 0.1 0.2 0.1 0.1 0.1 0.2v7.3q0 0.1-0.1 0.2 0 0-0.1 0.1 0 0.1-0.1 0.1-0.1 0.1-0.2 0.1zm-6.8-1h6.3v-6.3h-6.3z"/>
		<path id="Layer" class="s1" d="m88.7 132.6h11.3l4.4 4.2h-15.7z"/>
		<path id="Layer" fill-rule="evenodd" class="s1" d="m104.4 137.3c-0.1 0-15.8 0-15.9 0q-0.1 0-0.1-0.1-0.1-0.1-0.1-0.2-0.1-0.1-0.1-0.2v-4.2q0-0.1 0.1-0.2 0-0.1 0.1-0.1 0-0.1 0.1-0.1 0.1-0.1 0.2-0.1c0 0 11.3 0 11.4 0q0 0 0.1 0 0 0.1 0.1 0.1l4.5 4.3q0 0 0 0.1 0.1 0.1 0.1 0.1 0 0.1 0 0.2 0 0.1 0 0.1-0.1 0.1-0.1 0.1 0 0.1-0.1 0.1-0.1 0.1-0.1 0.1-0.1 0-0.2 0zm-15.2-1h14l-3.4-3.2h-10.6z"/>
		<path id="Layer" class="s3" d="m95.1 272.5h-23.5q-0.2-0.1-0.3-0.2-0.1-0.1-0.1-0.3 0-0.2 0.1-0.3 0.1-0.1 0.3-0.1h23.5q0.2-0.1 0.3 0.1 0.2 0.1 0.2 0.3 0 0.2-0.2 0.4-0.1 0.1-0.3 0.1z"/>
	</g>
</svg>