<svg version="1.2" xmlns="http://www.w3.org/2000/svg" viewBox="0 0 250 225" width="250" height="225">
	<title>icon__six-svg</title>
	<style>
		.s0 { opacity: .5;fill: #e6e6e6 } 
		.s1 { fill: #f4a28c } 
		.s2 { fill: #24285b } 
		.s3 { fill: #ef233c } 
		.s4 { fill: #ffffff } 
		.s5 { opacity: .1;fill: #000000 } 
		.s6 { opacity: .3;fill: #ce8172 } 
		.s7 { fill: #ffd200 } 
		.s8 { fill: #e6e6e6 } 
		.s9 { fill: #c1c1c1 } 
	</style>
	<g id="Carpeta 1">
		<path id="Layer" class="s0" d="m124.5 219c-68.9 0-124.5-7.6-124.5-17 0-9.3 55.6-16.9 124.5-16.9 68.8 0 124.4 7.6 124.4 16.9 0 9.4-55.6 17-124.4 17z"/>
		<path id="Layer" class="s1" d="m160.3 149.2l21.4 45.2 4.7-2.2-10.7-40.1-15.4-2.9z"/>
		<path id="Layer" class="s1" d="m193.8 126.7l6.4 71h6.4l3-71h-15.8z"/>
		<path id="Layer" class="s2" d="m181.4 110.7l-21.1 38.5 49.2 9.3 2.7-43.2-30.8-4.6z"/>
		<path id="Layer" class="s3" d="m180.6 192.1c0 0-0.8 3.9-3.6 5.2-2.9 1.3-1.3 5.5 3 2.8q0.5-0.3 1-0.7 0.5-0.3 0.9-0.6 0.5-0.4 1-0.8 0.4-0.4 0.8-0.8 0.6-0.3 1.1-0.6 0.6-0.4 1.2-0.6 0.6-0.3 1.2-0.5 0.6-0.1 1.2-0.3 0.2 0 0.4-0.1 0.2-0.1 0.3-0.3 0.2-0.1 0.3-0.3 0-0.2 0.1-0.4c0.5-2.2-3.8-4.6-3.8-4.6z"/>
		<path id="Layer" class="s3" d="m200.3 195.2c0 0-2.3 3.2-5.5 3.2-3.1-0.1-3.4 4.4 1.6 3.8q0.6-0.1 1.2-0.2 0.6-0.1 1.2-0.2 0.5-0.1 1.1-0.3 0.6-0.1 1.1-0.3 0.7-0.1 1.3-0.2 0.7 0 1.3 0 0.6 0 1.3 0.1 0.6 0.1 1.2 0.3 0.2 0 0.5 0 0.2 0 0.3-0.1 0.2-0.1 0.4-0.2 0.2-0.2 0.3-0.3c1.3-1.8-0.9-5.8-0.9-5.8z"/>
		<path id="Layer" class="s2" d="m201.2 26.9c0 0-15.3 9.5-7 17.7 8.3 8.2 15.3-6.4 15.3-6.4l-0.5-11.9z"/>
		<path id="Layer" class="s1" d="m199.6 38c0 0-12.8-5.5-18.9 9.1-3.7 8.9 17.6 31.4-5.5 29.5-16.9-1.4-20.5-17.4-19.9-25.8q0.2-1.8-0.1-3.6-0.3-1.8-1.1-3.5-0.8-1.7-1.9-3.1-1.2-1.3-2.7-2.4-0.6-0.4-1.3-0.7-0.6-0.3-1.3-0.5-0.7-0.2-1.4-0.2-0.7-0.1-1.4 0c-6.8 0.8 3.8 10.5 3.8 10.5 0 0-3.5 46.6 28.8 49.2 32.3 2.6 32.5-29.7 22.9-58.5z"/>
		<path id="Layer" class="s3" d="m199 37.9l11.6 2.1c0 0 39.2 13.6 11.1 52.6q-1.8 2.5-3.3 5.2-1.5 2.7-2.7 5.6-1.2 2.8-2.1 5.8-0.8 3-1.4 6.1l-30.8-4.6-0.6-5.8q-0.2-3-0.7-6-0.6-2.9-1.5-5.8-0.8-2.9-2-5.7-1.1-2.7-2.6-5.3c-4.9-8.7-7.2-25.2 25-44.2z"/>
		<path id="Layer" class="s4" d="m199.6 38c0 0-6.8 10.8-4.9 28.7 0 0 8.5-24.6 11.7-27.5z"/>
		<path id="Layer" class="s1" d="m202.4 16.8c0 0-1.9 5.1-2 8.9q0 0.5 0.2 1 0.2 0.6 0.6 1 0.4 0.3 0.9 0.6 0.5 0.2 1.1 0.2 0.8 0.1 1.7-0.1 0.8-0.2 1.6-0.6 0.7-0.5 1.4-1.1 0.6-0.6 1-1.4l2.8-4.2q0.4-0.7 0.5-1.4 0.1-0.8 0-1.6 0-0.7-0.4-1.4-0.3-0.7-0.8-1.3c-2.4-2.9-7.6-1.8-8.6 1.4z"/>
		<path id="Layer" class="s5" d="m210.9 57.5c0 0-7.1 7-1.4 20.2 5.8 13.2-7.6 19.9-7.6 19.9l-8.1 14.9 18.4 2.8c0 0 1.9-12.5 6.8-18.6 5-6.2 16.1-11.1 16.1-11.1l-3.3-12.9z"/>
		<path id="Layer" class="s1" d="m211.2 21.9l-1.9 17.9-9.7-1.8 5.3-12.3 6.3-3.8z"/>
		<path id="Layer" class="s1" d="m206.7 22.8c0 0 0.6-2 2.1-1.4 1.5 0.6 0.6 3.5-1.5 3.2z"/>
		<path id="Layer" class="s1" d="m201.4 20.1l-2 1.6q-0.2 0.2-0.3 0.4-0.1 0.2-0.1 0.4 0.1 0.3 0.2 0.4 0.1 0.2 0.3 0.3l1.9 1z"/>
		<path id="Layer" class="s6" d="m203.6 28.3q0.5 0 0.9 0 0.5-0.1 1-0.2 0.4-0.1 0.8-0.3 0.5-0.2 0.9-0.5c0.2-0.1-1 3.2-5.3 5.4z"/>
		<path id="Layer" class="s2" d="m204.2 8.8c-0.8 0.3-1.5 0.8-2 1.5-0.6 0.6-1 1.4-1.2 2.2-0.2 0.8-0.2 1.7 0 2.5 0.2 0.9 0.6 1.6 1.2 2.3q0.3 0.4 0.7 0.8 0.4 0.3 0.8 0.7 0.4 0.3 0.8 0.6 0.4 0.4 0.9 0.7c5 3.2-7.5 26.2 5.3 27.6 12.8 1.3 11.1-5.2 7.8-11.8-3.4-6.7-2.2-15.9-2.4-20.9-0.2-3.7-7.1-7.8-11.9-6.2z"/>
		<path id="Layer" class="s7" d="m183.1 96.7l29.1 16.9-10.8 19-29.1-17z"/>
		<path id="Layer" class="s1" d="m212.4 54c0.7-1.3 1.8-2.4 3-3.2 1.3-0.8 2.7-1.4 4.1-1.6 1.5-0.3 3-0.2 4.5 0.2 1.4 0.4 2.7 1.2 3.9 2.1 8.9 7.6 19.8 22.7 22 32.6 3.2 14.3-49.6 17.8-49.6 17.8 0 0 1.5 6.4-5.9 7.4-5 0.7-2-5 0.6-9q0.6-0.9 1.3-1.6 0.6-0.8 1.4-1.4 0.8-0.7 1.6-1.3 0.9-0.5 1.8-0.9l26.6-12.2c0 0-24-14.2-15.3-28.9z"/>
		<path id="Layer" class="s8" d="m69.6 11.5h15.1v22.8h-15.1z"/>
		<path id="Layer" class="s8" d="m107.2 11.5l-42.8 28.3v56.9h85.6v-56.9l-42.8-28.3z"/>
		<path id="Layer" class="s9" d="m158.7 39.4l-51.5-35.4-51.6 35.4 3.7 5.5 47.9-32.8 47.8 32.8 3.7-5.5z"/>
		<path id="Layer" class="s9" d="m89.6 42.6h8.6v1.8h-6.7v4.3h6.2v1.7h-6.2v6h-1.9z"/>
		<path id="Layer" fill-rule="evenodd" class="s9" d="m106.9 56.8q-0.3 0-0.7-0.1-0.4 0-0.7-0.1-0.4 0-0.7-0.1-0.4-0.1-0.7-0.3-0.3-0.1-0.6-0.3-0.3-0.1-0.6-0.3-0.3-0.2-0.5-0.4-0.3-0.3-0.5-0.5-0.3-0.2-0.5-0.5-0.2-0.3-0.4-0.6-0.2-0.3-0.3-0.6-0.2-0.3-0.3-0.6-0.3-0.7-0.4-1.4-0.1-0.7-0.1-1.4 0-0.8 0.1-1.5 0.1-0.7 0.4-1.4 0.1-0.3 0.3-0.6 0.1-0.3 0.3-0.6 0.2-0.3 0.4-0.6 0.2-0.2 0.5-0.5 0.2-0.2 0.5-0.4 0.2-0.3 0.5-0.5 0.3-0.1 0.6-0.3 0.3-0.2 0.6-0.3 0.7-0.3 1.4-0.4 0.7-0.2 1.5-0.2 0.7 0 1.4 0.2 0.7 0.1 1.4 0.4 0.3 0.1 0.6 0.3 0.3 0.2 0.6 0.3 0.3 0.2 0.6 0.5 0.2 0.2 0.5 0.4 0.2 0.3 0.4 0.5 0.2 0.3 0.4 0.6 0.2 0.3 0.4 0.6 0.1 0.3 0.2 0.6 0.3 0.7 0.4 1.4 0.2 0.7 0.2 1.5 0 0.7-0.2 1.4-0.1 0.7-0.4 1.4-0.1 0.3-0.2 0.6-0.2 0.3-0.4 0.6-0.2 0.3-0.4 0.6-0.2 0.3-0.4 0.5-0.3 0.2-0.5 0.5-0.3 0.2-0.6 0.4-0.3 0.2-0.6 0.3-0.3 0.2-0.6 0.3-0.3 0.2-0.7 0.3-0.3 0.1-0.7 0.2-0.4 0-0.7 0.1-0.4 0-0.8 0zm0-1.8q0.3 0 0.6 0 0.2 0 0.5-0.1 0.3 0 0.5-0.1 0.3-0.1 0.5-0.2 0.3-0.1 0.5-0.2 0.2-0.2 0.4-0.3 0.2-0.2 0.4-0.3 0.2-0.2 0.3-0.4 0.2-0.2 0.4-0.4 0.1-0.2 0.3-0.4 0.1-0.2 0.2-0.4 0.1-0.3 0.2-0.5 0.2-0.5 0.3-1.1 0-0.5 0-1 0-0.6 0-1.1-0.1-0.6-0.3-1.1-0.1-0.2-0.2-0.4-0.1-0.3-0.2-0.5-0.2-0.2-0.3-0.4-0.2-0.2-0.4-0.4-0.1-0.2-0.3-0.4-0.2-0.1-0.4-0.3-0.2-0.1-0.4-0.2-0.2-0.2-0.5-0.3-0.5-0.2-1-0.3-0.5-0.1-1.1-0.1-0.5 0-1.1 0.1-0.5 0.1-1 0.3-0.2 0.1-0.5 0.3-0.2 0.1-0.4 0.2-0.2 0.2-0.4 0.4-0.2 0.1-0.3 0.3-0.2 0.2-0.3 0.4-0.2 0.2-0.3 0.4-0.2 0.3-0.3 0.5-0.1 0.2-0.2 0.5-0.1 0.5-0.2 1-0.1 0.5-0.1 1.1 0 0.5 0.1 1.1 0.1 0.5 0.2 1 0.1 0.2 0.2 0.5 0.1 0.2 0.3 0.4 0.1 0.2 0.3 0.5 0.1 0.2 0.3 0.3 0.1 0.2 0.3 0.4 0.2 0.2 0.4 0.3 0.2 0.2 0.4 0.3 0.3 0.1 0.5 0.2 0.2 0.1 0.5 0.2 0.3 0.1 0.5 0.1 0.3 0.1 0.6 0.1 0.2 0 0.5 0z"/>
		<path id="Layer" fill-rule="evenodd" class="s9" d="m116.7 42.6h4.8q0.2 0 0.5 0 0.3 0.1 0.5 0.1 0.3 0.1 0.6 0.1 0.2 0.1 0.5 0.2 0.2 0.1 0.4 0.2 0.2 0.1 0.3 0.2 0.2 0.1 0.3 0.3 0.2 0.1 0.3 0.2 0.2 0.2 0.3 0.3 0.1 0.2 0.2 0.3 0 0.2 0.1 0.4 0.1 0.1 0.1 0.3 0.1 0.2 0.1 0.3 0 0.2 0.1 0.4 0 0.1 0 0.3 0 0.2 0 0.3 0 0.2 0 0.3 0 0.2 0 0.4-0.1 0.1-0.1 0.3-0.1 0.1-0.1 0.3-0.1 0.3-0.3 0.6-0.2 0.3-0.4 0.5-0.2 0.2-0.5 0.4-0.2 0.2-0.5 0.4-0.2 0.1-0.4 0.2-0.1 0-0.3 0.1-0.2 0-0.4 0.1-0.2 0-0.3 0l3.8 6.3h-2.2l-3.5-6.1h-2.1v6.1h-1.9zm1.9 6.1h2.4q0.2 0 0.3-0.1 0.1 0 0.3 0 0.1 0 0.2 0 0.2 0 0.3 0 0.1-0.1 0.2-0.1 0.2 0 0.3-0.1 0.1 0 0.2 0 0.1-0.1 0.2-0.2 0.1 0 0.2-0.1 0.1-0.1 0.2-0.1 0.1-0.1 0.2-0.2 0-0.1 0.1-0.2 0.1-0.3 0.2-0.6 0-0.3 0-0.6 0-0.3 0-0.5-0.1-0.3-0.2-0.6-0.1-0.1-0.1-0.2-0.1-0.1-0.2-0.2-0.1-0.1-0.2-0.1-0.1-0.1-0.2-0.2-0.1 0-0.2-0.1-0.1 0-0.2-0.1-0.1 0-0.3 0-0.1-0.1-0.2-0.1-0.1 0-0.3 0-0.1 0-0.2-0.1-0.2 0-0.3 0-0.1 0-0.3 0h-2.4z"/>
		<path id="Layer" class="s9" d="m86.5 76.9q0.1 0.2 0.2 0.3 0.2 0.2 0.3 0.3 0.2 0.2 0.4 0.3 0.2 0.1 0.4 0.2 0.1 0.1 0.3 0.1 0.2 0.1 0.4 0.2 0.2 0 0.4 0 0.3 0.1 0.5 0.1 0.1 0 0.2-0.1 0.1 0 0.2 0 0.2 0 0.3 0 0.1-0.1 0.2-0.1 0.1 0 0.2-0.1 0.1 0 0.3-0.1 0.1 0 0.2-0.1 0.1 0 0.2-0.1 0.1-0.1 0.2-0.2 0.1-0.1 0.1-0.1 0.1-0.1 0.2-0.2 0.1-0.1 0.1-0.2 0.1-0.1 0.1-0.3 0.1-0.1 0.1-0.2 0-0.1 0.1-0.2 0-0.2 0-0.3 0-0.2 0-0.3-0.1-0.2-0.1-0.4-0.1-0.1-0.2-0.3-0.1-0.1-0.2-0.2-0.2-0.1-0.3-0.2-0.2-0.1-0.3-0.2-0.2-0.1-0.3-0.2-0.2 0-0.4-0.1-0.7-0.3-1.6-0.6-0.2 0-0.4-0.1-0.2-0.1-0.4-0.2-0.2-0.1-0.4-0.2-0.2-0.1-0.4-0.2-0.2-0.1-0.4-0.2-0.1-0.2-0.3-0.3-0.1-0.2-0.3-0.4-0.1-0.1-0.2-0.3-0.2-0.3-0.3-0.5-0.1-0.3-0.1-0.6-0.1-0.2-0.1-0.5 0-0.3 0-0.6 0-0.1 0-0.3 0-0.2 0-0.3 0.1-0.2 0.1-0.3 0.1-0.2 0.1-0.3 0.1-0.2 0.2-0.4 0.1-0.2 0.2-0.3 0.1-0.2 0.2-0.3 0.1-0.2 0.2-0.3 0.2-0.1 0.4-0.3 0.1-0.1 0.3-0.2 0.2-0.2 0.4-0.3 0.2-0.1 0.4-0.1 0.2-0.1 0.5-0.2 0.2-0.1 0.5-0.1 0.3-0.1 0.5-0.1 0.3 0 0.6 0 0.3 0 0.5 0 0.3 0 0.6 0.1 0.2 0 0.5 0.1 0.3 0 0.5 0.1 0.3 0.1 0.5 0.2 0.3 0.1 0.5 0.3 0.2 0.2 0.4 0.3 0.2 0.2 0.4 0.5l-1.5 1.3q-0.1-0.1-0.2-0.2-0.1-0.2-0.2-0.3-0.1-0.1-0.3-0.2-0.1-0.1-0.2-0.1-0.2-0.1-0.4-0.2-0.2-0.1-0.3-0.1-0.2 0-0.4-0.1-0.2 0-0.4 0-0.1 0-0.3 0-0.2 0-0.3 0.1-0.2 0-0.4 0-0.1 0.1-0.3 0.1-0.1 0.1-0.2 0.1-0.1 0.1-0.2 0.1-0.1 0.1-0.2 0.2-0.1 0.1-0.2 0.2-0.1 0-0.1 0.1-0.1 0.1-0.1 0.2-0.1 0.1-0.1 0.2-0.1 0.1-0.1 0.2 0 0-0.1 0.1 0 0.1 0 0.2 0 0.1 0 0.2 0 0 0 0.1-0.1 0.2 0 0.4 0 0.2 0.1 0.4 0 0.1 0.1 0.3 0.1 0.1 0.3 0.3 0.1 0.1 0.2 0.2 0.2 0.1 0.3 0.2 0.2 0.1 0.4 0.2 0.1 0.1 0.3 0.1 0.2 0.1 0.4 0.2 0.2 0 0.4 0.1 0.2 0.1 0.4 0.1 0.2 0.1 0.4 0.1 0.2 0.1 0.4 0.2 0.2 0 0.4 0.1 0.2 0.1 0.4 0.2 0.2 0.1 0.4 0.2 0.2 0.1 0.4 0.2 0.2 0.2 0.3 0.3 0.2 0.1 0.3 0.3 0.1 0.2 0.3 0.3 0.1 0.2 0.2 0.5 0.1 0.2 0.2 0.4 0 0.3 0.1 0.5 0 0.3 0 0.5 0 0.5-0.1 0.9-0.1 0.5-0.3 0.9-0.2 0.4-0.4 0.7-0.3 0.4-0.6 0.7-0.2 0.1-0.4 0.2-0.1 0.2-0.3 0.3-0.2 0.1-0.4 0.2-0.2 0-0.4 0.1-0.2 0.1-0.5 0.1-0.2 0.1-0.4 0.1-0.3 0.1-0.5 0.1-0.3 0-0.5 0-0.3 0-0.6 0-0.3-0.1-0.7-0.1-0.3-0.1-0.6-0.2-0.3-0.1-0.6-0.2-0.3-0.1-0.5-0.2-0.3-0.2-0.5-0.4-0.3-0.1-0.5-0.4-0.2-0.2-0.4-0.4z"/>
		<path id="Layer" fill-rule="evenodd" class="s9" d="m101 66h1.7l5.8 13.7h-2.1l-1.4-3.4h-6.5l-1.3 3.4h-2.2zm3.3 8.8l-2.5-6.3-2.6 6.3z"/>
		<path id="Layer" class="s9" d="m110.3 66h1.9v12h6.2v1.7h-8.1z"/>
		<path id="Layer" class="s9" d="m120.3 66h8.8v1.7h-7v4.1h6.5v1.8h-6.5v4.4h7.3v1.7h-9.1z"/>
		<path id="Layer" class="s8" d="m104.5 96.7h5.3v105.6h-5.3z"/>
		<path id="Layer" class="s3" d="m100.5 201c0.3-2.4 0-4.9-0.8-7.2-0.8-2.2-2.1-4.3-3.8-6-1.7-1.7-3.8-3-6.1-3.8-2.3-0.8-4.7-1-7.1-0.7 0-3.1-1-6.2-2.8-8.8-1.8-2.5-4.3-4.5-7.2-5.6-3-1-6.1-1.2-9.1-0.4-3.1 0.8-5.7 2.5-7.8 4.9-1-4.3-6.1-6.3-10.5-6.3q-1.8 0.1-3.5 0.4-1.8 0.4-3.5 1.1-1.6 0.7-3.1 1.7-1.5 1-2.8 2.2c-3.2 3.3-3.9 7-4.7 11.2-3.5-1-6.7 1-8.7 3.8-1.8 2.5-3.4 6-3.2 9.1 0 0.5 0.6 4.4 1.1 4.4z"/>
		<path id="Layer" class="s3" d="m145.6 191.8q0.1-1.3-0.3-2.5-0.4-1.1-1.3-2-0.9-0.9-2.1-1.3-1.1-0.4-2.4-0.2c0-1.1-0.3-2.1-0.9-3-0.6-0.9-1.5-1.5-2.5-1.9-1-0.4-2-0.4-3.1-0.2-1 0.3-1.9 0.9-2.6 1.7-0.3-1.5-2.1-2.2-3.5-2.1q-1.2-0.1-2.3 0.4-1 0.4-1.9 1.2-0.8 0.7-1.3 1.8-0.5 1-0.5 2.2-0.4-0.1-0.9-0.1-0.4 0.1-0.8 0.3-0.4 0.1-0.7 0.4-0.3 0.3-0.6 0.7-0.2 0.3-0.4 0.7-0.2 0.3-0.3 0.7-0.2 0.4-0.3 0.8 0 0.4 0 0.8c0 0.2 0.2 1.6 0.3 1.6z"/>
	</g>
</svg>