<svg version="1.2" xmlns="http://www.w3.org/2000/svg" viewBox="0 0 300 300" width="300" height="300">
	<title>icon__terciary-svg</title>
	<style>
		.s0 { fill: #ffffff } 
		.s1 { fill: #231f20 } 
		.s2 { fill: #d90429 } 
	</style>
	<g id="_571_lunch_break_flatline">
		<path id="Layer" class="s0" d="m91.8 178.8l10.2 58.8c0 0 9.5-2.7 10-2.9 0.5-0.1 5.7-40.7 2.7-49.2-3-8.4-15.5-15.9-17.7-16.6-2.2-0.8-5.3 8.1-5.3 8.1"/>
		<path id="Layer" class="s1" d="m102 238.1q0 0-0.1 0 0 0 0 0-0.1 0-0.1 0 0 0-0.1-0.1 0 0 0 0-0.1-0.1-0.1-0.1 0 0-0.1-0.1 0 0 0-0.1l-10.2-58.8q-0.1-0.1 0-0.2 0-0.1 0-0.1 0.1-0.1 0.2-0.2 0.1 0 0.2-0.1 0.1 0 0.2 0.1 0.1 0 0.1 0 0.1 0.1 0.2 0.2 0 0.1 0 0.2l10.2 58.2c3.5-1 8.2-2.3 9.3-2.7 0.8-3.1 5.3-40.8 2.6-48.6-3-8.5-15.5-15.7-17.4-16.3-1.1-0.4-3.3 3.7-4.6 7.8q-0.1 0.2-0.3 0.3-0.2 0.1-0.4 0-0.2-0.1-0.3-0.3-0.1-0.2 0-0.4c0.8-2.2 3.4-9.2 5.9-8.4 2.7 0.9 15 8.6 18 16.9 1.6 4.6 0.9 17.7 0 28-0.6 6.7-1.2 12.2-1.6 14.9-0.8 6.8-1 6.9-1.3 7-0.5 0.2-9.1 2.6-10.1 2.9z"/>
		<path id="Layer" class="s1" d="m102 237.6c0 0-1.3 9.7 1 10.4 2.3 0.8 29.6 1.2 29-3.1-0.6-4.3-20-10.2-20-10.2z"/>
		<path id="Layer" fill-rule="evenodd" class="s1" d="m112.1 249q-1.2 0-2.3 0-1.2 0-2.3-0.1-1.2 0-2.3-0.1-1.2-0.2-2.3-0.3c-2.5-0.8-1.5-9.2-1.3-10.9q0-0.1 0-0.1 0.1-0.1 0.1-0.1 0-0.1 0.1-0.1 0-0.1 0.1-0.1l10-2.9q0 0 0.1 0 0 0 0 0 0.1 0 0.1 0 0 0 0.1 0c2 0.6 19.6 6 20.2 10.5q0.1 0.3 0 0.5 0 0.2-0.1 0.4-0.1 0.2-0.2 0.4-0.2 0.1-0.3 0.2c-2.5 2-12.2 2.7-19.7 2.7zm-9.7-11c-0.4 3.8-0.5 9.2 0.8 9.6 1.8 0.7 24.4 1 28-2 0.4-0.3 0.3-0.6 0.3-0.7-0.4-3.2-14.1-8.1-19.5-9.7z"/>
		<path id="Layer" class="s0" d="m84.7 185.2c0 0 9-0.7 9.9 0.8 0.9 1.5 22.6 51.6 22.6 51.6l11-5.6c0 0-12.9-47.6-14.6-51.7-1.8-4.1-12.6-11.2-19.7-12.1-7.1-1-9.2 17-9.2 17z"/>
		<path id="Layer" fill-rule="evenodd" class="s1" d="m117.3 238.1q-0.1 0-0.1 0 0 0 0 0-0.1 0-0.1 0 0 0 0 0-0.1 0-0.1 0-0.1-0.1-0.1-0.1 0 0-0.1-0.1 0 0 0 0c-7.5-17.4-21.9-50.5-22.6-51.6-0.5-0.8-5.3-0.9-9.4-0.6q-0.1 0-0.2 0 0 0-0.1 0 0 0-0.1-0.1 0 0 0 0-0.1-0.1-0.1-0.1 0-0.1-0.1-0.1 0-0.1 0-0.1 0-0.1 0-0.1c0.1-0.6 1.6-12.8 6.3-16.5q0.3-0.3 0.7-0.5 0.5-0.2 0.9-0.3 0.5-0.2 0.9-0.2 0.5 0 1 0c7.3 1 18.2 8.2 20 12.4 1.8 4.3 14.1 49.8 14.7 51.8q0 0.1 0 0.2 0 0.1-0.1 0.1 0 0.1-0.1 0.2 0 0-0.1 0.1l-10.9 5.6q0 0-0.1 0 0 0 0 0-0.1 0-0.1 0 0 0 0 0zm-28.2-53.6c2.6 0 5.3 0.3 5.9 1.2 0.9 1.5 20.1 45.7 22.5 51.2l10.1-5.2c-1.3-4.5-12.9-47.4-14.5-51.2-1.7-3.8-12.3-10.9-19.3-11.8q-0.3-0.1-0.7-0.1-0.4 0.1-0.7 0.2-0.4 0.1-0.7 0.3-0.3 0.1-0.6 0.4c-3.8 3-5.4 12.6-5.8 15.1 1 0 2.4-0.1 3.8-0.1z"/>
		<path id="Layer" class="s0" d="m94.6 115c0 0 3.9-2.4 4.1-3.1 0.2-0.7 1.9-6.5 3-6.7 1.1-0.3 1.3 0.3 0.7 3.4 0 0 5.2-5.9 6.7-5.1 1.5 0.9 2 4.5 1.5 6-0.5 1.6-9.3 9.6-11.9 12z"/>
		<path id="Layer" fill-rule="evenodd" class="s1" d="m98.7 122.1h-0.1q-0.1 0-0.1 0-0.1 0-0.1 0-0.1-0.1-0.1-0.1 0-0.1-0.1-0.1l-4-6.6q-0.1-0.1-0.1-0.2 0-0.1 0-0.2 0-0.1 0.1-0.2 0 0 0.1-0.1 0.5-0.3 1-0.6 0.6-0.3 1-0.7 0.5-0.4 1-0.7 0.5-0.4 0.9-0.8c2-6.8 2.9-7 3.3-7.1q0.1-0.1 0.3-0.1 0.2 0 0.3 0 0.2 0 0.4 0.1 0.1 0.1 0.2 0.2c0.4 0.3 0.5 1 0.4 2.1 1.9-2 4.9-4.7 6.2-3.9 1.7 1 2.4 4.9 1.7 6.7-0.4 1.3-5.4 6.1-10.5 10.8l-1.5 1.4q0 0-0.1 0.1 0 0-0.1 0 0 0 0 0-0.1 0-0.1 0zm-3.4-6.9q0 0 0 0v-0.1zm3.5 5.7l1-1c3-2.8 9.8-9.2 10.3-10.5 0.5-1.5-0.1-4.7-1.3-5.4-0.6-0.3-3.5 2-6.1 5q-0.1 0.1-0.3 0.1-0.2 0.1-0.3 0-0.2-0.1-0.2-0.2-0.1-0.2-0.1-0.3c0.5-2.5 0.3-2.9 0.3-2.9q-0.1-0.1-0.1-0.1-0.1 0-0.1 0 0 0-0.1 0 0 0-0.1 0.1c-0.2 0.1-1.1 1.6-2.5 6.3-0.3 0.8-2.4 2.3-3.9 3.2z"/>
		<path id="Layer" class="s2" d="m65.2 126.5l29.3-13.2 6.7 7c0 0-10.2 16-18.9 15.7-8.6-0.3-17.1-9.5-17.1-9.5z"/>
		<path id="Layer" class="s1" d="m112 126.5h23.8v3.8c0 1.5-0.3 3-0.8 4.3-0.6 1.4-1.4 2.7-2.5 3.7-1 1-2.3 1.9-3.6 2.4-1.4 0.6-2.9 0.9-4.4 0.9h-1.2c-1.5 0-3-0.3-4.3-0.9-1.4-0.5-2.7-1.4-3.7-2.4-1-1-1.9-2.3-2.4-3.7-0.6-1.3-0.9-2.8-0.9-4.3v-3.8z"/>
		<path id="Layer" fill-rule="evenodd" class="s1" d="m124.5 142.1h-1.2c-1.6 0-3.1-0.3-4.5-0.9-1.5-0.6-2.8-1.5-3.9-2.6-1-1.1-1.9-2.3-2.5-3.8-0.6-1.4-0.9-2.9-0.9-4.5v-3.8q0-0.1 0-0.2 0.1-0.1 0.1-0.1 0.1-0.1 0.2-0.1 0.1-0.1 0.2-0.1h23.8q0.1 0 0.2 0.1 0.1 0 0.2 0.1 0 0 0.1 0.1 0 0.1 0 0.2v3.8c0 1.6-0.3 3.1-0.9 4.5-0.6 1.5-1.4 2.7-2.5 3.8-1.1 1.1-2.4 2-3.9 2.6-1.4 0.6-2.9 0.9-4.5 0.9zm-12-15.1v3.3c0 1.4 0.3 2.8 0.9 4.1 0.5 1.3 1.3 2.5 2.3 3.5 1 1 2.2 1.8 3.5 2.4 1.3 0.5 2.7 0.8 4.1 0.8h1.3c1.4 0 2.8-0.3 4.1-0.8 1.3-0.6 2.5-1.4 3.5-2.4 1-1 1.8-2.2 2.3-3.5 0.6-1.3 0.9-2.7 0.9-4.1v-3.3z"/>
		<path id="Layer" class="s0" d="m103.6 133.1c0.2 0.2 7.9 1.4 9.2 1.1 1.3-0.3 2.4-2.4 3.7-2.5 1.3-0.2 7.2-0.2 9 1.2 1.8 1.5 3.4 9 2.3 9.5-1 0.6-12.5-0.4-14.6-0.5-2.1-0.1-12-0.1-12-0.1z"/>
		<path id="Layer" fill-rule="evenodd" class="s1" d="m125.9 143.1c-2 0-5.4-0.2-10-0.5-1.2-0.1-2.2-0.2-2.7-0.2-2-0.1-11.9-0.1-12-0.1q-0.1 0-0.2-0.1-0.1 0-0.2-0.1-0.1-0.1-0.1-0.2 0-0.1 0-0.2l2.5-8.8q0-0.1 0-0.1 0.1-0.1 0.1-0.1 0.1-0.1 0.2-0.1 0 0 0.1 0 0 0 0.1 0 0 0 0.1 0 0 0 0.1 0 0 0 0.1 0.1c0.8 0.3 7.6 1.2 8.8 1q0.2-0.1 0.4-0.3 0.2-0.1 0.4-0.2 0.2-0.2 0.4-0.3 0.1-0.2 0.3-0.4 0.2-0.2 0.5-0.5 0.2-0.2 0.5-0.3 0.2-0.2 0.5-0.4 0.3-0.1 0.6-0.2c1.3-0.2 7.5-0.2 9.4 1.4 1.7 1.4 3.1 6.9 2.9 9.2q0 0.1 0 0.3-0.1 0.2-0.2 0.3 0 0.2-0.1 0.3-0.1 0.2-0.3 0.3-0.3 0-0.5 0.1-0.3 0-0.6 0.1-0.2 0-0.5 0-0.3 0-0.6 0zm-24.1-1.8c2.3 0 9.7 0 11.4 0.1 0.5 0 1.5 0.1 2.7 0.2 3.3 0.2 10.9 0.8 11.7 0.4 0.5-0.7-0.9-7.4-2.4-8.7-1.5-1.2-7.4-1.3-8.6-1.2q-0.3 0.1-0.5 0.2-0.2 0.2-0.4 0.3-0.2 0.1-0.4 0.3-0.2 0.2-0.3 0.4-0.2 0.2-0.5 0.4-0.2 0.2-0.4 0.4-0.3 0.2-0.6 0.3-0.2 0.2-0.5 0.3c-1.5 0.3-6.9-0.6-9-1.1z"/>
		<path id="Layer" class="s2" d="m60.4 90.1c0 0 5.8 5.6 6.5 10.3 0.8 4.7-1.1 49.6 4.5 63.6l27.3 3.6-10.4 18.4h-48.5l-10.6-41c0 0 3.4-28.5 9-46.5 5.7-18 15.6-18.7 22.2-8.4"/>
		<path id="Layer" class="s0" d="m85.4 195.2l9.2 54.8h5.6l-9.8-58.5-5 3.7z"/>
		<path id="Layer" fill-rule="evenodd" class="s1" d="m100.2 250.5h-5.6q-0.1 0-0.2 0-0.1-0.1-0.1-0.1-0.1-0.1-0.1-0.2-0.1 0-0.1-0.1l-9.2-54.8q0-0.1 0-0.2 0-0.1 0-0.1 0.1-0.1 0.1-0.1 0-0.1 0.1-0.1l5-3.7q0-0.1 0.1-0.1 0.1 0 0.1 0 0.1 0 0.2 0 0 0 0.1 0 0 0 0.1 0.1 0 0 0.1 0.1 0 0 0 0.1 0.1 0 0.1 0.1l9.8 58.5q0 0.1 0 0.1 0 0.1 0 0.1 0 0.1 0 0.1 0 0.1-0.1 0.1 0 0.1-0.1 0.1 0 0-0.1 0.1 0 0-0.1 0 0 0-0.1 0zm-5.2-1h4.6l-9.6-57.1-4.1 3z"/>
		<path id="Layer" class="s0" d="m93.8 195.2h-61.7l-19.8-81.9c0 0 8.1 4.6 10.4 9.1 2.3 4.4 17.1 63.6 17.1 63.6h54.8z"/>
		<path id="Layer" fill-rule="evenodd" class="s1" d="m93.8 195.7h-61.7q-0.1 0-0.2-0.1-0.1 0-0.1 0-0.1-0.1-0.1-0.2-0.1 0-0.1-0.1l-19.8-81.9q0-0.2 0-0.3 0.1-0.1 0.2-0.2 0.1-0.1 0.3-0.1 0.1 0 0.2 0c0.4 0.2 8.4 4.8 10.6 9.4 2.2 4.3 15.7 57.8 17 63.3h54.5q0 0 0.1 0 0 0 0.1 0 0 0 0.1 0.1 0 0 0 0 0.1 0.1 0.1 0.1 0 0.1 0 0.1 0 0.1 0.1 0.1 0 0.1 0 0.1l-0.8 9.2q0 0.1 0 0.2-0.1 0.1-0.1 0.1-0.1 0.1-0.2 0.1-0.1 0.1-0.2 0.1zm-61.3-1h60.9l0.6-8.2h-54.2q-0.1 0-0.2-0.1-0.1 0-0.1 0-0.1-0.1-0.1-0.2-0.1 0-0.1-0.1c-0.2-0.6-14.8-59.1-17-63.5-1.7-3.3-7-6.9-9.2-8.3z"/>
		<path id="Layer" class="s0" d="m40.3 195.2l-12.3 54.8h-4.9l11.2-54.8h6z"/>
		<path id="Layer" fill-rule="evenodd" class="s1" d="m28 250.5h-4.9q-0.1 0-0.1 0-0.1 0-0.1-0.1-0.1 0-0.1 0-0.1 0-0.1-0.1-0.1 0-0.1-0.1 0 0 0-0.1 0 0 0-0.1 0-0.1 0-0.1l11.2-54.8q0.1-0.1 0.1-0.2 0-0.1 0.1-0.1 0.1-0.1 0.2-0.1 0 0 0.1 0h6q0.1 0 0.2 0 0.1 0.1 0.2 0.2 0.1 0 0.1 0.2 0 0.1 0 0.2l-12.4 54.8q0 0.1 0 0.1-0.1 0.1-0.1 0.2-0.1 0-0.1 0.1-0.1 0-0.2 0zm-4.3-1h3.9l12.2-53.8h-5z"/>
		<path id="Layer" class="s0" d="m86.2 142.4h142.5v5.2h-142.5z"/>
		<path id="Layer" fill-rule="evenodd" class="s1" d="m228.7 148.1h-142.5q-0.1 0-0.2 0-0.1 0-0.1-0.1-0.1-0.1-0.1-0.2-0.1-0.1-0.1-0.2v-5.2q0 0 0.1-0.1 0-0.1 0.1-0.2 0-0.1 0.1-0.1 0.1 0 0.2-0.1h142.5q0.1 0.1 0.2 0.1 0.1 0 0.1 0.1 0.1 0.1 0.1 0.2 0.1 0.1 0.1 0.1v5.2q0 0.1-0.1 0.2 0 0.1-0.1 0.2 0 0.1-0.1 0.1-0.1 0-0.2 0zm-142-1h141.5v-4.1h-141.5z"/>
		<path id="Layer" class="s0" d="m214.6 195.2l-9.2 54.8h-5.6l9.8-58.5 5 3.7z"/>
		<path id="Layer" fill-rule="evenodd" class="s1" d="m205.4 250.5h-5.6q-0.1 0-0.1 0-0.1 0-0.1-0.1-0.1 0-0.1 0-0.1 0-0.1-0.1 0 0-0.1-0.1 0 0 0-0.1 0 0 0-0.1 0 0 0-0.1l9.8-58.5q0.1-0.1 0.1-0.1 0-0.1 0-0.1 0.1-0.1 0.1-0.1 0.1-0.1 0.1-0.1 0.1 0 0.2 0 0 0 0.1 0 0.1 0 0.1 0 0.1 0 0.1 0.1l5 3.7q0.1 0 0.1 0.1 0.1 0 0.1 0.1 0 0 0 0.1 0 0.1 0 0.1l-9.2 54.9q0 0.1 0 0.1-0.1 0.1-0.2 0.2 0 0-0.1 0.1-0.1 0-0.2 0zm-5-1h4.6l9.1-54.1-4.1-3z"/>
		<path id="Layer" class="s0" d="m206.2 195.2h61.7l19.8-81.9c0 0-8.1 4.6-10.4 9.1-2.3 4.4-17.1 63.6-17.1 63.6h-54.8z"/>
		<path id="Layer" fill-rule="evenodd" class="s1" d="m267.9 195.7h-61.7q-0.1 0-0.2-0.1-0.1 0-0.2-0.1 0 0-0.1-0.1 0-0.1 0-0.2l-0.8-9.2q0 0 0-0.1 0 0 0-0.1 0.1 0 0.1-0.1 0 0 0-0.1 0.1 0 0.1 0 0.1-0.1 0.1-0.1 0.1 0 0.1 0 0.1 0 0.1 0h54.4c1.4-5.5 14.9-59 17-63.3 2.3-4.6 10.3-9.2 10.6-9.4q0.2 0 0.3 0 0.2 0 0.3 0.1 0.1 0.1 0.2 0.2 0 0.1 0 0.3l-19.8 81.9q0 0.1-0.1 0.1 0 0.1-0.1 0.2-0.1 0-0.1 0-0.1 0.1-0.2 0.1zm-61.3-1h60.9l19.5-80.4c-2.2 1.4-7.5 5-9.2 8.3-2.2 4.4-16.9 62.9-17 63.5q0 0.1-0.1 0.1 0 0.1-0.1 0.2 0 0-0.1 0-0.1 0.1-0.2 0.1h-54.3z"/>
		<path id="Layer" class="s0" d="m167.5 217.8l-4.2 12.1 8.7 4.5 6.2-16.6h-10.7z"/>
		<path id="Layer" fill-rule="evenodd" class="s1" d="m172 234.9q0 0-0.1 0 0 0 0 0 0 0-0.1 0 0 0 0 0l-8.7-4.5q-0.1-0.1-0.1-0.1-0.1-0.1-0.1-0.2-0.1-0.1-0.1-0.1 0-0.1 0.1-0.2l4.1-12.2q0 0 0.1-0.1 0-0.1 0.1-0.1 0 0 0.1-0.1 0.1 0 0.2 0h10.7q0 0 0.1 0 0 0 0.1 0.1 0.1 0 0.1 0 0.1 0.1 0.1 0.1 0 0.1 0 0.1 0 0.1 0 0.1 0 0.1 0 0.2 0 0 0 0.1l-6.2 16.6q0 0 0 0.1-0.1 0-0.1 0.1-0.1 0-0.1 0 0 0.1-0.1 0.1 0 0 0 0 0 0 0 0-0.1 0-0.1 0 0 0 0 0zm-8-5.2l7.8 4 5.7-15.4h-9.6z"/>
		<path id="Layer" class="s0" d="m187.6 228.9l-2.7 10.9 8.5 2.5 4.2-11.2-10-2.2z"/>
		<path id="Layer" fill-rule="evenodd" class="s1" d="m193.4 242.8q0 0 0 0-0.1 0-0.1 0 0 0 0 0 0 0 0 0l-8.6-2.5q-0.1-0.1-0.1-0.1-0.1-0.1-0.2-0.2 0 0 0-0.1-0.1-0.1 0-0.2l2.7-10.9q0.1-0.1 0.1-0.2 0.1-0.1 0.2-0.1 0-0.1 0.1-0.1 0.1 0 0.2 0l10 2.2q0 0.1 0.1 0.1 0 0 0 0 0.1 0.1 0.1 0.1 0.1 0 0.1 0.1 0 0 0 0.1 0 0 0 0.1 0 0.1 0 0.1 0 0.1 0 0.1l-4.2 11.2q0 0.1 0 0.1-0.1 0.1-0.1 0.1-0.1 0.1-0.2 0.1 0 0-0.1 0zm-7.9-3.4l7.6 2.3 3.8-10.2-8.9-2z"/>
		<path id="Layer" class="s1" d="m216.5 159.3c-0.9 0.3-29.3 6.4-33.1 9.8-3.7 3.4-19.5 48.8-19.5 48.8l14.9 5.8 26.8-40.9z"/>
		<path id="Layer" fill-rule="evenodd" class="s1" d="m178.8 224.2q-0.1 0-0.1 0 0 0 0 0 0 0-0.1 0 0 0 0 0l-14.8-5.9q-0.1 0-0.2 0 0-0.1-0.1-0.2 0-0.1 0-0.1 0-0.1 0-0.2c0.7-1.9 15.9-45.6 19.7-49 2.7-2.5 17.6-6.2 30.2-9.2 1.5-0.4 2.8-0.7 3-0.7q0-0.1 0.1-0.1 0.1 0 0.1 0 0.1 0.1 0.1 0.1 0.1 0 0.1 0.1 0.1 0 0.1 0.1 0 0 0.1 0.1 0 0.1 0 0.1-0.1 0.1-0.1 0.2l-10.9 23.5-26.9 41q0 0 0 0.1-0.1 0-0.1 0-0.1 0-0.1 0.1-0.1 0-0.1 0zm-14.3-6.5l14.1 5.5 26.6-40.6 10.5-22.7-2.1 0.5c-7.4 1.8-26.9 6.4-29.9 9-2.9 2.7-13.7 32.5-19.2 48.3z"/>
		<path id="Layer" class="s1" d="m261.7 166.7c0 0 1 16.2-9.7 18.2-10.7 2-41.2 1.1-41.2 1.1 0 0-7.4 36-12.4 47.6l-16.5-4.5c0 0 7.7-52.9 11.7-58.3 4-5.3 29.9-14 29.9-14z"/>
		<path id="Layer" fill-rule="evenodd" class="s1" d="m198.4 234h-0.1l-16.6-4.5q0 0-0.1-0.1-0.1 0-0.1-0.1-0.1 0-0.1-0.1 0-0.1 0-0.2c0.3-2.2 7.8-53.1 11.8-58.5 4.1-5.4 29-13.8 30.1-14.2q0.1 0 0.1 0 0 0 0.1 0 0 0 0 0 0 0 0.1 0l38.2 9.9q0.1 0.1 0.2 0.1 0 0 0.1 0.1 0 0 0 0.1 0.1 0.1 0.1 0.1c0 0.2 0.8 16.7-10.2 18.7-10 1.9-37.3 1.2-40.9 1.1-0.7 3.9-7.6 36.5-12.3 47.4q0 0 0 0.1-0.1 0-0.1 0-0.1 0.1-0.2 0.1 0 0-0.1 0zm-16.1-5.2q0.1 0 0.1-0.1h-0.1zm15.9 4.3c4.9-11.7 12.1-46.8 12.2-47.1q0-0.1 0-0.2 0.1 0 0.1-0.1 0.1 0 0.2-0.1 0 0 0.1 0c0.3 0 30.6 0.8 41.1-1.1 9.4-1.7 9.5-15.2 9.4-17.4l-37.8-9.8c-2 0.6-25.8 8.8-29.6 13.8-3.7 5-10.8 52.8-11.5 57.7z"/>
		<path id="Layer" class="s0" d="m206.7 90.7c-1.3-2-2-6.2-4.3-7q-1-0.4-1.9-0.6-1-0.2-1.9-0.3-1-0.2-2-0.1-1 0-2 0.1-0.2 0-0.4 0.1-0.3 0-0.5 0.1-0.2 0.1-0.4 0.2-0.2 0.1-0.4 0.3-0.3 0.2-0.5 0.6-0.2 0.3-0.3 0.7-0.1 0.3-0.2 0.7-0.1 0.4 0 0.8l-0.2 2.3q-0.1 0.3-0.1 0.7 0 0.3 0.1 0.6 0.1 0.4 0.2 0.7 0.2 0.3 0.4 0.6c1 0.8 2.6 0 3.9 0.4 1.3 0.4 1.8 1.8 2.7 2.6q0.3 0.4 0.6 0.7 0.4 0.3 0.7 0.6 0.3 0.3 0.7 0.7 0.3 0.3 0.6 0.7c-0.2-0.3 4.7-5.6 5.2-6.2z"/>
		<path id="Layer" fill-rule="evenodd" class="s1" d="m201.5 97.4q0 0-0.1 0-0.1 0-0.1-0.1-0.1 0-0.1 0-0.1-0.1-0.1-0.1-0.2-0.2-0.4-0.5-0.2-0.2-0.4-0.4-0.2-0.2-0.4-0.4-0.2-0.2-0.4-0.4-0.5-0.4-1-0.9-0.1-0.1-0.2-0.2-0.1-0.2-0.2-0.3-0.1-0.1-0.2-0.2-0.1-0.2-0.2-0.3-0.2-0.2-0.3-0.5-0.2-0.2-0.4-0.4-0.2-0.2-0.4-0.3-0.3-0.2-0.5-0.3-0.2 0-0.4 0-0.2-0.1-0.4-0.1-0.2 0-0.4 0-0.2 0-0.4 0.1-0.3 0-0.6 0-0.3 0-0.7 0-0.3-0.1-0.6-0.2-0.3-0.2-0.6-0.4-0.3-0.3-0.5-0.6-0.1-0.4-0.2-0.8-0.1-0.3-0.2-0.8 0-0.4 0.1-0.8l0.2-2.3q0-0.4 0-0.9 0.1-0.4 0.2-0.8 0.2-0.4 0.4-0.8 0.2-0.3 0.5-0.6 0.2-0.2 0.5-0.3 0.2-0.2 0.5-0.3 0.2 0 0.5-0.1 0.3-0.1 0.5-0.1 1-0.1 2.1-0.2 1 0 2 0.1 1 0.1 2 0.4 1 0.2 1.9 0.6c1.8 0.6 2.6 2.7 3.5 4.7q0.1 0.4 0.2 0.7 0.2 0.3 0.3 0.6 0.2 0.3 0.3 0.6 0.2 0.3 0.4 0.6 0 0.1 0 0.2 0.1 0.1 0.1 0.1 0 0.1-0.1 0.2 0 0.1 0 0.1c-0.2 0.2-0.5 0.5-0.9 1-1.1 1.2-3.9 4.3-4.3 5q0 0.1 0 0.1-0.1 0.1-0.1 0.2-0.1 0-0.2 0.1-0.1 0-0.2 0zm-6.2-6.4q0.2 0 0.3 0 0.1 0 0.2 0 0.2 0.1 0.3 0.1 0.1 0 0.2 0 0.4 0.2 0.7 0.4 0.3 0.1 0.6 0.4 0.3 0.2 0.5 0.5 0.2 0.3 0.4 0.6 0.1 0.1 0.2 0.2 0.1 0.2 0.2 0.3 0.1 0.1 0.2 0.2 0.1 0.1 0.2 0.2 0.4 0.5 0.9 0.8 0.1 0.2 0.3 0.3 0.2 0.2 0.3 0.4 0.2 0.1 0.4 0.3 0.1 0.2 0.3 0.3c0.6-0.7 1.7-2.1 4-4.6l0.7-0.7q-0.2-0.3-0.3-0.6-0.2-0.3-0.3-0.6-0.1-0.3-0.3-0.5-0.1-0.3-0.2-0.6c-0.8-1.9-1.5-3.8-2.9-4.3q-0.9-0.3-1.8-0.5-0.9-0.2-1.9-0.3-0.9-0.1-1.9-0.1-0.9 0-1.9 0.1-0.2 0-0.4 0.1-0.2 0-0.4 0.1-0.1 0.1-0.3 0.1-0.2 0.1-0.4 0.3-0.2 0.2-0.3 0.5-0.2 0.3-0.3 0.6-0.1 0.3-0.2 0.6 0 0.4 0 0.7l-0.2 2.3q0 0.3 0 0.6 0 0.3 0 0.6 0.1 0.2 0.2 0.5 0.1 0.3 0.3 0.5 0.2 0.1 0.4 0.2 0.2 0.1 0.5 0.1 0.2 0 0.5 0 0.2 0 0.4 0c0.3-0.1 0.5-0.1 0.8-0.1z"/>
		<path id="Layer" class="s2" d="m238.1 109.2l-31.3-20.9-8 7.7c0 0 24.4 31.3 32.8 28 8.5-3.3 6.5-14.8 6.5-14.8z"/>
		<path id="Layer" class="s1" d="m168.8 126.5h23.8v3.8c0 1.5-0.2 3-0.8 4.3-0.6 1.4-1.4 2.7-2.5 3.7-1 1-2.3 1.9-3.6 2.4-1.4 0.6-2.9 0.9-4.4 0.9h-1.2c-1.5 0-3-0.3-4.3-0.9-1.4-0.5-2.6-1.4-3.7-2.4-1-1-1.9-2.3-2.4-3.7-0.6-1.3-0.9-2.8-0.9-4.3v-3.8z"/>
		<path id="Layer" fill-rule="evenodd" class="s1" d="m181.3 142.1h-1.2c-1.5 0-3.1-0.3-4.5-0.9-1.4-0.6-2.7-1.5-3.8-2.6-1.1-1-2-2.3-2.6-3.8-0.6-1.4-0.9-2.9-0.9-4.5v-3.8q0-0.1 0-0.2 0.1-0.1 0.2-0.1 0-0.1 0.1-0.1 0.1-0.1 0.2-0.1h23.8q0.1 0 0.2 0.1 0.1 0 0.2 0.1 0.1 0 0.1 0.1 0 0.1 0 0.2v3.8c0 1.6-0.3 3.1-0.9 4.5-0.5 1.5-1.4 2.8-2.5 3.8-1.1 1.1-2.4 2-3.8 2.6-1.5 0.6-3 0.9-4.6 0.9zm-12-15.1v3.3c0.1 1.4 0.3 2.8 0.9 4.1 0.5 1.3 1.3 2.5 2.3 3.5 1 1 2.2 1.8 3.5 2.4 1.3 0.5 2.7 0.8 4.1 0.8h1.3c1.4 0 2.8-0.3 4.1-0.8 1.3-0.6 2.5-1.4 3.5-2.4 1-1 1.8-2.2 2.4-3.5 0.5-1.3 0.8-2.7 0.8-4.1v-3.3z"/>
		<path id="Layer" class="s0" d="m196.3 131.7c0 0-6.7 1.3-7.9 0.5-1.2-0.7-3.2-2.7-5-3.1-1.9-0.5-6.3-0.4-6.1 0.7 0.2 1 3 0.4 3.9 1.8 0 0-8.4-1.2-9 0.2-0.6 1.5-0.2 4.8 1.2 6.2 1.4 1.4 10.7 1.2 12.9 2 2.1 0.9 10.4 0 10.4 0z"/>
		<path id="Layer" fill-rule="evenodd" class="s1" d="m190 140.9q-0.5 0-1 0-0.5 0-1-0.1-0.5 0-0.9-0.1-0.5-0.1-1-0.2-0.6-0.2-1.3-0.3-0.6-0.1-1.3-0.2-0.7-0.1-1.3-0.1-0.7-0.1-1.3-0.1c-4.2-0.3-6.9-0.5-7.8-1.4-1.6-1.6-2-5.2-1.4-6.8 0.4-1 3-1.1 5.8-1q-0.2 0-0.3-0.1-0.1-0.1-0.2-0.2-0.1-0.1-0.1-0.2-0.1-0.1-0.1-0.3 0-0.1 0-0.2 0-0.1 0-0.2 0.1-0.1 0.1-0.2 0.1-0.1 0.2-0.2c1-0.9 4.8-0.8 6.4-0.4q0.5 0.2 1.1 0.4 0.5 0.3 1 0.5 0.5 0.3 1 0.7 0.5 0.3 0.9 0.7 0.1 0.1 0.3 0.2 0.1 0.1 0.3 0.2 0.1 0.1 0.3 0.3 0.2 0.1 0.3 0.2c0.7 0.4 4.4 0 7.5-0.6q0.1 0 0.2 0 0 0 0.1 0 0 0 0.1 0.1 0 0 0 0 0.1 0.1 0.1 0.1 0.1 0 0.1 0.1 0 0 0 0.1 0 0 0 0.1l0.4 8.3q0 0.1 0 0.1 0 0.1-0.1 0.2-0.1 0.1-0.2 0.1 0 0.1-0.1 0.1c-0.3 0-3.8 0.4-6.8 0.4zm-14.6-9.3q0 0 0 0 0 0 0 0zm-2.7 0.4c-0.5 1.2-0.2 4.4 1.1 5.7 0.7 0.7 4.4 0.9 7.1 1.1q0.7 0 1.4 0.1 0.7 0 1.4 0.1 0.7 0.1 1.4 0.2 0.7 0.2 1.4 0.3c1.6 0.7 7.1 0.3 9.7 0l-0.3-7.2c-1.9 0.3-6.5 1-7.7 0.3-0.4-0.2-0.8-0.6-1.3-0.9q-0.4-0.4-0.8-0.7-0.5-0.3-0.9-0.6-0.5-0.2-0.9-0.4-0.5-0.3-1-0.4c-1.8-0.5-4.9-0.3-5.5 0.1q0.2 0.1 0.3 0.1 0.1 0.1 0.3 0.1 0.1 0 0.2 0 0.2 0.1 0.3 0.1 0.4 0 0.8 0.1 0.4 0.1 0.7 0.2 0.4 0.2 0.7 0.4 0.3 0.3 0.5 0.6 0.1 0.1 0.1 0.2 0 0.2 0 0.3-0.1 0.1-0.3 0.2-0.1 0-0.2 0-0.7-0.1-1.5-0.1-0.7-0.1-1.4-0.2-0.7 0-1.4 0-0.7-0.1-1.4-0.1c-1.6 0-2.6 0.2-2.8 0.4z"/>
		<path id="Layer" class="s0" d="m245.1 54.2q-0.1-0.1-0.3-0.2-0.2 0-0.4-0.1-0.2 0-0.4 0-0.2-0.1-0.4-0.1c-2.1-0.3-2.1 0.2-3.8-1.2q-0.9-0.7-1.9-1.3-1-0.5-2.1-0.9-1.1-0.5-2.2-0.7-1.2-0.3-2.3-0.3c-6-0.4-10.5 2.6-9 9.2q0.2 1 0.6 1.9 0.3 1 0.7 1.9 0.5 0.9 1 1.8 0.6 0.8 1.2 1.6c3.4 4.7 8.2 9 14 9.4 1.7 0.2 4.9 0 6.2-1.4q1.3-1.5 2.2-3.3 0.9-1.8 1.3-3.7 0.4-2 0.4-4-0.1-2-0.7-3.9-0.1-0.4-0.3-0.8-0.2-0.4-0.4-0.8-0.2-0.4-0.4-0.7-0.2-0.4-0.5-0.7-0.2-0.3-0.5-0.5-0.3-0.3-0.6-0.5-0.3-0.2-0.7-0.4-0.3-0.2-0.7-0.3z"/>
		<path id="Layer" fill-rule="evenodd" class="s1" d="m240.8 75.8c-0.6 0-1 0-1.1 0-6.5-0.5-11.4-5.5-14.4-9.6q-0.6-0.9-1.2-1.7-0.5-0.9-1-1.9-0.4-0.9-0.8-1.9-0.3-0.9-0.6-2c-0.6-2.9-0.1-5.4 1.4-7.1 1.7-2 4.6-2.9 8.2-2.7q1.2 0.1 2.4 0.3 1.2 0.3 2.3 0.7 1.1 0.5 2.2 1.1 1 0.5 2 1.3c1 0.9 1.2 0.9 2.1 0.9 0.4 0 0.8 0 1.3 0.1q0.3 0.1 0.5 0.1 0.2 0 0.4 0.1 0.2 0 0.4 0.1 0.2 0.1 0.4 0.2 0.4 0.1 0.8 0.3 0.3 0.2 0.7 0.4 0.3 0.2 0.6 0.5 0.3 0.3 0.6 0.6 0.3 0.3 0.5 0.7 0.3 0.4 0.5 0.8 0.2 0.4 0.4 0.8 0.1 0.4 0.3 0.8 0.6 2 0.7 4.1 0.1 2.1-0.4 4.1-0.4 2-1.3 3.9-1 1.8-2.3 3.4c-1.3 1.4-4.1 1.6-5.6 1.6zm-10.6-26c-2.8 0-5 0.9-6.3 2.4-1.4 1.5-1.7 3.7-1.2 6.3q0.2 1 0.6 1.9 0.3 0.9 0.8 1.8 0.4 0.9 0.9 1.7 0.5 0.8 1.2 1.6c2.8 4 7.5 8.8 13.6 9.2 2.1 0.2 4.8-0.1 5.8-1.2q1.3-1.5 2.2-3.2 0.8-1.7 1.2-3.6 0.4-1.9 0.3-3.9 0-1.9-0.6-3.7-0.1-0.4-0.3-0.8-0.1-0.4-0.3-0.7-0.2-0.4-0.4-0.7-0.2-0.4-0.5-0.7-0.2-0.2-0.5-0.5-0.2-0.2-0.5-0.4-0.3-0.2-0.6-0.4-0.3-0.1-0.6-0.2-0.2-0.1-0.3-0.2-0.2 0-0.4-0.1-0.2 0-0.4-0.1-0.1 0-0.3 0-0.8-0.1-1.3-0.1-0.4 0-0.8-0.1-0.3 0-0.7-0.2-0.4-0.1-0.7-0.4-0.3-0.2-0.6-0.5-0.9-0.7-1.9-1.3-0.9-0.5-2-0.9-1-0.4-2.1-0.6-1.2-0.3-2.3-0.4-0.5 0-1 0z"/>
		<path id="Layer" class="s0" d="m229.5 80.4v9.1q0.5 1.1 1.4 1.9 0.8 0.9 1.9 1.4 1.2 0.4 2.4 0.5 1.2 0.1 2.4-0.3c5.9-1.5 6.6-5.8 6.6-5.8l-0.2-16.9c0 0-4.5-2.3-3.3-11.9q-1.8 0.8-3.7 1.4-1.9 0.5-3.9 0.8-1.9 0.3-3.9 0.3-2 0.1-4-0.2c-1.3-0.1-1.8 10.6-1.2 15.2 0.7 4.5 5.4 4.4 5.5 4.5z"/>
		<path id="Layer" fill-rule="evenodd" class="s1" d="m235.4 93.7q-1 0-2-0.3-0.9-0.2-1.8-0.8-0.8-0.5-1.5-1.3-0.6-0.7-1.1-1.7 0 0 0 0 0 0 0 0 0-0.1 0-0.1 0 0 0 0v-8.7c-3.1-0.4-5-2.1-5.4-4.8-0.6-4.7 1.1-14.9 1.2-15.3q0-0.1 0-0.2 0.1-0.1 0.2-0.2 0 0 0.1 0 0.1-0.1 0.2-0.1 1.9 0.3 3.9 0.2 1.9 0 3.8-0.3 2-0.3 3.8-0.8 1.9-0.5 3.7-1.3 0 0 0.1-0.1 0.1 0 0.1 0 0.1 0 0.2 0 0 0.1 0.1 0.1 0 0 0.1 0.1 0 0 0.1 0.1 0 0.1 0 0.1 0 0.1 0 0.2c-1.1 9.1 3 11.4 3 11.4q0.1 0 0.1 0.1 0.1 0 0.1 0.1 0 0 0 0.1 0.1 0.1 0.1 0.1l0.2 16.9c0 0.2-0.8 4.7-7 6.2q-0.3 0.1-0.6 0.2-0.3 0-0.5 0.1-0.3 0-0.6 0-0.3 0-0.6 0zm-5.4-4.4c0.3 0.7 2.4 4.5 7.4 3.2 5.6-1.4 6.3-5.3 6.4-5.4l-0.3-16.5c-1-0.6-4.1-3.4-3.4-11.4q-1.7 0.7-3.5 1.2-1.7 0.5-3.6 0.7-1.8 0.3-3.7 0.3-1.8 0.1-3.6-0.1c-0.4 2.1-1.7 10.6-1.1 14.5 0.3 2.4 2 3.8 4.8 4q0 0 0.1 0 0.1 0 0.1 0.1 0.1 0 0.1 0 0.1 0 0.1 0.1 0.1 0 0.1 0 0 0.1 0.1 0.1 0 0.1 0 0.1 0 0.1 0 0.1z"/>
		<path id="Layer" class="s0" d="m240.5 70.1q0-0.3 0.2-0.6 0.1-0.3 0.2-0.6 0.2-0.2 0.4-0.5 0.2-0.2 0.5-0.4 0.2-0.2 0.4-0.4 0.3-0.1 0.6-0.2 0.2-0.2 0.5-0.3 0.3-0.1 0.5-0.2 0.2-0.1 0.3-0.1 0.2-0.1 0.4-0.1 0.1 0 0.3 0 0.1 0 0.3 0 0.1 0 0.2 0 0.1 0 0.2 0.1 0.1 0 0.2 0.1 0.2 0 0.3 0.1 0.2 0.1 0.4 0.2 0.2 0.2 0.4 0.4 0.2 0.2 0.3 0.4 0.2 0.2 0.3 0.5 0.1 0.2 0.1 0.4 0 0.2 0.1 0.4 0 0.2 0 0.4-0.1 0.2-0.1 0.5 0 0.2-0.1 0.4 0 0.3-0.1 0.5 0 0.2-0.1 0.4-0.1 0.3-0.1 0.5-0.4 0.9-1.1 1.5-0.6 0.7-1.5 1.1-0.9 0.3-1.8 0.3-1 0-1.9-0.4"/>
		<path id="Layer" class="s1" d="m242.7 75.4q-0.3 0-0.5 0-0.3-0.1-0.6-0.1-0.2-0.1-0.5-0.1-0.2-0.1-0.5-0.2-0.1-0.1-0.1-0.1-0.1-0.1-0.1-0.2-0.1-0.1-0.1-0.2 0-0.1 0.1-0.2 0-0.1 0.1-0.1 0.1-0.1 0.2-0.1 0-0.1 0.1-0.1 0.1 0 0.2 0.1 0.4 0.1 0.8 0.2 0.4 0.1 0.9 0.1 0.4 0 0.8-0.1 0.4-0.1 0.8-0.2 0.4-0.2 0.7-0.4 0.4-0.3 0.7-0.6 0.3-0.3 0.5-0.6 0.2-0.4 0.4-0.7 0.1-0.2 0.1-0.4 0.1-0.2 0.2-0.5 0-0.2 0-0.4 0.1-0.2 0.1-0.4 0-0.2 0-0.4 0.1-0.2 0-0.3 0-0.2 0-0.4 0-0.2-0.1-0.4-0.1-0.2-0.2-0.4-0.1-0.1-0.3-0.3-0.1-0.1-0.3-0.3-0.2-0.1-0.4-0.2-0.1 0-0.2-0.1 0 0-0.1-0.1-0.1 0-0.2 0-0.1 0-0.2 0-0.1 0-0.2 0-0.2 0-0.3 0-0.1 0-0.2 0.1-0.2 0-0.3 0.1-0.2 0.1-0.5 0.2-0.2 0.1-0.5 0.2-0.2 0.1-0.5 0.3-0.2 0.1-0.4 0.3-0.2 0.2-0.4 0.4-0.2 0.2-0.3 0.4-0.1 0.2-0.2 0.5-0.1 0.2-0.2 0.5-0.1 0.2-0.2 0.3-0.2 0.1-0.4 0.1-0.2-0.1-0.3-0.3-0.1-0.1-0.1-0.3 0.1-0.4 0.2-0.7 0.1-0.3 0.3-0.6 0.2-0.3 0.5-0.6 0.2-0.3 0.5-0.5 0.2-0.2 0.5-0.4 0.2-0.1 0.5-0.3 0.3-0.1 0.6-0.2 0.3-0.2 0.6-0.3 0.2 0 0.3-0.1 0.2 0 0.4-0.1 0.2 0 0.4 0 0.2 0 0.4 0 0.1 0 0.2 0 0.2 0.1 0.3 0.1 0.1 0 0.2 0.1 0.2 0.1 0.3 0.1 0.3 0.2 0.5 0.3 0.3 0.2 0.5 0.4 0.2 0.3 0.4 0.5 0.1 0.3 0.3 0.6 0 0.2 0.1 0.5 0 0.2 0 0.4 0.1 0.3 0 0.5 0 0.3 0 0.5 0 0.3-0.1 0.5 0 0.3-0.1 0.5 0 0.3-0.1 0.5-0.1 0.3-0.2 0.5-0.2 0.5-0.5 0.9-0.3 0.4-0.6 0.8-0.4 0.3-0.8 0.6-0.5 0.3-0.9 0.5-0.3 0.1-0.5 0.2-0.2 0-0.5 0.1-0.2 0-0.5 0.1-0.2 0-0.5 0z"/>
		<path id="Layer" class="s0" d="m229.8 66.8c0 0-3.2 4.6-2.5 5.4 0.7 0.8 2.8 0.4 2.8 0.4"/>
		<path id="Layer" class="s1" d="m228.9 73.2q-0.3 0-0.6 0-0.2 0-0.5-0.1-0.2-0.1-0.4-0.2-0.3-0.2-0.5-0.4c-0.8-0.9 0.9-3.8 2.5-6q0.1-0.1 0.3-0.2 0.3 0 0.4 0.1 0.2 0.1 0.2 0.3 0.1 0.3-0.1 0.4c-1.5 2.1-2.6 4.4-2.5 4.9 0.4 0.4 1.7 0.2 2.3 0.1q0.1 0 0.2 0 0.1 0 0.2 0.1 0.1 0 0.1 0.1 0.1 0.1 0.1 0.2 0 0.1 0 0.2 0 0.1 0 0.2-0.1 0.1-0.2 0.1-0.1 0.1-0.2 0.1-0.1 0-0.3 0-0.2 0.1-0.3 0.1-0.2 0-0.4 0-0.2 0-0.3 0z"/>
		<path id="Layer" class="s1" d="m232.5 66.9c-0.5 0-0.8-0.5-0.9-1.1 0-0.6 0.3-1.1 0.7-1.1 0.5 0 0.8 0.4 0.9 1 0 0.6-0.3 1.1-0.7 1.2z"/>
		<path id="Layer" class="s1" d="m226.5 65.9c0 0.6-0.4 1-0.8 1-0.5 0-0.8-0.5-0.7-1.1 0-0.6 0.4-1.1 0.8-1.1 0.4 0.1 0.7 0.6 0.7 1.2z"/>
		<path id="Layer" class="s1" d="m229.7 76q-0.4 0-0.7 0-0.3 0-0.6 0-0.3-0.1-0.6-0.1-0.4 0-0.7-0.1-0.1 0-0.2 0 0-0.1-0.1-0.2-0.1-0.1-0.1-0.2 0-0.1 0-0.2 0-0.1 0.1-0.1 0-0.1 0.1-0.2 0.1 0 0.2-0.1 0.1 0 0.2 0c0.1 0 5.1 0.8 7.5-1.1q0.1-0.1 0.2-0.1 0 0 0.1 0 0.1 0 0.2 0 0.1 0.1 0.2 0.1 0.1 0.1 0.1 0.2 0 0.1 0 0.2 0 0.1-0.1 0.2 0 0.1-0.1 0.1c-1.6 1.3-3.9 1.6-5.7 1.6z"/>
		<path id="Layer" class="s1" d="m229.5 80.4c0 0 5.6 1.3 9-0.6 0 0-3.7 7.6-9 6.8z"/>
		<path id="Layer" fill-rule="evenodd" class="s1" d="m230.3 87.2q-0.1 0-0.3 0-0.1 0-0.2-0.1-0.1 0-0.2 0-0.1 0-0.2 0-0.1 0-0.2-0.1 0 0-0.1-0.1-0.1 0-0.1-0.1 0-0.1 0-0.2v-6.2q0-0.1 0-0.2 0.1-0.1 0.2-0.2 0.1-0.1 0.2-0.1 0.1 0 0.2 0c0 0 5.5 1.2 8.6-0.6q0.2 0 0.3 0 0.2 0 0.3 0.1 0.1 0.1 0.2 0.3 0 0.1-0.1 0.3c-0.1 0.3-3.5 7.2-8.6 7.2zm-0.3-1c3.4 0.1 6.1-3.4 7.3-5.4q-0.9 0.2-1.8 0.4-0.9 0.1-1.8 0.1-1 0-1.9 0-0.9-0.1-1.8-0.3z"/>
		<path id="Layer" class="s2" d="m248.6 84.4c-3.4-2.6-19.4-1.1-22.8 5.3-3.5 6.4-5.4 66.1-5.4 66.1l43.1 14c0 0 1.2-59.1-3.8-70.3-5.1-11.3-7.7-12.4-11.1-15.1z"/>
		<path id="Layer" class="s2" d="m229.5 97.6l-3.8 26.3-30.9 7.3-1.2 10.3c0 0 42.2 3.4 46.9-2.6 4.8-6 8.3-37.2 8.3-37.2z"/>
		<path id="Layer" class="s1" d="m203.6 129.6q-0.3 0-0.4-0.1-0.2-0.2-0.2-0.4 0-0.2 0.1-0.3 0.1-0.2 0.3-0.2l21.9-5.2 3.7-21.5q0-0.1 0.1-0.2 0-0.1 0.1-0.1 0.1-0.1 0.2-0.1 0.1 0 0.2 0 0.1 0 0.2 0.1 0 0 0.1 0.1 0.1 0.1 0.1 0.2 0 0.1 0 0.2l-3.7 21.8q-0.1 0.1-0.1 0.2 0 0-0.1 0.1 0 0.1-0.1 0.1-0.1 0-0.1 0l-22.2 5.3z"/>
		<path id="Layer" class="s1" d="m222 143q-0.2 0-0.4-0.1-0.1-0.2-0.1-0.4 0-0.2 0.1-0.4 0.2-0.1 0.4-0.1c0.1 0 13.6-0.1 19.4-5.7 8.9-8.6 6.2-28.6 6.2-28.8q0-0.1 0-0.2 0-0.1 0.1-0.2 0-0.1 0.1-0.1 0.1-0.1 0.2-0.1 0.1 0 0.2 0 0.1 0 0.2 0.1 0.1 0.1 0.1 0.1 0.1 0.1 0.1 0.2c0.1 0.9 2.7 20.8-6.5 29.7-6.1 5.9-19.6 6-20.1 6z"/>
		<path id="Layer" class="s1" d="m222 123.2q-0.1 0-0.2 0-0.1-0.1-0.1-0.2-0.1 0-0.1-0.1-0.1-0.1-0.1-0.2c0.1-1.2 2.3-28.2 3-30.7q0.1-0.2 0.3-0.3 0.2-0.1 0.4 0 0.2 0 0.3 0.2 0.1 0.2 0 0.4c-0.6 1.9-2.2 20.7-3 30.5q0 0.1-0.1 0.1 0 0.1-0.1 0.2 0 0-0.1 0.1-0.1 0-0.2 0z"/>
		<path id="Layer" class="s0" d="m191 70.9l12.8 3.3-6.2 24.2q-0.2 0.7-0.6 1.3-0.5 0.5-1.1 0.9-0.6 0.3-1.3 0.4-0.7 0.1-1.4 0l-5.9-1.6q-0.6-0.1-1.2-0.6-0.6-0.4-0.9-1-0.4-0.6-0.5-1.3-0.1-0.7 0.1-1.4l6.2-24.2c-211.8-128.9-211.8-128.9-211.8-128.9z"/>
		<path id="Layer" fill-rule="evenodd" class="s1" d="m194.1 101.6q-0.1 0-0.2 0-0.2 0-0.3 0-0.1 0-0.2-0.1-0.2 0-0.3 0l-5.9-1.5q-0.8-0.2-1.4-0.7-0.7-0.5-1.1-1.2-0.4-0.6-0.5-1.4-0.1-0.8 0.1-1.6l6.3-24.3q0-0.1 0-0.1 0.1-0.1 0.2-0.2 0.1 0 0.2 0 0.1-0.1 0.2 0l12.7 3.3q0 0 0.1 0 0 0 0.1 0 0 0.1 0.1 0.1 0 0 0 0.1 0 0 0 0.1 0 0 0 0.1 0 0 0 0.1 0 0 0 0.1l-6.2 24.2q-0.2 0.6-0.5 1.2-0.4 0.6-0.9 1-0.6 0.4-1.2 0.6-0.6 0.2-1.3 0.2zm-2.7-30.1l-6.1 23.8q-0.2 0.6-0.1 1.2 0.1 0.6 0.4 1.1 0.3 0.5 0.8 0.9 0.5 0.3 1 0.5l5.9 1.5q0.6 0.1 1.2 0.1 0.6-0.1 1.1-0.4 0.6-0.3 0.9-0.8 0.4-0.5 0.5-1.1l6.1-23.8z"/>
		<path id="Layer" class="s2" d="m194 98.7l-6-1.5q-0.3-0.1-0.6-0.3-0.2-0.2-0.4-0.5-0.1-0.3-0.2-0.6 0-0.3 0.1-0.6l3.4-13h9.6l-3.9 15.4q-0.1 0.3-0.3 0.5-0.2 0.3-0.5 0.4-0.3 0.2-0.6 0.2-0.3 0.1-0.6 0z"/>
		<path id="Layer" class="s0" d="m203.8 86.9q0-0.3-0.1-0.7 0-0.3-0.1-0.6-0.1-0.3-0.2-0.6-0.2-0.3-0.3-0.6 0-0.2-0.1-0.3-0.1-0.2-0.2-0.3-0.1-0.1-0.2-0.2-0.2-0.1-0.3-0.2-0.1 0-0.2 0-0.1 0-0.1 0-0.1 0-0.2 0-0.1 0-0.2 0-0.7 0-1.4 0.1-0.7 0-1.4 0.2-0.7 0.1-1.4 0.3-0.7 0.1-1.3 0.4-0.1 0-0.2 0-0.1 0.1-0.2 0.2-0.1 0-0.2 0.1-0.1 0-0.2 0.1c-0.7 0.6-0.1 1.5 0.5 1.9q0.2 0 0.3 0.1 0.2 0.1 0.4 0.1 0.1 0 0.3 0.1 0.1 0 0.3 0 0.4 0.1 0.9 0.1 0.4 0 0.8 0 0.4-0.1 0.9-0.1 0.4-0.1 0.8-0.1-0.4 0.4-0.6 1-0.2 0.7-0.1 1.3 0.1 0.6 0.5 1.2 0.4 0.5 1 0.8l0.2-0.1"/>
		<path id="Layer" class="s1" d="m201.3 91.7q-0.1 0-0.1 0 0 0 0 0-0.1 0-0.1 0 0 0-0.1 0-0.3-0.2-0.6-0.5-0.3-0.2-0.5-0.5-0.2-0.3-0.4-0.6-0.1-0.4-0.2-0.8 0-0.2 0-0.4 0-0.2 0-0.5 0-0.2 0.1-0.4 0-0.2 0.1-0.5-0.3 0.1-0.6 0.1-0.3 0-0.6 0-0.3 0-0.6 0-0.3 0-0.6-0.1-0.2 0-0.4 0-0.2 0-0.4-0.1-0.2 0-0.3-0.1-0.2 0-0.4-0.1-0.2-0.1-0.4-0.3-0.2-0.1-0.3-0.3-0.2-0.2-0.3-0.4-0.1-0.2-0.1-0.5 0-0.1 0-0.3 0-0.2 0.1-0.3 0-0.2 0.1-0.3 0.1-0.2 0.2-0.3 0.1-0.1 0.3-0.2 0.1-0.1 0.2-0.1 0.1-0.1 0.3-0.1 0.1-0.1 0.2-0.1 0.7-0.3 1.4-0.5 0.7-0.2 1.4-0.3 0.8-0.1 1.5-0.2 0.7-0.1 1.4-0.1 0.1 0 0.2 0 0.2 0 0.3 0 0.1 0 0.2 0 0.1 0 0.2 0.1 0.2 0.1 0.4 0.2 0.1 0.1 0.3 0.3 0.1 0.1 0.2 0.3 0.1 0.2 0.2 0.4 0.1 0.3 0.3 0.6 0.1 0.3 0.2 0.7 0.1 0.3 0.1 0.7 0.1 0.3 0.2 0.6 0 0.1-0.1 0.2 0 0.1 0 0.2-0.1 0.1-0.2 0.1-0.1 0.1-0.2 0.1-0.1 0-0.2 0-0.1 0-0.2-0.1 0-0.1-0.1-0.1 0-0.1 0-0.2-0.1-0.3-0.1-0.6-0.1-0.3-0.2-0.6-0.1-0.3-0.2-0.6-0.1-0.3-0.2-0.6c-0.1-0.3-0.3-0.6-0.6-0.7q0 0-0.1 0 0 0-0.1 0-0.1 0-0.1 0-0.1 0-0.1 0-0.7 0-1.4 0.1-0.7 0.1-1.4 0.2-0.6 0.1-1.3 0.3-0.7 0.2-1.3 0.4-0.1 0-0.2 0.1-0.1 0-0.1 0.1-0.1 0-0.2 0-0.1 0.1-0.1 0.1-0.1 0.1-0.1 0.1-0.1 0.1-0.1 0.1 0 0.1 0 0.1 0 0.1 0 0.1 0 0.1 0.1 0.2 0 0.1 0.1 0.2 0.1 0.1 0.2 0.2 0.1 0.1 0.2 0.1 0.1 0.1 0.3 0.1 0.1 0.1 0.2 0.1 0.2 0 0.3 0 0.1 0.1 0.3 0.1 0.4 0 0.8 0 0.4 0 0.8 0 0.4 0 0.8 0 0.4-0.1 0.8-0.2 0.1 0 0.2 0 0.1 0 0.1 0.1 0.1 0 0.2 0.1 0 0 0.1 0.1 0 0 0 0.1 0 0.1 0 0.2 0 0.1 0 0.1-0.1 0.1-0.1 0.2-0.2 0.2-0.3 0.4-0.1 0.2-0.2 0.5-0.1 0.2-0.1 0.5 0 0.2 0 0.5 0.1 0.2 0.2 0.4 0 0.3 0.2 0.5 0.1 0.1 0.3 0.3 0.1 0.2 0.3 0.3 0.1 0 0.2 0 0.1 0 0.2 0 0.1 0 0.2 0.1 0.1 0.1 0.1 0.2 0 0.1 0 0.2 0 0.1 0 0.2-0.1 0.1-0.2 0.1 0 0.1-0.1 0.1l-0.3 0.1z"/>
		<path id="Layer" class="s1" d="m163.3 229.9c0 0-16.7-1.2-17.4 0q-0.1 0.4-0.3 0.7-0.1 0.3-0.2 0.7-0.1 0.3-0.2 0.6 0 0.4 0 0.7c-0.1 0.3 23.6 10.4 24.4 9.7 0.9-0.8 2.4-7.9 2.4-7.9z"/>
		<path id="Layer" fill-rule="evenodd" class="s1" d="m169.6 242.7c-1 0-5.2-1.1-24.6-9.7q-0.1 0-0.1 0-0.1-0.1-0.1-0.1-0.1-0.1-0.1-0.2 0 0 0-0.1 0-0.4 0.1-0.7 0.1-0.4 0.2-0.8 0.1-0.3 0.2-0.7 0.2-0.3 0.3-0.7c0.7-1.2 10.1-0.7 17.9-0.2q0 0 0 0 0 0 0.1 0 0 0 0 0 0 0 0 0.1l8.7 4.4q0.1 0 0.1 0.1 0.1 0 0.1 0.1 0 0.1 0 0.1 0 0.1 0 0.2c-0.3 1.7-1.6 7.3-2.5 8.1 0 0.1-0.1 0.1-0.3 0.1zm-24-10.3c8.5 3.7 22.1 9.4 23.8 9.5 0.5-0.6 1.4-4.1 2.1-7.2l-8.3-4.3c-7.8-0.6-16.2-0.8-17-0.2q-0.1 0.3-0.2 0.5-0.1 0.3-0.2 0.6-0.1 0.2-0.1 0.5 0 0.3-0.1 0.6z"/>
		<path id="Layer" class="s1" d="m193.4 242.3c0 0 0.2 6.4-0.6 7.1-0.7 0.8-24.8 0.6-24.8 0.6q0-0.3 0.1-0.7 0-0.3 0.1-0.6 0.1-0.4 0.1-0.7 0.1-0.3 0.2-0.7c0.3-1 16.4-7.5 16.4-7.5"/>
		<path id="Layer" class="s1" d="m176.4 250.4c-3 0-6 0-8.4 0q-0.1 0-0.1 0-0.1 0-0.1 0-0.1 0-0.1 0 0-0.1-0.1-0.1 0 0 0-0.1 0 0-0.1-0.1 0 0 0-0.1 0 0 0-0.1 0.1-0.3 0.1-0.6 0.1-0.4 0.1-0.7 0.1-0.4 0.2-0.7 0-0.4 0.1-0.7c0.3-1 9.2-4.8 16.7-7.8q0.1 0 0.2 0 0 0 0.1 0 0.1 0 0.2 0.1 0 0.1 0.1 0.1 0 0.1 0 0.2 0 0.1 0 0.2-0.1 0.1-0.1 0.1-0.1 0.1-0.2 0.1c-7.4 3-15.6 6.6-16.2 7.3q0 0.3-0.1 0.5 0 0.3-0.1 0.5 0 0.3-0.1 0.5 0 0.3 0 0.6c9 0 23 0 24.1-0.5 0.3-0.4 0.4-3.8 0.4-6.7q0-0.2 0.1-0.4 0.1-0.1 0.3-0.1 0.2 0 0.3 0.1 0.1 0.2 0.1 0.4c0.1 2 0.1 6.6-0.7 7.4-0.5 0.5-8.7 0.6-16.7 0.6z"/>
		<path id="Layer" class="s0" d="m259.7 195.2l12.4 54.8h4.8l-11.2-54.8h-6z"/>
		<path id="Layer" fill-rule="evenodd" class="s1" d="m276.9 250.5h-4.8q-0.1 0-0.2 0-0.1-0.1-0.2-0.1 0-0.1-0.1-0.1 0-0.1 0-0.2l-12.4-54.8q-0.1-0.1 0-0.2 0-0.2 0.1-0.2 0-0.1 0.1-0.2 0.1 0 0.3 0h6q0 0 0.1 0 0.1 0 0.2 0.1 0 0 0.1 0.1 0 0.1 0.1 0.2l11.2 54.8q0 0 0 0.1 0 0.1 0 0.1 0 0.1 0 0.1-0.1 0.1-0.1 0.1 0 0.1-0.1 0.1 0 0-0.1 0 0 0.1-0.1 0.1 0 0-0.1 0zm-4.4-1h3.8l-11-53.8h-5z"/>
		<path id="Layer" class="s0" d="m205.3 147.6l19.7 106.7h5.4l-18.1-106.7h-7z"/>
		<path id="Layer" fill-rule="evenodd" class="s1" d="m230.4 254.8h-5.4q-0.1 0-0.2 0-0.1 0-0.1-0.1-0.1-0.1-0.1-0.1-0.1-0.1-0.1-0.2l-19.7-106.7q0-0.1 0-0.2 0.1-0.1 0.1-0.2 0.1-0.1 0.2-0.1 0.1-0.1 0.2-0.1h7q0.1 0 0.2 0.1 0.1 0 0.1 0.1 0.1 0 0.1 0.1 0.1 0.1 0.1 0.1l18 106.7q0 0.1 0 0.1 0 0.1 0 0.1 0 0.1-0.1 0.1 0 0.1 0 0.1 0 0.1-0.1 0.1 0 0-0.1 0.1 0 0 0 0-0.1 0-0.1 0zm-5-1h4.4l-17.9-105.7h-6z"/>
		<path id="Layer" class="s0" d="m109.6 147.6l-19.7 106.7h-5.4l18.1-106.7h7z"/>
		<path id="Layer" fill-rule="evenodd" class="s1" d="m89.9 254.8h-5.4q0 0-0.1 0 0 0-0.1 0 0-0.1-0.1-0.1 0 0-0.1-0.1 0 0 0-0.1 0 0-0.1-0.1 0 0 0-0.1 0 0 0-0.1l18-106.7q0 0 0.1-0.1 0-0.1 0.1-0.1 0.1-0.1 0.1-0.1 0.1-0.1 0.2-0.1h7q0.1 0 0.2 0.1 0.1 0 0.2 0.1 0.1 0.1 0.1 0.2 0 0.1 0 0.2l-19.6 106.7q0 0.1 0 0.2-0.1 0-0.1 0.1-0.1 0.1-0.2 0.1-0.1 0-0.2 0zm-4.8-1h4.4l19.5-105.7h-6z"/>
		<path id="Layer" class="s2" d="m59.2 102.1c0 0 9.9 21.6 15 23.7 5.1 2 31.1 4.9 31.1 4.9l2.5 11c0 0-33.1 5.2-46.6 1.3-13.6-3.9-14.2-23.6-13.3-36.4 0.9-12.8 6.7-13.3 11.3-4.5z"/>
		<path id="Layer" class="s1" d="m73.2 145.2c-6 0-14-0.6-18.2-3.5-6.8-4.7-10.9-21.3-11.1-22q0-0.1 0-0.2 0-0.1 0.1-0.2 0-0.1 0.1-0.2 0.1 0 0.2 0 0.1-0.1 0.2-0.1 0.1 0.1 0.2 0.1 0.1 0.1 0.1 0.1 0.1 0.1 0.1 0.2c0 0.2 4.2 17 10.7 21.5 6.5 4.5 24.6 3 24.8 3q0.2 0 0.4 0.1 0.1 0.2 0.2 0.4 0 0.2-0.2 0.3-0.1 0.2-0.3 0.2c-0.3 0-3.4 0.3-7.3 0.3z"/>
		<path id="Layer" class="s0" d="m138.6 114.1h13.7v24.7q0 0.8-0.2 1.4-0.3 0.7-0.8 1.2-0.5 0.5-1.2 0.8-0.7 0.2-1.4 0.3h-6.5q-0.7-0.1-1.3-0.3-0.7-0.3-1.2-0.8-0.5-0.5-0.8-1.2-0.3-0.6-0.3-1.4v-24.7c-188.6-114.1-188.6-114.1-188.6-114.1z"/>
		<path id="Layer" fill-rule="evenodd" class="s1" d="m148.7 143h-6.4q-0.9 0-1.6-0.3-0.8-0.3-1.4-0.9-0.5-0.6-0.8-1.3-0.4-0.8-0.4-1.6v-24.8q0-0.1 0.1-0.2 0-0.1 0.1-0.1 0.1-0.1 0.1-0.2 0.1 0 0.2 0h13.7q0.1 0 0.2 0 0.1 0.1 0.2 0.2 0.1 0 0.1 0.1 0 0.1 0 0.2v24.7q0 0.9-0.3 1.6-0.3 0.8-0.8 1.4-0.6 0.6-1.4 0.9-0.7 0.3-1.6 0.3zm-9.6-28.3v24.2q0 0.6 0.3 1.2 0.2 0.5 0.7 1 0.4 0.4 1 0.7 0.5 0.2 1.1 0.2h6.5q0.6 0 1.2-0.2 0.6-0.3 1-0.7 0.5-0.4 0.7-1 0.2-0.6 0.2-1.2v-24.3z"/>
		<path id="Layer" class="s2" d="m140.5 121.1h10v16.7q0 0.5-0.2 1-0.2 0.4-0.6 0.8-0.3 0.4-0.8 0.6-0.5 0.1-1 0.2h-4.8q-0.5-0.1-1-0.2-0.5-0.2-0.8-0.6-0.4-0.4-0.6-0.8-0.2-0.5-0.2-1v-16.7c-190.5-121.1-190.5-121.1-190.5-121.1z"/>
		<path id="Layer" class="s1" d="m97.1 130.2c-0.7 0-15.9-0.4-23.1-4-7.3-3.6-15-23.1-15.3-24q0-0.1 0-0.2 0-0.1 0-0.2 0.1 0 0.1-0.1 0.1-0.1 0.2-0.1 0.1-0.1 0.2-0.1 0.1 0 0.2 0.1 0.1 0 0.2 0.1 0 0.1 0.1 0.2c0 0.2 7.7 20 14.7 23.4 7 3.4 22.5 3.9 22.7 3.9q0.2 0 0.3 0.1 0.2 0.2 0.2 0.4 0 0.2-0.2 0.3-0.1 0.2-0.3 0.2z"/>
		<path id="Layer" class="s1" d="m117.1 237.5c0 0 0.7 12.2 2.5 12.5 1.8 0.3 29.2-10.1 29.2-12.4 0-2.2-3-3.2-6.8-4.5-0.4-0.2-13.8-1.1-13.8-1.1z"/>
		<path id="Layer" fill-rule="evenodd" class="s1" d="m119.6 250.4h-0.1c-2-0.3-2.7-9.1-2.9-13q0 0 0-0.1 0-0.1 0.1-0.1 0-0.1 0.1-0.1 0-0.1 0.1-0.1l11.1-5.4q0 0 0.1 0 0 0 0 0 0 0 0.1 0 0 0 0 0c4 0.3 13.5 1 13.9 1.1l0.5 0.2c3.7 1.3 6.6 2.3 6.6 4.8q0 0.4-0.6 1c-3.4 2.8-26.2 11.7-29 11.7zm-2.1-12.7c0.4 6.3 1.4 11.7 2.1 11.9 1.8 0.2 28-9.9 28.7-12 0-1.8-2.6-2.8-6-4l-0.5-0.1c-0.5-0.1-8.3-0.7-13.5-1.1z"/>
		<path id="Layer" class="s0" d="m67.3 53.9c0 0 5.6 18 1.9 22-3.8 4.1-8.7 1.7-8.8 2-0.2 0.4 0 12.2 0 12.2l-12.5-4.7v-20.9c0-7.4 14-21.4 19.4-10.6z"/>
		<path id="Layer" fill-rule="evenodd" class="s1" d="m60.4 90.6q-0.1 0-0.1 0 0 0 0 0 0 0-0.1 0 0 0 0 0l-12.5-4.7q-0.1 0-0.1-0.1-0.1 0-0.1-0.1-0.1 0-0.1-0.1 0-0.1 0-0.1v-21c0-5.4 6.8-13.5 12.5-14.8 2.4-0.6 5.7-0.4 7.9 4 0.2 0.8 5.6 18.4 1.7 22.6-3.2 3.4-7.1 2.5-8.6 2.2h-0.1c-0.1 1.7 0 7.8 0 11.6q0 0.1 0 0.2 0 0 0 0.1 0 0-0.1 0.1 0 0-0.1 0.1 0 0 0 0-0.1 0-0.1 0 0 0-0.1 0 0 0 0 0zm-12-5.5l11.5 4.3c-0.2-11.4 0-11.6 0-11.8 0.3-0.3 0.6-0.2 1.2-0.1q1 0.3 2.1 0.4 1 0 2-0.3 1.1-0.2 2-0.7 0.9-0.5 1.6-1.3c2.9-3.1-0.4-16.6-2-21.5q-2.3-4.5-6.7-3.5c-5.6 1.4-11.7 9.4-11.7 13.9z"/>
		<path id="Layer" class="s0" d="m63.6 50.3q-1.9 1.1-3.5 2.7-1.7 1.6-2.9 3.5-1.2 2-1.9 4.1-0.7 2.1-0.9 4.4c-0.2 1.5-2.6-3.7-3.9-0.4-1.3 3.2-0.2 5.5 2.6 6.9 0 0 1.2 17.2-3.1 32-4.4 14.8-11 22-17.5 19.4-6.5-2.7-3.9-10-1.4-23.1 2.5-13.1 11.1-37.9 12.2-47 1.1-9.2 19.3-8.8 20.3-2.5z"/>
		<path id="Layer" fill-rule="evenodd" class="s1" d="m35.2 123.9q-0.4 0-0.8 0-0.3-0.1-0.7-0.1-0.4-0.1-0.7-0.2-0.4-0.1-0.7-0.3c-6-2.5-4.8-8.6-2.7-18.8q0.5-2.3 1-4.8c1.2-6.3 3.8-15.2 6.3-23.8 2.8-9.5 5.4-18.5 6-23.2 0.6-5.1 6.1-7.4 11.4-7.5 4.4 0 9.3 1.4 9.9 5q0 0.1 0 0.1-0.1 0.1-0.1 0.2 0 0.1-0.1 0.1 0 0.1-0.1 0.1c-0.1 0-8.2 4.6-9 14.3q0 0.2-0.1 0.3-0.1 0.1-0.3 0.2-0.1 0-0.3-0.1-0.1 0-0.2-0.2c-0.3-0.4-1.3-1.6-2.1-1.5-0.4 0-0.7 0.6-0.9 1-1.1 2.9-0.4 4.9 2.4 6.3q0 0 0.1 0 0 0.1 0.1 0.1 0 0.1 0 0.2 0.1 0 0.1 0.1c0 0.2 1.1 17.5-3.2 32.2-3.1 10.4-7.4 17.3-12 19.5q-0.4 0.2-0.8 0.4-0.4 0.1-0.8 0.2-0.5 0.1-0.9 0.2-0.4 0-0.8 0zm19.3-77.7h-0.2c-4.8 0.1-9.9 2.1-10.5 6.6-0.6 4.8-3.2 13.8-6 23.4-2.5 8.6-5 17.4-6.2 23.7q-0.5 2.5-1 4.8c-2.1 10-3.2 15.5 2 17.7q0.7 0.3 1.3 0.4 0.7 0.1 1.4 0.1 0.7 0 1.4-0.2 0.6-0.2 1.2-0.5c4.5-2.1 8.5-8.8 11.5-18.9 4-13.5 3.3-29.3 3.2-31.6-3-1.6-3.9-4.1-2.6-7.4 0.4-1 1-1.5 1.7-1.6q0.3 0 0.6 0.1 0.3 0 0.6 0.2 0.3 0.1 0.6 0.3 0.2 0.2 0.4 0.4 0.4-2.1 1.2-4.1 0.7-1.9 1.9-3.7 1.2-1.8 2.7-3.3 1.5-1.5 3.3-2.6c-0.6-2.5-4.6-3.8-8.5-3.8z"/>
		<path id="Layer" class="s0" d="m69.4 63.3c0 0 3 4.2 2.3 4.9-0.6 0.8-2.5 0.4-2.5 0.4"/>
		<path id="Layer" class="s1" d="m70.2 69.2q-0.1 0-0.3 0-0.1 0-0.3-0.1-0.1 0-0.3 0-0.1 0-0.3 0-0.1-0.1-0.3-0.3-0.1-0.2 0-0.4 0-0.2 0.2-0.3 0.2-0.1 0.4 0c0.6 0.1 1.7 0.1 2-0.2 0.1-0.4-1-2.4-2.4-4.3q0-0.1 0-0.2-0.1-0.1 0-0.2 0-0.1 0-0.2 0.1 0 0.2-0.1 0-0.1 0.1-0.1 0.1 0 0.2 0 0.1 0 0.2 0.1 0.1 0 0.2 0.1c1.4 2 3 4.6 2.3 5.5q-0.2 0.2-0.4 0.3-0.2 0.2-0.5 0.2-0.2 0.1-0.5 0.2-0.2 0-0.5 0z"/>
		<path id="Layer" class="s0" d="m68.3 71.5c0 0-3.6 4.9-6.2 0"/>
		<path id="Layer" class="s1" d="m64.8 74.2h-0.1q-1.8-0.1-3.1-2.5 0-0.1 0-0.2-0.1-0.1 0-0.2 0 0 0.1-0.1 0-0.1 0.1-0.2 0.1 0 0.2 0 0.1 0 0.2 0 0.1 0 0.2 0.1 0.1 0.1 0.1 0.1 1 1.9 2.2 2c1.6 0.1 3.1-2 3.1-2q0.2-0.2 0.4-0.2 0.2-0.1 0.3 0.1 0.2 0.1 0.2 0.3 0.1 0.2 0 0.3c-0.1 0.2-1.8 2.5-3.9 2.5z"/>
		<path id="Layer" class="s1" d="m65.2 60.3c-0.2 0-0.5-0.4-0.5-0.9-0.1-0.5 0.1-0.9 0.4-0.9 0.3-0.1 0.5 0.3 0.5 0.8 0.1 0.5-0.1 1-0.4 1z"/>
		<path id="Layer" class="s1" d="m60.4 77.9c0 0-3.9-0.9-5.1-2.4 0 0 0.3 6.5 5 10.3z"/>
		<path id="Layer" fill-rule="evenodd" class="s1" d="m60.3 86.3q0 0-0.1 0 0 0-0.1 0 0 0 0 0-0.1 0-0.1-0.1c-4.8-3.9-5.2-10.4-5.2-10.7q0-0.2 0.1-0.3 0.1-0.1 0.2-0.2 0.2 0 0.3 0 0.2 0.1 0.3 0.2c0.9 1.1 3.8 2 4.8 2.2q0.1 0 0.1 0.1 0.1 0 0.2 0.1 0 0.1 0 0.1 0.1 0.1 0.1 0.2l-0.1 7.9q0 0.1 0 0.2 0 0-0.1 0.1 0 0.1-0.1 0.1 0 0.1-0.1 0.1 0 0 0 0 0 0-0.1 0 0 0 0 0-0.1 0-0.1 0zm-4.3-9.6q0.2 1.1 0.5 2.2 0.3 1.1 0.8 2.1 0.5 1 1.2 2 0.6 0.9 1.4 1.7v-6.4q-0.5-0.1-1-0.3-0.5-0.2-1-0.4-0.5-0.2-1-0.4-0.4-0.2-0.9-0.5z"/>
	</g>
</svg>